%TF.GenerationSoftware,KiCad,Pcbnew,9.0.6*%
%TF.CreationDate,2026-04-23T00:31:58+09:00*%
%TF.ProjectId,wwgt2026badge,77776774-3230-4323-9662-616467652e6b,rev?*%
%TF.SameCoordinates,Original*%
%TF.FileFunction,Legend,Top*%
%TF.FilePolarity,Positive*%
%FSLAX46Y46*%
G04 Gerber Fmt 4.6, Leading zero omitted, Abs format (unit mm)*
G04 Created by KiCad (PCBNEW 9.0.6) date 2026-04-23 00:31:58*
%MOMM*%
%LPD*%
G01*
G04 APERTURE LIST*
%ADD10C,0.100000*%
%ADD11C,0.250000*%
%ADD12C,5.000000*%
G04 APERTURE END LIST*
D10*
G36*
X56745254Y-68418056D02*
G01*
X56851222Y-68478295D01*
X56913171Y-68571929D01*
X56941259Y-68600017D01*
X57063595Y-68653104D01*
X57123220Y-68711758D01*
X57159110Y-68835526D01*
X57067044Y-68977983D01*
X56982781Y-69033548D01*
X56996825Y-69061636D01*
X56972610Y-69193968D01*
X56898517Y-69313817D01*
X56789690Y-69404995D01*
X56660991Y-69453646D01*
X56517301Y-69451466D01*
X56402093Y-69390753D01*
X56321320Y-69283771D01*
X56290105Y-69159944D01*
X56437508Y-69159944D01*
X56494405Y-69297093D01*
X56633513Y-69313817D01*
X56795332Y-69242506D01*
X56856996Y-69089724D01*
X56437508Y-69159944D01*
X56290105Y-69159944D01*
X56283025Y-69131856D01*
X56168879Y-69086105D01*
X56079693Y-69006071D01*
X56028755Y-68903285D01*
X56030606Y-68808234D01*
X56157850Y-68808234D01*
X56192691Y-68930123D01*
X56339811Y-69004239D01*
X56692703Y-69002408D01*
X56968737Y-68863799D01*
X57010869Y-68791748D01*
X56913171Y-68727023D01*
X56871039Y-68747173D01*
X56647557Y-68808234D01*
X56456829Y-68781599D01*
X56339811Y-68712979D01*
X56215047Y-68716822D01*
X56157850Y-68808234D01*
X56030606Y-68808234D01*
X56030844Y-68796022D01*
X56101040Y-68645386D01*
X56254937Y-68585973D01*
X56254937Y-68529797D01*
X56365170Y-68425720D01*
X56493074Y-68369207D01*
X56626479Y-68363799D01*
X56745254Y-68418056D01*
G37*
G36*
X58647296Y-65352808D02*
G01*
X58621573Y-65528317D01*
X58437247Y-65702686D01*
X58367027Y-65681926D01*
X58381071Y-65604989D01*
X58505350Y-65496410D01*
X58548988Y-65394940D01*
X58395115Y-65548813D01*
X58324895Y-65562857D01*
X58310851Y-65493248D01*
X58506856Y-65283199D01*
X58606318Y-65273102D01*
X58647296Y-65352808D01*
G37*
G36*
X54945714Y-65273165D02*
G01*
X55165003Y-65479204D01*
X55164393Y-65556140D01*
X55080739Y-65548813D01*
X54968998Y-65423028D01*
X55080739Y-65562857D01*
X55066695Y-65640404D01*
X54997086Y-65633077D01*
X54814515Y-65408984D01*
X54787037Y-65338764D01*
X54842603Y-65255111D01*
X54945714Y-65273165D01*
G37*
G36*
X54426722Y-66928262D02*
G01*
X54531804Y-66988014D01*
X54643545Y-67212107D01*
X54682171Y-67429608D01*
X54630111Y-67618161D01*
X54513490Y-67744767D01*
X54363887Y-67814166D01*
X54200138Y-67802668D01*
X54083618Y-67715858D01*
X54042097Y-67687770D01*
X53930682Y-67594896D01*
X53873569Y-67450244D01*
X53846092Y-67394068D01*
X53838912Y-67313497D01*
X53873569Y-67240195D01*
X53887613Y-67226151D01*
X53929745Y-67141887D01*
X53985921Y-67044190D01*
X54080471Y-66973886D01*
X54195970Y-66959926D01*
X54307711Y-66917794D01*
X54426722Y-66928262D01*
G37*
G36*
X58941608Y-66931838D02*
G01*
X59060445Y-67047027D01*
X59137613Y-67198063D01*
X59157399Y-67401994D01*
X59082048Y-67533897D01*
X59039916Y-67561985D01*
X58927564Y-67673726D01*
X58737628Y-67719735D01*
X58584403Y-67688381D01*
X58462564Y-67592831D01*
X58381681Y-67436200D01*
X58362306Y-67269405D01*
X58388398Y-67107083D01*
X58461393Y-66967635D01*
X58577686Y-66876273D01*
X58755935Y-66840470D01*
X58941608Y-66931838D01*
G37*
G36*
X62205303Y-64261043D02*
G01*
X62475607Y-64432638D01*
X62669769Y-64673610D01*
X62794351Y-64999312D01*
X62840335Y-65437072D01*
X62777115Y-65892950D01*
X62588765Y-66304745D01*
X62375541Y-66574131D01*
X62058147Y-66864672D01*
X61862753Y-67005111D01*
X61771772Y-67061287D01*
X61681402Y-67116852D01*
X61429832Y-67326901D01*
X61374267Y-67397121D01*
X61426679Y-67460561D01*
X61415788Y-67536950D01*
X61105926Y-68097029D01*
X60871127Y-68436374D01*
X60597736Y-68714316D01*
X60315532Y-68897435D01*
X60019330Y-68999354D01*
X59861903Y-69328105D01*
X59600453Y-69631332D01*
X59600453Y-69645376D01*
X59573587Y-70779274D01*
X59464535Y-71364697D01*
X59277442Y-71759298D01*
X59002649Y-72054686D01*
X58605164Y-72291748D01*
X58605164Y-72375401D01*
X58571506Y-72805282D01*
X58495873Y-73017144D01*
X58400000Y-73103244D01*
X58308521Y-73107110D01*
X58222313Y-73061723D01*
X58126448Y-72921284D01*
X58003716Y-72487752D01*
X57304571Y-72599494D01*
X56455141Y-72630681D01*
X55807972Y-72585450D01*
X55713942Y-72849665D01*
X55577163Y-73069050D01*
X55407322Y-73231915D01*
X55262700Y-73285816D01*
X55154168Y-73267875D01*
X55080739Y-73187508D01*
X55058689Y-73033635D01*
X55276744Y-73033635D01*
X55276744Y-73047679D01*
X55290788Y-73033635D01*
X55402529Y-72921284D01*
X55509202Y-72753389D01*
X55584490Y-72543318D01*
X55542358Y-72529274D01*
X55351765Y-72840682D01*
X55276744Y-73033635D01*
X55058689Y-73033635D01*
X55052651Y-72991503D01*
X55129890Y-72774667D01*
X55318876Y-72459665D01*
X55251542Y-72431577D01*
X58213154Y-72431577D01*
X58338939Y-72823586D01*
X58367027Y-72781454D01*
X58395115Y-72375401D01*
X58367027Y-72389445D01*
X58213154Y-72431577D01*
X55251542Y-72431577D01*
X54954113Y-72307507D01*
X54646882Y-72102697D01*
X54389532Y-71843562D01*
X54162274Y-71477266D01*
X53984643Y-70996355D01*
X53866242Y-70373220D01*
X53561787Y-70293679D01*
X53308758Y-70143021D01*
X53128331Y-69938904D01*
X53075506Y-69743684D01*
X53078814Y-69694836D01*
X53286165Y-69694836D01*
X53286165Y-69729640D01*
X53329687Y-69848049D01*
X53451029Y-69981210D01*
X53628756Y-70088444D01*
X53847313Y-70163782D01*
X53847313Y-69953733D01*
X53819836Y-69939689D01*
X53506747Y-69736442D01*
X53328297Y-69687508D01*
X53286165Y-69694836D01*
X53078814Y-69694836D01*
X53082660Y-69638048D01*
X53131681Y-69547679D01*
X53215863Y-69489226D01*
X53342341Y-69477459D01*
X53543588Y-69521729D01*
X53833880Y-69687508D01*
X53833880Y-68934630D01*
X54057972Y-68934630D01*
X54078958Y-70013382D01*
X54188632Y-70791014D01*
X54359935Y-71335351D01*
X54574546Y-71703733D01*
X54853551Y-71973085D01*
X55232687Y-72184307D01*
X55737782Y-72332810D01*
X56402775Y-72404122D01*
X57267934Y-72375401D01*
X57832353Y-72291355D01*
X58287037Y-72165352D01*
X58786208Y-71922368D01*
X59095481Y-71633513D01*
X59266703Y-71284645D01*
X59361095Y-70765230D01*
X59333007Y-69631332D01*
X59333007Y-69117812D01*
X59543056Y-69117812D01*
X59557100Y-69380983D01*
X59786688Y-69073848D01*
X59844086Y-68962107D01*
X59829431Y-68934019D01*
X59872784Y-68836322D01*
X59886217Y-68780757D01*
X59755046Y-68881771D01*
X59543056Y-69117812D01*
X59333007Y-69117812D01*
X59333007Y-68715422D01*
X59347662Y-68349057D01*
X58967585Y-68638068D01*
X58545324Y-68797243D01*
X58204267Y-68828104D01*
X57884197Y-68772504D01*
X57574459Y-68628715D01*
X57504239Y-68601238D01*
X57178869Y-68332670D01*
X56983020Y-68024087D01*
X56899127Y-67662735D01*
X56899411Y-67660293D01*
X57198325Y-67660293D01*
X57255045Y-67920670D01*
X57387081Y-68146360D01*
X57604379Y-68346004D01*
X57674598Y-68374092D01*
X57937175Y-68518077D01*
X58208562Y-68572961D01*
X58500750Y-68542009D01*
X58887328Y-68390880D01*
X59227983Y-68093824D01*
X59463090Y-67713342D01*
X59536340Y-67337892D01*
X59492239Y-67059264D01*
X59360966Y-66815528D01*
X59130286Y-66596004D01*
X58836663Y-66419415D01*
X58537863Y-66347040D01*
X58220481Y-66371912D01*
X57823155Y-66540119D01*
X57477983Y-66862229D01*
X57304985Y-67135684D01*
X57215287Y-67399101D01*
X57198325Y-67660293D01*
X56899411Y-67660293D01*
X56938923Y-67320396D01*
X57059462Y-66989279D01*
X57268545Y-66661950D01*
X57538964Y-66384166D01*
X57837073Y-66193622D01*
X58169190Y-66081263D01*
X58481928Y-66045300D01*
X58786146Y-66086328D01*
X59090596Y-66207048D01*
X58894591Y-66067219D01*
X58796284Y-66011043D01*
X58740108Y-65982955D01*
X58712020Y-65982955D01*
X58712020Y-65968911D01*
X58698587Y-65954867D01*
X58684543Y-65954867D01*
X58621855Y-65896695D01*
X58628367Y-65800994D01*
X58642411Y-65786950D01*
X58642421Y-65716863D01*
X58698587Y-65675209D01*
X58960587Y-65470161D01*
X59020377Y-65338764D01*
X58983357Y-65259198D01*
X58837805Y-65184891D01*
X58615069Y-65153328D01*
X58401832Y-65198935D01*
X58237892Y-65309714D01*
X58148430Y-65465160D01*
X58162474Y-65562857D01*
X58114729Y-65628844D01*
X58022034Y-65633077D01*
X57346228Y-65499966D01*
X56722437Y-65476559D01*
X56140031Y-65554374D01*
X55589375Y-65730774D01*
X55493089Y-65737397D01*
X55434892Y-65675209D01*
X55434892Y-65604989D01*
X55434892Y-65590945D01*
X55312799Y-65294333D01*
X55139358Y-65114672D01*
X54969764Y-65044181D01*
X54815736Y-65059106D01*
X54695690Y-65140243D01*
X54647208Y-65269155D01*
X54698579Y-65476259D01*
X54885345Y-65744818D01*
X54927468Y-65826551D01*
X54885345Y-65898691D01*
X54829169Y-65926779D01*
X54773604Y-65968911D01*
X54717428Y-66011043D01*
X54675296Y-66039131D01*
X55076700Y-66043584D01*
X55416573Y-66164916D01*
X55725285Y-66423486D01*
X55931208Y-66789913D01*
X56032065Y-67298813D01*
X56011666Y-67800231D01*
X55880410Y-68231638D01*
X55640056Y-68610397D01*
X55394914Y-68835979D01*
X55118093Y-68979317D01*
X54800471Y-69046371D01*
X54578216Y-69102228D01*
X54340961Y-69069878D01*
X54072016Y-68934630D01*
X54057972Y-68934630D01*
X53833880Y-68934630D01*
X53833880Y-68755111D01*
X53605128Y-68509069D01*
X53414393Y-68209228D01*
X53226488Y-67701225D01*
X53206292Y-67270725D01*
X53498656Y-67270725D01*
X53520232Y-67649730D01*
X53680617Y-68082833D01*
X53925223Y-68443639D01*
X54213067Y-68684891D01*
X54268632Y-68727023D01*
X54338852Y-68727023D01*
X54730862Y-68769155D01*
X54852983Y-68755111D01*
X55152972Y-68644818D01*
X55411078Y-68418667D01*
X55607242Y-68102657D01*
X55712572Y-67739222D01*
X55724319Y-67312857D01*
X55669158Y-66899855D01*
X55520932Y-66612688D01*
X55284072Y-66417096D01*
X55033475Y-66323550D01*
X54738207Y-66313011D01*
X54378761Y-66399673D01*
X53932798Y-66613101D01*
X53706117Y-66796615D01*
X53564906Y-67012836D01*
X53498656Y-67270725D01*
X53206292Y-67270725D01*
X53204344Y-67229204D01*
X53299381Y-66884447D01*
X53487072Y-66603950D01*
X53778314Y-66374965D01*
X54236270Y-66150872D01*
X54264968Y-66108740D01*
X54577599Y-65829082D01*
X54633164Y-65786950D01*
X54471684Y-65502446D01*
X54423726Y-65255111D01*
X54472229Y-65069846D01*
X54573470Y-64938338D01*
X54734525Y-64849057D01*
X55009226Y-64820571D01*
X55273081Y-64932711D01*
X55487023Y-65142541D01*
X55640666Y-65465160D01*
X56347043Y-65289864D01*
X57105626Y-65258571D01*
X57933496Y-65380896D01*
X58079918Y-65144711D01*
X58327948Y-64988886D01*
X58612557Y-64929530D01*
X58906193Y-64974842D01*
X59095435Y-65065649D01*
X59196586Y-65184608D01*
X59230425Y-65338764D01*
X59158174Y-65558678D01*
X58891538Y-65815038D01*
X58904972Y-65815038D01*
X59002669Y-65871214D01*
X59203675Y-66016499D01*
X59351326Y-66193004D01*
X59434979Y-66304745D01*
X59442051Y-66373195D01*
X59405670Y-66445184D01*
X59638802Y-66708992D01*
X59772139Y-66990237D01*
X59816608Y-67298813D01*
X59776235Y-67602172D01*
X59649912Y-67914916D01*
X59649912Y-67943004D01*
X59572838Y-68260986D01*
X59543056Y-68712979D01*
X59543056Y-68783199D01*
X59687100Y-68649989D01*
X59798901Y-68587194D01*
X59908775Y-68557178D01*
X59997348Y-68579867D01*
X60064036Y-68643090D01*
X60096877Y-68741067D01*
X60096877Y-68769155D01*
X60412330Y-68604807D01*
X60726413Y-68306926D01*
X60942566Y-68005316D01*
X61202686Y-67536950D01*
X61188642Y-67480774D01*
X61134314Y-67202095D01*
X61034769Y-66977023D01*
X61034769Y-66962979D01*
X61020725Y-66948935D01*
X60950506Y-66823150D01*
X60604814Y-66427763D01*
X60397208Y-66057692D01*
X60302042Y-65703361D01*
X60305973Y-65380896D01*
X60502320Y-65380896D01*
X60517704Y-65761798D01*
X60678321Y-66161073D01*
X61020725Y-66599057D01*
X61118423Y-66668667D01*
X61202686Y-66837194D01*
X61202686Y-66851238D01*
X61216730Y-66864672D01*
X61342515Y-67144940D01*
X61589201Y-66948935D01*
X61671633Y-66886043D01*
X61767498Y-66823150D01*
X61945185Y-66696755D01*
X62231669Y-66435393D01*
X62424511Y-66193004D01*
X62578017Y-65839123D01*
X62630286Y-65437072D01*
X62564557Y-64956094D01*
X62392550Y-64646287D01*
X62121039Y-64457048D01*
X61809838Y-64373551D01*
X61486180Y-64397916D01*
X61132467Y-64540701D01*
X60812388Y-64772110D01*
X60607830Y-65048742D01*
X60502320Y-65380896D01*
X60305973Y-65380896D01*
X60306315Y-65352808D01*
X60421419Y-64960215D01*
X60653721Y-64633387D01*
X61021947Y-64359351D01*
X61450305Y-64188802D01*
X61837571Y-64160702D01*
X62205303Y-64261043D01*
G37*
D11*
X62664283Y-69962238D02*
X63140473Y-71962238D01*
X63140473Y-71962238D02*
X63521426Y-70533666D01*
X63521426Y-70533666D02*
X63902378Y-71962238D01*
X63902378Y-71962238D02*
X64378569Y-69962238D01*
X65426187Y-71962238D02*
X65235711Y-71867000D01*
X65235711Y-71867000D02*
X65140473Y-71771761D01*
X65140473Y-71771761D02*
X65045235Y-71581285D01*
X65045235Y-71581285D02*
X65045235Y-71009857D01*
X65045235Y-71009857D02*
X65140473Y-70819380D01*
X65140473Y-70819380D02*
X65235711Y-70724142D01*
X65235711Y-70724142D02*
X65426187Y-70628904D01*
X65426187Y-70628904D02*
X65711902Y-70628904D01*
X65711902Y-70628904D02*
X65902378Y-70724142D01*
X65902378Y-70724142D02*
X65997616Y-70819380D01*
X65997616Y-70819380D02*
X66092854Y-71009857D01*
X66092854Y-71009857D02*
X66092854Y-71581285D01*
X66092854Y-71581285D02*
X65997616Y-71771761D01*
X65997616Y-71771761D02*
X65902378Y-71867000D01*
X65902378Y-71867000D02*
X65711902Y-71962238D01*
X65711902Y-71962238D02*
X65426187Y-71962238D01*
X66949997Y-71962238D02*
X66949997Y-70628904D01*
X66949997Y-70819380D02*
X67045235Y-70724142D01*
X67045235Y-70724142D02*
X67235711Y-70628904D01*
X67235711Y-70628904D02*
X67521426Y-70628904D01*
X67521426Y-70628904D02*
X67711902Y-70724142D01*
X67711902Y-70724142D02*
X67807140Y-70914619D01*
X67807140Y-70914619D02*
X67807140Y-71962238D01*
X67807140Y-70914619D02*
X67902378Y-70724142D01*
X67902378Y-70724142D02*
X68092854Y-70628904D01*
X68092854Y-70628904D02*
X68378568Y-70628904D01*
X68378568Y-70628904D02*
X68569045Y-70724142D01*
X68569045Y-70724142D02*
X68664283Y-70914619D01*
X68664283Y-70914619D02*
X68664283Y-71962238D01*
X70378569Y-71867000D02*
X70188093Y-71962238D01*
X70188093Y-71962238D02*
X69807140Y-71962238D01*
X69807140Y-71962238D02*
X69616664Y-71867000D01*
X69616664Y-71867000D02*
X69521426Y-71676523D01*
X69521426Y-71676523D02*
X69521426Y-70914619D01*
X69521426Y-70914619D02*
X69616664Y-70724142D01*
X69616664Y-70724142D02*
X69807140Y-70628904D01*
X69807140Y-70628904D02*
X70188093Y-70628904D01*
X70188093Y-70628904D02*
X70378569Y-70724142D01*
X70378569Y-70724142D02*
X70473807Y-70914619D01*
X70473807Y-70914619D02*
X70473807Y-71105095D01*
X70473807Y-71105095D02*
X69521426Y-71295571D01*
X71330950Y-70628904D02*
X71330950Y-71962238D01*
X71330950Y-70819380D02*
X71426188Y-70724142D01*
X71426188Y-70724142D02*
X71616664Y-70628904D01*
X71616664Y-70628904D02*
X71902379Y-70628904D01*
X71902379Y-70628904D02*
X72092855Y-70724142D01*
X72092855Y-70724142D02*
X72188093Y-70914619D01*
X72188093Y-70914619D02*
X72188093Y-71962238D01*
X74473808Y-69962238D02*
X74949998Y-71962238D01*
X74949998Y-71962238D02*
X75330951Y-70533666D01*
X75330951Y-70533666D02*
X75711903Y-71962238D01*
X75711903Y-71962238D02*
X76188094Y-69962238D01*
X76949998Y-71962238D02*
X76949998Y-69962238D01*
X77807141Y-71962238D02*
X77807141Y-70914619D01*
X77807141Y-70914619D02*
X77711903Y-70724142D01*
X77711903Y-70724142D02*
X77521427Y-70628904D01*
X77521427Y-70628904D02*
X77235712Y-70628904D01*
X77235712Y-70628904D02*
X77045236Y-70724142D01*
X77045236Y-70724142D02*
X76949998Y-70819380D01*
X79045236Y-71962238D02*
X78854760Y-71867000D01*
X78854760Y-71867000D02*
X78759522Y-71771761D01*
X78759522Y-71771761D02*
X78664284Y-71581285D01*
X78664284Y-71581285D02*
X78664284Y-71009857D01*
X78664284Y-71009857D02*
X78759522Y-70819380D01*
X78759522Y-70819380D02*
X78854760Y-70724142D01*
X78854760Y-70724142D02*
X79045236Y-70628904D01*
X79045236Y-70628904D02*
X79330951Y-70628904D01*
X79330951Y-70628904D02*
X79521427Y-70724142D01*
X79521427Y-70724142D02*
X79616665Y-70819380D01*
X79616665Y-70819380D02*
X79711903Y-71009857D01*
X79711903Y-71009857D02*
X79711903Y-71581285D01*
X79711903Y-71581285D02*
X79616665Y-71771761D01*
X79616665Y-71771761D02*
X79521427Y-71867000D01*
X79521427Y-71867000D02*
X79330951Y-71962238D01*
X79330951Y-71962238D02*
X79045236Y-71962238D01*
X83140475Y-70057476D02*
X82949999Y-69962238D01*
X82949999Y-69962238D02*
X82664285Y-69962238D01*
X82664285Y-69962238D02*
X82378570Y-70057476D01*
X82378570Y-70057476D02*
X82188094Y-70247952D01*
X82188094Y-70247952D02*
X82092856Y-70438428D01*
X82092856Y-70438428D02*
X81997618Y-70819380D01*
X81997618Y-70819380D02*
X81997618Y-71105095D01*
X81997618Y-71105095D02*
X82092856Y-71486047D01*
X82092856Y-71486047D02*
X82188094Y-71676523D01*
X82188094Y-71676523D02*
X82378570Y-71867000D01*
X82378570Y-71867000D02*
X82664285Y-71962238D01*
X82664285Y-71962238D02*
X82854761Y-71962238D01*
X82854761Y-71962238D02*
X83140475Y-71867000D01*
X83140475Y-71867000D02*
X83235713Y-71771761D01*
X83235713Y-71771761D02*
X83235713Y-71105095D01*
X83235713Y-71105095D02*
X82854761Y-71105095D01*
X84378570Y-71962238D02*
X84188094Y-71867000D01*
X84188094Y-71867000D02*
X84092856Y-71771761D01*
X84092856Y-71771761D02*
X83997618Y-71581285D01*
X83997618Y-71581285D02*
X83997618Y-71009857D01*
X83997618Y-71009857D02*
X84092856Y-70819380D01*
X84092856Y-70819380D02*
X84188094Y-70724142D01*
X84188094Y-70724142D02*
X84378570Y-70628904D01*
X84378570Y-70628904D02*
X84664285Y-70628904D01*
X84664285Y-70628904D02*
X84854761Y-70724142D01*
X84854761Y-70724142D02*
X84949999Y-70819380D01*
X84949999Y-70819380D02*
X85045237Y-71009857D01*
X85045237Y-71009857D02*
X85045237Y-71581285D01*
X85045237Y-71581285D02*
X84949999Y-71771761D01*
X84949999Y-71771761D02*
X84854761Y-71867000D01*
X84854761Y-71867000D02*
X84664285Y-71962238D01*
X84664285Y-71962238D02*
X84378570Y-71962238D01*
X87140476Y-69962238D02*
X88283333Y-69962238D01*
X87711904Y-71962238D02*
X87711904Y-69962238D01*
X89235714Y-71962238D02*
X89045238Y-71867000D01*
X89045238Y-71867000D02*
X88950000Y-71771761D01*
X88950000Y-71771761D02*
X88854762Y-71581285D01*
X88854762Y-71581285D02*
X88854762Y-71009857D01*
X88854762Y-71009857D02*
X88950000Y-70819380D01*
X88950000Y-70819380D02*
X89045238Y-70724142D01*
X89045238Y-70724142D02*
X89235714Y-70628904D01*
X89235714Y-70628904D02*
X89521429Y-70628904D01*
X89521429Y-70628904D02*
X89711905Y-70724142D01*
X89711905Y-70724142D02*
X89807143Y-70819380D01*
X89807143Y-70819380D02*
X89902381Y-71009857D01*
X89902381Y-71009857D02*
X89902381Y-71581285D01*
X89902381Y-71581285D02*
X89807143Y-71771761D01*
X89807143Y-71771761D02*
X89711905Y-71867000D01*
X89711905Y-71867000D02*
X89521429Y-71962238D01*
X89521429Y-71962238D02*
X89235714Y-71962238D01*
X90759524Y-71962238D02*
X90759524Y-69962238D01*
X90950000Y-71200333D02*
X91521429Y-71962238D01*
X91521429Y-70628904D02*
X90759524Y-71390809D01*
X92188096Y-70628904D02*
X92664286Y-71962238D01*
X93140477Y-70628904D02*
X92664286Y-71962238D01*
X92664286Y-71962238D02*
X92473810Y-72438428D01*
X92473810Y-72438428D02*
X92378572Y-72533666D01*
X92378572Y-72533666D02*
X92188096Y-72628904D01*
X94188096Y-71962238D02*
X93997620Y-71867000D01*
X93997620Y-71867000D02*
X93902382Y-71771761D01*
X93902382Y-71771761D02*
X93807144Y-71581285D01*
X93807144Y-71581285D02*
X93807144Y-71009857D01*
X93807144Y-71009857D02*
X93902382Y-70819380D01*
X93902382Y-70819380D02*
X93997620Y-70724142D01*
X93997620Y-70724142D02*
X94188096Y-70628904D01*
X94188096Y-70628904D02*
X94473811Y-70628904D01*
X94473811Y-70628904D02*
X94664287Y-70724142D01*
X94664287Y-70724142D02*
X94759525Y-70819380D01*
X94759525Y-70819380D02*
X94854763Y-71009857D01*
X94854763Y-71009857D02*
X94854763Y-71581285D01*
X94854763Y-71581285D02*
X94759525Y-71771761D01*
X94759525Y-71771761D02*
X94664287Y-71867000D01*
X94664287Y-71867000D02*
X94473811Y-71962238D01*
X94473811Y-71962238D02*
X94188096Y-71962238D01*
X98283335Y-71962238D02*
X97140478Y-71962238D01*
X97711906Y-71962238D02*
X97711906Y-69962238D01*
X97711906Y-69962238D02*
X97521430Y-70247952D01*
X97521430Y-70247952D02*
X97330954Y-70438428D01*
X97330954Y-70438428D02*
X97140478Y-70533666D01*
X99521430Y-69962238D02*
X99711907Y-69962238D01*
X99711907Y-69962238D02*
X99902383Y-70057476D01*
X99902383Y-70057476D02*
X99997621Y-70152714D01*
X99997621Y-70152714D02*
X100092859Y-70343190D01*
X100092859Y-70343190D02*
X100188097Y-70724142D01*
X100188097Y-70724142D02*
X100188097Y-71200333D01*
X100188097Y-71200333D02*
X100092859Y-71581285D01*
X100092859Y-71581285D02*
X99997621Y-71771761D01*
X99997621Y-71771761D02*
X99902383Y-71867000D01*
X99902383Y-71867000D02*
X99711907Y-71962238D01*
X99711907Y-71962238D02*
X99521430Y-71962238D01*
X99521430Y-71962238D02*
X99330954Y-71867000D01*
X99330954Y-71867000D02*
X99235716Y-71771761D01*
X99235716Y-71771761D02*
X99140478Y-71581285D01*
X99140478Y-71581285D02*
X99045240Y-71200333D01*
X99045240Y-71200333D02*
X99045240Y-70724142D01*
X99045240Y-70724142D02*
X99140478Y-70343190D01*
X99140478Y-70343190D02*
X99235716Y-70152714D01*
X99235716Y-70152714D02*
X99330954Y-70057476D01*
X99330954Y-70057476D02*
X99521430Y-69962238D01*
X100759526Y-70628904D02*
X101521430Y-70628904D01*
X101045240Y-69962238D02*
X101045240Y-71676523D01*
X101045240Y-71676523D02*
X101140478Y-71867000D01*
X101140478Y-71867000D02*
X101330954Y-71962238D01*
X101330954Y-71962238D02*
X101521430Y-71962238D01*
X102188097Y-71962238D02*
X102188097Y-69962238D01*
X103045240Y-71962238D02*
X103045240Y-70914619D01*
X103045240Y-70914619D02*
X102950002Y-70724142D01*
X102950002Y-70724142D02*
X102759526Y-70628904D01*
X102759526Y-70628904D02*
X102473811Y-70628904D01*
X102473811Y-70628904D02*
X102283335Y-70724142D01*
X102283335Y-70724142D02*
X102188097Y-70819380D01*
%TO.C,REF\u002A\u002A*%
D12*
X55500000Y-77450000D02*
X104000000Y-77450000D01*
X104000000Y-83700000D01*
X55500000Y-83700000D01*
X55500000Y-77450000D01*
G36*
X55500000Y-77450000D02*
G01*
X104000000Y-77450000D01*
X104000000Y-83700000D01*
X55500000Y-83700000D01*
X55500000Y-77450000D01*
G37*
%TD*%
M02*
