%TF.GenerationSoftware,KiCad,Pcbnew,9.0.6*%
%TF.CreationDate,2026-04-21T21:37:54+09:00*%
%TF.ProjectId,wwgt2026badge,77776774-3230-4323-9662-616467652e6b,rev?*%
%TF.SameCoordinates,Original*%
%TF.FileFunction,Copper,L1,Top*%
%TF.FilePolarity,Positive*%
%FSLAX46Y46*%
G04 Gerber Fmt 4.6, Leading zero omitted, Abs format (unit mm)*
G04 Created by KiCad (PCBNEW 9.0.6) date 2026-04-21 21:37:54*
%MOMM*%
%LPD*%
G01*
G04 APERTURE LIST*
%TA.AperFunction,ComponentPad*%
%ADD10C,1.600000*%
%TD*%
%TA.AperFunction,ComponentPad*%
%ADD11C,2.540000*%
%TD*%
%TA.AperFunction,ComponentPad*%
%ADD12O,1.700000X1.700000*%
%TD*%
%TA.AperFunction,ComponentPad*%
%ADD13C,1.524000*%
%TD*%
%TA.AperFunction,ComponentPad*%
%ADD14R,2.000000X2.000000*%
%TD*%
%TA.AperFunction,ComponentPad*%
%ADD15C,2.000000*%
%TD*%
%TA.AperFunction,ComponentPad*%
%ADD16R,3.000000X2.500000*%
%TD*%
%TA.AperFunction,ComponentPad*%
%ADD17R,1.350000X1.350000*%
%TD*%
%TA.AperFunction,ComponentPad*%
%ADD18C,1.350000*%
%TD*%
%TA.AperFunction,ComponentPad*%
%ADD19R,1.700000X1.700000*%
%TD*%
%TA.AperFunction,ComponentPad*%
%ADD20C,1.700000*%
%TD*%
%TA.AperFunction,ViaPad*%
%ADD21C,0.600000*%
%TD*%
%TA.AperFunction,Conductor*%
%ADD22C,0.600000*%
%TD*%
%TA.AperFunction,Conductor*%
%ADD23C,0.200000*%
%TD*%
G04 APERTURE END LIST*
D10*
%TO.P,R2,1*%
%TO.N,Net-(SW2-LED2)*%
X88810000Y-28400000D03*
%TO.P,R2,2*%
%TO.N,ENC_LED_2*%
X81190000Y-28400000D03*
%TD*%
D11*
%TO.P,BZ1,1,+*%
%TO.N,BUZZER*%
X38250000Y-75500000D03*
%TO.P,BZ1,2,-*%
%TO.N,GND*%
X43750000Y-75500000D03*
%TD*%
D12*
%TO.P,U2,1,0*%
%TO.N,SW_2*%
X32300000Y-30000000D03*
%TO.P,U2,2,1*%
%TO.N,SW_1*%
X34840000Y-30000000D03*
%TO.P,U2,3,2*%
%TO.N,ROT_A*%
X37380000Y-30000000D03*
%TO.P,U2,4,3*%
%TO.N,ROT_B*%
X39920000Y-30000000D03*
%TO.P,U2,5,4*%
%TO.N,SK6812MINI-E*%
X42460000Y-30000000D03*
%TO.P,U2,6,5*%
%TO.N,ENC_BTN*%
X45000000Y-30000000D03*
%TO.P,U2,7,6*%
%TO.N,ENC_LED_1*%
X47540000Y-30000000D03*
%TO.P,U2,8,7*%
%TO.N,ENC_LED_2*%
X50080000Y-30000000D03*
%TO.P,U2,9,8*%
%TO.N,BUZZER*%
X52620000Y-30000000D03*
%TO.P,U2,10,9*%
%TO.N,RES*%
X52620000Y-32540000D03*
%TO.P,U2,11,10*%
%TO.N,SCL*%
X52620000Y-35080000D03*
%TO.P,U2,12,11*%
%TO.N,SDA*%
X52620000Y-37620000D03*
%TO.P,U2,13,12*%
%TO.N,DC*%
X52620000Y-40160000D03*
%TO.P,U2,14,13*%
%TO.N,CS*%
X52620000Y-42700000D03*
%TO.P,U2,15,14*%
%TO.N,BL*%
X52620000Y-45240000D03*
%TO.P,U2,16,15*%
%TO.N,unconnected-(U2-15-Pad16)*%
X50080000Y-45240000D03*
%TO.P,U2,17,26*%
%TO.N,/SDA1*%
X47540000Y-45240000D03*
%TO.P,U2,18,27*%
%TO.N,/SCL1*%
X45000000Y-45240000D03*
%TO.P,U2,19,28*%
%TO.N,VR_Y*%
X42460000Y-45240000D03*
%TO.P,U2,20,29*%
%TO.N,VR_X*%
X39920000Y-45240000D03*
%TO.P,U2,21,3V3*%
%TO.N,3V3*%
X37380000Y-45240000D03*
%TO.P,U2,22,GND*%
%TO.N,GND*%
X34840000Y-45240000D03*
%TO.P,U2,23,5V*%
%TO.N,VCC*%
X32300000Y-45240000D03*
%TD*%
D13*
%TO.P,SW2,1,GND*%
%TO.N,GND*%
X125750000Y-38500000D03*
%TO.P,SW2,2,LED1*%
%TO.N,Net-(SW2-LED1)*%
X125750000Y-36500000D03*
%TO.P,SW2,3,LED2*%
%TO.N,Net-(SW2-LED2)*%
X125750000Y-34500000D03*
%TO.P,SW2,4,BTN*%
%TO.N,ENC_BTN*%
X125750000Y-32500000D03*
D14*
%TO.P,SW2,A,ROT_A*%
%TO.N,ROT_A*%
X111250000Y-33000000D03*
D15*
%TO.P,SW2,B,ROT_B*%
%TO.N,ROT_B*%
X111250000Y-38000000D03*
%TO.P,SW2,C,GND*%
%TO.N,GND*%
X111250000Y-35500000D03*
D16*
%TO.P,SW2,MP*%
%TO.N,N/C*%
X118750000Y-29900000D03*
X118750000Y-41100000D03*
%TD*%
D10*
%TO.P,R1,1*%
%TO.N,Net-(SW2-LED1)*%
X77400000Y-28400000D03*
%TO.P,R1,2*%
%TO.N,ENC_LED_1*%
X69780000Y-28400000D03*
%TD*%
D17*
%TO.P,J2,1,Pin_1*%
%TO.N,GND*%
X40000000Y-34550000D03*
D18*
%TO.P,J2,2,Pin_2*%
%TO.N,VCC*%
X40000000Y-36550000D03*
%TO.P,J2,3,Pin_3*%
%TO.N,/SDA1*%
X40000000Y-38550000D03*
%TO.P,J2,4,Pin_4*%
%TO.N,/SCL1*%
X40000000Y-40550000D03*
%TD*%
D19*
%TO.P,J1,1,Pin_1*%
%TO.N,GND*%
X70300000Y-24000000D03*
D20*
%TO.P,J1,2,Pin_2*%
%TO.N,3V3*%
X72840000Y-24000000D03*
%TO.P,J1,3,Pin_3*%
%TO.N,SCL*%
X75380000Y-24000000D03*
%TO.P,J1,4,Pin_4*%
%TO.N,SDA*%
X77920000Y-24000000D03*
%TO.P,J1,5,Pin_5*%
%TO.N,RES*%
X80460000Y-24000000D03*
%TO.P,J1,6,Pin_6*%
%TO.N,DC*%
X83000000Y-24000000D03*
%TO.P,J1,7,Pin_7*%
%TO.N,CS*%
X85540000Y-24000000D03*
%TO.P,J1,8,Pin_8*%
%TO.N,BL*%
X88080000Y-24000000D03*
%TD*%
D13*
%TO.P,U3,1,VR1-1*%
%TO.N,GND*%
X41719000Y-50681000D03*
%TO.P,U3,2,VR1-2*%
%TO.N,VR_X*%
X39719000Y-50681000D03*
%TO.P,U3,3,VR1-3*%
%TO.N,3V3*%
X37719000Y-50681000D03*
%TO.P,U3,4,VR2-1*%
X48319000Y-61281000D03*
%TO.P,U3,5,VR2-2*%
%TO.N,VR_Y*%
X48319000Y-59281000D03*
%TO.P,U3,6,VR2-3*%
%TO.N,GND*%
X48319000Y-57281000D03*
%TO.P,U3,7,SW-a*%
%TO.N,unconnected-(U3-SW-a-Pad7)*%
X46319000Y-51281000D03*
%TO.P,U3,8,SW-b*%
%TO.N,unconnected-(U3-SW-b-Pad8)*%
X47719000Y-52681000D03*
%TD*%
D21*
%TO.N,GND*%
X124000000Y-58500000D03*
X122500000Y-59500000D03*
X36500000Y-48750000D03*
%TO.N,BUZZER*%
X55000000Y-44500000D03*
X59250000Y-44500000D03*
%TO.N,3V3*%
X111500000Y-78500000D03*
X110200000Y-58300000D03*
%TO.N,SW_2*%
X59500000Y-31000000D03*
X59494616Y-38944616D03*
X70520000Y-48980000D03*
X64000000Y-39000000D03*
%TO.N,VCC*%
X32350000Y-39250000D03*
%TO.N,ENC_BTN*%
X68800000Y-42000000D03*
X101000000Y-42000000D03*
X86400000Y-42000000D03*
%TD*%
D22*
%TO.N,GND*%
X30949000Y-41349000D02*
X30949000Y-29440397D01*
X32699000Y-34550000D02*
X40000000Y-34550000D01*
X30949000Y-41349000D02*
X30949000Y-36300000D01*
D23*
X124000000Y-58500000D02*
X123500000Y-58500000D01*
D22*
X40038000Y-49000000D02*
X41719000Y-50681000D01*
X33389397Y-27000000D02*
X67300000Y-27000000D01*
X30949000Y-29440397D02*
X33389397Y-27000000D01*
X34840000Y-45240000D02*
X38600000Y-49000000D01*
X41719000Y-50681000D02*
X48319000Y-57281000D01*
X67300000Y-27000000D02*
X70300000Y-24000000D01*
D23*
X123500000Y-58500000D02*
X122500000Y-59500000D01*
D22*
X34840000Y-45240000D02*
X30949000Y-41349000D01*
X30949000Y-36300000D02*
X32699000Y-34550000D01*
X38600000Y-49000000D02*
X40038000Y-49000000D01*
D23*
%TO.N,BUZZER*%
X52620000Y-30000000D02*
X55000000Y-32380000D01*
X59250000Y-44500000D02*
X50500000Y-53250000D01*
X50500000Y-53250000D02*
X50500000Y-63250000D01*
X55000000Y-32380000D02*
X55000000Y-44500000D01*
X50500000Y-63250000D02*
X38250000Y-75500000D01*
D22*
%TO.N,3V3*%
X38731000Y-46591000D02*
X55409000Y-46591000D01*
X37380000Y-45240000D02*
X38731000Y-46591000D01*
X104800000Y-58300000D02*
X108000000Y-61500000D01*
X61650000Y-40350000D02*
X61650000Y-36150000D01*
X108000000Y-61500000D02*
X108000000Y-75000000D01*
X61650000Y-36150000D02*
X72500000Y-36150000D01*
X55409000Y-46591000D02*
X61650000Y-40350000D01*
X108000000Y-75000000D02*
X111500000Y-78500000D01*
X72850000Y-35800000D02*
X72840000Y-35790000D01*
X110200000Y-58300000D02*
X104800000Y-58300000D01*
X72840000Y-35790000D02*
X72840000Y-24000000D01*
X72840000Y-24000000D02*
X72840000Y-26340000D01*
X72840000Y-26340000D02*
X104800000Y-58300000D01*
X72500000Y-36150000D02*
X72850000Y-35800000D01*
D23*
%TO.N,SW_2*%
X59500000Y-38939232D02*
X59494616Y-38944616D01*
X59500000Y-31000000D02*
X59500000Y-38939232D01*
X59494616Y-38944616D02*
X59400000Y-38850000D01*
X70520000Y-48980000D02*
X64000000Y-42460000D01*
X64000000Y-42460000D02*
X64000000Y-39000000D01*
%TO.N,/SDA1*%
X46690000Y-45240000D02*
X47540000Y-45240000D01*
X40000000Y-38550000D02*
X46690000Y-45240000D01*
%TO.N,/SCL1*%
X40000000Y-40550000D02*
X44690000Y-45240000D01*
X44690000Y-45240000D02*
X45000000Y-45240000D01*
D22*
%TO.N,VCC*%
X37600000Y-36550000D02*
X40000000Y-36550000D01*
X34900000Y-39250000D02*
X37600000Y-36550000D01*
X32350000Y-39250000D02*
X34900000Y-39250000D01*
D23*
%TO.N,Net-(SW2-LED1)*%
X77400000Y-28400000D02*
X80451000Y-31451000D01*
X120701000Y-31451000D02*
X125750000Y-36500000D01*
X80451000Y-31451000D02*
X120701000Y-31451000D01*
%TO.N,ENC_LED_1*%
X49140000Y-28400000D02*
X47540000Y-30000000D01*
X69780000Y-28400000D02*
X49140000Y-28400000D01*
%TO.N,Net-(SW2-LED2)*%
X88810000Y-28400000D02*
X90709000Y-26501000D01*
X125700000Y-34500000D02*
X125750000Y-34500000D01*
X122700000Y-30600000D02*
X122700000Y-31500000D01*
X90709000Y-26501000D02*
X118601000Y-26501000D01*
X122700000Y-31500000D02*
X125700000Y-34500000D01*
X118601000Y-26501000D02*
X122700000Y-30600000D01*
%TO.N,ENC_LED_2*%
X48929000Y-31151000D02*
X50080000Y-30000000D01*
X73991000Y-23523240D02*
X73316760Y-22849000D01*
X81190000Y-28400000D02*
X79431058Y-26641058D01*
X46389000Y-30476760D02*
X47063240Y-31151000D01*
X71689000Y-24910000D02*
X68600000Y-27999000D01*
X46389000Y-29523240D02*
X46389000Y-30476760D01*
X72363240Y-22849000D02*
X71689000Y-23523240D01*
X47063240Y-31151000D02*
X48929000Y-31151000D01*
X71689000Y-23523240D02*
X71689000Y-24910000D01*
X73316760Y-22849000D02*
X72363240Y-22849000D01*
X47913240Y-27999000D02*
X46389000Y-29523240D01*
X73991000Y-26641058D02*
X73991000Y-23523240D01*
X68600000Y-27999000D02*
X47913240Y-27999000D01*
X79431058Y-26641058D02*
X73991000Y-26641058D01*
%TO.N,ENC_BTN*%
X125750000Y-32500000D02*
X127051000Y-33801000D01*
X68800000Y-42000000D02*
X86400000Y-42000000D01*
X127051000Y-33801000D02*
X127051000Y-40549000D01*
X101651000Y-42651000D02*
X101000000Y-42000000D01*
X124949000Y-42651000D02*
X101651000Y-42651000D01*
X127051000Y-40549000D02*
X124949000Y-42651000D01*
%TD*%
%TA.AperFunction,Conductor*%
%TO.N,GND*%
G36*
X127003736Y-20500726D02*
G01*
X127293796Y-20518271D01*
X127308659Y-20520076D01*
X127590798Y-20571780D01*
X127605335Y-20575363D01*
X127879172Y-20660695D01*
X127893163Y-20666000D01*
X128154743Y-20783727D01*
X128167989Y-20790680D01*
X128413465Y-20939075D01*
X128425776Y-20947573D01*
X128651573Y-21124473D01*
X128662781Y-21134403D01*
X128865596Y-21337218D01*
X128875526Y-21348426D01*
X128995481Y-21501538D01*
X129052422Y-21574217D01*
X129060926Y-21586537D01*
X129087012Y-21629688D01*
X129209316Y-21832004D01*
X129216275Y-21845263D01*
X129333997Y-22106831D01*
X129339306Y-22120832D01*
X129424635Y-22394663D01*
X129428219Y-22409201D01*
X129479923Y-22691340D01*
X129481728Y-22706205D01*
X129499274Y-22996263D01*
X129499500Y-23003750D01*
X129499500Y-86996249D01*
X129499274Y-87003736D01*
X129481728Y-87293794D01*
X129479923Y-87308659D01*
X129428219Y-87590798D01*
X129424635Y-87605336D01*
X129339306Y-87879167D01*
X129333997Y-87893168D01*
X129216275Y-88154736D01*
X129209316Y-88167995D01*
X129060928Y-88413459D01*
X129052422Y-88425782D01*
X128875526Y-88651573D01*
X128865596Y-88662781D01*
X128662781Y-88865596D01*
X128651573Y-88875526D01*
X128425782Y-89052422D01*
X128413459Y-89060928D01*
X128167995Y-89209316D01*
X128154736Y-89216275D01*
X127893168Y-89333997D01*
X127879167Y-89339306D01*
X127605336Y-89424635D01*
X127590798Y-89428219D01*
X127308659Y-89479923D01*
X127293794Y-89481728D01*
X127003736Y-89499274D01*
X126996249Y-89499500D01*
X33003751Y-89499500D01*
X32996264Y-89499274D01*
X32706205Y-89481728D01*
X32691340Y-89479923D01*
X32409201Y-89428219D01*
X32394663Y-89424635D01*
X32120832Y-89339306D01*
X32106831Y-89333997D01*
X31845263Y-89216275D01*
X31832004Y-89209316D01*
X31586540Y-89060928D01*
X31574217Y-89052422D01*
X31348426Y-88875526D01*
X31337218Y-88865596D01*
X31134403Y-88662781D01*
X31124473Y-88651573D01*
X30947573Y-88425776D01*
X30939075Y-88413465D01*
X30790680Y-88167989D01*
X30783727Y-88154743D01*
X30666000Y-87893163D01*
X30660693Y-87879167D01*
X30633759Y-87792734D01*
X30575363Y-87605335D01*
X30571780Y-87590798D01*
X30520076Y-87308659D01*
X30518271Y-87293794D01*
X30500726Y-87003736D01*
X30500500Y-86996249D01*
X30500500Y-85865186D01*
X36599500Y-85865186D01*
X36599500Y-86134813D01*
X36629686Y-86402719D01*
X36629688Y-86402731D01*
X36689684Y-86665594D01*
X36689687Y-86665602D01*
X36778734Y-86920082D01*
X36895714Y-87162994D01*
X36940087Y-87233613D01*
X37039162Y-87391289D01*
X37207266Y-87602085D01*
X37397915Y-87792734D01*
X37608711Y-87960838D01*
X37837003Y-88104284D01*
X38079921Y-88221267D01*
X38271049Y-88288145D01*
X38334397Y-88310312D01*
X38334405Y-88310315D01*
X38334408Y-88310315D01*
X38334409Y-88310316D01*
X38597268Y-88370312D01*
X38865187Y-88400499D01*
X38865188Y-88400500D01*
X38865191Y-88400500D01*
X39134812Y-88400500D01*
X39134812Y-88400499D01*
X39402732Y-88370312D01*
X39665591Y-88310316D01*
X39920079Y-88221267D01*
X40162997Y-88104284D01*
X40391289Y-87960838D01*
X40602085Y-87792734D01*
X40792734Y-87602085D01*
X40960838Y-87391289D01*
X41104284Y-87162997D01*
X41221267Y-86920079D01*
X41310316Y-86665591D01*
X41370312Y-86402732D01*
X41400500Y-86134809D01*
X41400500Y-85865191D01*
X41400499Y-85865186D01*
X118599500Y-85865186D01*
X118599500Y-86134813D01*
X118629686Y-86402719D01*
X118629688Y-86402731D01*
X118689684Y-86665594D01*
X118689687Y-86665602D01*
X118778734Y-86920082D01*
X118895714Y-87162994D01*
X118940087Y-87233613D01*
X119039162Y-87391289D01*
X119207266Y-87602085D01*
X119397915Y-87792734D01*
X119608711Y-87960838D01*
X119837003Y-88104284D01*
X120079921Y-88221267D01*
X120271049Y-88288145D01*
X120334397Y-88310312D01*
X120334405Y-88310315D01*
X120334408Y-88310315D01*
X120334409Y-88310316D01*
X120597268Y-88370312D01*
X120865187Y-88400499D01*
X120865188Y-88400500D01*
X120865191Y-88400500D01*
X121134812Y-88400500D01*
X121134812Y-88400499D01*
X121402732Y-88370312D01*
X121665591Y-88310316D01*
X121920079Y-88221267D01*
X122162997Y-88104284D01*
X122391289Y-87960838D01*
X122602085Y-87792734D01*
X122792734Y-87602085D01*
X122960838Y-87391289D01*
X123104284Y-87162997D01*
X123221267Y-86920079D01*
X123310316Y-86665591D01*
X123370312Y-86402732D01*
X123400500Y-86134809D01*
X123400500Y-85865191D01*
X123370312Y-85597268D01*
X123310316Y-85334409D01*
X123221267Y-85079921D01*
X123104284Y-84837003D01*
X122960838Y-84608711D01*
X122792734Y-84397915D01*
X122602085Y-84207266D01*
X122391289Y-84039162D01*
X122162997Y-83895716D01*
X122162994Y-83895714D01*
X121920082Y-83778734D01*
X121665602Y-83689687D01*
X121665594Y-83689684D01*
X121468446Y-83644687D01*
X121402732Y-83629688D01*
X121402728Y-83629687D01*
X121402719Y-83629686D01*
X121134813Y-83599500D01*
X121134809Y-83599500D01*
X120865191Y-83599500D01*
X120865186Y-83599500D01*
X120597280Y-83629686D01*
X120597268Y-83629688D01*
X120334405Y-83689684D01*
X120334397Y-83689687D01*
X120079917Y-83778734D01*
X119837005Y-83895714D01*
X119608712Y-84039161D01*
X119397915Y-84207265D01*
X119207265Y-84397915D01*
X119039161Y-84608712D01*
X118895714Y-84837005D01*
X118778734Y-85079917D01*
X118689687Y-85334397D01*
X118689684Y-85334405D01*
X118629688Y-85597268D01*
X118629686Y-85597280D01*
X118599500Y-85865186D01*
X41400499Y-85865186D01*
X41370312Y-85597268D01*
X41310316Y-85334409D01*
X41221267Y-85079921D01*
X41104284Y-84837003D01*
X40960838Y-84608711D01*
X40792734Y-84397915D01*
X40602085Y-84207266D01*
X40391289Y-84039162D01*
X40162997Y-83895716D01*
X40162994Y-83895714D01*
X39920082Y-83778734D01*
X39665602Y-83689687D01*
X39665594Y-83689684D01*
X39468446Y-83644687D01*
X39402732Y-83629688D01*
X39402728Y-83629687D01*
X39402719Y-83629686D01*
X39134813Y-83599500D01*
X39134809Y-83599500D01*
X38865191Y-83599500D01*
X38865186Y-83599500D01*
X38597280Y-83629686D01*
X38597268Y-83629688D01*
X38334405Y-83689684D01*
X38334397Y-83689687D01*
X38079917Y-83778734D01*
X37837005Y-83895714D01*
X37608712Y-84039161D01*
X37397915Y-84207265D01*
X37207265Y-84397915D01*
X37039161Y-84608712D01*
X36895714Y-84837005D01*
X36778734Y-85079917D01*
X36689687Y-85334397D01*
X36689684Y-85334405D01*
X36629688Y-85597268D01*
X36629686Y-85597280D01*
X36599500Y-85865186D01*
X30500500Y-85865186D01*
X30500500Y-65177530D01*
X44668500Y-65177530D01*
X44668500Y-65384469D01*
X44708868Y-65587412D01*
X44708870Y-65587420D01*
X44788058Y-65778596D01*
X44903024Y-65950657D01*
X45049342Y-66096975D01*
X45049345Y-66096977D01*
X45221402Y-66211941D01*
X45412580Y-66291130D01*
X45615530Y-66331499D01*
X45615534Y-66331500D01*
X45615535Y-66331500D01*
X45822466Y-66331500D01*
X45822467Y-66331499D01*
X46025420Y-66291130D01*
X46216598Y-66211941D01*
X46388655Y-66096977D01*
X46534977Y-65950655D01*
X46649941Y-65778598D01*
X46729130Y-65587420D01*
X46769500Y-65384465D01*
X46769500Y-65177535D01*
X46729130Y-64974580D01*
X46649941Y-64783402D01*
X46534977Y-64611345D01*
X46534975Y-64611342D01*
X46388657Y-64465024D01*
X46302626Y-64407541D01*
X46216598Y-64350059D01*
X46025420Y-64270870D01*
X46025412Y-64270868D01*
X45822469Y-64230500D01*
X45822465Y-64230500D01*
X45615535Y-64230500D01*
X45615530Y-64230500D01*
X45412587Y-64270868D01*
X45412579Y-64270870D01*
X45221403Y-64350058D01*
X45049342Y-64465024D01*
X44903024Y-64611342D01*
X44788058Y-64783403D01*
X44708870Y-64974579D01*
X44708868Y-64974587D01*
X44668500Y-65177530D01*
X30500500Y-65177530D01*
X30500500Y-59181639D01*
X47056500Y-59181639D01*
X47056500Y-59380360D01*
X47087587Y-59576637D01*
X47148993Y-59765629D01*
X47148994Y-59765632D01*
X47239213Y-59942694D01*
X47356019Y-60103464D01*
X47356021Y-60103466D01*
X47445874Y-60193319D01*
X47479359Y-60254642D01*
X47474375Y-60324334D01*
X47445874Y-60368681D01*
X47356021Y-60458533D01*
X47239213Y-60619305D01*
X47148994Y-60796367D01*
X47148993Y-60796370D01*
X47087587Y-60985362D01*
X47056500Y-61181639D01*
X47056500Y-61380360D01*
X47087587Y-61576637D01*
X47148993Y-61765629D01*
X47148994Y-61765632D01*
X47239213Y-61942694D01*
X47356019Y-62103464D01*
X47496536Y-62243981D01*
X47657306Y-62360787D01*
X47744149Y-62405035D01*
X47834367Y-62451005D01*
X47834370Y-62451006D01*
X47928866Y-62481709D01*
X48023364Y-62512413D01*
X48219639Y-62543500D01*
X48219640Y-62543500D01*
X48418360Y-62543500D01*
X48418361Y-62543500D01*
X48614636Y-62512413D01*
X48803632Y-62451005D01*
X48980694Y-62360787D01*
X49141464Y-62243981D01*
X49281981Y-62103464D01*
X49398787Y-61942694D01*
X49489005Y-61765632D01*
X49550413Y-61576636D01*
X49581500Y-61380361D01*
X49581500Y-61181639D01*
X49550413Y-60985364D01*
X49508808Y-60857316D01*
X49489006Y-60796370D01*
X49489005Y-60796367D01*
X49398786Y-60619305D01*
X49281981Y-60458536D01*
X49192126Y-60368681D01*
X49158641Y-60307358D01*
X49163625Y-60237666D01*
X49192126Y-60193319D01*
X49281981Y-60103464D01*
X49398787Y-59942694D01*
X49489005Y-59765632D01*
X49550413Y-59576636D01*
X49581500Y-59380361D01*
X49581500Y-59181639D01*
X49550413Y-58985364D01*
X49489005Y-58796368D01*
X49489005Y-58796367D01*
X49398786Y-58619305D01*
X49336437Y-58533489D01*
X49281981Y-58458536D01*
X49141464Y-58318019D01*
X48980694Y-58201213D01*
X48804430Y-58111401D01*
X48773044Y-58088597D01*
X48489234Y-57804787D01*
X48531292Y-57793518D01*
X48656708Y-57721110D01*
X48759110Y-57618708D01*
X48831518Y-57493292D01*
X48842787Y-57451234D01*
X49371268Y-57979715D01*
X49398362Y-57942425D01*
X49488542Y-57765437D01*
X49549924Y-57576523D01*
X49549924Y-57576520D01*
X49581000Y-57380321D01*
X49581000Y-57181678D01*
X49549924Y-56985479D01*
X49549924Y-56985476D01*
X49488542Y-56796562D01*
X49398358Y-56619567D01*
X49371268Y-56582283D01*
X48842787Y-57110764D01*
X48831518Y-57068708D01*
X48759110Y-56943292D01*
X48656708Y-56840890D01*
X48531292Y-56768482D01*
X48489234Y-56757212D01*
X49017716Y-56228731D01*
X49017715Y-56228730D01*
X48980432Y-56201641D01*
X48803437Y-56111457D01*
X48614522Y-56050075D01*
X48418321Y-56019000D01*
X48219679Y-56019000D01*
X48023479Y-56050075D01*
X48023476Y-56050075D01*
X47834562Y-56111457D01*
X47657564Y-56201643D01*
X47620283Y-56228729D01*
X47620282Y-56228730D01*
X48148765Y-56757212D01*
X48106708Y-56768482D01*
X47981292Y-56840890D01*
X47878890Y-56943292D01*
X47806482Y-57068708D01*
X47795212Y-57110765D01*
X47266730Y-56582282D01*
X47266729Y-56582283D01*
X47239643Y-56619564D01*
X47149457Y-56796562D01*
X47088075Y-56985476D01*
X47088075Y-56985479D01*
X47057000Y-57181678D01*
X47057000Y-57380321D01*
X47088075Y-57576520D01*
X47088075Y-57576523D01*
X47149457Y-57765437D01*
X47239641Y-57942432D01*
X47266730Y-57979715D01*
X47266731Y-57979716D01*
X47795212Y-57451234D01*
X47806482Y-57493292D01*
X47878890Y-57618708D01*
X47981292Y-57721110D01*
X48106708Y-57793518D01*
X48148764Y-57804787D01*
X47864951Y-58088600D01*
X47833565Y-58111404D01*
X47657305Y-58201213D01*
X47496533Y-58318021D01*
X47356021Y-58458533D01*
X47239213Y-58619305D01*
X47148994Y-58796367D01*
X47148993Y-58796370D01*
X47087587Y-58985362D01*
X47056500Y-59181639D01*
X30500500Y-59181639D01*
X30500500Y-53177530D01*
X32668500Y-53177530D01*
X32668500Y-53384469D01*
X32701473Y-53550233D01*
X32708870Y-53587420D01*
X32788059Y-53778598D01*
X32836440Y-53851006D01*
X32903024Y-53950657D01*
X33049342Y-54096975D01*
X33049345Y-54096977D01*
X33221402Y-54211941D01*
X33412580Y-54291130D01*
X33615530Y-54331499D01*
X33615534Y-54331500D01*
X33615535Y-54331500D01*
X33822466Y-54331500D01*
X33822467Y-54331499D01*
X34025420Y-54291130D01*
X34216598Y-54211941D01*
X34388655Y-54096977D01*
X34534977Y-53950655D01*
X34649941Y-53778598D01*
X34729130Y-53587420D01*
X34769500Y-53384465D01*
X34769500Y-53177535D01*
X34729130Y-52974580D01*
X34649941Y-52783402D01*
X34534977Y-52611345D01*
X34534975Y-52611342D01*
X34388657Y-52465024D01*
X34269433Y-52385362D01*
X34216598Y-52350059D01*
X34025420Y-52270870D01*
X34025412Y-52270868D01*
X33822469Y-52230500D01*
X33822465Y-52230500D01*
X33615535Y-52230500D01*
X33615530Y-52230500D01*
X33412587Y-52270868D01*
X33412579Y-52270870D01*
X33221403Y-52350058D01*
X33049342Y-52465024D01*
X32903024Y-52611342D01*
X32788058Y-52783403D01*
X32708870Y-52974579D01*
X32708868Y-52974587D01*
X32668500Y-53177530D01*
X30500500Y-53177530D01*
X30500500Y-50581639D01*
X36456500Y-50581639D01*
X36456500Y-50780360D01*
X36487587Y-50976637D01*
X36548993Y-51165629D01*
X36548994Y-51165632D01*
X36614657Y-51294500D01*
X36639213Y-51342694D01*
X36756019Y-51503464D01*
X36896536Y-51643981D01*
X37057306Y-51760787D01*
X37138640Y-51802229D01*
X37234367Y-51851005D01*
X37234370Y-51851006D01*
X37328866Y-51881709D01*
X37423364Y-51912413D01*
X37619639Y-51943500D01*
X37619640Y-51943500D01*
X37818360Y-51943500D01*
X37818361Y-51943500D01*
X38014636Y-51912413D01*
X38203632Y-51851005D01*
X38380694Y-51760787D01*
X38541464Y-51643981D01*
X38631319Y-51554126D01*
X38692642Y-51520641D01*
X38762334Y-51525625D01*
X38806681Y-51554126D01*
X38896536Y-51643981D01*
X39057306Y-51760787D01*
X39138640Y-51802229D01*
X39234367Y-51851005D01*
X39234370Y-51851006D01*
X39328866Y-51881709D01*
X39423364Y-51912413D01*
X39619639Y-51943500D01*
X39619640Y-51943500D01*
X39818360Y-51943500D01*
X39818361Y-51943500D01*
X40014636Y-51912413D01*
X40203632Y-51851005D01*
X40380694Y-51760787D01*
X40541464Y-51643981D01*
X40681981Y-51503464D01*
X40798787Y-51342694D01*
X40888599Y-51166428D01*
X40911402Y-51135044D01*
X41195212Y-50851233D01*
X41206482Y-50893292D01*
X41278890Y-51018708D01*
X41381292Y-51121110D01*
X41506708Y-51193518D01*
X41548765Y-51204787D01*
X41020283Y-51733268D01*
X41020283Y-51733269D01*
X41057567Y-51760358D01*
X41234562Y-51850542D01*
X41423477Y-51911924D01*
X41619679Y-51943000D01*
X41818321Y-51943000D01*
X42014520Y-51911924D01*
X42014523Y-51911924D01*
X42203437Y-51850542D01*
X42380425Y-51760362D01*
X42417716Y-51733268D01*
X41889235Y-51204787D01*
X41931292Y-51193518D01*
X42056708Y-51121110D01*
X42159110Y-51018708D01*
X42231518Y-50893292D01*
X42242787Y-50851234D01*
X42771268Y-51379715D01*
X42798362Y-51342425D01*
X42880286Y-51181639D01*
X45056500Y-51181639D01*
X45056500Y-51380361D01*
X45072043Y-51478498D01*
X45087587Y-51576637D01*
X45148993Y-51765629D01*
X45148994Y-51765632D01*
X45196332Y-51858536D01*
X45239213Y-51942694D01*
X45356019Y-52103464D01*
X45496536Y-52243981D01*
X45657306Y-52360787D01*
X45705537Y-52385362D01*
X45834367Y-52451005D01*
X45834370Y-52451006D01*
X45923360Y-52479920D01*
X46023364Y-52512413D01*
X46219639Y-52543500D01*
X46219640Y-52543500D01*
X46332500Y-52543500D01*
X46399539Y-52563185D01*
X46445294Y-52615989D01*
X46456500Y-52667500D01*
X46456500Y-52780360D01*
X46487587Y-52976637D01*
X46548993Y-53165629D01*
X46548994Y-53165632D01*
X46632266Y-53329060D01*
X46639213Y-53342694D01*
X46756019Y-53503464D01*
X46896536Y-53643981D01*
X47057306Y-53760787D01*
X47092262Y-53778598D01*
X47234367Y-53851005D01*
X47234370Y-53851006D01*
X47328866Y-53881709D01*
X47423364Y-53912413D01*
X47619639Y-53943500D01*
X47619640Y-53943500D01*
X47818360Y-53943500D01*
X47818361Y-53943500D01*
X48014636Y-53912413D01*
X48203632Y-53851005D01*
X48380694Y-53760787D01*
X48541464Y-53643981D01*
X48681981Y-53503464D01*
X48798787Y-53342694D01*
X48889005Y-53165632D01*
X48950413Y-52976636D01*
X48981500Y-52780361D01*
X48981500Y-52581639D01*
X48950413Y-52385364D01*
X48904474Y-52243978D01*
X48889006Y-52196370D01*
X48889005Y-52196367D01*
X48798786Y-52019305D01*
X48681981Y-51858536D01*
X48541464Y-51718019D01*
X48380694Y-51601213D01*
X48375032Y-51598328D01*
X48203632Y-51510994D01*
X48203629Y-51510993D01*
X48014637Y-51449587D01*
X47916498Y-51434043D01*
X47818361Y-51418500D01*
X47705500Y-51418500D01*
X47638461Y-51398815D01*
X47592706Y-51346011D01*
X47581500Y-51294500D01*
X47581500Y-51181639D01*
X47571382Y-51117759D01*
X47550413Y-50985364D01*
X47489005Y-50796368D01*
X47489005Y-50796367D01*
X47398786Y-50619305D01*
X47391002Y-50608591D01*
X47281981Y-50458536D01*
X47141464Y-50318019D01*
X46980694Y-50201213D01*
X46969613Y-50195567D01*
X46803632Y-50110994D01*
X46803629Y-50110993D01*
X46614637Y-50049587D01*
X46516498Y-50034043D01*
X46418361Y-50018500D01*
X46219639Y-50018500D01*
X46154214Y-50028862D01*
X46023362Y-50049587D01*
X45834370Y-50110993D01*
X45834367Y-50110994D01*
X45657305Y-50201213D01*
X45496533Y-50318021D01*
X45356021Y-50458533D01*
X45239213Y-50619305D01*
X45148994Y-50796367D01*
X45148993Y-50796370D01*
X45087587Y-50985362D01*
X45087587Y-50985364D01*
X45056500Y-51181639D01*
X42880286Y-51181639D01*
X42888540Y-51165440D01*
X42897312Y-51138447D01*
X42897313Y-51138445D01*
X42949924Y-50976523D01*
X42949924Y-50976520D01*
X42981000Y-50780321D01*
X42981000Y-50581678D01*
X42949924Y-50385479D01*
X42949924Y-50385476D01*
X42888542Y-50196562D01*
X42798358Y-50019567D01*
X42771268Y-49982283D01*
X42242787Y-50510764D01*
X42231518Y-50468708D01*
X42159110Y-50343292D01*
X42056708Y-50240890D01*
X41931292Y-50168482D01*
X41889234Y-50157212D01*
X42417716Y-49628731D01*
X42417715Y-49628730D01*
X42380432Y-49601641D01*
X42203437Y-49511457D01*
X42014522Y-49450075D01*
X41818321Y-49419000D01*
X41619679Y-49419000D01*
X41423479Y-49450075D01*
X41423476Y-49450075D01*
X41234562Y-49511457D01*
X41057564Y-49601643D01*
X41020283Y-49628729D01*
X41020282Y-49628730D01*
X41548765Y-50157212D01*
X41506708Y-50168482D01*
X41381292Y-50240890D01*
X41278890Y-50343292D01*
X41206482Y-50468708D01*
X41195212Y-50510765D01*
X40911400Y-50226953D01*
X40888598Y-50195571D01*
X40798787Y-50019306D01*
X40681981Y-49858536D01*
X40541464Y-49718019D01*
X40380694Y-49601213D01*
X40203632Y-49510994D01*
X40203629Y-49510993D01*
X40014637Y-49449587D01*
X39916498Y-49434043D01*
X39818361Y-49418500D01*
X39619639Y-49418500D01*
X39554214Y-49428862D01*
X39423362Y-49449587D01*
X39234370Y-49510993D01*
X39234367Y-49510994D01*
X39057305Y-49601213D01*
X38896533Y-49718021D01*
X38806681Y-49807874D01*
X38745358Y-49841359D01*
X38675666Y-49836375D01*
X38631319Y-49807874D01*
X38541466Y-49718021D01*
X38541464Y-49718019D01*
X38380694Y-49601213D01*
X38203632Y-49510994D01*
X38203629Y-49510993D01*
X38014637Y-49449587D01*
X37916498Y-49434043D01*
X37818361Y-49418500D01*
X37619639Y-49418500D01*
X37554214Y-49428862D01*
X37423362Y-49449587D01*
X37234370Y-49510993D01*
X37234367Y-49510994D01*
X37057305Y-49601213D01*
X36896533Y-49718021D01*
X36756021Y-49858533D01*
X36639213Y-50019305D01*
X36548994Y-50196367D01*
X36548993Y-50196370D01*
X36487587Y-50385362D01*
X36456500Y-50581639D01*
X30500500Y-50581639D01*
X30500500Y-29893713D01*
X30949500Y-29893713D01*
X30949500Y-30106286D01*
X30982753Y-30316239D01*
X30982753Y-30316241D01*
X30982754Y-30316243D01*
X31039117Y-30489711D01*
X31048444Y-30518414D01*
X31144951Y-30707820D01*
X31269890Y-30879786D01*
X31420213Y-31030109D01*
X31592179Y-31155048D01*
X31592181Y-31155049D01*
X31592184Y-31155051D01*
X31781588Y-31251557D01*
X31983757Y-31317246D01*
X32193713Y-31350500D01*
X32193714Y-31350500D01*
X32406286Y-31350500D01*
X32406287Y-31350500D01*
X32616243Y-31317246D01*
X32818412Y-31251557D01*
X33007816Y-31155051D01*
X33029789Y-31139086D01*
X33179786Y-31030109D01*
X33179788Y-31030106D01*
X33179792Y-31030104D01*
X33330104Y-30879792D01*
X33330106Y-30879788D01*
X33330109Y-30879786D01*
X33455048Y-30707820D01*
X33455047Y-30707820D01*
X33455051Y-30707816D01*
X33459514Y-30699054D01*
X33507488Y-30648259D01*
X33575308Y-30631463D01*
X33641444Y-30653999D01*
X33680486Y-30699056D01*
X33684951Y-30707820D01*
X33809890Y-30879786D01*
X33960213Y-31030109D01*
X34132179Y-31155048D01*
X34132181Y-31155049D01*
X34132184Y-31155051D01*
X34321588Y-31251557D01*
X34523757Y-31317246D01*
X34733713Y-31350500D01*
X34733714Y-31350500D01*
X34946286Y-31350500D01*
X34946287Y-31350500D01*
X35156243Y-31317246D01*
X35358412Y-31251557D01*
X35547816Y-31155051D01*
X35569789Y-31139086D01*
X35719786Y-31030109D01*
X35719788Y-31030106D01*
X35719792Y-31030104D01*
X35870104Y-30879792D01*
X35870106Y-30879788D01*
X35870109Y-30879786D01*
X35995048Y-30707820D01*
X35995047Y-30707820D01*
X35995051Y-30707816D01*
X35999514Y-30699054D01*
X36047488Y-30648259D01*
X36115308Y-30631463D01*
X36181444Y-30653999D01*
X36220486Y-30699056D01*
X36224951Y-30707820D01*
X36349890Y-30879786D01*
X36500213Y-31030109D01*
X36672179Y-31155048D01*
X36672181Y-31155049D01*
X36672184Y-31155051D01*
X36861588Y-31251557D01*
X37063757Y-31317246D01*
X37273713Y-31350500D01*
X37273714Y-31350500D01*
X37486286Y-31350500D01*
X37486287Y-31350500D01*
X37696243Y-31317246D01*
X37898412Y-31251557D01*
X38087816Y-31155051D01*
X38109789Y-31139086D01*
X38259786Y-31030109D01*
X38259788Y-31030106D01*
X38259792Y-31030104D01*
X38410104Y-30879792D01*
X38410106Y-30879788D01*
X38410109Y-30879786D01*
X38535048Y-30707820D01*
X38535047Y-30707820D01*
X38535051Y-30707816D01*
X38539514Y-30699054D01*
X38587488Y-30648259D01*
X38655308Y-30631463D01*
X38721444Y-30653999D01*
X38760486Y-30699056D01*
X38764951Y-30707820D01*
X38889890Y-30879786D01*
X39040213Y-31030109D01*
X39212179Y-31155048D01*
X39212181Y-31155049D01*
X39212184Y-31155051D01*
X39401588Y-31251557D01*
X39603757Y-31317246D01*
X39813713Y-31350500D01*
X39813714Y-31350500D01*
X40026286Y-31350500D01*
X40026287Y-31350500D01*
X40236243Y-31317246D01*
X40438412Y-31251557D01*
X40627816Y-31155051D01*
X40649789Y-31139086D01*
X40799786Y-31030109D01*
X40799788Y-31030106D01*
X40799792Y-31030104D01*
X40950104Y-30879792D01*
X40950106Y-30879788D01*
X40950109Y-30879786D01*
X41075048Y-30707820D01*
X41075047Y-30707820D01*
X41075051Y-30707816D01*
X41079514Y-30699054D01*
X41127488Y-30648259D01*
X41195308Y-30631463D01*
X41261444Y-30653999D01*
X41300486Y-30699056D01*
X41304951Y-30707820D01*
X41429890Y-30879786D01*
X41580213Y-31030109D01*
X41752179Y-31155048D01*
X41752181Y-31155049D01*
X41752184Y-31155051D01*
X41941588Y-31251557D01*
X42143757Y-31317246D01*
X42353713Y-31350500D01*
X42353714Y-31350500D01*
X42566286Y-31350500D01*
X42566287Y-31350500D01*
X42776243Y-31317246D01*
X42978412Y-31251557D01*
X43167816Y-31155051D01*
X43189789Y-31139086D01*
X43339786Y-31030109D01*
X43339788Y-31030106D01*
X43339792Y-31030104D01*
X43490104Y-30879792D01*
X43490106Y-30879788D01*
X43490109Y-30879786D01*
X43615048Y-30707820D01*
X43615047Y-30707820D01*
X43615051Y-30707816D01*
X43619514Y-30699054D01*
X43667488Y-30648259D01*
X43735308Y-30631463D01*
X43801444Y-30653999D01*
X43840486Y-30699056D01*
X43844951Y-30707820D01*
X43969890Y-30879786D01*
X44120213Y-31030109D01*
X44292179Y-31155048D01*
X44292181Y-31155049D01*
X44292184Y-31155051D01*
X44481588Y-31251557D01*
X44683757Y-31317246D01*
X44893713Y-31350500D01*
X44893714Y-31350500D01*
X45106286Y-31350500D01*
X45106287Y-31350500D01*
X45316243Y-31317246D01*
X45518412Y-31251557D01*
X45707816Y-31155051D01*
X45729789Y-31139086D01*
X45879786Y-31030109D01*
X45879788Y-31030106D01*
X45879792Y-31030104D01*
X45898769Y-31011126D01*
X45960089Y-30977641D01*
X46029781Y-30982624D01*
X46074131Y-31011126D01*
X46578379Y-31515374D01*
X46578389Y-31515385D01*
X46582719Y-31519715D01*
X46582720Y-31519716D01*
X46694524Y-31631520D01*
X46694526Y-31631521D01*
X46694530Y-31631524D01*
X46826009Y-31707432D01*
X46831456Y-31710577D01*
X46943259Y-31740534D01*
X46984182Y-31751500D01*
X46984183Y-31751500D01*
X48842331Y-31751500D01*
X48842347Y-31751501D01*
X48849943Y-31751501D01*
X49008054Y-31751501D01*
X49008057Y-31751501D01*
X49160785Y-31710577D01*
X49248026Y-31660208D01*
X49297716Y-31631520D01*
X49409520Y-31519716D01*
X49409520Y-31519714D01*
X49419723Y-31509512D01*
X49419727Y-31509506D01*
X49595478Y-31333755D01*
X49656799Y-31300272D01*
X49721473Y-31303506D01*
X49763757Y-31317246D01*
X49973713Y-31350500D01*
X49973714Y-31350500D01*
X50186286Y-31350500D01*
X50186287Y-31350500D01*
X50396243Y-31317246D01*
X50598412Y-31251557D01*
X50787816Y-31155051D01*
X50809789Y-31139086D01*
X50959786Y-31030109D01*
X50959788Y-31030106D01*
X50959792Y-31030104D01*
X51110104Y-30879792D01*
X51110106Y-30879788D01*
X51110109Y-30879786D01*
X51235048Y-30707820D01*
X51235047Y-30707820D01*
X51235051Y-30707816D01*
X51239514Y-30699054D01*
X51287488Y-30648259D01*
X51355308Y-30631463D01*
X51421444Y-30653999D01*
X51460486Y-30699056D01*
X51464951Y-30707820D01*
X51589890Y-30879786D01*
X51740213Y-31030109D01*
X51912182Y-31155050D01*
X51920946Y-31159516D01*
X51971742Y-31207491D01*
X51988536Y-31275312D01*
X51965998Y-31341447D01*
X51920946Y-31380484D01*
X51912182Y-31384949D01*
X51740213Y-31509890D01*
X51740209Y-31509894D01*
X51589896Y-31660208D01*
X51589890Y-31660213D01*
X51464951Y-31832179D01*
X51368444Y-32021585D01*
X51302753Y-32223760D01*
X51269500Y-32433713D01*
X51269500Y-32646286D01*
X51302753Y-32856239D01*
X51368444Y-33058414D01*
X51464951Y-33247820D01*
X51589890Y-33419786D01*
X51740213Y-33570109D01*
X51912182Y-33695050D01*
X51920946Y-33699516D01*
X51971742Y-33747491D01*
X51988536Y-33815312D01*
X51965998Y-33881447D01*
X51920946Y-33920484D01*
X51912182Y-33924949D01*
X51740213Y-34049890D01*
X51589890Y-34200213D01*
X51464951Y-34372179D01*
X51368444Y-34561585D01*
X51302753Y-34763760D01*
X51269500Y-34973713D01*
X51269500Y-35186286D01*
X51300489Y-35381947D01*
X51302754Y-35396243D01*
X51350965Y-35544622D01*
X51368444Y-35598414D01*
X51464951Y-35787820D01*
X51589890Y-35959786D01*
X51740213Y-36110109D01*
X51912182Y-36235050D01*
X51920946Y-36239516D01*
X51971742Y-36287491D01*
X51988536Y-36355312D01*
X51965998Y-36421447D01*
X51920946Y-36460484D01*
X51912182Y-36464949D01*
X51740213Y-36589890D01*
X51589890Y-36740213D01*
X51464951Y-36912179D01*
X51368444Y-37101585D01*
X51302753Y-37303760D01*
X51269500Y-37513713D01*
X51269500Y-37726286D01*
X51302383Y-37933904D01*
X51302754Y-37936243D01*
X51361842Y-38118097D01*
X51368444Y-38138414D01*
X51464951Y-38327820D01*
X51589890Y-38499786D01*
X51740213Y-38650109D01*
X51912182Y-38775050D01*
X51920946Y-38779516D01*
X51971742Y-38827491D01*
X51988536Y-38895312D01*
X51965998Y-38961447D01*
X51920946Y-39000484D01*
X51912182Y-39004949D01*
X51740213Y-39129890D01*
X51589890Y-39280213D01*
X51464951Y-39452179D01*
X51368444Y-39641585D01*
X51302753Y-39843760D01*
X51269500Y-40053713D01*
X51269500Y-40266286D01*
X51301755Y-40469939D01*
X51302754Y-40476243D01*
X51337604Y-40583501D01*
X51368444Y-40678414D01*
X51464951Y-40867820D01*
X51589890Y-41039786D01*
X51740213Y-41190109D01*
X51912182Y-41315050D01*
X51920946Y-41319516D01*
X51971742Y-41367491D01*
X51988536Y-41435312D01*
X51965998Y-41501447D01*
X51920946Y-41540484D01*
X51912182Y-41544949D01*
X51740213Y-41669890D01*
X51589890Y-41820213D01*
X51464951Y-41992179D01*
X51368444Y-42181585D01*
X51368443Y-42181587D01*
X51368443Y-42181588D01*
X51335598Y-42282672D01*
X51302753Y-42383760D01*
X51278157Y-42539054D01*
X51269500Y-42593713D01*
X51269500Y-42806287D01*
X51273053Y-42828717D01*
X51291879Y-42947585D01*
X51302754Y-43016243D01*
X51365897Y-43210577D01*
X51368444Y-43218414D01*
X51464951Y-43407820D01*
X51589890Y-43579786D01*
X51740213Y-43730109D01*
X51912182Y-43855050D01*
X51920946Y-43859516D01*
X51971742Y-43907491D01*
X51988536Y-43975312D01*
X51965998Y-44041447D01*
X51920946Y-44080484D01*
X51912182Y-44084949D01*
X51740213Y-44209890D01*
X51589890Y-44360213D01*
X51464949Y-44532182D01*
X51460484Y-44540946D01*
X51412509Y-44591742D01*
X51344688Y-44608536D01*
X51278553Y-44585998D01*
X51239516Y-44540946D01*
X51235050Y-44532182D01*
X51110109Y-44360213D01*
X50959786Y-44209890D01*
X50787820Y-44084951D01*
X50598414Y-43988444D01*
X50598413Y-43988443D01*
X50598412Y-43988443D01*
X50396243Y-43922754D01*
X50396241Y-43922753D01*
X50396240Y-43922753D01*
X50234957Y-43897208D01*
X50186287Y-43889500D01*
X49973713Y-43889500D01*
X49925042Y-43897208D01*
X49763760Y-43922753D01*
X49561585Y-43988444D01*
X49372179Y-44084951D01*
X49200213Y-44209890D01*
X49049890Y-44360213D01*
X48924949Y-44532182D01*
X48920484Y-44540946D01*
X48872509Y-44591742D01*
X48804688Y-44608536D01*
X48738553Y-44585998D01*
X48699516Y-44540946D01*
X48695050Y-44532182D01*
X48570109Y-44360213D01*
X48419786Y-44209890D01*
X48247820Y-44084951D01*
X48058414Y-43988444D01*
X48058413Y-43988443D01*
X48058412Y-43988443D01*
X47856243Y-43922754D01*
X47856241Y-43922753D01*
X47856240Y-43922753D01*
X47694957Y-43897208D01*
X47646287Y-43889500D01*
X47433713Y-43889500D01*
X47385042Y-43897208D01*
X47223760Y-43922753D01*
X47021585Y-43988444D01*
X46832179Y-44084951D01*
X46658384Y-44211220D01*
X46592577Y-44234700D01*
X46524524Y-44218874D01*
X46497818Y-44198583D01*
X43854613Y-41555378D01*
X41188215Y-38888979D01*
X41154730Y-38827656D01*
X41153423Y-38781900D01*
X41155863Y-38766498D01*
X41175500Y-38642514D01*
X41175500Y-38457486D01*
X41146555Y-38274736D01*
X41102261Y-38138412D01*
X41089380Y-38098767D01*
X41089379Y-38098764D01*
X41039056Y-38000000D01*
X41005378Y-37933904D01*
X40896621Y-37784213D01*
X40765787Y-37653379D01*
X40761576Y-37650319D01*
X40718909Y-37594994D01*
X40712926Y-37525381D01*
X40745529Y-37463585D01*
X40761570Y-37449684D01*
X40765787Y-37446621D01*
X40896621Y-37315787D01*
X41005378Y-37166096D01*
X41089379Y-37001235D01*
X41146555Y-36825264D01*
X41175500Y-36642514D01*
X41175500Y-36457486D01*
X41146555Y-36274736D01*
X41093065Y-36110109D01*
X41089380Y-36098767D01*
X41089379Y-36098764D01*
X41039056Y-36000000D01*
X41005378Y-35933904D01*
X40921159Y-35817987D01*
X40897680Y-35752183D01*
X40913505Y-35684129D01*
X40947167Y-35645836D01*
X41032190Y-35582186D01*
X41118350Y-35467093D01*
X41118354Y-35467086D01*
X41168596Y-35332379D01*
X41168598Y-35332372D01*
X41174999Y-35272844D01*
X41175000Y-35272827D01*
X41175000Y-34800000D01*
X40315686Y-34800000D01*
X40320080Y-34795606D01*
X40372741Y-34704394D01*
X40400000Y-34602661D01*
X40400000Y-34497339D01*
X40372741Y-34395606D01*
X40320080Y-34304394D01*
X40315686Y-34300000D01*
X41175000Y-34300000D01*
X41175000Y-33827172D01*
X41174999Y-33827155D01*
X41168598Y-33767627D01*
X41168596Y-33767620D01*
X41118354Y-33632913D01*
X41118350Y-33632906D01*
X41032190Y-33517812D01*
X41032187Y-33517809D01*
X40917093Y-33431649D01*
X40917086Y-33431645D01*
X40782379Y-33381403D01*
X40782372Y-33381401D01*
X40722844Y-33375000D01*
X40250000Y-33375000D01*
X40250000Y-34234314D01*
X40245606Y-34229920D01*
X40154394Y-34177259D01*
X40052661Y-34150000D01*
X39947339Y-34150000D01*
X39845606Y-34177259D01*
X39754394Y-34229920D01*
X39750000Y-34234314D01*
X39750000Y-33375000D01*
X39277155Y-33375000D01*
X39217627Y-33381401D01*
X39217620Y-33381403D01*
X39082913Y-33431645D01*
X39082906Y-33431649D01*
X38967812Y-33517809D01*
X38967809Y-33517812D01*
X38881649Y-33632906D01*
X38881645Y-33632913D01*
X38831403Y-33767620D01*
X38831401Y-33767627D01*
X38825000Y-33827155D01*
X38825000Y-34300000D01*
X39684314Y-34300000D01*
X39679920Y-34304394D01*
X39627259Y-34395606D01*
X39600000Y-34497339D01*
X39600000Y-34602661D01*
X39627259Y-34704394D01*
X39679920Y-34795606D01*
X39684314Y-34800000D01*
X38825000Y-34800000D01*
X38825000Y-35272844D01*
X38831401Y-35332372D01*
X38831403Y-35332379D01*
X38881645Y-35467086D01*
X38881647Y-35467089D01*
X38944604Y-35551188D01*
X38969022Y-35616653D01*
X38954171Y-35684926D01*
X38904766Y-35734332D01*
X38845338Y-35749500D01*
X37521153Y-35749500D01*
X37366510Y-35780260D01*
X37366502Y-35780262D01*
X37220824Y-35840604D01*
X37220814Y-35840609D01*
X37089711Y-35928210D01*
X37089707Y-35928213D01*
X34604741Y-38413181D01*
X34543418Y-38446666D01*
X34517060Y-38449500D01*
X32271155Y-38449500D01*
X32116510Y-38480261D01*
X32116498Y-38480264D01*
X31970827Y-38540602D01*
X31970814Y-38540609D01*
X31839711Y-38628210D01*
X31839707Y-38628213D01*
X31728213Y-38739707D01*
X31728210Y-38739711D01*
X31640609Y-38870814D01*
X31640602Y-38870827D01*
X31580264Y-39016498D01*
X31580261Y-39016510D01*
X31549500Y-39171153D01*
X31549500Y-39328846D01*
X31580261Y-39483489D01*
X31580264Y-39483501D01*
X31640602Y-39629172D01*
X31640609Y-39629185D01*
X31728210Y-39760288D01*
X31728213Y-39760292D01*
X31839707Y-39871786D01*
X31839711Y-39871789D01*
X31970814Y-39959390D01*
X31970827Y-39959397D01*
X32113328Y-40018422D01*
X32116503Y-40019737D01*
X32271153Y-40050499D01*
X32271156Y-40050500D01*
X32271158Y-40050500D01*
X34978844Y-40050500D01*
X34978845Y-40050499D01*
X35133497Y-40019737D01*
X35246166Y-39973067D01*
X35279172Y-39959397D01*
X35279172Y-39959396D01*
X35279179Y-39959394D01*
X35410289Y-39871789D01*
X37895259Y-37386819D01*
X37956582Y-37353334D01*
X37982940Y-37350500D01*
X39086730Y-37350500D01*
X39114941Y-37358783D01*
X39143809Y-37364418D01*
X39150292Y-37369164D01*
X39153769Y-37370185D01*
X39172511Y-37384959D01*
X39173463Y-37385871D01*
X39234213Y-37446621D01*
X39245236Y-37454630D01*
X39251321Y-37460459D01*
X39264693Y-37483747D01*
X39281094Y-37505019D01*
X39281829Y-37513590D01*
X39286113Y-37521050D01*
X39284771Y-37547870D01*
X39287069Y-37574633D01*
X39283053Y-37582242D01*
X39282624Y-37590832D01*
X39266995Y-37612670D01*
X39254459Y-37636426D01*
X39242707Y-37646608D01*
X39241962Y-37647651D01*
X39241117Y-37647986D01*
X39238432Y-37650314D01*
X39234210Y-37653381D01*
X39103381Y-37784210D01*
X39103381Y-37784211D01*
X39103379Y-37784213D01*
X39090978Y-37801282D01*
X38994622Y-37933903D01*
X38910620Y-38098764D01*
X38910619Y-38098767D01*
X38853445Y-38274734D01*
X38824500Y-38457486D01*
X38824500Y-38642513D01*
X38853445Y-38825265D01*
X38910619Y-39001232D01*
X38910620Y-39001235D01*
X38976174Y-39129890D01*
X38994622Y-39166096D01*
X39103379Y-39315787D01*
X39234213Y-39446621D01*
X39238432Y-39449686D01*
X39281094Y-39505019D01*
X39287069Y-39574633D01*
X39254459Y-39636426D01*
X39238432Y-39650314D01*
X39234210Y-39653381D01*
X39103381Y-39784210D01*
X39103381Y-39784211D01*
X39103379Y-39784213D01*
X39090358Y-39802135D01*
X38994622Y-39933903D01*
X38910620Y-40098764D01*
X38910619Y-40098767D01*
X38853445Y-40274734D01*
X38824500Y-40457486D01*
X38824500Y-40642513D01*
X38853445Y-40825265D01*
X38910619Y-41001232D01*
X38910620Y-41001235D01*
X38973997Y-41125617D01*
X38994622Y-41166096D01*
X39103379Y-41315787D01*
X39234213Y-41446621D01*
X39383904Y-41555378D01*
X39464763Y-41596577D01*
X39548764Y-41639379D01*
X39548767Y-41639380D01*
X39636750Y-41667967D01*
X39724736Y-41696555D01*
X39907486Y-41725500D01*
X39907487Y-41725500D01*
X40092513Y-41725500D01*
X40092514Y-41725500D01*
X40231900Y-41703423D01*
X40301193Y-41712377D01*
X40338979Y-41738215D01*
X42299509Y-43698745D01*
X42332994Y-43760068D01*
X42328010Y-43829760D01*
X42286138Y-43885693D01*
X42231227Y-43908899D01*
X42143759Y-43922753D01*
X41941585Y-43988444D01*
X41752179Y-44084951D01*
X41580213Y-44209890D01*
X41429890Y-44360213D01*
X41304949Y-44532182D01*
X41300484Y-44540946D01*
X41252509Y-44591742D01*
X41184688Y-44608536D01*
X41118553Y-44585998D01*
X41079516Y-44540946D01*
X41075050Y-44532182D01*
X40950109Y-44360213D01*
X40799786Y-44209890D01*
X40627820Y-44084951D01*
X40438414Y-43988444D01*
X40438413Y-43988443D01*
X40438412Y-43988443D01*
X40236243Y-43922754D01*
X40236241Y-43922753D01*
X40236240Y-43922753D01*
X40074957Y-43897208D01*
X40026287Y-43889500D01*
X39813713Y-43889500D01*
X39765042Y-43897208D01*
X39603760Y-43922753D01*
X39401585Y-43988444D01*
X39212179Y-44084951D01*
X39040213Y-44209890D01*
X38889890Y-44360213D01*
X38764949Y-44532182D01*
X38760484Y-44540946D01*
X38712509Y-44591742D01*
X38644688Y-44608536D01*
X38578553Y-44585998D01*
X38539516Y-44540946D01*
X38535050Y-44532182D01*
X38410109Y-44360213D01*
X38259786Y-44209890D01*
X38087820Y-44084951D01*
X37898414Y-43988444D01*
X37898413Y-43988443D01*
X37898412Y-43988443D01*
X37696243Y-43922754D01*
X37696241Y-43922753D01*
X37696240Y-43922753D01*
X37534957Y-43897208D01*
X37486287Y-43889500D01*
X37273713Y-43889500D01*
X37225042Y-43897208D01*
X37063760Y-43922753D01*
X36861585Y-43988444D01*
X36672179Y-44084951D01*
X36500213Y-44209890D01*
X36349890Y-44360213D01*
X36224949Y-44532182D01*
X36220202Y-44541499D01*
X36172227Y-44592293D01*
X36104405Y-44609087D01*
X36038271Y-44586548D01*
X35999234Y-44541495D01*
X35994622Y-44532444D01*
X35869727Y-44360540D01*
X35869723Y-44360535D01*
X35719464Y-44210276D01*
X35719459Y-44210272D01*
X35547557Y-44085379D01*
X35358215Y-43988903D01*
X35156124Y-43923241D01*
X35090000Y-43912768D01*
X35090000Y-44806988D01*
X35032993Y-44774075D01*
X34905826Y-44740000D01*
X34774174Y-44740000D01*
X34647007Y-44774075D01*
X34590000Y-44806988D01*
X34590000Y-43912768D01*
X34589999Y-43912768D01*
X34523875Y-43923241D01*
X34321784Y-43988903D01*
X34132442Y-44085379D01*
X33960540Y-44210272D01*
X33960535Y-44210276D01*
X33810276Y-44360535D01*
X33810272Y-44360540D01*
X33685378Y-44532443D01*
X33680762Y-44541502D01*
X33632784Y-44592295D01*
X33564963Y-44609087D01*
X33498829Y-44586546D01*
X33459794Y-44541493D01*
X33455051Y-44532184D01*
X33455049Y-44532181D01*
X33455048Y-44532179D01*
X33330109Y-44360213D01*
X33179786Y-44209890D01*
X33007820Y-44084951D01*
X32818414Y-43988444D01*
X32818413Y-43988443D01*
X32818412Y-43988443D01*
X32616243Y-43922754D01*
X32616241Y-43922753D01*
X32616240Y-43922753D01*
X32454957Y-43897208D01*
X32406287Y-43889500D01*
X32193713Y-43889500D01*
X32145042Y-43897208D01*
X31983760Y-43922753D01*
X31781585Y-43988444D01*
X31592179Y-44084951D01*
X31420213Y-44209890D01*
X31269890Y-44360213D01*
X31144951Y-44532179D01*
X31048444Y-44721585D01*
X30982753Y-44923760D01*
X30969048Y-45010292D01*
X30949500Y-45133713D01*
X30949500Y-45346287D01*
X30982754Y-45556243D01*
X31047068Y-45754181D01*
X31048444Y-45758414D01*
X31144951Y-45947820D01*
X31269890Y-46119786D01*
X31420213Y-46270109D01*
X31592179Y-46395048D01*
X31592181Y-46395049D01*
X31592184Y-46395051D01*
X31781588Y-46491557D01*
X31983757Y-46557246D01*
X32193713Y-46590500D01*
X32193714Y-46590500D01*
X32406286Y-46590500D01*
X32406287Y-46590500D01*
X32616243Y-46557246D01*
X32818412Y-46491557D01*
X33007816Y-46395051D01*
X33029789Y-46379086D01*
X33179786Y-46270109D01*
X33179788Y-46270106D01*
X33179792Y-46270104D01*
X33330104Y-46119792D01*
X33330106Y-46119788D01*
X33330109Y-46119786D01*
X33455048Y-45947820D01*
X33455051Y-45947816D01*
X33459793Y-45938508D01*
X33507763Y-45887711D01*
X33575583Y-45870911D01*
X33641719Y-45893445D01*
X33680763Y-45938500D01*
X33685377Y-45947555D01*
X33810272Y-46119459D01*
X33810276Y-46119464D01*
X33960535Y-46269723D01*
X33960540Y-46269727D01*
X34132442Y-46394620D01*
X34321782Y-46491095D01*
X34523871Y-46556757D01*
X34590000Y-46567231D01*
X34590000Y-45673012D01*
X34647007Y-45705925D01*
X34774174Y-45740000D01*
X34905826Y-45740000D01*
X35032993Y-45705925D01*
X35090000Y-45673012D01*
X35090000Y-46567230D01*
X35156126Y-46556757D01*
X35156129Y-46556757D01*
X35358217Y-46491095D01*
X35547557Y-46394620D01*
X35719459Y-46269727D01*
X35719464Y-46269723D01*
X35869723Y-46119464D01*
X35869727Y-46119459D01*
X35994620Y-45947558D01*
X35999232Y-45938507D01*
X36047205Y-45887709D01*
X36115025Y-45870912D01*
X36181161Y-45893447D01*
X36220204Y-45938504D01*
X36224949Y-45947817D01*
X36349890Y-46119786D01*
X36500213Y-46270109D01*
X36672179Y-46395048D01*
X36672181Y-46395049D01*
X36672184Y-46395051D01*
X36861588Y-46491557D01*
X37063757Y-46557246D01*
X37273713Y-46590500D01*
X37273714Y-46590500D01*
X37486285Y-46590500D01*
X37486287Y-46590500D01*
X37520686Y-46585051D01*
X37589977Y-46594005D01*
X37627765Y-46619843D01*
X38220707Y-47212786D01*
X38220711Y-47212789D01*
X38351814Y-47300390D01*
X38351818Y-47300392D01*
X38351821Y-47300394D01*
X38497503Y-47360738D01*
X38625412Y-47386180D01*
X38652153Y-47391499D01*
X38652157Y-47391500D01*
X55209901Y-47391500D01*
X55276940Y-47411185D01*
X55322695Y-47463989D01*
X55332639Y-47533147D01*
X55303614Y-47596703D01*
X55297582Y-47603181D01*
X50131286Y-52769478D01*
X50019481Y-52881282D01*
X50019479Y-52881285D01*
X49969361Y-52968094D01*
X49969359Y-52968096D01*
X49940425Y-53018209D01*
X49940424Y-53018210D01*
X49936369Y-53033344D01*
X49899499Y-53170943D01*
X49899499Y-53170945D01*
X49899499Y-53339046D01*
X49899500Y-53339059D01*
X49899500Y-62949902D01*
X49879815Y-63016941D01*
X49863181Y-63037583D01*
X39063167Y-73837596D01*
X39001844Y-73871081D01*
X38932152Y-73866097D01*
X38928058Y-73864486D01*
X38820330Y-73819863D01*
X38820331Y-73819863D01*
X38820328Y-73819862D01*
X38678203Y-73781780D01*
X38596149Y-73759794D01*
X38567386Y-73756007D01*
X38366052Y-73729500D01*
X38366045Y-73729500D01*
X38133955Y-73729500D01*
X38133947Y-73729500D01*
X37903851Y-73759794D01*
X37679671Y-73819862D01*
X37465254Y-73908677D01*
X37465237Y-73908685D01*
X37264256Y-74024720D01*
X37264254Y-74024721D01*
X37080124Y-74166009D01*
X37080117Y-74166015D01*
X36916015Y-74330117D01*
X36916009Y-74330124D01*
X36774721Y-74514254D01*
X36774720Y-74514256D01*
X36658685Y-74715237D01*
X36658677Y-74715254D01*
X36569862Y-74929671D01*
X36509794Y-75153851D01*
X36479500Y-75383947D01*
X36479500Y-75616052D01*
X36509794Y-75846148D01*
X36569862Y-76070328D01*
X36658677Y-76284745D01*
X36658685Y-76284762D01*
X36774720Y-76485743D01*
X36774721Y-76485745D01*
X36916009Y-76669875D01*
X36916015Y-76669882D01*
X37080117Y-76833984D01*
X37080124Y-76833990D01*
X37264254Y-76975278D01*
X37264256Y-76975279D01*
X37465237Y-77091314D01*
X37465240Y-77091315D01*
X37465248Y-77091320D01*
X37679670Y-77180137D01*
X37903851Y-77240206D01*
X38133955Y-77270500D01*
X38133962Y-77270500D01*
X38366038Y-77270500D01*
X38366045Y-77270500D01*
X38596149Y-77240206D01*
X38820330Y-77180137D01*
X39034752Y-77091320D01*
X39168749Y-77013957D01*
X39235743Y-76975279D01*
X39235745Y-76975278D01*
X39236294Y-76974857D01*
X39419877Y-76833989D01*
X39419882Y-76833984D01*
X39473619Y-76780248D01*
X39583984Y-76669882D01*
X39583989Y-76669877D01*
X39725276Y-76485748D01*
X39841320Y-76284752D01*
X39930137Y-76070330D01*
X39990206Y-75846149D01*
X40020500Y-75616045D01*
X40020500Y-75383994D01*
X41980000Y-75383994D01*
X41980000Y-75616005D01*
X41980001Y-75616022D01*
X42010283Y-75846040D01*
X42010286Y-75846053D01*
X42070336Y-76070167D01*
X42159124Y-76284521D01*
X42159132Y-76284538D01*
X42275136Y-76485461D01*
X42275142Y-76485469D01*
X42334117Y-76562327D01*
X43034152Y-75862292D01*
X43041049Y-75878942D01*
X43128599Y-76009970D01*
X43240030Y-76121401D01*
X43371058Y-76208951D01*
X43387706Y-76215846D01*
X42687671Y-76915881D01*
X42764530Y-76974857D01*
X42764538Y-76974863D01*
X42965461Y-77090867D01*
X42965478Y-77090875D01*
X43179832Y-77179663D01*
X43403946Y-77239713D01*
X43403959Y-77239716D01*
X43633977Y-77269998D01*
X43633995Y-77270000D01*
X43866005Y-77270000D01*
X43866022Y-77269998D01*
X44096040Y-77239716D01*
X44096053Y-77239713D01*
X44320167Y-77179663D01*
X44534521Y-77090875D01*
X44534538Y-77090867D01*
X44735475Y-76974855D01*
X44812327Y-76915883D01*
X44812327Y-76915880D01*
X44112293Y-76215847D01*
X44128942Y-76208951D01*
X44259970Y-76121401D01*
X44371401Y-76009970D01*
X44458951Y-75878942D01*
X44465846Y-75862293D01*
X45165880Y-76562327D01*
X45165883Y-76562327D01*
X45224855Y-76485475D01*
X45340867Y-76284538D01*
X45340875Y-76284521D01*
X45429663Y-76070167D01*
X45489713Y-75846053D01*
X45489716Y-75846040D01*
X45519998Y-75616022D01*
X45520000Y-75616005D01*
X45520000Y-75383994D01*
X45519998Y-75383977D01*
X45489716Y-75153959D01*
X45489713Y-75153946D01*
X45429663Y-74929832D01*
X45340875Y-74715478D01*
X45340867Y-74715461D01*
X45224863Y-74514538D01*
X45224857Y-74514530D01*
X45165881Y-74437671D01*
X44465846Y-75137705D01*
X44458951Y-75121058D01*
X44371401Y-74990030D01*
X44259970Y-74878599D01*
X44128942Y-74791049D01*
X44112293Y-74784152D01*
X44812327Y-74084117D01*
X44735469Y-74025142D01*
X44735461Y-74025136D01*
X44534538Y-73909132D01*
X44534521Y-73909124D01*
X44320167Y-73820336D01*
X44096053Y-73760286D01*
X44096040Y-73760283D01*
X43866022Y-73730001D01*
X43866005Y-73730000D01*
X43633995Y-73730000D01*
X43633977Y-73730001D01*
X43403959Y-73760283D01*
X43403946Y-73760286D01*
X43179832Y-73820336D01*
X42965478Y-73909124D01*
X42965461Y-73909132D01*
X42764541Y-74025134D01*
X42764533Y-74025140D01*
X42687671Y-74084116D01*
X42687671Y-74084117D01*
X43387706Y-74784152D01*
X43371058Y-74791049D01*
X43240030Y-74878599D01*
X43128599Y-74990030D01*
X43041049Y-75121058D01*
X43034153Y-75137706D01*
X42334117Y-74437671D01*
X42334116Y-74437671D01*
X42275140Y-74514533D01*
X42275134Y-74514541D01*
X42159132Y-74715461D01*
X42159124Y-74715478D01*
X42070336Y-74929832D01*
X42010286Y-75153946D01*
X42010283Y-75153959D01*
X41980001Y-75383977D01*
X41980000Y-75383994D01*
X40020500Y-75383994D01*
X40020500Y-75383955D01*
X39990206Y-75153851D01*
X39930137Y-74929670D01*
X39885523Y-74821964D01*
X39878054Y-74752495D01*
X39909329Y-74690015D01*
X39912375Y-74686858D01*
X50868713Y-63730521D01*
X50868716Y-63730520D01*
X50980520Y-63618716D01*
X51030639Y-63531904D01*
X51059577Y-63481785D01*
X51100500Y-63329057D01*
X51100500Y-63170943D01*
X51100500Y-53550097D01*
X51120185Y-53483058D01*
X51136819Y-53462416D01*
X55180735Y-49418500D01*
X59264664Y-45334571D01*
X59325985Y-45301088D01*
X59328152Y-45300637D01*
X59328841Y-45300500D01*
X59328842Y-45300500D01*
X59483497Y-45269737D01*
X59629179Y-45209394D01*
X59760289Y-45121789D01*
X59871789Y-45010289D01*
X59959394Y-44879179D01*
X60019737Y-44733497D01*
X60050500Y-44578842D01*
X60050500Y-44421158D01*
X60050500Y-44421155D01*
X60050499Y-44421153D01*
X60038376Y-44360208D01*
X60019737Y-44266503D01*
X59996290Y-44209896D01*
X59959397Y-44120827D01*
X59959390Y-44120814D01*
X59871789Y-43989711D01*
X59871786Y-43989707D01*
X59760292Y-43878213D01*
X59760288Y-43878210D01*
X59629185Y-43790609D01*
X59629181Y-43790607D01*
X59629179Y-43790606D01*
X59597189Y-43777355D01*
X59542788Y-43733516D01*
X59520722Y-43667222D01*
X59538001Y-43599523D01*
X59556958Y-43575118D01*
X62271789Y-40860289D01*
X62359394Y-40729179D01*
X62419737Y-40583497D01*
X62450500Y-40428842D01*
X62450500Y-40271157D01*
X62450500Y-38921153D01*
X63199500Y-38921153D01*
X63199500Y-39078846D01*
X63230261Y-39233489D01*
X63230264Y-39233501D01*
X63290602Y-39379172D01*
X63290609Y-39379185D01*
X63378602Y-39510874D01*
X63399480Y-39577551D01*
X63399500Y-39579765D01*
X63399500Y-42373330D01*
X63399499Y-42373348D01*
X63399499Y-42539054D01*
X63399498Y-42539054D01*
X63399499Y-42539057D01*
X63440423Y-42691785D01*
X63440424Y-42691787D01*
X63440423Y-42691787D01*
X63449523Y-42707547D01*
X63449524Y-42707548D01*
X63519477Y-42828712D01*
X63519481Y-42828717D01*
X63638349Y-42947585D01*
X63638355Y-42947590D01*
X69685425Y-48994660D01*
X69718910Y-49055983D01*
X69719361Y-49058149D01*
X69750261Y-49213491D01*
X69750264Y-49213501D01*
X69810602Y-49359172D01*
X69810609Y-49359185D01*
X69898210Y-49490288D01*
X69898213Y-49490292D01*
X70009707Y-49601786D01*
X70009711Y-49601789D01*
X70140814Y-49689390D01*
X70140827Y-49689397D01*
X70261675Y-49739453D01*
X70286503Y-49749737D01*
X70441153Y-49780499D01*
X70441156Y-49780500D01*
X70441158Y-49780500D01*
X70598844Y-49780500D01*
X70598845Y-49780499D01*
X70753497Y-49749737D01*
X70899179Y-49689394D01*
X71030289Y-49601789D01*
X71141789Y-49490289D01*
X71229394Y-49359179D01*
X71289737Y-49213497D01*
X71320500Y-49058842D01*
X71320500Y-48901158D01*
X71320500Y-48901155D01*
X71320499Y-48901153D01*
X71289738Y-48746510D01*
X71289737Y-48746503D01*
X71289735Y-48746498D01*
X71229397Y-48600827D01*
X71229390Y-48600814D01*
X71141789Y-48469711D01*
X71141786Y-48469707D01*
X71030292Y-48358213D01*
X71030288Y-48358210D01*
X70899185Y-48270609D01*
X70899172Y-48270602D01*
X70753501Y-48210264D01*
X70753491Y-48210261D01*
X70598149Y-48179361D01*
X70536238Y-48146976D01*
X70534660Y-48145425D01*
X64636819Y-42247584D01*
X64603334Y-42186261D01*
X64600500Y-42159903D01*
X64600500Y-39579765D01*
X64620185Y-39512726D01*
X64621398Y-39510874D01*
X64709390Y-39379185D01*
X64709390Y-39379184D01*
X64709394Y-39379179D01*
X64769737Y-39233497D01*
X64800500Y-39078842D01*
X64800500Y-38921158D01*
X64800500Y-38921155D01*
X64800499Y-38921153D01*
X64781868Y-38827491D01*
X64769737Y-38766503D01*
X64768890Y-38764457D01*
X64709397Y-38620827D01*
X64709390Y-38620814D01*
X64621789Y-38489711D01*
X64621786Y-38489707D01*
X64510292Y-38378213D01*
X64510288Y-38378210D01*
X64379185Y-38290609D01*
X64379172Y-38290602D01*
X64233501Y-38230264D01*
X64233489Y-38230261D01*
X64078845Y-38199500D01*
X64078842Y-38199500D01*
X63921158Y-38199500D01*
X63921155Y-38199500D01*
X63766510Y-38230261D01*
X63766498Y-38230264D01*
X63620827Y-38290602D01*
X63620814Y-38290609D01*
X63489711Y-38378210D01*
X63489707Y-38378213D01*
X63378213Y-38489707D01*
X63378210Y-38489711D01*
X63290609Y-38620814D01*
X63290602Y-38620827D01*
X63230264Y-38766498D01*
X63230261Y-38766510D01*
X63199500Y-38921153D01*
X62450500Y-38921153D01*
X62450500Y-37074500D01*
X62470185Y-37007461D01*
X62522989Y-36961706D01*
X62574500Y-36950500D01*
X72578844Y-36950500D01*
X72578845Y-36950499D01*
X72733497Y-36919737D01*
X72879179Y-36859394D01*
X73010289Y-36771789D01*
X73471789Y-36310289D01*
X73559394Y-36179179D01*
X73619738Y-36033497D01*
X73650500Y-35878842D01*
X73650500Y-35721157D01*
X73644898Y-35692993D01*
X73642882Y-35682856D01*
X73640500Y-35658667D01*
X73640500Y-28571940D01*
X73660185Y-28504901D01*
X73712989Y-28459146D01*
X73782147Y-28449202D01*
X73845703Y-28478227D01*
X73852181Y-28484259D01*
X86362524Y-40994602D01*
X86396009Y-41055925D01*
X86391025Y-41125617D01*
X86349153Y-41181550D01*
X86299035Y-41203900D01*
X86166508Y-41230261D01*
X86166498Y-41230264D01*
X86020827Y-41290602D01*
X86020814Y-41290609D01*
X85889125Y-41378602D01*
X85822447Y-41399480D01*
X85820234Y-41399500D01*
X69379766Y-41399500D01*
X69312727Y-41379815D01*
X69310875Y-41378602D01*
X69179185Y-41290609D01*
X69179172Y-41290602D01*
X69033501Y-41230264D01*
X69033489Y-41230261D01*
X68878845Y-41199500D01*
X68878842Y-41199500D01*
X68721158Y-41199500D01*
X68721155Y-41199500D01*
X68566510Y-41230261D01*
X68566498Y-41230264D01*
X68420827Y-41290602D01*
X68420814Y-41290609D01*
X68289711Y-41378210D01*
X68289707Y-41378213D01*
X68178213Y-41489707D01*
X68178210Y-41489711D01*
X68090609Y-41620814D01*
X68090602Y-41620827D01*
X68030264Y-41766498D01*
X68030261Y-41766510D01*
X67999500Y-41921153D01*
X67999500Y-42078846D01*
X68030261Y-42233489D01*
X68030264Y-42233501D01*
X68090602Y-42379172D01*
X68090609Y-42379185D01*
X68178210Y-42510288D01*
X68178213Y-42510292D01*
X68289707Y-42621786D01*
X68289711Y-42621789D01*
X68420814Y-42709390D01*
X68420827Y-42709397D01*
X68566498Y-42769735D01*
X68566503Y-42769737D01*
X68721153Y-42800499D01*
X68721156Y-42800500D01*
X68721158Y-42800500D01*
X68878844Y-42800500D01*
X68878845Y-42800499D01*
X69033497Y-42769737D01*
X69179179Y-42709394D01*
X69205533Y-42691785D01*
X69310875Y-42621398D01*
X69377553Y-42600520D01*
X69379766Y-42600500D01*
X85820234Y-42600500D01*
X85887273Y-42620185D01*
X85889125Y-42621398D01*
X86020814Y-42709390D01*
X86020827Y-42709397D01*
X86166498Y-42769735D01*
X86166503Y-42769737D01*
X86321153Y-42800499D01*
X86321156Y-42800500D01*
X86321158Y-42800500D01*
X86478844Y-42800500D01*
X86478845Y-42800499D01*
X86633497Y-42769737D01*
X86779179Y-42709394D01*
X86910289Y-42621789D01*
X87021789Y-42510289D01*
X87109394Y-42379179D01*
X87169737Y-42233497D01*
X87196100Y-42100960D01*
X87228483Y-42039054D01*
X87289199Y-42004480D01*
X87358968Y-42008219D01*
X87405397Y-42037475D01*
X107163181Y-61795259D01*
X107196666Y-61856582D01*
X107199500Y-61882940D01*
X107199500Y-75078846D01*
X107230261Y-75233489D01*
X107230264Y-75233501D01*
X107290602Y-75379172D01*
X107290609Y-75379185D01*
X107378210Y-75510288D01*
X107378213Y-75510292D01*
X110878211Y-79010289D01*
X110989711Y-79121789D01*
X111120821Y-79209394D01*
X111223833Y-79252062D01*
X111266502Y-79269737D01*
X111421152Y-79300499D01*
X111421155Y-79300500D01*
X111421157Y-79300500D01*
X111578844Y-79300500D01*
X111578845Y-79300499D01*
X111733497Y-79269737D01*
X111879179Y-79209394D01*
X112010289Y-79121789D01*
X112121789Y-79010289D01*
X112209394Y-78879179D01*
X112269737Y-78733497D01*
X112300500Y-78578842D01*
X112300500Y-78421158D01*
X112300500Y-78421155D01*
X112300499Y-78421153D01*
X112269738Y-78266510D01*
X112269737Y-78266503D01*
X112269735Y-78266498D01*
X112209397Y-78120827D01*
X112209390Y-78120814D01*
X112121790Y-77989712D01*
X112082578Y-77950500D01*
X112010289Y-77878211D01*
X111516186Y-77384108D01*
X115699500Y-77384108D01*
X115699500Y-80615891D01*
X115733608Y-80743187D01*
X115766554Y-80800250D01*
X115799500Y-80857314D01*
X115892686Y-80950500D01*
X116006814Y-81016392D01*
X116134108Y-81050500D01*
X116134110Y-81050500D01*
X119865890Y-81050500D01*
X119865892Y-81050500D01*
X119993186Y-81016392D01*
X120107314Y-80950500D01*
X120200500Y-80857314D01*
X120266392Y-80743186D01*
X120300500Y-80615892D01*
X120300500Y-77384108D01*
X120266392Y-77256814D01*
X120200500Y-77142686D01*
X120107314Y-77049500D01*
X120050250Y-77016554D01*
X119993187Y-76983608D01*
X119929539Y-76966554D01*
X119865892Y-76949500D01*
X116265892Y-76949500D01*
X116134108Y-76949500D01*
X116006812Y-76983608D01*
X115892686Y-77049500D01*
X115892683Y-77049502D01*
X115799502Y-77142683D01*
X115799500Y-77142686D01*
X115733608Y-77256812D01*
X115699500Y-77384108D01*
X111516186Y-77384108D01*
X108836819Y-74704741D01*
X108803334Y-74643418D01*
X108800500Y-74617060D01*
X108800500Y-73905513D01*
X112219500Y-73905513D01*
X112219500Y-74094486D01*
X112249059Y-74281118D01*
X112307454Y-74460836D01*
X112387055Y-74617060D01*
X112393240Y-74629199D01*
X112504310Y-74782073D01*
X112637927Y-74915690D01*
X112790801Y-75026760D01*
X112870347Y-75067290D01*
X112959163Y-75112545D01*
X112959165Y-75112545D01*
X112959168Y-75112547D01*
X113055497Y-75143846D01*
X113138881Y-75170940D01*
X113325514Y-75200500D01*
X113325519Y-75200500D01*
X113514486Y-75200500D01*
X113701118Y-75170940D01*
X113880832Y-75112547D01*
X114049199Y-75026760D01*
X114202073Y-74915690D01*
X114335690Y-74782073D01*
X114446760Y-74629199D01*
X114532547Y-74460832D01*
X114590940Y-74281118D01*
X114620500Y-74094486D01*
X114620500Y-73905513D01*
X114614013Y-73864556D01*
X114611584Y-73849223D01*
X116199500Y-73849223D01*
X116199500Y-74150776D01*
X116199501Y-74150793D01*
X116238861Y-74449766D01*
X116316913Y-74741060D01*
X116432314Y-75019661D01*
X116432318Y-75019671D01*
X116583099Y-75280831D01*
X116766679Y-75520078D01*
X116766685Y-75520085D01*
X116979914Y-75733314D01*
X116979921Y-75733320D01*
X117219168Y-75916900D01*
X117480328Y-76067681D01*
X117480329Y-76067681D01*
X117480332Y-76067683D01*
X117610019Y-76121401D01*
X117758939Y-76183086D01*
X117758940Y-76183086D01*
X117758942Y-76183087D01*
X118050232Y-76261138D01*
X118349217Y-76300500D01*
X118349224Y-76300500D01*
X118650776Y-76300500D01*
X118650783Y-76300500D01*
X118949768Y-76261138D01*
X119241058Y-76183087D01*
X119519668Y-76067683D01*
X119780832Y-75916900D01*
X120020080Y-75733319D01*
X120233319Y-75520080D01*
X120416900Y-75280832D01*
X120567683Y-75019668D01*
X120683087Y-74741058D01*
X120761138Y-74449768D01*
X120800500Y-74150783D01*
X120800500Y-73905513D01*
X122379500Y-73905513D01*
X122379500Y-74094486D01*
X122409059Y-74281118D01*
X122467454Y-74460836D01*
X122547055Y-74617060D01*
X122553240Y-74629199D01*
X122664310Y-74782073D01*
X122797927Y-74915690D01*
X122950801Y-75026760D01*
X123030347Y-75067290D01*
X123119163Y-75112545D01*
X123119165Y-75112545D01*
X123119168Y-75112547D01*
X123215497Y-75143846D01*
X123298881Y-75170940D01*
X123485514Y-75200500D01*
X123485519Y-75200500D01*
X123674486Y-75200500D01*
X123861118Y-75170940D01*
X124040832Y-75112547D01*
X124209199Y-75026760D01*
X124362073Y-74915690D01*
X124495690Y-74782073D01*
X124606760Y-74629199D01*
X124692547Y-74460832D01*
X124750940Y-74281118D01*
X124780500Y-74094486D01*
X124780500Y-73905513D01*
X124750940Y-73718881D01*
X124692545Y-73539163D01*
X124606759Y-73370800D01*
X124571209Y-73321870D01*
X124495690Y-73217927D01*
X124362073Y-73084310D01*
X124209199Y-72973240D01*
X124040836Y-72887454D01*
X123861118Y-72829059D01*
X123674486Y-72799500D01*
X123674481Y-72799500D01*
X123485519Y-72799500D01*
X123485514Y-72799500D01*
X123298881Y-72829059D01*
X123119163Y-72887454D01*
X122950800Y-72973240D01*
X122941031Y-72980338D01*
X122797927Y-73084310D01*
X122797925Y-73084312D01*
X122797924Y-73084312D01*
X122664312Y-73217924D01*
X122664312Y-73217925D01*
X122664310Y-73217927D01*
X122635827Y-73257130D01*
X122553240Y-73370800D01*
X122467454Y-73539163D01*
X122409059Y-73718881D01*
X122379500Y-73905513D01*
X120800500Y-73905513D01*
X120800500Y-73849217D01*
X120761138Y-73550232D01*
X120683087Y-73258942D01*
X120682336Y-73257130D01*
X120626015Y-73121158D01*
X120567683Y-72980332D01*
X120563588Y-72973240D01*
X120416900Y-72719168D01*
X120233320Y-72479921D01*
X120233314Y-72479914D01*
X120020085Y-72266685D01*
X120020078Y-72266679D01*
X119780831Y-72083099D01*
X119519671Y-71932318D01*
X119519661Y-71932314D01*
X119241060Y-71816913D01*
X118949766Y-71738861D01*
X118650793Y-71699501D01*
X118650788Y-71699500D01*
X118650783Y-71699500D01*
X118349217Y-71699500D01*
X118349211Y-71699500D01*
X118349206Y-71699501D01*
X118050233Y-71738861D01*
X117758939Y-71816913D01*
X117480338Y-71932314D01*
X117480328Y-71932318D01*
X117219168Y-72083099D01*
X116979921Y-72266679D01*
X116979914Y-72266685D01*
X116766685Y-72479914D01*
X116766679Y-72479921D01*
X116583099Y-72719168D01*
X116432318Y-72980328D01*
X116432314Y-72980338D01*
X116316913Y-73258939D01*
X116238861Y-73550233D01*
X116199501Y-73849206D01*
X116199500Y-73849223D01*
X114611584Y-73849223D01*
X114590940Y-73718881D01*
X114532545Y-73539163D01*
X114505424Y-73485937D01*
X114456815Y-73390535D01*
X114443920Y-73321870D01*
X114470196Y-73257130D01*
X114527302Y-73216872D01*
X114571207Y-73211065D01*
X114571207Y-73210500D01*
X114804727Y-73210500D01*
X114804734Y-73210500D01*
X115032238Y-73180548D01*
X115253887Y-73121158D01*
X115465888Y-73033344D01*
X115664612Y-72918611D01*
X115846661Y-72778919D01*
X115846665Y-72778914D01*
X115846670Y-72778911D01*
X116008911Y-72616670D01*
X116008914Y-72616665D01*
X116008919Y-72616661D01*
X116148611Y-72434612D01*
X116263344Y-72235888D01*
X116351158Y-72023887D01*
X116410548Y-71802238D01*
X116440500Y-71574734D01*
X116440500Y-71345266D01*
X116410548Y-71117762D01*
X116351158Y-70896113D01*
X116263344Y-70684112D01*
X116148611Y-70485388D01*
X116148608Y-70485385D01*
X116148607Y-70485382D01*
X116008918Y-70303338D01*
X116008911Y-70303330D01*
X115846670Y-70141089D01*
X115846661Y-70141081D01*
X115664617Y-70001392D01*
X115465890Y-69886657D01*
X115465876Y-69886650D01*
X115253887Y-69798842D01*
X115032238Y-69739452D01*
X114994215Y-69734446D01*
X114804741Y-69709500D01*
X114804734Y-69709500D01*
X114575266Y-69709500D01*
X114575258Y-69709500D01*
X114358715Y-69738009D01*
X114347762Y-69739452D01*
X114254076Y-69764554D01*
X114126112Y-69798842D01*
X113914123Y-69886650D01*
X113914109Y-69886657D01*
X113715382Y-70001392D01*
X113533338Y-70141081D01*
X113371081Y-70303338D01*
X113231392Y-70485382D01*
X113116657Y-70684109D01*
X113116650Y-70684123D01*
X113028842Y-70896112D01*
X112969453Y-71117759D01*
X112969451Y-71117770D01*
X112939500Y-71345258D01*
X112939500Y-71574741D01*
X112955926Y-71699500D01*
X112969452Y-71802238D01*
X113028842Y-72023887D01*
X113116650Y-72235876D01*
X113116657Y-72235890D01*
X113231392Y-72434617D01*
X113266155Y-72479920D01*
X113364356Y-72607897D01*
X113389551Y-72673065D01*
X113375513Y-72741510D01*
X113326699Y-72791500D01*
X113285380Y-72805856D01*
X113138880Y-72829060D01*
X112959163Y-72887454D01*
X112790800Y-72973240D01*
X112781031Y-72980338D01*
X112637927Y-73084310D01*
X112637925Y-73084312D01*
X112637924Y-73084312D01*
X112504312Y-73217924D01*
X112504312Y-73217925D01*
X112504310Y-73217927D01*
X112475827Y-73257130D01*
X112393240Y-73370800D01*
X112307454Y-73539163D01*
X112249059Y-73718881D01*
X112219500Y-73905513D01*
X108800500Y-73905513D01*
X108800500Y-68805258D01*
X119289500Y-68805258D01*
X119289500Y-69034741D01*
X119314446Y-69224215D01*
X119319452Y-69262238D01*
X119319453Y-69262240D01*
X119378842Y-69483887D01*
X119466650Y-69695876D01*
X119466657Y-69695890D01*
X119581392Y-69894617D01*
X119721081Y-70076661D01*
X119721089Y-70076670D01*
X119883330Y-70238911D01*
X119883338Y-70238918D01*
X120065382Y-70378607D01*
X120065385Y-70378608D01*
X120065388Y-70378611D01*
X120264112Y-70493344D01*
X120264117Y-70493346D01*
X120264123Y-70493349D01*
X120355480Y-70531190D01*
X120476113Y-70581158D01*
X120697762Y-70640548D01*
X120925266Y-70670500D01*
X120925273Y-70670500D01*
X121154727Y-70670500D01*
X121154734Y-70670500D01*
X121382238Y-70640548D01*
X121603887Y-70581158D01*
X121815888Y-70493344D01*
X122014612Y-70378611D01*
X122196661Y-70238919D01*
X122196665Y-70238914D01*
X122196670Y-70238911D01*
X122358911Y-70076670D01*
X122358914Y-70076665D01*
X122358919Y-70076661D01*
X122498611Y-69894612D01*
X122613344Y-69695888D01*
X122701158Y-69483887D01*
X122760548Y-69262238D01*
X122790500Y-69034734D01*
X122790500Y-68805266D01*
X122760548Y-68577762D01*
X122701158Y-68356113D01*
X122613344Y-68144112D01*
X122498611Y-67945388D01*
X122498608Y-67945385D01*
X122498607Y-67945382D01*
X122358918Y-67763338D01*
X122358911Y-67763330D01*
X122196670Y-67601089D01*
X122196661Y-67601081D01*
X122014617Y-67461392D01*
X121815890Y-67346657D01*
X121815876Y-67346650D01*
X121603887Y-67258842D01*
X121382238Y-67199452D01*
X121344215Y-67194446D01*
X121154741Y-67169500D01*
X121154734Y-67169500D01*
X120925266Y-67169500D01*
X120925258Y-67169500D01*
X120708715Y-67198009D01*
X120697762Y-67199452D01*
X120604076Y-67224554D01*
X120476112Y-67258842D01*
X120264123Y-67346650D01*
X120264109Y-67346657D01*
X120065382Y-67461392D01*
X119883338Y-67601081D01*
X119721081Y-67763338D01*
X119581392Y-67945382D01*
X119466657Y-68144109D01*
X119466650Y-68144123D01*
X119378842Y-68356112D01*
X119319453Y-68577759D01*
X119319451Y-68577770D01*
X119289500Y-68805258D01*
X108800500Y-68805258D01*
X108800500Y-61421155D01*
X108800499Y-61421153D01*
X108769738Y-61266510D01*
X108769737Y-61266503D01*
X108769735Y-61266498D01*
X108709397Y-61120827D01*
X108709390Y-61120814D01*
X108621790Y-60989712D01*
X108582575Y-60950497D01*
X108510289Y-60878211D01*
X106944259Y-59312181D01*
X106910774Y-59250858D01*
X106915758Y-59181166D01*
X106957630Y-59125233D01*
X107023094Y-59100816D01*
X107031940Y-59100500D01*
X110278844Y-59100500D01*
X110278845Y-59100499D01*
X110433497Y-59069737D01*
X110579179Y-59009394D01*
X110710289Y-58921789D01*
X110821789Y-58810289D01*
X110909394Y-58679179D01*
X110969737Y-58533497D01*
X111000500Y-58378842D01*
X111000500Y-58221158D01*
X111000500Y-58221155D01*
X111000499Y-58221153D01*
X110974132Y-58088600D01*
X110969737Y-58066503D01*
X110933789Y-57979715D01*
X110909397Y-57920827D01*
X110909390Y-57920814D01*
X110821789Y-57789711D01*
X110821786Y-57789707D01*
X110710292Y-57678213D01*
X110710288Y-57678210D01*
X110579185Y-57590609D01*
X110579172Y-57590602D01*
X110433501Y-57530264D01*
X110433489Y-57530261D01*
X110278846Y-57499500D01*
X110278842Y-57499500D01*
X105182940Y-57499500D01*
X105115901Y-57479815D01*
X105095259Y-57463181D01*
X105016186Y-57384108D01*
X115199500Y-57384108D01*
X115199500Y-60615891D01*
X115233608Y-60743187D01*
X115264312Y-60796367D01*
X115299500Y-60857314D01*
X115392686Y-60950500D01*
X115506814Y-61016392D01*
X115634108Y-61050500D01*
X115634110Y-61050500D01*
X119365890Y-61050500D01*
X119365892Y-61050500D01*
X119493186Y-61016392D01*
X119607314Y-60950500D01*
X119700500Y-60857314D01*
X119766392Y-60743186D01*
X119800500Y-60615892D01*
X119800500Y-57384108D01*
X119766392Y-57256814D01*
X119700500Y-57142686D01*
X119607314Y-57049500D01*
X119550250Y-57016554D01*
X119493187Y-56983608D01*
X119429539Y-56966554D01*
X119365892Y-56949500D01*
X115765892Y-56949500D01*
X115634108Y-56949500D01*
X115506812Y-56983608D01*
X115392686Y-57049500D01*
X115392683Y-57049502D01*
X115299502Y-57142683D01*
X115299500Y-57142686D01*
X115233608Y-57256812D01*
X115199500Y-57384108D01*
X105016186Y-57384108D01*
X101537591Y-53905513D01*
X112219500Y-53905513D01*
X112219500Y-54094486D01*
X112249059Y-54281118D01*
X112307454Y-54460836D01*
X112393240Y-54629199D01*
X112504310Y-54782073D01*
X112637927Y-54915690D01*
X112790801Y-55026760D01*
X112870347Y-55067290D01*
X112959163Y-55112545D01*
X112959165Y-55112545D01*
X112959168Y-55112547D01*
X113055497Y-55143846D01*
X113138881Y-55170940D01*
X113325514Y-55200500D01*
X113325519Y-55200500D01*
X113514486Y-55200500D01*
X113701118Y-55170940D01*
X113880832Y-55112547D01*
X114049199Y-55026760D01*
X114202073Y-54915690D01*
X114335690Y-54782073D01*
X114446760Y-54629199D01*
X114532547Y-54460832D01*
X114590940Y-54281118D01*
X114620500Y-54094486D01*
X114620500Y-53905513D01*
X114614013Y-53864556D01*
X114611584Y-53849223D01*
X116199500Y-53849223D01*
X116199500Y-54150776D01*
X116199501Y-54150793D01*
X116238861Y-54449766D01*
X116316913Y-54741060D01*
X116432314Y-55019661D01*
X116432318Y-55019671D01*
X116583099Y-55280831D01*
X116766679Y-55520078D01*
X116766685Y-55520085D01*
X116979914Y-55733314D01*
X116979921Y-55733320D01*
X117219168Y-55916900D01*
X117480328Y-56067681D01*
X117480329Y-56067681D01*
X117480332Y-56067683D01*
X117586012Y-56111457D01*
X117758939Y-56183086D01*
X117758940Y-56183086D01*
X117758942Y-56183087D01*
X118050232Y-56261138D01*
X118349217Y-56300500D01*
X118349224Y-56300500D01*
X118650776Y-56300500D01*
X118650783Y-56300500D01*
X118949768Y-56261138D01*
X119241058Y-56183087D01*
X119519668Y-56067683D01*
X119780832Y-55916900D01*
X120020080Y-55733319D01*
X120233319Y-55520080D01*
X120416900Y-55280832D01*
X120567683Y-55019668D01*
X120683087Y-54741058D01*
X120761138Y-54449768D01*
X120800500Y-54150783D01*
X120800500Y-53905513D01*
X122379500Y-53905513D01*
X122379500Y-54094486D01*
X122409059Y-54281118D01*
X122467454Y-54460836D01*
X122553240Y-54629199D01*
X122664310Y-54782073D01*
X122797927Y-54915690D01*
X122950801Y-55026760D01*
X123030347Y-55067290D01*
X123119163Y-55112545D01*
X123119165Y-55112545D01*
X123119168Y-55112547D01*
X123215497Y-55143846D01*
X123298881Y-55170940D01*
X123485514Y-55200500D01*
X123485519Y-55200500D01*
X123674486Y-55200500D01*
X123861118Y-55170940D01*
X124040832Y-55112547D01*
X124209199Y-55026760D01*
X124362073Y-54915690D01*
X124495690Y-54782073D01*
X124606760Y-54629199D01*
X124692547Y-54460832D01*
X124750940Y-54281118D01*
X124780500Y-54094486D01*
X124780500Y-53905513D01*
X124750940Y-53718881D01*
X124708225Y-53587420D01*
X124692547Y-53539168D01*
X124692545Y-53539165D01*
X124692545Y-53539163D01*
X124613724Y-53384469D01*
X124606760Y-53370801D01*
X124495690Y-53217927D01*
X124362073Y-53084310D01*
X124209199Y-52973240D01*
X124199099Y-52968094D01*
X124040836Y-52887454D01*
X123861118Y-52829059D01*
X123674486Y-52799500D01*
X123674481Y-52799500D01*
X123485519Y-52799500D01*
X123485514Y-52799500D01*
X123298881Y-52829059D01*
X123119163Y-52887454D01*
X122950800Y-52973240D01*
X122868078Y-53033342D01*
X122797927Y-53084310D01*
X122797925Y-53084312D01*
X122797924Y-53084312D01*
X122664312Y-53217924D01*
X122664312Y-53217925D01*
X122664310Y-53217927D01*
X122635827Y-53257130D01*
X122553240Y-53370800D01*
X122467454Y-53539163D01*
X122409059Y-53718881D01*
X122379500Y-53905513D01*
X120800500Y-53905513D01*
X120800500Y-53849217D01*
X120761138Y-53550232D01*
X120683087Y-53258942D01*
X120682336Y-53257130D01*
X120626015Y-53121158D01*
X120567683Y-52980332D01*
X120563588Y-52973240D01*
X120416900Y-52719168D01*
X120233320Y-52479921D01*
X120233314Y-52479914D01*
X120020085Y-52266685D01*
X120020078Y-52266679D01*
X119780831Y-52083099D01*
X119519671Y-51932318D01*
X119519661Y-51932314D01*
X119241060Y-51816913D01*
X118949766Y-51738861D01*
X118650793Y-51699501D01*
X118650788Y-51699500D01*
X118650783Y-51699500D01*
X118349217Y-51699500D01*
X118349211Y-51699500D01*
X118349206Y-51699501D01*
X118050233Y-51738861D01*
X117758939Y-51816913D01*
X117480338Y-51932314D01*
X117480328Y-51932318D01*
X117219168Y-52083099D01*
X116979921Y-52266679D01*
X116979914Y-52266685D01*
X116766685Y-52479914D01*
X116766679Y-52479921D01*
X116583099Y-52719168D01*
X116432318Y-52980328D01*
X116432314Y-52980338D01*
X116316913Y-53258939D01*
X116238861Y-53550233D01*
X116199501Y-53849206D01*
X116199500Y-53849223D01*
X114611584Y-53849223D01*
X114590940Y-53718881D01*
X114548225Y-53587420D01*
X114532547Y-53539168D01*
X114532545Y-53539165D01*
X114532545Y-53539163D01*
X114493440Y-53462416D01*
X114456815Y-53390535D01*
X114443920Y-53321870D01*
X114470196Y-53257130D01*
X114527302Y-53216872D01*
X114571207Y-53211065D01*
X114571207Y-53210500D01*
X114804727Y-53210500D01*
X114804734Y-53210500D01*
X115032238Y-53180548D01*
X115253887Y-53121158D01*
X115465888Y-53033344D01*
X115664612Y-52918611D01*
X115846661Y-52778919D01*
X115846665Y-52778914D01*
X115846670Y-52778911D01*
X116008911Y-52616670D01*
X116008914Y-52616665D01*
X116008919Y-52616661D01*
X116148611Y-52434612D01*
X116263344Y-52235888D01*
X116351158Y-52023887D01*
X116410548Y-51802238D01*
X116440500Y-51574734D01*
X116440500Y-51345266D01*
X116410548Y-51117762D01*
X116351158Y-50896113D01*
X116263344Y-50684112D01*
X116148611Y-50485388D01*
X116148608Y-50485385D01*
X116148607Y-50485382D01*
X116008918Y-50303338D01*
X116008911Y-50303330D01*
X115846670Y-50141089D01*
X115846661Y-50141081D01*
X115664617Y-50001392D01*
X115465890Y-49886657D01*
X115465876Y-49886650D01*
X115253887Y-49798842D01*
X115032238Y-49739452D01*
X114994215Y-49734446D01*
X114804741Y-49709500D01*
X114804734Y-49709500D01*
X114575266Y-49709500D01*
X114575258Y-49709500D01*
X114358715Y-49738009D01*
X114347762Y-49739452D01*
X114309374Y-49749738D01*
X114126112Y-49798842D01*
X113914123Y-49886650D01*
X113914109Y-49886657D01*
X113715382Y-50001392D01*
X113533338Y-50141081D01*
X113371081Y-50303338D01*
X113231392Y-50485382D01*
X113116657Y-50684109D01*
X113116650Y-50684123D01*
X113028842Y-50896112D01*
X112969453Y-51117759D01*
X112969451Y-51117770D01*
X112939500Y-51345258D01*
X112939500Y-51574741D01*
X112955926Y-51699500D01*
X112969452Y-51802238D01*
X113007087Y-51942694D01*
X113028842Y-52023887D01*
X113116650Y-52235876D01*
X113116657Y-52235890D01*
X113231392Y-52434617D01*
X113266155Y-52479920D01*
X113364356Y-52607897D01*
X113389551Y-52673065D01*
X113375513Y-52741510D01*
X113326699Y-52791500D01*
X113285380Y-52805856D01*
X113138880Y-52829060D01*
X112959163Y-52887454D01*
X112790800Y-52973240D01*
X112708078Y-53033342D01*
X112637927Y-53084310D01*
X112637925Y-53084312D01*
X112637924Y-53084312D01*
X112504312Y-53217924D01*
X112504312Y-53217925D01*
X112504310Y-53217927D01*
X112475827Y-53257130D01*
X112393240Y-53370800D01*
X112307454Y-53539163D01*
X112249059Y-53718881D01*
X112219500Y-53905513D01*
X101537591Y-53905513D01*
X96437336Y-48805258D01*
X119289500Y-48805258D01*
X119289500Y-49034741D01*
X119314446Y-49224215D01*
X119319452Y-49262238D01*
X119369782Y-49450075D01*
X119378842Y-49483887D01*
X119466650Y-49695876D01*
X119466656Y-49695888D01*
X119550643Y-49841359D01*
X119581392Y-49894617D01*
X119721081Y-50076661D01*
X119721089Y-50076670D01*
X119883330Y-50238911D01*
X119883338Y-50238918D01*
X120065382Y-50378607D01*
X120065385Y-50378608D01*
X120065388Y-50378611D01*
X120264112Y-50493344D01*
X120264117Y-50493346D01*
X120264123Y-50493349D01*
X120355480Y-50531190D01*
X120476113Y-50581158D01*
X120697762Y-50640548D01*
X120925266Y-50670500D01*
X120925273Y-50670500D01*
X121154727Y-50670500D01*
X121154734Y-50670500D01*
X121382238Y-50640548D01*
X121603887Y-50581158D01*
X121815888Y-50493344D01*
X122014612Y-50378611D01*
X122196661Y-50238919D01*
X122196665Y-50238914D01*
X122196670Y-50238911D01*
X122358911Y-50076670D01*
X122358914Y-50076665D01*
X122358919Y-50076661D01*
X122498611Y-49894612D01*
X122613344Y-49695888D01*
X122701158Y-49483887D01*
X122760548Y-49262238D01*
X122790500Y-49034734D01*
X122790500Y-48805266D01*
X122760548Y-48577762D01*
X122701158Y-48356113D01*
X122640744Y-48210261D01*
X122613349Y-48144123D01*
X122613346Y-48144117D01*
X122613344Y-48144112D01*
X122498611Y-47945388D01*
X122498608Y-47945385D01*
X122498607Y-47945382D01*
X122358918Y-47763338D01*
X122358911Y-47763330D01*
X122196670Y-47601089D01*
X122196661Y-47601081D01*
X122014617Y-47461392D01*
X121815890Y-47346657D01*
X121815876Y-47346650D01*
X121603887Y-47258842D01*
X121382238Y-47199452D01*
X121344215Y-47194446D01*
X121154741Y-47169500D01*
X121154734Y-47169500D01*
X120925266Y-47169500D01*
X120925258Y-47169500D01*
X120708715Y-47198009D01*
X120697762Y-47199452D01*
X120647987Y-47212789D01*
X120476112Y-47258842D01*
X120264123Y-47346650D01*
X120264109Y-47346657D01*
X120065382Y-47461392D01*
X119883338Y-47601081D01*
X119721081Y-47763338D01*
X119581392Y-47945382D01*
X119466657Y-48144109D01*
X119466650Y-48144123D01*
X119378842Y-48356112D01*
X119319453Y-48577759D01*
X119319451Y-48577770D01*
X119289500Y-48805258D01*
X96437336Y-48805258D01*
X77527874Y-29895796D01*
X77522637Y-29886206D01*
X77514091Y-29879397D01*
X77506186Y-29856078D01*
X77494389Y-29834473D01*
X77495168Y-29823574D01*
X77491660Y-29813225D01*
X77497616Y-29789336D01*
X77499373Y-29764781D01*
X77505921Y-29756033D01*
X77508565Y-29745432D01*
X77526491Y-29728556D01*
X77541245Y-29708848D01*
X77552817Y-29703772D01*
X77559439Y-29697539D01*
X77588501Y-29688122D01*
X77592865Y-29686209D01*
X77594490Y-29685906D01*
X77704534Y-29668477D01*
X77726529Y-29661330D01*
X77734471Y-29659852D01*
X77761509Y-29662607D01*
X77788682Y-29661831D01*
X77796192Y-29666143D01*
X77803980Y-29666937D01*
X77820503Y-29680102D01*
X77844841Y-29694076D01*
X80082284Y-31931520D01*
X80082286Y-31931521D01*
X80082290Y-31931524D01*
X80167155Y-31980520D01*
X80219216Y-32010577D01*
X80371943Y-32051501D01*
X80371945Y-32051501D01*
X80537654Y-32051501D01*
X80537670Y-32051500D01*
X109625500Y-32051500D01*
X109692539Y-32071185D01*
X109738294Y-32123989D01*
X109749500Y-32175500D01*
X109749500Y-34047870D01*
X109749501Y-34047876D01*
X109755908Y-34107483D01*
X109806202Y-34242328D01*
X109806206Y-34242335D01*
X109892452Y-34357544D01*
X109892453Y-34357544D01*
X109892454Y-34357546D01*
X109912008Y-34372184D01*
X110010599Y-34445990D01*
X110052469Y-34501924D01*
X110057453Y-34571615D01*
X110036605Y-34618141D01*
X109967087Y-34713824D01*
X109859897Y-34924197D01*
X109786934Y-35148752D01*
X109750000Y-35381947D01*
X109750000Y-35618052D01*
X109786934Y-35851247D01*
X109859897Y-36075802D01*
X109967087Y-36286174D01*
X110027338Y-36369104D01*
X110027340Y-36369105D01*
X110767037Y-35629408D01*
X110784075Y-35692993D01*
X110849901Y-35807007D01*
X110942993Y-35900099D01*
X111057007Y-35965925D01*
X111120590Y-35982962D01*
X110374280Y-36729271D01*
X110365105Y-36772947D01*
X110328739Y-36814615D01*
X110272490Y-36855482D01*
X110105485Y-37022487D01*
X110105485Y-37022488D01*
X110105483Y-37022490D01*
X110048017Y-37101585D01*
X109966657Y-37213566D01*
X109859433Y-37424003D01*
X109786446Y-37648631D01*
X109749500Y-37881902D01*
X109749500Y-38118097D01*
X109786446Y-38351368D01*
X109859433Y-38575996D01*
X109942849Y-38739707D01*
X109966657Y-38786433D01*
X110105483Y-38977510D01*
X110272490Y-39144517D01*
X110463567Y-39283343D01*
X110552864Y-39328842D01*
X110674003Y-39390566D01*
X110674005Y-39390566D01*
X110674008Y-39390568D01*
X110722131Y-39406204D01*
X110898631Y-39463553D01*
X111131903Y-39500500D01*
X111131908Y-39500500D01*
X111368097Y-39500500D01*
X111601368Y-39463553D01*
X111627974Y-39454908D01*
X111825992Y-39390568D01*
X112036433Y-39283343D01*
X112227510Y-39144517D01*
X112394517Y-38977510D01*
X112533343Y-38786433D01*
X112640568Y-38575992D01*
X112704831Y-38378211D01*
X112711565Y-38357487D01*
X112713553Y-38351368D01*
X112750500Y-38118097D01*
X112750500Y-37881902D01*
X112713553Y-37648631D01*
X112653230Y-37462978D01*
X112640568Y-37424008D01*
X112640566Y-37424005D01*
X112640566Y-37424003D01*
X112533342Y-37213566D01*
X112498853Y-37166096D01*
X112394517Y-37022490D01*
X112227510Y-36855483D01*
X112171259Y-36814614D01*
X112128595Y-36759284D01*
X112123902Y-36727455D01*
X111379408Y-35982962D01*
X111442993Y-35965925D01*
X111557007Y-35900099D01*
X111650099Y-35807007D01*
X111715925Y-35692993D01*
X111732962Y-35629409D01*
X112472658Y-36369105D01*
X112472658Y-36369104D01*
X112532914Y-36286169D01*
X112532918Y-36286163D01*
X112640102Y-36075802D01*
X112713065Y-35851247D01*
X112750000Y-35618052D01*
X112750000Y-35381947D01*
X112713065Y-35148752D01*
X112640102Y-34924197D01*
X112532914Y-34713828D01*
X112463394Y-34618142D01*
X112439914Y-34552335D01*
X112455739Y-34484281D01*
X112489401Y-34445989D01*
X112492329Y-34443796D01*
X112492331Y-34443796D01*
X112607546Y-34357546D01*
X112693796Y-34242331D01*
X112744091Y-34107483D01*
X112750500Y-34047873D01*
X112750499Y-32175499D01*
X112770184Y-32108461D01*
X112822987Y-32062706D01*
X112874499Y-32051500D01*
X120400903Y-32051500D01*
X120467942Y-32071185D01*
X120488584Y-32087819D01*
X124486237Y-36085472D01*
X124519722Y-36146795D01*
X124519160Y-36199522D01*
X124519349Y-36199552D01*
X124519146Y-36200831D01*
X124519133Y-36202087D01*
X124518587Y-36204360D01*
X124487500Y-36400639D01*
X124487500Y-36599360D01*
X124518587Y-36795637D01*
X124579993Y-36984629D01*
X124579994Y-36984632D01*
X124639587Y-37101588D01*
X124670213Y-37161694D01*
X124787019Y-37322464D01*
X124927536Y-37462981D01*
X125088306Y-37579787D01*
X125264571Y-37669598D01*
X125295953Y-37692400D01*
X125620590Y-38017037D01*
X125557007Y-38034075D01*
X125442993Y-38099901D01*
X125349901Y-38192993D01*
X125284075Y-38307007D01*
X125267037Y-38370590D01*
X124697730Y-37801282D01*
X124697729Y-37801283D01*
X124670643Y-37838564D01*
X124580457Y-38015562D01*
X124519075Y-38204476D01*
X124519075Y-38204479D01*
X124488000Y-38400678D01*
X124488000Y-38599321D01*
X124519075Y-38795520D01*
X124519075Y-38795523D01*
X124580457Y-38984437D01*
X124670641Y-39161432D01*
X124697730Y-39198715D01*
X124697731Y-39198716D01*
X125267037Y-38629409D01*
X125284075Y-38692993D01*
X125349901Y-38807007D01*
X125442993Y-38900099D01*
X125557007Y-38965925D01*
X125620589Y-38982962D01*
X125051283Y-39552268D01*
X125051283Y-39552269D01*
X125088567Y-39579358D01*
X125265562Y-39669542D01*
X125454477Y-39730924D01*
X125650679Y-39762000D01*
X125849321Y-39762000D01*
X126045520Y-39730924D01*
X126045523Y-39730924D01*
X126234436Y-39669542D01*
X126270203Y-39651318D01*
X126338872Y-39638421D01*
X126403613Y-39664696D01*
X126443871Y-39721802D01*
X126450500Y-39761802D01*
X126450500Y-40248903D01*
X126430815Y-40315942D01*
X126414181Y-40336584D01*
X124736584Y-42014181D01*
X124675261Y-42047666D01*
X124648903Y-42050500D01*
X120874500Y-42050500D01*
X120807461Y-42030815D01*
X120761706Y-41978011D01*
X120750500Y-41926500D01*
X120750499Y-39802129D01*
X120750498Y-39802123D01*
X120750497Y-39802116D01*
X120744091Y-39742517D01*
X120710845Y-39653381D01*
X120693797Y-39607671D01*
X120693793Y-39607664D01*
X120607547Y-39492455D01*
X120607544Y-39492452D01*
X120492335Y-39406206D01*
X120492328Y-39406202D01*
X120357482Y-39355908D01*
X120357483Y-39355908D01*
X120297883Y-39349501D01*
X120297881Y-39349500D01*
X120297873Y-39349500D01*
X120297864Y-39349500D01*
X117202129Y-39349500D01*
X117202123Y-39349501D01*
X117142516Y-39355908D01*
X117007671Y-39406202D01*
X117007664Y-39406206D01*
X116892455Y-39492452D01*
X116892452Y-39492455D01*
X116806206Y-39607664D01*
X116806202Y-39607671D01*
X116755908Y-39742517D01*
X116753814Y-39762000D01*
X116749500Y-39802127D01*
X116749500Y-40917717D01*
X116749501Y-41926500D01*
X116729816Y-41993539D01*
X116677013Y-42039294D01*
X116625501Y-42050500D01*
X101951097Y-42050500D01*
X101921656Y-42041855D01*
X101891670Y-42035332D01*
X101886654Y-42031577D01*
X101884058Y-42030815D01*
X101863416Y-42014181D01*
X101834574Y-41985339D01*
X101801089Y-41924016D01*
X101800638Y-41921849D01*
X101769738Y-41766510D01*
X101769737Y-41766503D01*
X101752753Y-41725500D01*
X101709397Y-41620827D01*
X101709390Y-41620814D01*
X101621789Y-41489711D01*
X101621786Y-41489707D01*
X101510292Y-41378213D01*
X101510288Y-41378210D01*
X101379185Y-41290609D01*
X101379172Y-41290602D01*
X101233501Y-41230264D01*
X101233489Y-41230261D01*
X101078845Y-41199500D01*
X101078842Y-41199500D01*
X100921158Y-41199500D01*
X100921155Y-41199500D01*
X100766510Y-41230261D01*
X100766498Y-41230264D01*
X100620827Y-41290602D01*
X100620814Y-41290609D01*
X100489711Y-41378210D01*
X100489707Y-41378213D01*
X100378213Y-41489707D01*
X100378210Y-41489711D01*
X100290609Y-41620814D01*
X100290602Y-41620827D01*
X100230264Y-41766498D01*
X100230261Y-41766510D01*
X100199500Y-41921153D01*
X100199500Y-42078846D01*
X100230261Y-42233489D01*
X100230264Y-42233501D01*
X100290602Y-42379172D01*
X100290609Y-42379185D01*
X100378210Y-42510288D01*
X100378213Y-42510292D01*
X100489707Y-42621786D01*
X100489711Y-42621789D01*
X100620814Y-42709390D01*
X100620827Y-42709397D01*
X100766498Y-42769735D01*
X100766503Y-42769737D01*
X100831147Y-42782595D01*
X100921849Y-42800638D01*
X100983760Y-42833023D01*
X100985339Y-42834574D01*
X101166139Y-43015374D01*
X101166149Y-43015385D01*
X101170479Y-43019715D01*
X101170480Y-43019716D01*
X101282284Y-43131520D01*
X101369095Y-43181639D01*
X101369097Y-43181641D01*
X101407151Y-43203611D01*
X101419215Y-43210577D01*
X101571943Y-43251501D01*
X101571946Y-43251501D01*
X101737653Y-43251501D01*
X101737669Y-43251500D01*
X124862331Y-43251500D01*
X124862347Y-43251501D01*
X124869943Y-43251501D01*
X125028054Y-43251501D01*
X125028057Y-43251501D01*
X125180785Y-43210577D01*
X125230904Y-43181639D01*
X125317716Y-43131520D01*
X125429520Y-43019716D01*
X125429520Y-43019714D01*
X125439728Y-43009507D01*
X125439730Y-43009504D01*
X127409506Y-41039728D01*
X127409511Y-41039724D01*
X127419714Y-41029520D01*
X127419716Y-41029520D01*
X127531520Y-40917716D01*
X127592170Y-40812666D01*
X127610577Y-40780785D01*
X127651501Y-40628057D01*
X127651501Y-40469943D01*
X127651501Y-40462348D01*
X127651500Y-40462330D01*
X127651500Y-33890059D01*
X127651501Y-33890046D01*
X127651501Y-33721945D01*
X127651501Y-33721943D01*
X127610577Y-33569215D01*
X127581639Y-33519095D01*
X127531520Y-33432284D01*
X127419716Y-33320480D01*
X127419715Y-33320479D01*
X127415385Y-33316149D01*
X127415374Y-33316139D01*
X127013762Y-32914527D01*
X126980277Y-32853204D01*
X126980843Y-32800478D01*
X126980651Y-32800448D01*
X126980857Y-32799143D01*
X126980871Y-32797891D01*
X126981409Y-32795646D01*
X126981413Y-32795636D01*
X127012500Y-32599361D01*
X127012500Y-32400639D01*
X126981413Y-32204364D01*
X126920005Y-32015368D01*
X126920005Y-32015367D01*
X126858745Y-31895139D01*
X126829787Y-31838306D01*
X126712981Y-31677536D01*
X126572464Y-31537019D01*
X126411694Y-31420213D01*
X126398221Y-31413348D01*
X126234632Y-31329994D01*
X126234629Y-31329993D01*
X126045637Y-31268587D01*
X125938113Y-31251557D01*
X125849361Y-31237500D01*
X125650639Y-31237500D01*
X125585214Y-31247862D01*
X125454362Y-31268587D01*
X125265370Y-31329993D01*
X125265367Y-31329994D01*
X125088305Y-31420213D01*
X124927533Y-31537021D01*
X124787021Y-31677533D01*
X124670213Y-31838305D01*
X124579994Y-32015367D01*
X124579993Y-32015370D01*
X124517081Y-32208998D01*
X124515656Y-32208535D01*
X124484170Y-32263353D01*
X124422139Y-32295508D01*
X124352571Y-32289022D01*
X124310719Y-32261483D01*
X123336819Y-31287583D01*
X123303334Y-31226260D01*
X123300500Y-31199902D01*
X123300500Y-30520945D01*
X123300500Y-30520943D01*
X123259577Y-30368216D01*
X123229569Y-30316240D01*
X123180524Y-30231290D01*
X123180521Y-30231286D01*
X123180520Y-30231284D01*
X123068716Y-30119480D01*
X123068715Y-30119479D01*
X123064385Y-30115149D01*
X123064374Y-30115139D01*
X119088590Y-26139355D01*
X119088588Y-26139352D01*
X118969717Y-26020481D01*
X118969709Y-26020475D01*
X118866384Y-25960821D01*
X118866381Y-25960820D01*
X118832787Y-25941424D01*
X118832786Y-25941423D01*
X118832785Y-25941423D01*
X118680057Y-25900499D01*
X118521943Y-25900499D01*
X118514347Y-25900499D01*
X118514331Y-25900500D01*
X116667520Y-25900500D01*
X116600481Y-25880815D01*
X116554726Y-25828011D01*
X116544782Y-25758853D01*
X116573807Y-25695297D01*
X116603092Y-25670552D01*
X116623615Y-25658071D01*
X116656345Y-25638168D01*
X116868638Y-25465454D01*
X117055437Y-25265442D01*
X117213260Y-25041857D01*
X117339169Y-24798864D01*
X117430818Y-24540990D01*
X117430818Y-24540985D01*
X117430821Y-24540979D01*
X117477521Y-24316243D01*
X117486499Y-24273038D01*
X117505175Y-24000000D01*
X117495954Y-23865186D01*
X118599500Y-23865186D01*
X118599500Y-24134813D01*
X118629686Y-24402719D01*
X118629688Y-24402731D01*
X118689684Y-24665594D01*
X118689687Y-24665602D01*
X118778734Y-24920082D01*
X118895714Y-25162994D01*
X118923484Y-25207190D01*
X119039162Y-25391289D01*
X119207266Y-25602085D01*
X119397915Y-25792734D01*
X119608711Y-25960838D01*
X119837003Y-26104284D01*
X120079921Y-26221267D01*
X120225891Y-26272344D01*
X120334397Y-26310312D01*
X120334405Y-26310315D01*
X120334408Y-26310315D01*
X120334409Y-26310316D01*
X120597268Y-26370312D01*
X120865187Y-26400499D01*
X120865188Y-26400500D01*
X120865191Y-26400500D01*
X121134812Y-26400500D01*
X121134812Y-26400499D01*
X121402732Y-26370312D01*
X121665591Y-26310316D01*
X121920079Y-26221267D01*
X122162997Y-26104284D01*
X122391289Y-25960838D01*
X122602085Y-25792734D01*
X122792734Y-25602085D01*
X122960838Y-25391289D01*
X123104284Y-25162997D01*
X123221267Y-24920079D01*
X123310316Y-24665591D01*
X123370312Y-24402732D01*
X123400500Y-24134809D01*
X123400500Y-23865191D01*
X123370312Y-23597268D01*
X123310316Y-23334409D01*
X123221267Y-23079921D01*
X123104284Y-22837003D01*
X122960838Y-22608711D01*
X122792734Y-22397915D01*
X122602085Y-22207266D01*
X122391289Y-22039162D01*
X122162997Y-21895716D01*
X122162994Y-21895714D01*
X121920082Y-21778734D01*
X121665602Y-21689687D01*
X121665594Y-21689684D01*
X121468446Y-21644687D01*
X121402732Y-21629688D01*
X121402728Y-21629687D01*
X121402719Y-21629686D01*
X121134813Y-21599500D01*
X121134809Y-21599500D01*
X120865191Y-21599500D01*
X120865186Y-21599500D01*
X120597280Y-21629686D01*
X120597268Y-21629688D01*
X120334405Y-21689684D01*
X120334397Y-21689687D01*
X120079917Y-21778734D01*
X119837005Y-21895714D01*
X119608712Y-22039161D01*
X119397915Y-22207265D01*
X119207265Y-22397915D01*
X119039161Y-22608712D01*
X118895714Y-22837005D01*
X118778734Y-23079917D01*
X118689687Y-23334397D01*
X118689684Y-23334405D01*
X118629688Y-23597268D01*
X118629686Y-23597280D01*
X118599500Y-23865186D01*
X117495954Y-23865186D01*
X117486499Y-23726962D01*
X117460594Y-23602300D01*
X117430821Y-23459020D01*
X117430816Y-23459004D01*
X117339170Y-23201139D01*
X117339171Y-23201139D01*
X117213259Y-22958141D01*
X117213255Y-22958135D01*
X117055439Y-22734560D01*
X116975998Y-22649500D01*
X116868638Y-22534546D01*
X116868636Y-22534545D01*
X116868634Y-22534542D01*
X116700697Y-22397915D01*
X116656345Y-22361832D01*
X116656343Y-22361831D01*
X116656341Y-22361829D01*
X116422509Y-22219633D01*
X116171493Y-22110602D01*
X115907970Y-22036766D01*
X115907966Y-22036765D01*
X115907965Y-22036765D01*
X115772401Y-22018132D01*
X115636839Y-21999500D01*
X115636838Y-21999500D01*
X115565892Y-21999500D01*
X104565892Y-21999500D01*
X104500000Y-21999500D01*
X104363162Y-21999500D01*
X104363161Y-21999500D01*
X104092035Y-22036765D01*
X104092029Y-22036766D01*
X103828506Y-22110602D01*
X103577490Y-22219633D01*
X103343658Y-22361829D01*
X103131365Y-22534542D01*
X102944560Y-22734560D01*
X102786744Y-22958135D01*
X102786740Y-22958141D01*
X102660829Y-23201139D01*
X102569183Y-23459004D01*
X102569178Y-23459020D01*
X102513501Y-23726959D01*
X102513500Y-23726961D01*
X102494825Y-24000000D01*
X102513500Y-24273038D01*
X102513501Y-24273040D01*
X102569178Y-24540979D01*
X102569183Y-24540995D01*
X102660829Y-24798860D01*
X102660828Y-24798860D01*
X102786740Y-25041858D01*
X102786744Y-25041864D01*
X102944560Y-25265439D01*
X103131365Y-25465457D01*
X103163557Y-25491647D01*
X103343655Y-25638168D01*
X103343657Y-25638169D01*
X103343658Y-25638170D01*
X103396908Y-25670552D01*
X103443960Y-25722203D01*
X103455618Y-25791093D01*
X103428181Y-25855350D01*
X103370359Y-25894573D01*
X103332480Y-25900500D01*
X90795670Y-25900500D01*
X90795654Y-25900499D01*
X90788058Y-25900499D01*
X90629943Y-25900499D01*
X90553579Y-25920961D01*
X90477214Y-25941423D01*
X90477209Y-25941426D01*
X90340290Y-26020475D01*
X90340282Y-26020481D01*
X89254841Y-27105921D01*
X89193518Y-27139406D01*
X89128845Y-27136172D01*
X89114535Y-27131523D01*
X89013443Y-27115511D01*
X88912352Y-27099500D01*
X88707648Y-27099500D01*
X88695021Y-27101500D01*
X88505465Y-27131522D01*
X88310776Y-27194781D01*
X88128386Y-27287715D01*
X87962786Y-27408028D01*
X87818028Y-27552786D01*
X87697715Y-27718386D01*
X87604781Y-27900776D01*
X87541522Y-28095465D01*
X87509500Y-28297648D01*
X87509500Y-28502351D01*
X87541522Y-28704534D01*
X87604781Y-28899223D01*
X87650461Y-28988873D01*
X87688498Y-29063525D01*
X87697715Y-29081613D01*
X87818028Y-29247213D01*
X87962786Y-29391971D01*
X88086132Y-29481585D01*
X88128390Y-29512287D01*
X88244607Y-29571503D01*
X88310776Y-29605218D01*
X88310778Y-29605218D01*
X88310781Y-29605220D01*
X88415137Y-29639127D01*
X88505465Y-29668477D01*
X88606557Y-29684488D01*
X88707648Y-29700500D01*
X88707649Y-29700500D01*
X88912351Y-29700500D01*
X88912352Y-29700500D01*
X89114534Y-29668477D01*
X89309219Y-29605220D01*
X89491610Y-29512287D01*
X89584590Y-29444732D01*
X89657213Y-29391971D01*
X89657215Y-29391968D01*
X89657219Y-29391966D01*
X89801966Y-29247219D01*
X89801968Y-29247215D01*
X89801971Y-29247213D01*
X89885983Y-29131578D01*
X89922287Y-29081610D01*
X90015220Y-28899219D01*
X90078477Y-28704534D01*
X90110500Y-28502352D01*
X90110500Y-28297648D01*
X90078477Y-28095466D01*
X90073826Y-28081154D01*
X90071832Y-28011315D01*
X90104075Y-27955159D01*
X90921417Y-27137819D01*
X90982740Y-27104334D01*
X91009098Y-27101500D01*
X118300903Y-27101500D01*
X118367942Y-27121185D01*
X118388584Y-27137819D01*
X119188584Y-27937819D01*
X119222069Y-27999142D01*
X119217085Y-28068834D01*
X119175213Y-28124767D01*
X119109749Y-28149184D01*
X119100903Y-28149500D01*
X117202129Y-28149500D01*
X117202123Y-28149501D01*
X117142516Y-28155908D01*
X117007671Y-28206202D01*
X117007664Y-28206206D01*
X116892455Y-28292452D01*
X116892452Y-28292455D01*
X116806206Y-28407664D01*
X116806202Y-28407671D01*
X116755908Y-28542517D01*
X116749501Y-28602116D01*
X116749500Y-28602127D01*
X116749500Y-29711415D01*
X116749501Y-30726500D01*
X116729816Y-30793539D01*
X116677013Y-30839294D01*
X116625501Y-30850500D01*
X80751098Y-30850500D01*
X80684059Y-30830815D01*
X80663417Y-30814181D01*
X79683709Y-29834473D01*
X78694076Y-28844841D01*
X78660592Y-28783519D01*
X78663828Y-28718841D01*
X78668477Y-28704534D01*
X78700500Y-28502352D01*
X78700500Y-28297648D01*
X78668477Y-28095465D01*
X78605218Y-27900776D01*
X78571503Y-27834607D01*
X78512287Y-27718390D01*
X78504556Y-27707749D01*
X78391971Y-27552786D01*
X78292424Y-27453239D01*
X78258939Y-27391916D01*
X78263923Y-27322224D01*
X78305795Y-27266291D01*
X78371259Y-27241874D01*
X78380105Y-27241558D01*
X79130961Y-27241558D01*
X79198000Y-27261243D01*
X79218642Y-27277877D01*
X79895921Y-27955157D01*
X79929406Y-28016480D01*
X79926173Y-28081149D01*
X79921523Y-28095460D01*
X79921523Y-28095462D01*
X79889500Y-28297648D01*
X79889500Y-28502351D01*
X79921522Y-28704534D01*
X79984781Y-28899223D01*
X80030461Y-28988873D01*
X80068498Y-29063525D01*
X80077715Y-29081613D01*
X80198028Y-29247213D01*
X80342786Y-29391971D01*
X80466132Y-29481585D01*
X80508390Y-29512287D01*
X80624607Y-29571503D01*
X80690776Y-29605218D01*
X80690778Y-29605218D01*
X80690781Y-29605220D01*
X80795137Y-29639127D01*
X80885465Y-29668477D01*
X80986557Y-29684488D01*
X81087648Y-29700500D01*
X81087649Y-29700500D01*
X81292351Y-29700500D01*
X81292352Y-29700500D01*
X81494534Y-29668477D01*
X81689219Y-29605220D01*
X81871610Y-29512287D01*
X81964590Y-29444732D01*
X82037213Y-29391971D01*
X82037215Y-29391968D01*
X82037219Y-29391966D01*
X82181966Y-29247219D01*
X82181968Y-29247215D01*
X82181971Y-29247213D01*
X82265983Y-29131578D01*
X82302287Y-29081610D01*
X82395220Y-28899219D01*
X82458477Y-28704534D01*
X82490500Y-28502352D01*
X82490500Y-28297648D01*
X82458477Y-28095465D01*
X82395218Y-27900776D01*
X82361503Y-27834607D01*
X82302287Y-27718390D01*
X82294556Y-27707749D01*
X82181971Y-27552786D01*
X82037213Y-27408028D01*
X81871613Y-27287715D01*
X81871612Y-27287714D01*
X81871610Y-27287713D01*
X81814653Y-27258691D01*
X81689223Y-27194781D01*
X81494534Y-27131522D01*
X81304979Y-27101500D01*
X81292352Y-27099500D01*
X81087648Y-27099500D01*
X81075021Y-27101500D01*
X80885462Y-27131523D01*
X80885460Y-27131523D01*
X80871149Y-27136173D01*
X80801308Y-27138164D01*
X80745157Y-27105921D01*
X79918648Y-26279413D01*
X79918646Y-26279410D01*
X79799775Y-26160539D01*
X79799774Y-26160538D01*
X79706182Y-26106503D01*
X79706181Y-26106502D01*
X79662848Y-26081483D01*
X79662847Y-26081482D01*
X79650321Y-26078125D01*
X79510115Y-26040557D01*
X79352001Y-26040557D01*
X79344405Y-26040557D01*
X79344389Y-26040558D01*
X74715500Y-26040558D01*
X74648461Y-26020873D01*
X74602706Y-25968069D01*
X74591500Y-25916558D01*
X74591500Y-25316290D01*
X74611185Y-25249251D01*
X74663989Y-25203496D01*
X74733147Y-25193552D01*
X74771793Y-25205804D01*
X74861588Y-25251557D01*
X75063757Y-25317246D01*
X75273713Y-25350500D01*
X75273714Y-25350500D01*
X75486286Y-25350500D01*
X75486287Y-25350500D01*
X75696243Y-25317246D01*
X75898412Y-25251557D01*
X76087816Y-25155051D01*
X76174471Y-25092093D01*
X76259786Y-25030109D01*
X76259788Y-25030106D01*
X76259792Y-25030104D01*
X76410104Y-24879792D01*
X76410106Y-24879788D01*
X76410109Y-24879786D01*
X76535048Y-24707820D01*
X76535047Y-24707820D01*
X76535051Y-24707816D01*
X76539514Y-24699054D01*
X76587488Y-24648259D01*
X76655308Y-24631463D01*
X76721444Y-24653999D01*
X76760486Y-24699056D01*
X76764951Y-24707820D01*
X76889890Y-24879786D01*
X77040213Y-25030109D01*
X77212179Y-25155048D01*
X77212181Y-25155049D01*
X77212184Y-25155051D01*
X77401588Y-25251557D01*
X77603757Y-25317246D01*
X77813713Y-25350500D01*
X77813714Y-25350500D01*
X78026286Y-25350500D01*
X78026287Y-25350500D01*
X78236243Y-25317246D01*
X78438412Y-25251557D01*
X78627816Y-25155051D01*
X78714471Y-25092093D01*
X78799786Y-25030109D01*
X78799788Y-25030106D01*
X78799792Y-25030104D01*
X78950104Y-24879792D01*
X78950106Y-24879788D01*
X78950109Y-24879786D01*
X79075048Y-24707820D01*
X79075047Y-24707820D01*
X79075051Y-24707816D01*
X79079514Y-24699054D01*
X79127488Y-24648259D01*
X79195308Y-24631463D01*
X79261444Y-24653999D01*
X79300486Y-24699056D01*
X79304951Y-24707820D01*
X79429890Y-24879786D01*
X79580213Y-25030109D01*
X79752179Y-25155048D01*
X79752181Y-25155049D01*
X79752184Y-25155051D01*
X79941588Y-25251557D01*
X80143757Y-25317246D01*
X80353713Y-25350500D01*
X80353714Y-25350500D01*
X80566286Y-25350500D01*
X80566287Y-25350500D01*
X80776243Y-25317246D01*
X80978412Y-25251557D01*
X81167816Y-25155051D01*
X81254471Y-25092093D01*
X81339786Y-25030109D01*
X81339788Y-25030106D01*
X81339792Y-25030104D01*
X81490104Y-24879792D01*
X81490106Y-24879788D01*
X81490109Y-24879786D01*
X81615048Y-24707820D01*
X81615047Y-24707820D01*
X81615051Y-24707816D01*
X81619514Y-24699054D01*
X81667488Y-24648259D01*
X81735308Y-24631463D01*
X81801444Y-24653999D01*
X81840486Y-24699056D01*
X81844951Y-24707820D01*
X81969890Y-24879786D01*
X82120213Y-25030109D01*
X82292179Y-25155048D01*
X82292181Y-25155049D01*
X82292184Y-25155051D01*
X82481588Y-25251557D01*
X82683757Y-25317246D01*
X82893713Y-25350500D01*
X82893714Y-25350500D01*
X83106286Y-25350500D01*
X83106287Y-25350500D01*
X83316243Y-25317246D01*
X83518412Y-25251557D01*
X83707816Y-25155051D01*
X83794471Y-25092093D01*
X83879786Y-25030109D01*
X83879788Y-25030106D01*
X83879792Y-25030104D01*
X84030104Y-24879792D01*
X84030106Y-24879788D01*
X84030109Y-24879786D01*
X84155048Y-24707820D01*
X84155047Y-24707820D01*
X84155051Y-24707816D01*
X84159514Y-24699054D01*
X84207488Y-24648259D01*
X84275308Y-24631463D01*
X84341444Y-24653999D01*
X84380486Y-24699056D01*
X84384951Y-24707820D01*
X84509890Y-24879786D01*
X84660213Y-25030109D01*
X84832179Y-25155048D01*
X84832181Y-25155049D01*
X84832184Y-25155051D01*
X85021588Y-25251557D01*
X85223757Y-25317246D01*
X85433713Y-25350500D01*
X85433714Y-25350500D01*
X85646286Y-25350500D01*
X85646287Y-25350500D01*
X85856243Y-25317246D01*
X86058412Y-25251557D01*
X86247816Y-25155051D01*
X86334471Y-25092093D01*
X86419786Y-25030109D01*
X86419788Y-25030106D01*
X86419792Y-25030104D01*
X86570104Y-24879792D01*
X86570106Y-24879788D01*
X86570109Y-24879786D01*
X86695048Y-24707820D01*
X86695047Y-24707820D01*
X86695051Y-24707816D01*
X86699514Y-24699054D01*
X86747488Y-24648259D01*
X86815308Y-24631463D01*
X86881444Y-24653999D01*
X86920486Y-24699056D01*
X86924951Y-24707820D01*
X87049890Y-24879786D01*
X87200213Y-25030109D01*
X87372179Y-25155048D01*
X87372181Y-25155049D01*
X87372184Y-25155051D01*
X87561588Y-25251557D01*
X87763757Y-25317246D01*
X87973713Y-25350500D01*
X87973714Y-25350500D01*
X88186286Y-25350500D01*
X88186287Y-25350500D01*
X88396243Y-25317246D01*
X88598412Y-25251557D01*
X88787816Y-25155051D01*
X88874471Y-25092093D01*
X88959786Y-25030109D01*
X88959788Y-25030106D01*
X88959792Y-25030104D01*
X89110104Y-24879792D01*
X89110106Y-24879788D01*
X89110109Y-24879786D01*
X89235048Y-24707820D01*
X89235047Y-24707820D01*
X89235051Y-24707816D01*
X89331557Y-24518412D01*
X89397246Y-24316243D01*
X89430500Y-24106287D01*
X89430500Y-23893713D01*
X89397246Y-23683757D01*
X89331557Y-23481588D01*
X89235051Y-23292184D01*
X89235049Y-23292181D01*
X89235048Y-23292179D01*
X89110109Y-23120213D01*
X88959786Y-22969890D01*
X88787820Y-22844951D01*
X88598414Y-22748444D01*
X88598413Y-22748443D01*
X88598412Y-22748443D01*
X88396243Y-22682754D01*
X88396241Y-22682753D01*
X88396240Y-22682753D01*
X88234957Y-22657208D01*
X88186287Y-22649500D01*
X87973713Y-22649500D01*
X87925042Y-22657208D01*
X87763760Y-22682753D01*
X87561585Y-22748444D01*
X87372179Y-22844951D01*
X87200213Y-22969890D01*
X87049890Y-23120213D01*
X86924949Y-23292182D01*
X86920484Y-23300946D01*
X86872509Y-23351742D01*
X86804688Y-23368536D01*
X86738553Y-23345998D01*
X86699516Y-23300946D01*
X86695050Y-23292182D01*
X86570109Y-23120213D01*
X86419786Y-22969890D01*
X86247820Y-22844951D01*
X86058414Y-22748444D01*
X86058413Y-22748443D01*
X86058412Y-22748443D01*
X85856243Y-22682754D01*
X85856241Y-22682753D01*
X85856240Y-22682753D01*
X85694957Y-22657208D01*
X85646287Y-22649500D01*
X85433713Y-22649500D01*
X85385042Y-22657208D01*
X85223760Y-22682753D01*
X85021585Y-22748444D01*
X84832179Y-22844951D01*
X84660213Y-22969890D01*
X84509890Y-23120213D01*
X84384949Y-23292182D01*
X84380484Y-23300946D01*
X84332509Y-23351742D01*
X84264688Y-23368536D01*
X84198553Y-23345998D01*
X84159516Y-23300946D01*
X84155050Y-23292182D01*
X84030109Y-23120213D01*
X83879786Y-22969890D01*
X83707820Y-22844951D01*
X83518414Y-22748444D01*
X83518413Y-22748443D01*
X83518412Y-22748443D01*
X83316243Y-22682754D01*
X83316241Y-22682753D01*
X83316240Y-22682753D01*
X83154957Y-22657208D01*
X83106287Y-22649500D01*
X82893713Y-22649500D01*
X82845042Y-22657208D01*
X82683760Y-22682753D01*
X82481585Y-22748444D01*
X82292179Y-22844951D01*
X82120213Y-22969890D01*
X81969890Y-23120213D01*
X81844949Y-23292182D01*
X81840484Y-23300946D01*
X81792509Y-23351742D01*
X81724688Y-23368536D01*
X81658553Y-23345998D01*
X81619516Y-23300946D01*
X81615050Y-23292182D01*
X81490109Y-23120213D01*
X81339786Y-22969890D01*
X81167820Y-22844951D01*
X80978414Y-22748444D01*
X80978413Y-22748443D01*
X80978412Y-22748443D01*
X80776243Y-22682754D01*
X80776241Y-22682753D01*
X80776240Y-22682753D01*
X80614957Y-22657208D01*
X80566287Y-22649500D01*
X80353713Y-22649500D01*
X80305042Y-22657208D01*
X80143760Y-22682753D01*
X79941585Y-22748444D01*
X79752179Y-22844951D01*
X79580213Y-22969890D01*
X79429890Y-23120213D01*
X79304949Y-23292182D01*
X79300484Y-23300946D01*
X79252509Y-23351742D01*
X79184688Y-23368536D01*
X79118553Y-23345998D01*
X79079516Y-23300946D01*
X79075050Y-23292182D01*
X78950109Y-23120213D01*
X78799786Y-22969890D01*
X78627820Y-22844951D01*
X78438414Y-22748444D01*
X78438413Y-22748443D01*
X78438412Y-22748443D01*
X78236243Y-22682754D01*
X78236241Y-22682753D01*
X78236240Y-22682753D01*
X78074957Y-22657208D01*
X78026287Y-22649500D01*
X77813713Y-22649500D01*
X77765042Y-22657208D01*
X77603760Y-22682753D01*
X77401585Y-22748444D01*
X77212179Y-22844951D01*
X77040213Y-22969890D01*
X76889890Y-23120213D01*
X76764949Y-23292182D01*
X76760484Y-23300946D01*
X76712509Y-23351742D01*
X76644688Y-23368536D01*
X76578553Y-23345998D01*
X76539516Y-23300946D01*
X76535050Y-23292182D01*
X76410109Y-23120213D01*
X76259786Y-22969890D01*
X76087820Y-22844951D01*
X75898414Y-22748444D01*
X75898413Y-22748443D01*
X75898412Y-22748443D01*
X75696243Y-22682754D01*
X75696241Y-22682753D01*
X75696240Y-22682753D01*
X75534957Y-22657208D01*
X75486287Y-22649500D01*
X75273713Y-22649500D01*
X75225042Y-22657208D01*
X75063760Y-22682753D01*
X74861585Y-22748444D01*
X74672179Y-22844951D01*
X74500213Y-22969890D01*
X74481228Y-22988875D01*
X74419904Y-23022359D01*
X74350213Y-23017373D01*
X74305868Y-22988873D01*
X73804350Y-22487355D01*
X73804348Y-22487352D01*
X73685477Y-22368481D01*
X73685476Y-22368480D01*
X73598664Y-22318360D01*
X73598664Y-22318359D01*
X73598660Y-22318358D01*
X73548545Y-22289423D01*
X73395817Y-22248499D01*
X73237703Y-22248499D01*
X73230107Y-22248499D01*
X73230091Y-22248500D01*
X72284180Y-22248500D01*
X72243259Y-22259464D01*
X72243259Y-22259465D01*
X72205991Y-22269451D01*
X72131454Y-22289423D01*
X72131449Y-22289426D01*
X71994530Y-22368475D01*
X71994522Y-22368481D01*
X71882720Y-22480284D01*
X71882718Y-22480286D01*
X71754293Y-22608711D01*
X71619196Y-22743807D01*
X71557873Y-22777291D01*
X71488181Y-22772307D01*
X71457204Y-22755392D01*
X71392089Y-22706647D01*
X71392086Y-22706645D01*
X71257379Y-22656403D01*
X71257372Y-22656401D01*
X71197844Y-22650000D01*
X70550000Y-22650000D01*
X70550000Y-23566988D01*
X70492993Y-23534075D01*
X70365826Y-23500000D01*
X70234174Y-23500000D01*
X70107007Y-23534075D01*
X70050000Y-23566988D01*
X70050000Y-22650000D01*
X69402155Y-22650000D01*
X69342627Y-22656401D01*
X69342620Y-22656403D01*
X69207913Y-22706645D01*
X69207906Y-22706649D01*
X69092812Y-22792809D01*
X69092809Y-22792812D01*
X69006649Y-22907906D01*
X69006645Y-22907913D01*
X68956403Y-23042620D01*
X68956401Y-23042627D01*
X68950000Y-23102155D01*
X68950000Y-23750000D01*
X69866988Y-23750000D01*
X69834075Y-23807007D01*
X69800000Y-23934174D01*
X69800000Y-24065826D01*
X69834075Y-24192993D01*
X69866988Y-24250000D01*
X68950000Y-24250000D01*
X68950000Y-24897844D01*
X68956401Y-24957372D01*
X68956403Y-24957379D01*
X69006645Y-25092086D01*
X69006649Y-25092093D01*
X69092809Y-25207187D01*
X69092812Y-25207190D01*
X69207906Y-25293350D01*
X69207913Y-25293354D01*
X69342620Y-25343596D01*
X69342627Y-25343598D01*
X69402155Y-25349999D01*
X69402172Y-25350000D01*
X70100402Y-25350000D01*
X70167441Y-25369685D01*
X70213196Y-25422489D01*
X70223140Y-25491647D01*
X70194115Y-25555203D01*
X70188083Y-25561681D01*
X68387584Y-27362181D01*
X68326261Y-27395666D01*
X68299903Y-27398500D01*
X47999909Y-27398500D01*
X47999893Y-27398499D01*
X47992297Y-27398499D01*
X47834183Y-27398499D01*
X47726827Y-27427265D01*
X47681450Y-27439424D01*
X47681449Y-27439425D01*
X47631336Y-27468359D01*
X47631335Y-27468360D01*
X47587929Y-27493420D01*
X47544525Y-27518479D01*
X47544522Y-27518481D01*
X46074131Y-28988873D01*
X46012808Y-29022358D01*
X45943116Y-29017374D01*
X45898769Y-28988873D01*
X45879786Y-28969890D01*
X45707820Y-28844951D01*
X45518414Y-28748444D01*
X45518413Y-28748443D01*
X45518412Y-28748443D01*
X45316243Y-28682754D01*
X45316241Y-28682753D01*
X45316240Y-28682753D01*
X45154957Y-28657208D01*
X45106287Y-28649500D01*
X44893713Y-28649500D01*
X44845042Y-28657208D01*
X44683760Y-28682753D01*
X44481585Y-28748444D01*
X44292179Y-28844951D01*
X44120213Y-28969890D01*
X43969890Y-29120213D01*
X43844949Y-29292182D01*
X43840484Y-29300946D01*
X43792509Y-29351742D01*
X43724688Y-29368536D01*
X43658553Y-29345998D01*
X43619516Y-29300946D01*
X43615050Y-29292182D01*
X43490109Y-29120213D01*
X43339786Y-28969890D01*
X43167820Y-28844951D01*
X42978414Y-28748444D01*
X42978413Y-28748443D01*
X42978412Y-28748443D01*
X42776243Y-28682754D01*
X42776241Y-28682753D01*
X42776240Y-28682753D01*
X42614957Y-28657208D01*
X42566287Y-28649500D01*
X42353713Y-28649500D01*
X42305042Y-28657208D01*
X42143760Y-28682753D01*
X41941585Y-28748444D01*
X41752179Y-28844951D01*
X41580213Y-28969890D01*
X41429890Y-29120213D01*
X41304949Y-29292182D01*
X41300484Y-29300946D01*
X41252509Y-29351742D01*
X41184688Y-29368536D01*
X41118553Y-29345998D01*
X41079516Y-29300946D01*
X41075050Y-29292182D01*
X40950109Y-29120213D01*
X40799786Y-28969890D01*
X40627820Y-28844951D01*
X40438414Y-28748444D01*
X40438413Y-28748443D01*
X40438412Y-28748443D01*
X40236243Y-28682754D01*
X40236241Y-28682753D01*
X40236240Y-28682753D01*
X40074957Y-28657208D01*
X40026287Y-28649500D01*
X39813713Y-28649500D01*
X39765042Y-28657208D01*
X39603760Y-28682753D01*
X39401585Y-28748444D01*
X39212179Y-28844951D01*
X39040213Y-28969890D01*
X38889890Y-29120213D01*
X38764949Y-29292182D01*
X38760484Y-29300946D01*
X38712509Y-29351742D01*
X38644688Y-29368536D01*
X38578553Y-29345998D01*
X38539516Y-29300946D01*
X38535050Y-29292182D01*
X38410109Y-29120213D01*
X38259786Y-28969890D01*
X38087820Y-28844951D01*
X37898414Y-28748444D01*
X37898413Y-28748443D01*
X37898412Y-28748443D01*
X37696243Y-28682754D01*
X37696241Y-28682753D01*
X37696240Y-28682753D01*
X37534957Y-28657208D01*
X37486287Y-28649500D01*
X37273713Y-28649500D01*
X37225042Y-28657208D01*
X37063760Y-28682753D01*
X36861585Y-28748444D01*
X36672179Y-28844951D01*
X36500213Y-28969890D01*
X36349890Y-29120213D01*
X36224949Y-29292182D01*
X36220484Y-29300946D01*
X36172509Y-29351742D01*
X36104688Y-29368536D01*
X36038553Y-29345998D01*
X35999516Y-29300946D01*
X35995050Y-29292182D01*
X35870109Y-29120213D01*
X35719786Y-28969890D01*
X35547820Y-28844951D01*
X35358414Y-28748444D01*
X35358413Y-28748443D01*
X35358412Y-28748443D01*
X35156243Y-28682754D01*
X35156241Y-28682753D01*
X35156240Y-28682753D01*
X34994957Y-28657208D01*
X34946287Y-28649500D01*
X34733713Y-28649500D01*
X34685042Y-28657208D01*
X34523760Y-28682753D01*
X34321585Y-28748444D01*
X34132179Y-28844951D01*
X33960213Y-28969890D01*
X33809890Y-29120213D01*
X33684949Y-29292182D01*
X33680484Y-29300946D01*
X33632509Y-29351742D01*
X33564688Y-29368536D01*
X33498553Y-29345998D01*
X33459516Y-29300946D01*
X33455050Y-29292182D01*
X33330109Y-29120213D01*
X33179786Y-28969890D01*
X33007820Y-28844951D01*
X32818414Y-28748444D01*
X32818413Y-28748443D01*
X32818412Y-28748443D01*
X32616243Y-28682754D01*
X32616241Y-28682753D01*
X32616240Y-28682753D01*
X32454957Y-28657208D01*
X32406287Y-28649500D01*
X32193713Y-28649500D01*
X32145042Y-28657208D01*
X31983760Y-28682753D01*
X31781585Y-28748444D01*
X31592179Y-28844951D01*
X31420213Y-28969890D01*
X31269890Y-29120213D01*
X31144951Y-29292179D01*
X31048444Y-29481585D01*
X30982753Y-29683760D01*
X30949500Y-29893713D01*
X30500500Y-29893713D01*
X30500500Y-23865186D01*
X36599500Y-23865186D01*
X36599500Y-24134813D01*
X36629686Y-24402719D01*
X36629688Y-24402731D01*
X36689684Y-24665594D01*
X36689687Y-24665602D01*
X36778734Y-24920082D01*
X36895714Y-25162994D01*
X36923484Y-25207190D01*
X37039162Y-25391289D01*
X37207266Y-25602085D01*
X37397915Y-25792734D01*
X37608711Y-25960838D01*
X37837003Y-26104284D01*
X38079921Y-26221267D01*
X38225891Y-26272344D01*
X38334397Y-26310312D01*
X38334405Y-26310315D01*
X38334408Y-26310315D01*
X38334409Y-26310316D01*
X38597268Y-26370312D01*
X38865187Y-26400499D01*
X38865188Y-26400500D01*
X38865191Y-26400500D01*
X39134812Y-26400500D01*
X39134812Y-26400499D01*
X39402732Y-26370312D01*
X39665591Y-26310316D01*
X39920079Y-26221267D01*
X40162997Y-26104284D01*
X40391289Y-25960838D01*
X40602085Y-25792734D01*
X40792734Y-25602085D01*
X40960838Y-25391289D01*
X41104284Y-25162997D01*
X41221267Y-24920079D01*
X41310316Y-24665591D01*
X41370312Y-24402732D01*
X41400500Y-24134809D01*
X41400500Y-24000000D01*
X42494825Y-24000000D01*
X42513500Y-24273038D01*
X42513501Y-24273040D01*
X42569178Y-24540979D01*
X42569183Y-24540995D01*
X42660829Y-24798860D01*
X42660828Y-24798860D01*
X42786740Y-25041858D01*
X42786744Y-25041864D01*
X42944560Y-25265439D01*
X43131365Y-25465457D01*
X43163557Y-25491647D01*
X43343655Y-25638168D01*
X43343657Y-25638169D01*
X43343658Y-25638170D01*
X43577490Y-25780366D01*
X43781222Y-25868858D01*
X43828508Y-25889398D01*
X44092035Y-25963235D01*
X44330399Y-25995996D01*
X44363161Y-26000500D01*
X44363162Y-26000500D01*
X55636839Y-26000500D01*
X55666068Y-25996482D01*
X55907965Y-25963235D01*
X56171492Y-25889398D01*
X56422511Y-25780365D01*
X56656345Y-25638168D01*
X56868638Y-25465454D01*
X57055437Y-25265442D01*
X57213260Y-25041857D01*
X57339169Y-24798864D01*
X57430818Y-24540990D01*
X57430818Y-24540985D01*
X57430821Y-24540979D01*
X57477521Y-24316243D01*
X57486499Y-24273038D01*
X57505175Y-24000000D01*
X57486499Y-23726962D01*
X57460594Y-23602300D01*
X57430821Y-23459020D01*
X57430816Y-23459004D01*
X57339172Y-23201142D01*
X57339169Y-23201136D01*
X57213260Y-22958143D01*
X57213259Y-22958141D01*
X57213255Y-22958135D01*
X57055439Y-22734560D01*
X56975998Y-22649500D01*
X56868638Y-22534546D01*
X56868636Y-22534545D01*
X56868634Y-22534542D01*
X56700697Y-22397915D01*
X56656345Y-22361832D01*
X56656343Y-22361831D01*
X56656341Y-22361829D01*
X56422509Y-22219633D01*
X56171493Y-22110602D01*
X55907970Y-22036766D01*
X55907966Y-22036765D01*
X55907965Y-22036765D01*
X55772401Y-22018132D01*
X55636839Y-21999500D01*
X55636838Y-21999500D01*
X55565892Y-21999500D01*
X44565892Y-21999500D01*
X44500000Y-21999500D01*
X44363162Y-21999500D01*
X44363161Y-21999500D01*
X44092035Y-22036765D01*
X44092029Y-22036766D01*
X43828506Y-22110602D01*
X43577490Y-22219633D01*
X43343658Y-22361829D01*
X43131365Y-22534542D01*
X42944560Y-22734560D01*
X42786744Y-22958135D01*
X42786740Y-22958141D01*
X42660829Y-23201139D01*
X42569183Y-23459004D01*
X42569178Y-23459020D01*
X42513501Y-23726959D01*
X42513500Y-23726961D01*
X42494825Y-24000000D01*
X41400500Y-24000000D01*
X41400500Y-23865191D01*
X41370312Y-23597268D01*
X41310316Y-23334409D01*
X41221267Y-23079921D01*
X41104284Y-22837003D01*
X40960838Y-22608711D01*
X40792734Y-22397915D01*
X40602085Y-22207266D01*
X40391289Y-22039162D01*
X40162997Y-21895716D01*
X40162994Y-21895714D01*
X39920082Y-21778734D01*
X39665602Y-21689687D01*
X39665594Y-21689684D01*
X39468446Y-21644687D01*
X39402732Y-21629688D01*
X39402728Y-21629687D01*
X39402719Y-21629686D01*
X39134813Y-21599500D01*
X39134809Y-21599500D01*
X38865191Y-21599500D01*
X38865186Y-21599500D01*
X38597280Y-21629686D01*
X38597268Y-21629688D01*
X38334405Y-21689684D01*
X38334397Y-21689687D01*
X38079917Y-21778734D01*
X37837005Y-21895714D01*
X37608712Y-22039161D01*
X37397915Y-22207265D01*
X37207265Y-22397915D01*
X37039161Y-22608712D01*
X36895714Y-22837005D01*
X36778734Y-23079917D01*
X36689687Y-23334397D01*
X36689684Y-23334405D01*
X36629688Y-23597268D01*
X36629686Y-23597280D01*
X36599500Y-23865186D01*
X30500500Y-23865186D01*
X30500500Y-23003750D01*
X30500726Y-22996263D01*
X30518244Y-22706647D01*
X30518271Y-22706201D01*
X30520076Y-22691340D01*
X30521650Y-22682754D01*
X30571780Y-22409197D01*
X30575364Y-22394663D01*
X30583523Y-22368480D01*
X30660696Y-22120822D01*
X30665998Y-22106841D01*
X30783731Y-21845249D01*
X30790676Y-21832016D01*
X30939080Y-21586526D01*
X30947567Y-21574230D01*
X31124480Y-21348417D01*
X31134395Y-21337226D01*
X31337226Y-21134395D01*
X31348417Y-21124480D01*
X31574230Y-20947567D01*
X31586526Y-20939080D01*
X31832016Y-20790676D01*
X31845249Y-20783731D01*
X32106841Y-20665998D01*
X32120822Y-20660696D01*
X32394668Y-20575362D01*
X32409197Y-20571780D01*
X32691344Y-20520075D01*
X32706201Y-20518271D01*
X32996264Y-20500726D01*
X33003751Y-20500500D01*
X33065892Y-20500500D01*
X126934108Y-20500500D01*
X126996249Y-20500500D01*
X127003736Y-20500726D01*
G37*
%TD.AperFunction*%
%TD*%
M02*
