%TF.GenerationSoftware,KiCad,Pcbnew,9.0.6*%
%TF.CreationDate,2026-04-21T21:37:54+09:00*%
%TF.ProjectId,wwgt2026badge,77776774-3230-4323-9662-616467652e6b,rev?*%
%TF.SameCoordinates,Original*%
%TF.FileFunction,Legend,Bot*%
%TF.FilePolarity,Positive*%
%FSLAX46Y46*%
G04 Gerber Fmt 4.6, Leading zero omitted, Abs format (unit mm)*
G04 Created by KiCad (PCBNEW 9.0.6) date 2026-04-21 21:37:54*
%MOMM*%
%LPD*%
G01*
G04 APERTURE LIST*
%ADD10C,0.080000*%
%ADD11C,0.375000*%
%ADD12C,0.100000*%
G04 APERTURE END LIST*
D10*
X84795237Y-67153697D02*
X84747618Y-67106078D01*
X84747618Y-67106078D02*
X84652380Y-67058459D01*
X84652380Y-67058459D02*
X84414285Y-67058459D01*
X84414285Y-67058459D02*
X84319047Y-67106078D01*
X84319047Y-67106078D02*
X84271428Y-67153697D01*
X84271428Y-67153697D02*
X84223809Y-67248935D01*
X84223809Y-67248935D02*
X84223809Y-67344173D01*
X84223809Y-67344173D02*
X84271428Y-67487030D01*
X84271428Y-67487030D02*
X84842856Y-68058459D01*
X84842856Y-68058459D02*
X84223809Y-68058459D01*
X83604761Y-67058459D02*
X83509523Y-67058459D01*
X83509523Y-67058459D02*
X83414285Y-67106078D01*
X83414285Y-67106078D02*
X83366666Y-67153697D01*
X83366666Y-67153697D02*
X83319047Y-67248935D01*
X83319047Y-67248935D02*
X83271428Y-67439411D01*
X83271428Y-67439411D02*
X83271428Y-67677506D01*
X83271428Y-67677506D02*
X83319047Y-67867982D01*
X83319047Y-67867982D02*
X83366666Y-67963220D01*
X83366666Y-67963220D02*
X83414285Y-68010840D01*
X83414285Y-68010840D02*
X83509523Y-68058459D01*
X83509523Y-68058459D02*
X83604761Y-68058459D01*
X83604761Y-68058459D02*
X83699999Y-68010840D01*
X83699999Y-68010840D02*
X83747618Y-67963220D01*
X83747618Y-67963220D02*
X83795237Y-67867982D01*
X83795237Y-67867982D02*
X83842856Y-67677506D01*
X83842856Y-67677506D02*
X83842856Y-67439411D01*
X83842856Y-67439411D02*
X83795237Y-67248935D01*
X83795237Y-67248935D02*
X83747618Y-67153697D01*
X83747618Y-67153697D02*
X83699999Y-67106078D01*
X83699999Y-67106078D02*
X83604761Y-67058459D01*
X82890475Y-67153697D02*
X82842856Y-67106078D01*
X82842856Y-67106078D02*
X82747618Y-67058459D01*
X82747618Y-67058459D02*
X82509523Y-67058459D01*
X82509523Y-67058459D02*
X82414285Y-67106078D01*
X82414285Y-67106078D02*
X82366666Y-67153697D01*
X82366666Y-67153697D02*
X82319047Y-67248935D01*
X82319047Y-67248935D02*
X82319047Y-67344173D01*
X82319047Y-67344173D02*
X82366666Y-67487030D01*
X82366666Y-67487030D02*
X82938094Y-68058459D01*
X82938094Y-68058459D02*
X82319047Y-68058459D01*
X81461904Y-67058459D02*
X81652380Y-67058459D01*
X81652380Y-67058459D02*
X81747618Y-67106078D01*
X81747618Y-67106078D02*
X81795237Y-67153697D01*
X81795237Y-67153697D02*
X81890475Y-67296554D01*
X81890475Y-67296554D02*
X81938094Y-67487030D01*
X81938094Y-67487030D02*
X81938094Y-67867982D01*
X81938094Y-67867982D02*
X81890475Y-67963220D01*
X81890475Y-67963220D02*
X81842856Y-68010840D01*
X81842856Y-68010840D02*
X81747618Y-68058459D01*
X81747618Y-68058459D02*
X81557142Y-68058459D01*
X81557142Y-68058459D02*
X81461904Y-68010840D01*
X81461904Y-68010840D02*
X81414285Y-67963220D01*
X81414285Y-67963220D02*
X81366666Y-67867982D01*
X81366666Y-67867982D02*
X81366666Y-67629887D01*
X81366666Y-67629887D02*
X81414285Y-67534649D01*
X81414285Y-67534649D02*
X81461904Y-67487030D01*
X81461904Y-67487030D02*
X81557142Y-67439411D01*
X81557142Y-67439411D02*
X81747618Y-67439411D01*
X81747618Y-67439411D02*
X81842856Y-67487030D01*
X81842856Y-67487030D02*
X81890475Y-67534649D01*
X81890475Y-67534649D02*
X81938094Y-67629887D01*
X80938094Y-67963220D02*
X80890475Y-68010840D01*
X80890475Y-68010840D02*
X80938094Y-68058459D01*
X80938094Y-68058459D02*
X80985713Y-68010840D01*
X80985713Y-68010840D02*
X80938094Y-67963220D01*
X80938094Y-67963220D02*
X80938094Y-68058459D01*
X80271428Y-67058459D02*
X80176190Y-67058459D01*
X80176190Y-67058459D02*
X80080952Y-67106078D01*
X80080952Y-67106078D02*
X80033333Y-67153697D01*
X80033333Y-67153697D02*
X79985714Y-67248935D01*
X79985714Y-67248935D02*
X79938095Y-67439411D01*
X79938095Y-67439411D02*
X79938095Y-67677506D01*
X79938095Y-67677506D02*
X79985714Y-67867982D01*
X79985714Y-67867982D02*
X80033333Y-67963220D01*
X80033333Y-67963220D02*
X80080952Y-68010840D01*
X80080952Y-68010840D02*
X80176190Y-68058459D01*
X80176190Y-68058459D02*
X80271428Y-68058459D01*
X80271428Y-68058459D02*
X80366666Y-68010840D01*
X80366666Y-68010840D02*
X80414285Y-67963220D01*
X80414285Y-67963220D02*
X80461904Y-67867982D01*
X80461904Y-67867982D02*
X80509523Y-67677506D01*
X80509523Y-67677506D02*
X80509523Y-67439411D01*
X80509523Y-67439411D02*
X80461904Y-67248935D01*
X80461904Y-67248935D02*
X80414285Y-67153697D01*
X80414285Y-67153697D02*
X80366666Y-67106078D01*
X80366666Y-67106078D02*
X80271428Y-67058459D01*
X79033333Y-67058459D02*
X79509523Y-67058459D01*
X79509523Y-67058459D02*
X79557142Y-67534649D01*
X79557142Y-67534649D02*
X79509523Y-67487030D01*
X79509523Y-67487030D02*
X79414285Y-67439411D01*
X79414285Y-67439411D02*
X79176190Y-67439411D01*
X79176190Y-67439411D02*
X79080952Y-67487030D01*
X79080952Y-67487030D02*
X79033333Y-67534649D01*
X79033333Y-67534649D02*
X78985714Y-67629887D01*
X78985714Y-67629887D02*
X78985714Y-67867982D01*
X78985714Y-67867982D02*
X79033333Y-67963220D01*
X79033333Y-67963220D02*
X79080952Y-68010840D01*
X79080952Y-68010840D02*
X79176190Y-68058459D01*
X79176190Y-68058459D02*
X79414285Y-68058459D01*
X79414285Y-68058459D02*
X79509523Y-68010840D01*
X79509523Y-68010840D02*
X79557142Y-67963220D01*
X78557142Y-67963220D02*
X78509523Y-68010840D01*
X78509523Y-68010840D02*
X78557142Y-68058459D01*
X78557142Y-68058459D02*
X78604761Y-68010840D01*
X78604761Y-68010840D02*
X78557142Y-67963220D01*
X78557142Y-67963220D02*
X78557142Y-68058459D01*
X78176190Y-67058459D02*
X77557143Y-67058459D01*
X77557143Y-67058459D02*
X77890476Y-67439411D01*
X77890476Y-67439411D02*
X77747619Y-67439411D01*
X77747619Y-67439411D02*
X77652381Y-67487030D01*
X77652381Y-67487030D02*
X77604762Y-67534649D01*
X77604762Y-67534649D02*
X77557143Y-67629887D01*
X77557143Y-67629887D02*
X77557143Y-67867982D01*
X77557143Y-67867982D02*
X77604762Y-67963220D01*
X77604762Y-67963220D02*
X77652381Y-68010840D01*
X77652381Y-68010840D02*
X77747619Y-68058459D01*
X77747619Y-68058459D02*
X78033333Y-68058459D01*
X78033333Y-68058459D02*
X78128571Y-68010840D01*
X78128571Y-68010840D02*
X78176190Y-67963220D01*
X76938095Y-67058459D02*
X76842857Y-67058459D01*
X76842857Y-67058459D02*
X76747619Y-67106078D01*
X76747619Y-67106078D02*
X76700000Y-67153697D01*
X76700000Y-67153697D02*
X76652381Y-67248935D01*
X76652381Y-67248935D02*
X76604762Y-67439411D01*
X76604762Y-67439411D02*
X76604762Y-67677506D01*
X76604762Y-67677506D02*
X76652381Y-67867982D01*
X76652381Y-67867982D02*
X76700000Y-67963220D01*
X76700000Y-67963220D02*
X76747619Y-68010840D01*
X76747619Y-68010840D02*
X76842857Y-68058459D01*
X76842857Y-68058459D02*
X76938095Y-68058459D01*
X76938095Y-68058459D02*
X77033333Y-68010840D01*
X77033333Y-68010840D02*
X77080952Y-67963220D01*
X77080952Y-67963220D02*
X77128571Y-67867982D01*
X77128571Y-67867982D02*
X77176190Y-67677506D01*
X77176190Y-67677506D02*
X77176190Y-67439411D01*
X77176190Y-67439411D02*
X77128571Y-67248935D01*
X77128571Y-67248935D02*
X77080952Y-67153697D01*
X77080952Y-67153697D02*
X77033333Y-67106078D01*
X77033333Y-67106078D02*
X76938095Y-67058459D01*
D11*
X103914285Y-55803441D02*
X103199999Y-58803441D01*
X103199999Y-58803441D02*
X102628571Y-56660584D01*
X102628571Y-56660584D02*
X102057142Y-58803441D01*
X102057142Y-58803441D02*
X101342857Y-55803441D01*
X99771428Y-58803441D02*
X100057143Y-58660584D01*
X100057143Y-58660584D02*
X100200000Y-58517726D01*
X100200000Y-58517726D02*
X100342857Y-58232012D01*
X100342857Y-58232012D02*
X100342857Y-57374869D01*
X100342857Y-57374869D02*
X100200000Y-57089155D01*
X100200000Y-57089155D02*
X100057143Y-56946298D01*
X100057143Y-56946298D02*
X99771428Y-56803441D01*
X99771428Y-56803441D02*
X99342857Y-56803441D01*
X99342857Y-56803441D02*
X99057143Y-56946298D01*
X99057143Y-56946298D02*
X98914286Y-57089155D01*
X98914286Y-57089155D02*
X98771428Y-57374869D01*
X98771428Y-57374869D02*
X98771428Y-58232012D01*
X98771428Y-58232012D02*
X98914286Y-58517726D01*
X98914286Y-58517726D02*
X99057143Y-58660584D01*
X99057143Y-58660584D02*
X99342857Y-58803441D01*
X99342857Y-58803441D02*
X99771428Y-58803441D01*
X97485714Y-58803441D02*
X97485714Y-56803441D01*
X97485714Y-57089155D02*
X97342857Y-56946298D01*
X97342857Y-56946298D02*
X97057142Y-56803441D01*
X97057142Y-56803441D02*
X96628571Y-56803441D01*
X96628571Y-56803441D02*
X96342857Y-56946298D01*
X96342857Y-56946298D02*
X96200000Y-57232012D01*
X96200000Y-57232012D02*
X96200000Y-58803441D01*
X96200000Y-57232012D02*
X96057142Y-56946298D01*
X96057142Y-56946298D02*
X95771428Y-56803441D01*
X95771428Y-56803441D02*
X95342857Y-56803441D01*
X95342857Y-56803441D02*
X95057142Y-56946298D01*
X95057142Y-56946298D02*
X94914285Y-57232012D01*
X94914285Y-57232012D02*
X94914285Y-58803441D01*
X92342857Y-58660584D02*
X92628571Y-58803441D01*
X92628571Y-58803441D02*
X93200000Y-58803441D01*
X93200000Y-58803441D02*
X93485714Y-58660584D01*
X93485714Y-58660584D02*
X93628571Y-58374869D01*
X93628571Y-58374869D02*
X93628571Y-57232012D01*
X93628571Y-57232012D02*
X93485714Y-56946298D01*
X93485714Y-56946298D02*
X93200000Y-56803441D01*
X93200000Y-56803441D02*
X92628571Y-56803441D01*
X92628571Y-56803441D02*
X92342857Y-56946298D01*
X92342857Y-56946298D02*
X92200000Y-57232012D01*
X92200000Y-57232012D02*
X92200000Y-57517726D01*
X92200000Y-57517726D02*
X93628571Y-57803441D01*
X90914285Y-56803441D02*
X90914285Y-58803441D01*
X90914285Y-57089155D02*
X90771428Y-56946298D01*
X90771428Y-56946298D02*
X90485713Y-56803441D01*
X90485713Y-56803441D02*
X90057142Y-56803441D01*
X90057142Y-56803441D02*
X89771428Y-56946298D01*
X89771428Y-56946298D02*
X89628571Y-57232012D01*
X89628571Y-57232012D02*
X89628571Y-58803441D01*
X86199999Y-55803441D02*
X85485713Y-58803441D01*
X85485713Y-58803441D02*
X84914285Y-56660584D01*
X84914285Y-56660584D02*
X84342856Y-58803441D01*
X84342856Y-58803441D02*
X83628571Y-55803441D01*
X82485714Y-58803441D02*
X82485714Y-55803441D01*
X81200000Y-58803441D02*
X81200000Y-57232012D01*
X81200000Y-57232012D02*
X81342857Y-56946298D01*
X81342857Y-56946298D02*
X81628571Y-56803441D01*
X81628571Y-56803441D02*
X82057142Y-56803441D01*
X82057142Y-56803441D02*
X82342857Y-56946298D01*
X82342857Y-56946298D02*
X82485714Y-57089155D01*
X79342856Y-58803441D02*
X79628571Y-58660584D01*
X79628571Y-58660584D02*
X79771428Y-58517726D01*
X79771428Y-58517726D02*
X79914285Y-58232012D01*
X79914285Y-58232012D02*
X79914285Y-57374869D01*
X79914285Y-57374869D02*
X79771428Y-57089155D01*
X79771428Y-57089155D02*
X79628571Y-56946298D01*
X79628571Y-56946298D02*
X79342856Y-56803441D01*
X79342856Y-56803441D02*
X78914285Y-56803441D01*
X78914285Y-56803441D02*
X78628571Y-56946298D01*
X78628571Y-56946298D02*
X78485714Y-57089155D01*
X78485714Y-57089155D02*
X78342856Y-57374869D01*
X78342856Y-57374869D02*
X78342856Y-58232012D01*
X78342856Y-58232012D02*
X78485714Y-58517726D01*
X78485714Y-58517726D02*
X78628571Y-58660584D01*
X78628571Y-58660584D02*
X78914285Y-58803441D01*
X78914285Y-58803441D02*
X79342856Y-58803441D01*
X73199999Y-55946298D02*
X73485714Y-55803441D01*
X73485714Y-55803441D02*
X73914285Y-55803441D01*
X73914285Y-55803441D02*
X74342856Y-55946298D01*
X74342856Y-55946298D02*
X74628571Y-56232012D01*
X74628571Y-56232012D02*
X74771428Y-56517726D01*
X74771428Y-56517726D02*
X74914285Y-57089155D01*
X74914285Y-57089155D02*
X74914285Y-57517726D01*
X74914285Y-57517726D02*
X74771428Y-58089155D01*
X74771428Y-58089155D02*
X74628571Y-58374869D01*
X74628571Y-58374869D02*
X74342856Y-58660584D01*
X74342856Y-58660584D02*
X73914285Y-58803441D01*
X73914285Y-58803441D02*
X73628571Y-58803441D01*
X73628571Y-58803441D02*
X73199999Y-58660584D01*
X73199999Y-58660584D02*
X73057142Y-58517726D01*
X73057142Y-58517726D02*
X73057142Y-57517726D01*
X73057142Y-57517726D02*
X73628571Y-57517726D01*
X71342856Y-58803441D02*
X71628571Y-58660584D01*
X71628571Y-58660584D02*
X71771428Y-58517726D01*
X71771428Y-58517726D02*
X71914285Y-58232012D01*
X71914285Y-58232012D02*
X71914285Y-57374869D01*
X71914285Y-57374869D02*
X71771428Y-57089155D01*
X71771428Y-57089155D02*
X71628571Y-56946298D01*
X71628571Y-56946298D02*
X71342856Y-56803441D01*
X71342856Y-56803441D02*
X70914285Y-56803441D01*
X70914285Y-56803441D02*
X70628571Y-56946298D01*
X70628571Y-56946298D02*
X70485714Y-57089155D01*
X70485714Y-57089155D02*
X70342856Y-57374869D01*
X70342856Y-57374869D02*
X70342856Y-58232012D01*
X70342856Y-58232012D02*
X70485714Y-58517726D01*
X70485714Y-58517726D02*
X70628571Y-58660584D01*
X70628571Y-58660584D02*
X70914285Y-58803441D01*
X70914285Y-58803441D02*
X71342856Y-58803441D01*
X67199999Y-55803441D02*
X65485714Y-55803441D01*
X66342856Y-58803441D02*
X66342856Y-55803441D01*
X64057142Y-58803441D02*
X64342857Y-58660584D01*
X64342857Y-58660584D02*
X64485714Y-58517726D01*
X64485714Y-58517726D02*
X64628571Y-58232012D01*
X64628571Y-58232012D02*
X64628571Y-57374869D01*
X64628571Y-57374869D02*
X64485714Y-57089155D01*
X64485714Y-57089155D02*
X64342857Y-56946298D01*
X64342857Y-56946298D02*
X64057142Y-56803441D01*
X64057142Y-56803441D02*
X63628571Y-56803441D01*
X63628571Y-56803441D02*
X63342857Y-56946298D01*
X63342857Y-56946298D02*
X63200000Y-57089155D01*
X63200000Y-57089155D02*
X63057142Y-57374869D01*
X63057142Y-57374869D02*
X63057142Y-58232012D01*
X63057142Y-58232012D02*
X63200000Y-58517726D01*
X63200000Y-58517726D02*
X63342857Y-58660584D01*
X63342857Y-58660584D02*
X63628571Y-58803441D01*
X63628571Y-58803441D02*
X64057142Y-58803441D01*
X61771428Y-58803441D02*
X61771428Y-55803441D01*
X61485714Y-57660584D02*
X60628571Y-58803441D01*
X60628571Y-56803441D02*
X61771428Y-57946298D01*
X59628571Y-56803441D02*
X58914285Y-58803441D01*
X58200000Y-56803441D02*
X58914285Y-58803441D01*
X58914285Y-58803441D02*
X59200000Y-59517726D01*
X59200000Y-59517726D02*
X59342857Y-59660584D01*
X59342857Y-59660584D02*
X59628571Y-59803441D01*
X56628571Y-58803441D02*
X56914286Y-58660584D01*
X56914286Y-58660584D02*
X57057143Y-58517726D01*
X57057143Y-58517726D02*
X57200000Y-58232012D01*
X57200000Y-58232012D02*
X57200000Y-57374869D01*
X57200000Y-57374869D02*
X57057143Y-57089155D01*
X57057143Y-57089155D02*
X56914286Y-56946298D01*
X56914286Y-56946298D02*
X56628571Y-56803441D01*
X56628571Y-56803441D02*
X56200000Y-56803441D01*
X56200000Y-56803441D02*
X55914286Y-56946298D01*
X55914286Y-56946298D02*
X55771429Y-57089155D01*
X55771429Y-57089155D02*
X55628571Y-57374869D01*
X55628571Y-57374869D02*
X55628571Y-58232012D01*
X55628571Y-58232012D02*
X55771429Y-58517726D01*
X55771429Y-58517726D02*
X55914286Y-58660584D01*
X55914286Y-58660584D02*
X56200000Y-58803441D01*
X56200000Y-58803441D02*
X56628571Y-58803441D01*
X96342857Y-63633273D02*
X98057143Y-63633273D01*
X97200000Y-63633273D02*
X97200000Y-60633273D01*
X97200000Y-60633273D02*
X97485714Y-61061844D01*
X97485714Y-61061844D02*
X97771429Y-61347558D01*
X97771429Y-61347558D02*
X98057143Y-61490416D01*
X94485714Y-60633273D02*
X94200000Y-60633273D01*
X94200000Y-60633273D02*
X93914286Y-60776130D01*
X93914286Y-60776130D02*
X93771429Y-60918987D01*
X93771429Y-60918987D02*
X93628571Y-61204701D01*
X93628571Y-61204701D02*
X93485714Y-61776130D01*
X93485714Y-61776130D02*
X93485714Y-62490416D01*
X93485714Y-62490416D02*
X93628571Y-63061844D01*
X93628571Y-63061844D02*
X93771429Y-63347558D01*
X93771429Y-63347558D02*
X93914286Y-63490416D01*
X93914286Y-63490416D02*
X94200000Y-63633273D01*
X94200000Y-63633273D02*
X94485714Y-63633273D01*
X94485714Y-63633273D02*
X94771429Y-63490416D01*
X94771429Y-63490416D02*
X94914286Y-63347558D01*
X94914286Y-63347558D02*
X95057143Y-63061844D01*
X95057143Y-63061844D02*
X95200000Y-62490416D01*
X95200000Y-62490416D02*
X95200000Y-61776130D01*
X95200000Y-61776130D02*
X95057143Y-61204701D01*
X95057143Y-61204701D02*
X94914286Y-60918987D01*
X94914286Y-60918987D02*
X94771429Y-60776130D01*
X94771429Y-60776130D02*
X94485714Y-60633273D01*
X92628571Y-61633273D02*
X91485714Y-61633273D01*
X92200000Y-60633273D02*
X92200000Y-63204701D01*
X92200000Y-63204701D02*
X92057143Y-63490416D01*
X92057143Y-63490416D02*
X91771428Y-63633273D01*
X91771428Y-63633273D02*
X91485714Y-63633273D01*
X90485714Y-63633273D02*
X90485714Y-60633273D01*
X89200000Y-63633273D02*
X89200000Y-62061844D01*
X89200000Y-62061844D02*
X89342857Y-61776130D01*
X89342857Y-61776130D02*
X89628571Y-61633273D01*
X89628571Y-61633273D02*
X90057142Y-61633273D01*
X90057142Y-61633273D02*
X90342857Y-61776130D01*
X90342857Y-61776130D02*
X90485714Y-61918987D01*
X85628571Y-62776130D02*
X84200000Y-62776130D01*
X85914285Y-63633273D02*
X84914285Y-60633273D01*
X84914285Y-60633273D02*
X83914285Y-63633273D01*
X82914285Y-61633273D02*
X82914285Y-63633273D01*
X82914285Y-61918987D02*
X82771428Y-61776130D01*
X82771428Y-61776130D02*
X82485713Y-61633273D01*
X82485713Y-61633273D02*
X82057142Y-61633273D01*
X82057142Y-61633273D02*
X81771428Y-61776130D01*
X81771428Y-61776130D02*
X81628571Y-62061844D01*
X81628571Y-62061844D02*
X81628571Y-63633273D01*
X80199999Y-61633273D02*
X80199999Y-63633273D01*
X80199999Y-61918987D02*
X80057142Y-61776130D01*
X80057142Y-61776130D02*
X79771427Y-61633273D01*
X79771427Y-61633273D02*
X79342856Y-61633273D01*
X79342856Y-61633273D02*
X79057142Y-61776130D01*
X79057142Y-61776130D02*
X78914285Y-62061844D01*
X78914285Y-62061844D02*
X78914285Y-63633273D01*
X77485713Y-63633273D02*
X77485713Y-61633273D01*
X77485713Y-60633273D02*
X77628570Y-60776130D01*
X77628570Y-60776130D02*
X77485713Y-60918987D01*
X77485713Y-60918987D02*
X77342856Y-60776130D01*
X77342856Y-60776130D02*
X77485713Y-60633273D01*
X77485713Y-60633273D02*
X77485713Y-60918987D01*
X76342856Y-61633273D02*
X75628570Y-63633273D01*
X75628570Y-63633273D02*
X74914285Y-61633273D01*
X72628571Y-63490416D02*
X72914285Y-63633273D01*
X72914285Y-63633273D02*
X73485714Y-63633273D01*
X73485714Y-63633273D02*
X73771428Y-63490416D01*
X73771428Y-63490416D02*
X73914285Y-63204701D01*
X73914285Y-63204701D02*
X73914285Y-62061844D01*
X73914285Y-62061844D02*
X73771428Y-61776130D01*
X73771428Y-61776130D02*
X73485714Y-61633273D01*
X73485714Y-61633273D02*
X72914285Y-61633273D01*
X72914285Y-61633273D02*
X72628571Y-61776130D01*
X72628571Y-61776130D02*
X72485714Y-62061844D01*
X72485714Y-62061844D02*
X72485714Y-62347558D01*
X72485714Y-62347558D02*
X73914285Y-62633273D01*
X71199999Y-63633273D02*
X71199999Y-61633273D01*
X71199999Y-62204701D02*
X71057142Y-61918987D01*
X71057142Y-61918987D02*
X70914285Y-61776130D01*
X70914285Y-61776130D02*
X70628570Y-61633273D01*
X70628570Y-61633273D02*
X70342856Y-61633273D01*
X69485713Y-63490416D02*
X69199999Y-63633273D01*
X69199999Y-63633273D02*
X68628570Y-63633273D01*
X68628570Y-63633273D02*
X68342856Y-63490416D01*
X68342856Y-63490416D02*
X68199999Y-63204701D01*
X68199999Y-63204701D02*
X68199999Y-63061844D01*
X68199999Y-63061844D02*
X68342856Y-62776130D01*
X68342856Y-62776130D02*
X68628570Y-62633273D01*
X68628570Y-62633273D02*
X69057142Y-62633273D01*
X69057142Y-62633273D02*
X69342856Y-62490416D01*
X69342856Y-62490416D02*
X69485713Y-62204701D01*
X69485713Y-62204701D02*
X69485713Y-62061844D01*
X69485713Y-62061844D02*
X69342856Y-61776130D01*
X69342856Y-61776130D02*
X69057142Y-61633273D01*
X69057142Y-61633273D02*
X68628570Y-61633273D01*
X68628570Y-61633273D02*
X68342856Y-61776130D01*
X65628571Y-63633273D02*
X65628571Y-62061844D01*
X65628571Y-62061844D02*
X65771428Y-61776130D01*
X65771428Y-61776130D02*
X66057142Y-61633273D01*
X66057142Y-61633273D02*
X66628571Y-61633273D01*
X66628571Y-61633273D02*
X66914285Y-61776130D01*
X65628571Y-63490416D02*
X65914285Y-63633273D01*
X65914285Y-63633273D02*
X66628571Y-63633273D01*
X66628571Y-63633273D02*
X66914285Y-63490416D01*
X66914285Y-63490416D02*
X67057142Y-63204701D01*
X67057142Y-63204701D02*
X67057142Y-62918987D01*
X67057142Y-62918987D02*
X66914285Y-62633273D01*
X66914285Y-62633273D02*
X66628571Y-62490416D01*
X66628571Y-62490416D02*
X65914285Y-62490416D01*
X65914285Y-62490416D02*
X65628571Y-62347558D01*
X64199999Y-63633273D02*
X64199999Y-61633273D01*
X64199999Y-62204701D02*
X64057142Y-61918987D01*
X64057142Y-61918987D02*
X63914285Y-61776130D01*
X63914285Y-61776130D02*
X63628570Y-61633273D01*
X63628570Y-61633273D02*
X63342856Y-61633273D01*
X62628570Y-61633273D02*
X61914284Y-63633273D01*
X61199999Y-61633273D02*
X61914284Y-63633273D01*
X61914284Y-63633273D02*
X62199999Y-64347558D01*
X62199999Y-64347558D02*
X62342856Y-64490416D01*
X62342856Y-64490416D02*
X62628570Y-64633273D01*
D12*
G36*
X95364584Y-43485546D02*
G01*
X95386566Y-43485546D01*
X95576159Y-43569809D01*
X95703471Y-43633007D01*
X95725452Y-43696205D01*
X95915046Y-43737421D01*
X96209969Y-43905949D01*
X96320679Y-44068910D01*
X96315299Y-44263154D01*
X96201192Y-44497188D01*
X95979160Y-44660659D01*
X95979160Y-44722941D01*
X95924521Y-45028478D01*
X95770332Y-45248674D01*
X95542492Y-45379246D01*
X95271161Y-45395219D01*
X95026869Y-45322390D01*
X94833355Y-45143344D01*
X94710016Y-44891619D01*
X94683842Y-44701875D01*
X95001883Y-44701875D01*
X95079963Y-44980768D01*
X95295890Y-45080146D01*
X95537346Y-45022092D01*
X95653096Y-44744007D01*
X95336190Y-44754759D01*
X95001883Y-44701875D01*
X94683842Y-44701875D01*
X94666660Y-44577311D01*
X94421414Y-44422180D01*
X94309455Y-44242088D01*
X94302281Y-44127599D01*
X94606210Y-44127599D01*
X94695145Y-44233863D01*
X94963415Y-44358408D01*
X95316238Y-44438030D01*
X95634777Y-44421606D01*
X95896759Y-44330758D01*
X96013048Y-44169731D01*
X95991982Y-44127599D01*
X95803305Y-44043335D01*
X95655843Y-44001203D01*
X95592645Y-44001203D01*
X95571579Y-44001203D01*
X95425034Y-44043335D01*
X95298638Y-44064401D01*
X95215290Y-44064401D01*
X95173158Y-44064401D01*
X95088895Y-44043335D01*
X94921283Y-43959987D01*
X94879151Y-43959987D01*
X94627276Y-44106533D01*
X94606210Y-44127599D01*
X94302281Y-44127599D01*
X94298085Y-44060643D01*
X94392802Y-43884883D01*
X94793055Y-43675139D01*
X94878235Y-43675139D01*
X94983565Y-43548743D01*
X95147534Y-43470696D01*
X95364584Y-43485546D01*
G37*
G36*
X97585830Y-38796887D02*
G01*
X97624135Y-38905992D01*
X97582919Y-39305329D01*
X97540787Y-39515073D01*
X97498656Y-39620403D01*
X97444681Y-39721733D01*
X97320053Y-39735807D01*
X97211920Y-39674326D01*
X97204648Y-39557205D01*
X97225714Y-39430809D01*
X97288912Y-39242131D01*
X97309978Y-38927058D01*
X97350168Y-38800501D01*
X97467515Y-38759446D01*
X97585830Y-38796887D01*
G37*
G36*
X92539915Y-38863860D02*
G01*
X92539915Y-38884926D01*
X92614104Y-38980181D01*
X92666311Y-39073604D01*
X92854988Y-39409743D01*
X92848828Y-39548881D01*
X92750575Y-39620403D01*
X92624861Y-39615017D01*
X92539915Y-39515073D01*
X92392453Y-39242131D01*
X92340247Y-39147793D01*
X92266974Y-39053454D01*
X92266974Y-39032388D01*
X92237674Y-38917652D01*
X92319181Y-38822644D01*
X92443658Y-38791019D01*
X92539915Y-38863860D01*
G37*
G36*
X99159357Y-41420612D02*
G01*
X99323150Y-41615256D01*
X99401896Y-41828001D01*
X99385432Y-42034743D01*
X99344216Y-42161139D01*
X99270943Y-42255478D01*
X99175688Y-42349816D01*
X99029142Y-42434080D01*
X98845954Y-42441005D01*
X98650871Y-42328750D01*
X98545541Y-42203271D01*
X98462194Y-41992611D01*
X98516151Y-41726712D01*
X98735135Y-41488860D01*
X98976999Y-41380381D01*
X99159357Y-41420612D01*
G37*
G36*
X92440740Y-41311108D02*
G01*
X92560588Y-41492195D01*
X92575636Y-41754474D01*
X92554570Y-41880870D01*
X92586441Y-41999767D01*
X92512438Y-42111680D01*
X92221224Y-42278096D01*
X91941299Y-42316734D01*
X91651482Y-42237159D01*
X91469095Y-42099221D01*
X91389531Y-41901936D01*
X91409686Y-41674603D01*
X91546152Y-41418335D01*
X91834360Y-41203285D01*
X92197365Y-41187526D01*
X92440740Y-41311108D01*
G37*
G36*
X97670847Y-38143039D02*
G01*
X97948381Y-38387579D01*
X98131550Y-38772269D01*
X98173051Y-39196975D01*
X98089418Y-39655207D01*
X98256114Y-39760537D01*
X98277180Y-39760537D01*
X98444791Y-39865867D01*
X98895628Y-40185130D01*
X99176604Y-40496013D01*
X99196754Y-40517079D01*
X99448629Y-40706673D01*
X99888729Y-41166303D01*
X100170124Y-41666536D01*
X100309585Y-42220673D01*
X100283395Y-42839519D01*
X100041534Y-43389838D01*
X99553959Y-43902285D01*
X99281018Y-44090963D01*
X99281018Y-44133094D01*
X99281018Y-45139680D01*
X99984597Y-45586373D01*
X100309585Y-45936523D01*
X100429130Y-46200299D01*
X100411111Y-46405668D01*
X100267453Y-46587735D01*
X99988340Y-46722096D01*
X99617157Y-46713215D01*
X99363726Y-46617923D01*
X99154622Y-46461339D01*
X99154622Y-46671083D01*
X99091424Y-46776413D01*
X99469695Y-47720717D01*
X99553959Y-47951526D01*
X99973446Y-49021310D01*
X100277991Y-49532055D01*
X100624659Y-49944548D01*
X100677309Y-50067348D01*
X100624659Y-50175357D01*
X100562377Y-50217489D01*
X100499179Y-50259621D01*
X99208843Y-50581264D01*
X97645201Y-50825654D01*
X97703551Y-51308433D01*
X97666267Y-51664628D01*
X97502249Y-52002500D01*
X97264182Y-52127163D01*
X97001355Y-52072331D01*
X96754020Y-51791024D01*
X96630179Y-51428695D01*
X96584577Y-50951133D01*
X95423202Y-51035397D01*
X92974057Y-50951133D01*
X92840479Y-51357752D01*
X92680965Y-51623412D01*
X92473930Y-51794853D01*
X92261478Y-51833155D01*
X92017660Y-51708020D01*
X91849244Y-51403181D01*
X91782900Y-50846720D01*
X92092951Y-50846720D01*
X92177214Y-51328489D01*
X92302694Y-51518082D01*
X92470306Y-51370621D01*
X92637918Y-50930068D01*
X92500179Y-50909002D01*
X96899650Y-50909002D01*
X96935659Y-51343904D01*
X97028793Y-51643562D01*
X97144331Y-51794171D01*
X97223882Y-51823080D01*
X97294200Y-51776061D01*
X97373176Y-51601430D01*
X97395252Y-51290627D01*
X97331044Y-50867786D01*
X96899650Y-50909002D01*
X92500179Y-50909002D01*
X92092951Y-50846720D01*
X91782900Y-50846720D01*
X91777877Y-50804588D01*
X90720343Y-50600283D01*
X89808669Y-50342969D01*
X89787604Y-50342969D01*
X89641058Y-50279771D01*
X89593503Y-50176384D01*
X89646759Y-50093841D01*
X90063293Y-50093841D01*
X91222836Y-50386933D01*
X91474711Y-49399581D01*
X91474711Y-49378515D01*
X91679644Y-48546078D01*
X91809934Y-48244617D01*
X91904731Y-48170887D01*
X92020594Y-48202486D01*
X92093878Y-48297111D01*
X92062726Y-48412229D01*
X91965638Y-48667142D01*
X91788868Y-49441713D01*
X91768718Y-49462779D01*
X91621257Y-50134141D01*
X91536993Y-50449214D01*
X91890534Y-50522487D01*
X91953732Y-50522487D01*
X92037080Y-50547217D01*
X92764313Y-50595760D01*
X92868727Y-50595760D01*
X92952075Y-50637892D01*
X93057405Y-50637892D01*
X93057405Y-50616826D01*
X93127223Y-50354563D01*
X93162734Y-49650540D01*
X93162734Y-49503995D01*
X93203950Y-48579841D01*
X93257995Y-48478005D01*
X93382553Y-48464436D01*
X93489455Y-48528477D01*
X93497958Y-48663189D01*
X93477808Y-49503995D01*
X93477808Y-49650540D01*
X93443485Y-50359395D01*
X93372478Y-50658042D01*
X94858085Y-50720324D01*
X94915744Y-50424825D01*
X94943265Y-49746711D01*
X94967078Y-49587342D01*
X95014706Y-49375767D01*
X95038519Y-49258531D01*
X95059585Y-48681507D01*
X95114597Y-48571490D01*
X95238188Y-48556027D01*
X95351892Y-48617332D01*
X95374659Y-48734630D01*
X95353593Y-49279596D01*
X95329779Y-49395001D01*
X95282152Y-49602913D01*
X95258338Y-49759534D01*
X95233880Y-50377918D01*
X95178654Y-50699258D01*
X95392977Y-50699258D01*
X96465508Y-50657126D01*
X96658765Y-49645045D01*
X96701813Y-48486418D01*
X96741973Y-48377387D01*
X96869425Y-48338956D01*
X96990005Y-48380756D01*
X97016887Y-48506568D01*
X96969259Y-49655120D01*
X96780582Y-50616826D01*
X98504325Y-50386933D01*
X98348898Y-49401964D01*
X98148036Y-48538625D01*
X98139900Y-48417969D01*
X98242375Y-48349947D01*
X98372149Y-48355562D01*
X98442044Y-48454361D01*
X98657478Y-49321113D01*
X98818483Y-50323735D01*
X100226238Y-50010493D01*
X99949556Y-49626780D01*
X99679439Y-49147705D01*
X99259036Y-48053192D01*
X99174772Y-47820551D01*
X98755285Y-46789235D01*
X98062857Y-46852433D01*
X97853113Y-46884490D01*
X97570097Y-46915631D01*
X97308146Y-46956847D01*
X97182666Y-46956847D01*
X95253758Y-47125375D01*
X93491834Y-47138873D01*
X92222005Y-46989439D01*
X91331829Y-46726038D01*
X91331829Y-46747103D01*
X90971876Y-47820551D01*
X90888528Y-48156690D01*
X90571623Y-49293335D01*
X90346329Y-49729114D01*
X90063293Y-50093841D01*
X89646759Y-50093841D01*
X89662124Y-50070027D01*
X89998081Y-49673026D01*
X90271204Y-49166939D01*
X90586278Y-48095324D01*
X90648560Y-47739951D01*
X91005765Y-46689401D01*
X91005765Y-46647269D01*
X91078443Y-46147428D01*
X91047897Y-45555504D01*
X91026831Y-45576570D01*
X90643222Y-45686612D01*
X90231820Y-45597636D01*
X89944397Y-45373285D01*
X89769285Y-45093885D01*
X89718749Y-44841965D01*
X90035829Y-44841965D01*
X90060545Y-44970237D01*
X90180794Y-45168980D01*
X90375618Y-45306376D01*
X90627625Y-45369574D01*
X90880285Y-45306376D01*
X91026831Y-45285310D01*
X90942567Y-44907039D01*
X90817087Y-44928105D01*
X90309907Y-44767255D01*
X90081611Y-44781559D01*
X90035829Y-44841965D01*
X89718749Y-44841965D01*
X89716290Y-44829706D01*
X89779538Y-44645034D01*
X89958879Y-44505870D01*
X90291709Y-44454059D01*
X90881201Y-44610284D01*
X90796937Y-44253995D01*
X90655406Y-43539584D01*
X90961801Y-43539584D01*
X91114758Y-44190797D01*
X91200854Y-44548002D01*
X91396859Y-45638852D01*
X91396859Y-46409132D01*
X92246688Y-46670742D01*
X93485060Y-46820725D01*
X95233608Y-46807554D01*
X97141450Y-46639026D01*
X97267846Y-46617960D01*
X97529796Y-46597810D01*
X97822888Y-46566669D01*
X98042706Y-46534612D01*
X98839549Y-46492480D01*
X98860615Y-46050095D01*
X98861682Y-46039105D01*
X99196754Y-46039105D01*
X99238886Y-46081236D01*
X99421394Y-46285295D01*
X99679439Y-46396310D01*
X99930140Y-46415611D01*
X100078776Y-46354178D01*
X100116176Y-46259274D01*
X100057710Y-46102302D01*
X99793685Y-45828729D01*
X99217820Y-45472156D01*
X99196754Y-46039105D01*
X98861682Y-46039105D01*
X98923813Y-45398883D01*
X98987010Y-44221022D01*
X98776351Y-44242088D01*
X98756201Y-44242088D01*
X98101166Y-44289613D01*
X97540148Y-44199362D01*
X97050194Y-43982169D01*
X96614802Y-43632091D01*
X96278905Y-43147623D01*
X96111051Y-42578794D01*
X96111637Y-42551089D01*
X96427570Y-42551089D01*
X96563285Y-43002331D01*
X96865761Y-43421432D01*
X97264410Y-43734233D01*
X97758774Y-43925183D01*
X98300161Y-43982773D01*
X98881681Y-43904117D01*
X98987010Y-43925183D01*
X99406497Y-43694373D01*
X99816654Y-43248660D01*
X100024943Y-42780040D01*
X100057710Y-42265553D01*
X99929401Y-41805880D01*
X99676618Y-41379020D01*
X99281018Y-40975034D01*
X98809954Y-40663456D01*
X98353043Y-40505456D01*
X97895245Y-40481359D01*
X97416608Y-40609340D01*
X97009047Y-40916735D01*
X96656018Y-41446728D01*
X96449973Y-42043110D01*
X96427570Y-42551089D01*
X96111637Y-42551089D01*
X96123970Y-41967579D01*
X96341860Y-41295603D01*
X96762667Y-40665639D01*
X97253049Y-40295985D01*
X97832963Y-40137892D01*
X98315648Y-40158958D01*
X98294582Y-40137892D01*
X98126970Y-40032562D01*
X97948368Y-39938224D01*
X97897077Y-39886017D01*
X97854945Y-39886017D01*
X97760148Y-39801753D01*
X97770681Y-39675357D01*
X97870527Y-39240852D01*
X97833879Y-38856533D01*
X97711694Y-38584967D01*
X97539872Y-38437046D01*
X97372835Y-38389346D01*
X97203732Y-38457196D01*
X97006487Y-38705796D01*
X96868509Y-39171606D01*
X96847443Y-39298002D01*
X96750892Y-39387412D01*
X96637699Y-39360284D01*
X95869204Y-39006030D01*
X95070194Y-38858212D01*
X94216519Y-38913567D01*
X93280887Y-39192672D01*
X93218605Y-39255870D01*
X93135257Y-39255870D01*
X93007980Y-39281403D01*
X92925514Y-39192672D01*
X92945664Y-39025061D01*
X92760783Y-38775847D01*
X92558233Y-38594583D01*
X92336573Y-38478402D01*
X92148821Y-38457196D01*
X92015833Y-38537614D01*
X91939078Y-38709987D01*
X91919284Y-39055084D01*
X92044407Y-39612159D01*
X92065473Y-39654291D01*
X92044407Y-39696423D01*
X92065473Y-39717489D01*
X92096857Y-39837021D01*
X92023341Y-39948299D01*
X91616263Y-40281875D01*
X91309847Y-40620577D01*
X91805787Y-40371355D01*
X92401613Y-40242306D01*
X93008777Y-40254029D01*
X93525234Y-40422307D01*
X93976979Y-40747889D01*
X94287117Y-41142620D01*
X94496773Y-41600329D01*
X94607126Y-42135493D01*
X94603456Y-42680475D01*
X94483441Y-43158470D01*
X94249920Y-43586296D01*
X93870033Y-43959856D01*
X93396991Y-44185268D01*
X92800950Y-44264986D01*
X92737752Y-44264986D01*
X92140235Y-44204489D01*
X91626750Y-44030856D01*
X91179788Y-43746580D01*
X90961801Y-43539584D01*
X90655406Y-43539584D01*
X90597779Y-43248696D01*
X90546893Y-42678628D01*
X90546893Y-42657562D01*
X90525828Y-42447819D01*
X90526134Y-42424005D01*
X90828994Y-42424005D01*
X90927040Y-42855819D01*
X91117808Y-43226044D01*
X91406018Y-43546912D01*
X91793311Y-43789447D01*
X92254285Y-43917962D01*
X92812857Y-43925183D01*
X92897120Y-43946249D01*
X93361325Y-43862311D01*
X93724810Y-43680212D01*
X94009952Y-43400366D01*
X94208197Y-43047190D01*
X94307409Y-42646560D01*
X94303959Y-42182205D01*
X94212922Y-41726942D01*
X94031588Y-41339358D01*
X93758076Y-41006175D01*
X93394354Y-40738293D01*
X92968056Y-40597604D01*
X92455651Y-40585772D01*
X91909884Y-40701979D01*
X91484468Y-40919764D01*
X91154142Y-41236985D01*
X90941469Y-41590582D01*
X90833118Y-41981333D01*
X90828994Y-42424005D01*
X90526134Y-42424005D01*
X90534153Y-41799640D01*
X90722748Y-41229658D01*
X90722748Y-41208592D01*
X90816989Y-40797925D01*
X91145899Y-40305504D01*
X91758643Y-39738555D01*
X91737577Y-39717489D01*
X91586308Y-39072617D01*
X91611182Y-38625724D01*
X91789009Y-38295417D01*
X92092951Y-38163189D01*
X92382893Y-38166766D01*
X92701115Y-38310650D01*
X92982015Y-38554882D01*
X93204866Y-38877599D01*
X94130964Y-38609009D01*
X94984935Y-38542258D01*
X95789041Y-38659834D01*
X96563511Y-38961863D01*
X96742143Y-38496249D01*
X96982082Y-38226386D01*
X97324286Y-38068688D01*
X97670847Y-38143039D01*
G37*
G36*
X81211932Y-43353654D02*
G01*
X81484873Y-43584464D01*
X81631419Y-43709944D01*
X81750469Y-43744700D01*
X81885126Y-43868396D01*
X82010606Y-44175226D01*
X81971680Y-44341963D01*
X81832003Y-44555329D01*
X81649539Y-44724909D01*
X81527005Y-44766905D01*
X81452973Y-44805383D01*
X81348403Y-44976648D01*
X81216798Y-45137648D01*
X81001272Y-45207458D01*
X80696669Y-45184070D01*
X80546723Y-45079051D01*
X80495690Y-44892384D01*
X80447695Y-44750890D01*
X80285946Y-44639593D01*
X80023996Y-44408784D01*
X79907675Y-44112944D01*
X80285946Y-44112944D01*
X80335024Y-44228972D01*
X80527747Y-44358408D01*
X80778516Y-44440819D01*
X81062638Y-44469234D01*
X81366621Y-44426812D01*
X81546239Y-44319024D01*
X81671719Y-44159656D01*
X81588371Y-44063485D01*
X81411034Y-43988818D01*
X81084620Y-43957240D01*
X80622085Y-43915108D01*
X80532452Y-43886281D01*
X80412342Y-43927015D01*
X80315218Y-44014094D01*
X80285946Y-44112944D01*
X79907675Y-44112944D01*
X79964433Y-43952838D01*
X80222748Y-43626596D01*
X80580848Y-43360157D01*
X80900150Y-43280757D01*
X81211932Y-43353654D01*
G37*
G36*
X77546457Y-37960772D02*
G01*
X77652500Y-38169061D01*
X77651787Y-38548787D01*
X77609655Y-38759446D01*
X77492140Y-38793613D01*
X77252450Y-38611985D01*
X77108465Y-38379263D01*
X77085163Y-38170021D01*
X77169102Y-37960772D01*
X77357780Y-37845368D01*
X77546457Y-37960772D01*
G37*
G36*
X83907440Y-37785403D02*
G01*
X83993553Y-37856359D01*
X84013700Y-38015644D01*
X83899214Y-38181507D01*
X83698187Y-38302464D01*
X83426604Y-38360109D01*
X83255165Y-38339896D01*
X83195794Y-38254780D01*
X83221665Y-38116288D01*
X83364322Y-37950697D01*
X83559368Y-37824415D01*
X83742593Y-37772095D01*
X83907440Y-37785403D01*
G37*
G36*
X84934193Y-41163712D02*
G01*
X85075708Y-41349356D01*
X85165918Y-41574040D01*
X85196792Y-41807970D01*
X85165002Y-42003602D01*
X84945184Y-42266468D01*
X84661251Y-42381873D01*
X84466647Y-42324205D01*
X84251839Y-42119923D01*
X84097939Y-41850763D01*
X84051255Y-41605181D01*
X84134286Y-41297303D01*
X84388310Y-41080364D01*
X84698492Y-41017846D01*
X84934193Y-41163712D01*
G37*
G36*
X78239802Y-41095019D02*
G01*
X78363098Y-41233805D01*
X78470611Y-41494356D01*
X78518326Y-41759704D01*
X78491677Y-41977041D01*
X78331682Y-42185231D01*
X78098465Y-42291247D01*
X77757117Y-42292114D01*
X77465570Y-42127695D01*
X77336714Y-41788363D01*
X77392497Y-41403949D01*
X77651787Y-41073953D01*
X77935719Y-41011671D01*
X78239802Y-41095019D01*
G37*
G36*
X84247234Y-36851856D02*
G01*
X84472574Y-36988075D01*
X84593609Y-37189638D01*
X84640186Y-37513808D01*
X84593368Y-37858538D01*
X84451508Y-38185170D01*
X84282980Y-38480094D01*
X84619120Y-38753035D01*
X84935360Y-38987879D01*
X85153096Y-39089174D01*
X85515369Y-39195761D01*
X85914912Y-39429446D01*
X86364845Y-39825566D01*
X86753204Y-40287466D01*
X87026342Y-40772464D01*
X87194660Y-41287360D01*
X87254182Y-41821175D01*
X87193979Y-42317184D01*
X87016058Y-42789453D01*
X86648778Y-43283129D01*
X86302563Y-43588128D01*
X86218300Y-43861069D01*
X86070838Y-44786139D01*
X85945358Y-45942018D01*
X85989325Y-46089997D01*
X86134036Y-46215875D01*
X86491241Y-46404553D01*
X86635476Y-46392699D01*
X87267933Y-46027198D01*
X88695838Y-45144260D01*
X89054620Y-44992102D01*
X89215942Y-45013362D01*
X89283853Y-45144260D01*
X89250002Y-45262354D01*
X89053043Y-45438267D01*
X87834882Y-46236941D01*
X87016058Y-46793815D01*
X86925551Y-46919705D01*
X86910728Y-47056681D01*
X86906461Y-47243233D01*
X86816389Y-47361680D01*
X86656897Y-47424171D01*
X86385911Y-47434952D01*
X85903226Y-47350689D01*
X85776831Y-47403811D01*
X85650435Y-47833374D01*
X85347693Y-48818616D01*
X84938489Y-49581081D01*
X84431205Y-50161636D01*
X83820445Y-50587517D01*
X83389052Y-50840308D01*
X83373686Y-50909318D01*
X83441258Y-51028986D01*
X83683975Y-51449389D01*
X83757248Y-51869792D01*
X83638031Y-52110947D01*
X83426424Y-52229401D01*
X83073978Y-52226997D01*
X82718940Y-52108677D01*
X82424185Y-51895853D01*
X82179134Y-51575785D01*
X81989540Y-51281777D01*
X81401525Y-51301927D01*
X80330647Y-51277900D01*
X80076942Y-51239645D01*
X82389793Y-51239645D01*
X82463630Y-51420209D01*
X82778139Y-51701264D01*
X83144120Y-51896781D01*
X83313947Y-51889942D01*
X83388555Y-51791872D01*
X83370378Y-51614433D01*
X83187551Y-51281777D01*
X82956742Y-51028986D01*
X82662734Y-51092184D01*
X82436070Y-51173823D01*
X82389793Y-51239645D01*
X80076942Y-51239645D01*
X78819573Y-51050052D01*
X78420236Y-50966704D01*
X78336888Y-51301927D01*
X78132382Y-51777871D01*
X77792837Y-52079535D01*
X77482199Y-52179935D01*
X77260965Y-52096956D01*
X77079343Y-51806594D01*
X77055252Y-51610589D01*
X77357780Y-51610589D01*
X77426393Y-51819328D01*
X77545443Y-51837326D01*
X77799249Y-51631655D01*
X77977851Y-51244225D01*
X78041049Y-50918161D01*
X77809324Y-50833897D01*
X77546457Y-50770699D01*
X77498607Y-50813058D01*
X77399912Y-51170036D01*
X77357780Y-51610589D01*
X77055252Y-51610589D01*
X77042397Y-51506004D01*
X77100409Y-51028986D01*
X77163607Y-50609499D01*
X77079343Y-50504169D01*
X76881954Y-50396688D01*
X76546283Y-50115823D01*
X76032457Y-49538799D01*
X75739366Y-48866521D01*
X75599410Y-47982605D01*
X75614904Y-47476080D01*
X75930058Y-47476080D01*
X75948193Y-48192411D01*
X76066949Y-48803604D01*
X76284332Y-49315317D01*
X76591656Y-49704129D01*
X77009033Y-50036686D01*
X77557448Y-50313660D01*
X78550482Y-50606747D01*
X80220001Y-50890683D01*
X81074005Y-50948884D01*
X81833999Y-50896280D01*
X82514357Y-50743222D01*
X83302183Y-50439759D01*
X83913079Y-50084773D01*
X84377319Y-49683513D01*
X84750405Y-49195963D01*
X85057585Y-48584181D01*
X85293230Y-47824214D01*
X85447364Y-46745272D01*
X85818963Y-46745272D01*
X85840029Y-46933949D01*
X85987490Y-46976081D01*
X86070838Y-46997147D01*
X86070838Y-46976081D01*
X86048118Y-46906824D01*
X86112970Y-46787404D01*
X86187159Y-46693065D01*
X86070838Y-46577660D01*
X85884723Y-46533523D01*
X85818963Y-46745272D01*
X85447364Y-46745272D01*
X85587237Y-45766163D01*
X85797897Y-44086383D01*
X85840029Y-43834508D01*
X85608303Y-43940753D01*
X84735440Y-44151413D01*
X83861661Y-44235676D01*
X83178083Y-44070306D01*
X82622434Y-43710860D01*
X82210394Y-43190110D01*
X81971222Y-42533914D01*
X81943890Y-42107375D01*
X82360430Y-42107375D01*
X82534507Y-42775715D01*
X82797389Y-43221678D01*
X83126592Y-43524814D01*
X83531417Y-43708328D01*
X84035684Y-43773142D01*
X84507946Y-43734081D01*
X85065168Y-43606446D01*
X85599759Y-43415652D01*
X85988406Y-43211688D01*
X86208203Y-43036133D01*
X86440866Y-42764724D01*
X86626937Y-42459443D01*
X86723882Y-42192280D01*
X86773738Y-41729197D01*
X86677147Y-41230545D01*
X86408809Y-40673700D01*
X86029800Y-40181984D01*
X85591527Y-39819298D01*
X85086234Y-39570943D01*
X84817614Y-39512718D01*
X84329692Y-39487595D01*
X83840100Y-39518670D01*
X83553000Y-39592925D01*
X83214165Y-39802954D01*
X82920996Y-40117689D01*
X82670978Y-40559211D01*
X82397191Y-41380339D01*
X82360430Y-42107375D01*
X81943890Y-42107375D01*
X81919029Y-41719402D01*
X82055486Y-40916416D01*
X82365125Y-40176913D01*
X82811112Y-39592925D01*
X83336845Y-39235720D01*
X83659147Y-39102033D01*
X83861661Y-39067192D01*
X84074526Y-39045885D01*
X84143762Y-39003995D01*
X84149068Y-38927984D01*
X84063162Y-38750287D01*
X83952337Y-38433382D01*
X84143762Y-38031297D01*
X84264331Y-37747216D01*
X84304046Y-37449694D01*
X84244701Y-37210422D01*
X84093387Y-37142864D01*
X83712368Y-37294905D01*
X83444492Y-37454614D01*
X83152747Y-37698822D01*
X82906464Y-37977661D01*
X82783635Y-38206236D01*
X82681025Y-38360558D01*
X82572059Y-38416896D01*
X82149824Y-38311566D01*
X81798721Y-38210390D01*
X80998525Y-38100907D01*
X80173366Y-38052236D01*
X79676866Y-38080757D01*
X78734393Y-38185170D01*
X78169277Y-38290500D01*
X77980599Y-38059691D01*
X77803503Y-37829896D01*
X77687508Y-37555940D01*
X77602960Y-37374234D01*
X77498830Y-37282998D01*
X77356659Y-37247145D01*
X77121475Y-37261933D01*
X76900684Y-37342795D01*
X76660772Y-37523883D01*
X76477985Y-37748267D01*
X76429962Y-37912229D01*
X76461125Y-38136020D01*
X76556358Y-38351866D01*
X76701999Y-38532271D01*
X76873263Y-38644042D01*
X77042156Y-38747406D01*
X77093997Y-38853785D01*
X77058177Y-38966603D01*
X76894329Y-39103829D01*
X76701855Y-39233424D01*
X76662604Y-39302581D01*
X76697057Y-39339235D01*
X76873263Y-39313572D01*
X77197876Y-39264816D01*
X77704910Y-39281516D01*
X78219261Y-39360531D01*
X78621736Y-39480268D01*
X79324755Y-39826776D01*
X79905843Y-40315579D01*
X80176710Y-40686832D01*
X80336809Y-41093815D01*
X80391276Y-41549310D01*
X80339069Y-41998107D01*
X80078034Y-42551317D01*
X79628553Y-43209724D01*
X79185110Y-43655107D01*
X78743553Y-43931594D01*
X78350568Y-44066688D01*
X77763528Y-44119356D01*
X77002406Y-44047915D01*
X76732286Y-43938832D01*
X76346614Y-43706280D01*
X76157937Y-43583548D01*
X76157937Y-44275976D01*
X76011391Y-46291896D01*
X75930058Y-47476080D01*
X75614904Y-47476080D01*
X75634036Y-46850601D01*
X75676168Y-46345935D01*
X75487490Y-46345935D01*
X75264659Y-46307976D01*
X75046021Y-46189314D01*
X74878583Y-46016552D01*
X74815212Y-45843100D01*
X74796420Y-45794556D01*
X75162342Y-45794556D01*
X75255765Y-45920036D01*
X75481246Y-46041240D01*
X75634952Y-46014375D01*
X75737827Y-45878832D01*
X75781497Y-45583897D01*
X75750357Y-45458417D01*
X75570838Y-45458417D01*
X75365768Y-45529405D01*
X75234699Y-45647095D01*
X75162342Y-45794556D01*
X74796420Y-45794556D01*
X74739433Y-45647345D01*
X74479072Y-45317367D01*
X73312136Y-44002850D01*
X72905855Y-43364334D01*
X72862490Y-43091704D01*
X72914632Y-42965457D01*
X73020027Y-42934167D01*
X73142379Y-42979446D01*
X73260911Y-43112770D01*
X73878318Y-43922341D01*
X74584402Y-44750418D01*
X75024955Y-45201962D01*
X75234699Y-45190971D01*
X75549772Y-45086557D01*
X75742879Y-45047414D01*
X75822713Y-44950087D01*
X75821798Y-44184385D01*
X75737651Y-43427718D01*
X75591904Y-42883792D01*
X75386224Y-42215014D01*
X75339831Y-41698604D01*
X75801647Y-41698604D01*
X75831925Y-42173144D01*
X75906977Y-42476212D01*
X76047517Y-42751151D01*
X76306314Y-43106359D01*
X76614658Y-43379577D01*
X77003687Y-43576386D01*
X77492419Y-43694373D01*
X77993456Y-43709224D01*
X78425189Y-43616393D01*
X78804919Y-43421432D01*
X79265684Y-42988432D01*
X79686941Y-42245403D01*
X79917750Y-41740736D01*
X79955381Y-41590033D01*
X79897600Y-41290108D01*
X79768689Y-40983127D01*
X79602677Y-40733234D01*
X79046205Y-40230800D01*
X78301168Y-39872278D01*
X77752510Y-39743439D01*
X77267969Y-39733728D01*
X76831131Y-39830146D01*
X76544960Y-39985828D01*
X76266102Y-40266845D01*
X75991241Y-40712168D01*
X75854748Y-41108787D01*
X75801647Y-41698604D01*
X75339831Y-41698604D01*
X75329760Y-41586502D01*
X75411604Y-40982647D01*
X75634036Y-40388852D01*
X76156286Y-39414656D01*
X76387830Y-39089174D01*
X76462019Y-38932554D01*
X76304482Y-38627555D01*
X76119169Y-38253633D01*
X76071635Y-37940204D01*
X76135955Y-37663101D01*
X76326327Y-37360536D01*
X76608565Y-37118135D01*
X76952657Y-36961885D01*
X77351368Y-36908391D01*
X77600960Y-36938205D01*
X77749790Y-37012805D01*
X78063947Y-37494574D01*
X78252624Y-37933295D01*
X78819573Y-37828881D01*
X79567468Y-37753114D01*
X80637656Y-37723551D01*
X81675174Y-37781705D01*
X82202947Y-37912229D01*
X82403532Y-37965352D01*
X82497870Y-37891163D01*
X82626428Y-37698035D01*
X82938423Y-37387412D01*
X83526438Y-36967925D01*
X83947246Y-36834014D01*
X84247234Y-36851856D01*
G37*
G36*
X66097574Y-44778811D02*
G01*
X66289429Y-44863581D01*
X66454779Y-45019696D01*
X66454779Y-45103960D01*
X66685624Y-45193079D01*
X66790918Y-45419033D01*
X66794052Y-45579928D01*
X66717645Y-45734106D01*
X66583866Y-45854158D01*
X66412647Y-45922784D01*
X66355204Y-46150657D01*
X66234045Y-46311130D01*
X66061233Y-46402199D01*
X65845698Y-46405469D01*
X65652649Y-46332493D01*
X65489409Y-46195725D01*
X65378270Y-46015952D01*
X65349657Y-45859586D01*
X65552607Y-45859586D01*
X65645254Y-46088686D01*
X65888746Y-46195725D01*
X66097409Y-46170639D01*
X66182754Y-45964916D01*
X65552607Y-45859586D01*
X65349657Y-45859586D01*
X65341948Y-45817454D01*
X65363014Y-45775322D01*
X65236618Y-45691974D01*
X65098519Y-45478289D01*
X65117561Y-45412622D01*
X65321798Y-45412622D01*
X65384995Y-45520699D01*
X65799816Y-45728633D01*
X66329299Y-45731359D01*
X66549980Y-45620185D01*
X66602241Y-45437351D01*
X66516446Y-45300233D01*
X66329299Y-45294469D01*
X66153773Y-45397398D01*
X65867680Y-45437351D01*
X65531541Y-45345760D01*
X65468343Y-45315535D01*
X65321798Y-45412622D01*
X65117561Y-45412622D01*
X65152354Y-45292637D01*
X65241791Y-45204656D01*
X65425295Y-45125026D01*
X65467427Y-45082894D01*
X65560352Y-44942443D01*
X65719303Y-44852084D01*
X65897466Y-44770698D01*
X66097574Y-44778811D01*
G37*
G36*
X63072321Y-40150715D02*
G01*
X63366328Y-40465788D01*
X63345262Y-40570202D01*
X63239933Y-40549136D01*
X63009123Y-40318326D01*
X63074579Y-40470532D01*
X63260999Y-40633400D01*
X63282064Y-40748804D01*
X63176735Y-40779945D01*
X62900245Y-40518392D01*
X62861661Y-40255129D01*
X62923128Y-40135569D01*
X63072321Y-40150715D01*
G37*
G36*
X68663040Y-40234063D02*
G01*
X68621824Y-40339392D01*
X68347966Y-40675532D01*
X68243553Y-40686523D01*
X68222487Y-40570202D01*
X68390098Y-40360458D01*
X68222487Y-40549136D01*
X68097007Y-40560127D01*
X68096091Y-40444722D01*
X68425024Y-40135663D01*
X68579692Y-40108583D01*
X68663040Y-40234063D01*
G37*
G36*
X69551473Y-42664890D02*
G01*
X69724721Y-42685829D01*
X69866546Y-42791285D01*
X69950810Y-42937831D01*
X70014008Y-43064227D01*
X70035074Y-43085293D01*
X70087060Y-43195245D01*
X70076290Y-43316102D01*
X70035074Y-43400366D01*
X69949405Y-43617345D01*
X69782283Y-43756655D01*
X69720001Y-43798787D01*
X69545220Y-43929002D01*
X69299598Y-43946249D01*
X69075192Y-43842151D01*
X68900261Y-43652241D01*
X68822172Y-43369413D01*
X68880111Y-43043161D01*
X69047722Y-42707021D01*
X69205344Y-42617393D01*
X69383861Y-42601692D01*
X69551473Y-42664890D01*
G37*
G36*
X62978898Y-42539410D02*
G01*
X63153339Y-42676453D01*
X63262830Y-42885624D01*
X63301968Y-43129108D01*
X63272905Y-43379300D01*
X63151582Y-43614247D01*
X62968823Y-43757571D01*
X62738985Y-43804603D01*
X62454081Y-43735589D01*
X62285554Y-43567978D01*
X62222356Y-43525846D01*
X62109329Y-43327991D01*
X62139008Y-43022095D01*
X62254761Y-42795540D01*
X62433015Y-42622758D01*
X62711525Y-42485705D01*
X62978898Y-42539410D01*
G37*
G36*
X60373767Y-36939784D02*
G01*
X60995035Y-37252773D01*
X61512449Y-37742489D01*
X61798044Y-38299108D01*
X61877057Y-38951788D01*
X61779114Y-39507656D01*
X61512700Y-40073116D01*
X61044576Y-40664512D01*
X60322757Y-41292855D01*
X60238493Y-41313921D01*
X59931901Y-41875013D01*
X59419669Y-42464305D01*
X59293273Y-42673133D01*
X59146728Y-43216268D01*
X59167794Y-43384795D01*
X59482867Y-44035092D01*
X59798765Y-44595320D01*
X60091032Y-44958330D01*
X60398109Y-45215791D01*
X60700112Y-45378733D01*
X60700112Y-45336601D01*
X60749373Y-45189636D01*
X60849406Y-45094801D01*
X60982265Y-45060767D01*
X61147077Y-45105792D01*
X61314777Y-45199983D01*
X61530843Y-45399799D01*
X61530843Y-45294469D01*
X61486170Y-44616479D01*
X61370559Y-44139506D01*
X61370559Y-44097374D01*
X61181075Y-43628258D01*
X61128316Y-43231838D01*
X61540918Y-43231838D01*
X61650793Y-43795014D01*
X62003453Y-44365736D01*
X62514436Y-44811321D01*
X63094303Y-45038014D01*
X63532584Y-45084442D01*
X63939665Y-45002116D01*
X64333530Y-44786139D01*
X64438860Y-44744007D01*
X64764806Y-44444541D01*
X64962860Y-44106005D01*
X65047940Y-43715439D01*
X65022497Y-43323651D01*
X64887950Y-42928526D01*
X64628453Y-42518344D01*
X64110696Y-42035179D01*
X63514706Y-41782868D01*
X63038633Y-41745561D01*
X62590433Y-41854122D01*
X62149999Y-42119007D01*
X61803978Y-42448292D01*
X61607070Y-42813896D01*
X61540918Y-43231838D01*
X61128316Y-43231838D01*
X61120515Y-43173220D01*
X61171491Y-42756698D01*
X61322966Y-42375369D01*
X61582134Y-42018257D01*
X61603200Y-41997191D01*
X62051684Y-41346459D01*
X62525522Y-40947557D01*
X62113596Y-40576737D01*
X61999790Y-40234063D01*
X62050365Y-40002618D01*
X62201357Y-39824219D01*
X62483390Y-39688180D01*
X62920427Y-39620206D01*
X63345262Y-39709246D01*
X63714819Y-39942798D01*
X63933277Y-40297260D01*
X65178780Y-40113657D01*
X66319716Y-40160324D01*
X67381681Y-40422740D01*
X67612327Y-39938897D01*
X67933975Y-39624066D01*
X68329756Y-39455857D01*
X68741808Y-39498586D01*
X68984064Y-39632557D01*
X69136504Y-39829856D01*
X69209838Y-40107667D01*
X69137902Y-40478670D01*
X68895681Y-40905425D01*
X68979029Y-40968623D01*
X69447975Y-41388110D01*
X69491023Y-41451308D01*
X70177956Y-41787447D01*
X70614819Y-42130926D01*
X70896357Y-42551671D01*
X71038912Y-43068806D01*
X71005695Y-43776837D01*
X70723839Y-44538843D01*
X70437736Y-44988603D01*
X70094608Y-45357667D01*
X70094608Y-46756263D01*
X70530046Y-46507594D01*
X70831916Y-46441189D01*
X71021634Y-46458839D01*
X71147905Y-46546519D01*
X71221438Y-46682072D01*
X71232169Y-46840526D01*
X71153100Y-47133426D01*
X70883207Y-47439532D01*
X70503597Y-47666228D01*
X70046981Y-47785746D01*
X69869478Y-48721162D01*
X69603334Y-49443141D01*
X69262961Y-49993091D01*
X68860987Y-50393814D01*
X68371686Y-50715844D01*
X67781018Y-50960293D01*
X68088230Y-51412041D01*
X68222487Y-51716835D01*
X68232180Y-51914762D01*
X68180355Y-52063049D01*
X68073221Y-52158740D01*
X67907413Y-52178454D01*
X67647455Y-52110785D01*
X67350540Y-51874371D01*
X67103671Y-51540335D01*
X66919146Y-51127904D01*
X66019865Y-51180481D01*
X64879413Y-51127904D01*
X64615339Y-51085772D01*
X67255285Y-51085772D01*
X67592340Y-51632571D01*
X67766073Y-51787298D01*
X67907413Y-51843230D01*
X67886347Y-51801099D01*
X67759179Y-51515975D01*
X67402747Y-51043640D01*
X67255285Y-51085772D01*
X64615339Y-51085772D01*
X63828863Y-50960293D01*
X63610112Y-51626539D01*
X63378685Y-51926404D01*
X63134603Y-52010842D01*
X62923549Y-51890426D01*
X62798464Y-51569373D01*
X62804766Y-51528157D01*
X63134603Y-51528157D01*
X63176735Y-51632571D01*
X63282064Y-51486025D01*
X63512874Y-50876029D01*
X63282064Y-50812831D01*
X63239933Y-50791765D01*
X63218867Y-50833897D01*
X63134603Y-51528157D01*
X62804766Y-51528157D01*
X62923943Y-50748717D01*
X62966075Y-50665369D01*
X62356379Y-50309084D01*
X61937508Y-49866695D01*
X61651834Y-49273331D01*
X61485964Y-48394827D01*
X61485432Y-48372845D01*
X61803785Y-48372845D01*
X61945373Y-49151967D01*
X62202206Y-49675270D01*
X62666116Y-50108552D01*
X63414872Y-50473028D01*
X64096898Y-50662033D01*
X64943526Y-50788101D01*
X66241265Y-50831183D01*
X67238754Y-50724215D01*
X67996396Y-50501460D01*
X68565100Y-50184627D01*
X68983608Y-49780600D01*
X69305526Y-49228027D01*
X69562480Y-48411522D01*
X69726991Y-47245073D01*
X69728732Y-47155600D01*
X70074458Y-47155600D01*
X70074458Y-47470673D01*
X70402294Y-47357666D01*
X70668884Y-47196816D01*
X70850897Y-46997074D01*
X70916180Y-46819460D01*
X70916180Y-46767254D01*
X70852982Y-46756263D01*
X70585306Y-46829664D01*
X70115674Y-47134534D01*
X70074458Y-47155600D01*
X69728732Y-47155600D01*
X69758469Y-45626945D01*
X69737403Y-45626945D01*
X69333388Y-45829803D01*
X68976883Y-45878343D01*
X68642890Y-45794556D01*
X68165816Y-45693965D01*
X67749975Y-45478945D01*
X67381681Y-45140596D01*
X67020647Y-44572964D01*
X66823460Y-43926185D01*
X66793610Y-43195202D01*
X67255285Y-43195202D01*
X67273019Y-43834673D01*
X67431316Y-44379493D01*
X67726063Y-44853000D01*
X68113970Y-45192261D01*
X68564121Y-45357667D01*
X68748219Y-45378733D01*
X69336234Y-45315535D01*
X69441564Y-45315535D01*
X69524912Y-45252337D01*
X69956677Y-44890459D01*
X70323586Y-44349249D01*
X70564145Y-43700386D01*
X70596527Y-43132004D01*
X70497153Y-42745171D01*
X70285337Y-42420838D01*
X69945315Y-42145568D01*
X69276471Y-41825515D01*
X68736948Y-41695461D01*
X68293368Y-41711210D01*
X67916572Y-41851561D01*
X67560727Y-42145025D01*
X67338114Y-42575791D01*
X67255285Y-43195202D01*
X66793610Y-43195202D01*
X66792750Y-43174136D01*
X66944229Y-42410343D01*
X67253692Y-41860407D01*
X67717820Y-41472374D01*
X68228652Y-41290393D01*
X68832483Y-41283696D01*
X68769285Y-41241564D01*
X68685022Y-41178367D01*
X68601674Y-41115169D01*
X68517410Y-41073037D01*
X68454226Y-40964827D01*
X68517410Y-40842227D01*
X68797559Y-40439389D01*
X68874615Y-40128733D01*
X68801892Y-39935365D01*
X68621824Y-39813660D01*
X68390782Y-39791272D01*
X68136391Y-39897008D01*
X67876282Y-40166627D01*
X67693090Y-40612334D01*
X67693090Y-40633400D01*
X67693090Y-40738729D01*
X67605795Y-40832012D01*
X67461365Y-40822077D01*
X66635353Y-40557133D01*
X65761757Y-40440296D01*
X64826091Y-40475513D01*
X63812377Y-40675532D01*
X63673335Y-40669183D01*
X63601717Y-40570202D01*
X63622783Y-40423656D01*
X63488513Y-40189727D01*
X63242680Y-40023403D01*
X62922824Y-39954993D01*
X62588720Y-40002337D01*
X62370506Y-40113965D01*
X62314863Y-40234063D01*
X62404547Y-40431158D01*
X62797548Y-40738729D01*
X62881797Y-40801211D01*
X62881811Y-40906341D01*
X62902877Y-40927407D01*
X62912645Y-41070959D01*
X62818614Y-41158217D01*
X62441258Y-41431158D01*
X63010654Y-41294872D01*
X63589810Y-41347810D01*
X64086115Y-41516272D01*
X64531769Y-41802039D01*
X64936199Y-42218841D01*
X65249276Y-42709775D01*
X65429803Y-43206460D01*
X65489409Y-43720019D01*
X65363752Y-44261583D01*
X65070540Y-44724165D01*
X64583574Y-45126857D01*
X64478244Y-45168073D01*
X64014818Y-45383738D01*
X63535643Y-45467153D01*
X63024694Y-45420865D01*
X62393021Y-45182175D01*
X61823935Y-44748586D01*
X61845917Y-45298133D01*
X61845917Y-46671999D01*
X61803785Y-48372845D01*
X61485432Y-48372845D01*
X61444748Y-46693065D01*
X61444748Y-46671999D01*
X61052549Y-46218051D01*
X60816433Y-45725863D01*
X60344519Y-45542303D01*
X60163643Y-45396135D01*
X61016101Y-45396135D01*
X61036251Y-45479483D01*
X61101281Y-45626029D01*
X61079299Y-45668161D01*
X61165395Y-45835772D01*
X61509777Y-46296475D01*
X61530843Y-45901718D01*
X61212858Y-45547656D01*
X61016101Y-45396135D01*
X60163643Y-45396135D01*
X59895027Y-45179064D01*
X59577721Y-44774892D01*
X59224580Y-44169731D01*
X59014837Y-43718187D01*
X58826159Y-43371057D01*
X58826159Y-43244661D01*
X58762961Y-43159481D01*
X58365456Y-42865474D01*
X58239976Y-42803192D01*
X58093430Y-42697862D01*
X57821405Y-42508269D01*
X57311319Y-42086108D01*
X56983347Y-41687613D01*
X56684648Y-41067696D01*
X56584926Y-40384272D01*
X56585215Y-40381524D01*
X56899999Y-40381524D01*
X56983770Y-40980083D01*
X57228811Y-41494356D01*
X57522180Y-41856675D01*
X57968867Y-42249982D01*
X58236313Y-42439576D01*
X58391101Y-42523839D01*
X58503758Y-42607187D01*
X58873786Y-42880129D01*
X59031323Y-42512848D01*
X59167794Y-42228916D01*
X59314339Y-42124502D01*
X59827946Y-41467526D01*
X60068871Y-40868614D01*
X60091948Y-40297260D01*
X59933682Y-39799029D01*
X59626846Y-39384081D01*
X59146728Y-39036967D01*
X58616157Y-38822790D01*
X58130671Y-38786242D01*
X57663868Y-38911488D01*
X57256602Y-39195347D01*
X56998592Y-39660057D01*
X56899999Y-40381524D01*
X56585215Y-40381524D01*
X56654158Y-39727033D01*
X56841794Y-39237793D01*
X57134406Y-38875585D01*
X57542052Y-38617480D01*
X57848459Y-38523086D01*
X58180442Y-38491085D01*
X58495515Y-38491085D01*
X58907574Y-38589971D01*
X59314339Y-38764026D01*
X59865538Y-39175497D01*
X60213454Y-39666048D01*
X60385955Y-40255129D01*
X60385955Y-40822077D01*
X61063959Y-40138113D01*
X61431620Y-39516820D01*
X61561984Y-38932554D01*
X61497670Y-38385204D01*
X61253600Y-37917619D01*
X60805442Y-37504649D01*
X60283311Y-37221769D01*
X59795493Y-37131191D01*
X59315255Y-37210642D01*
X58911272Y-37451340D01*
X58637843Y-37857657D01*
X58495515Y-38491085D01*
X58180442Y-38491085D01*
X58287140Y-37894620D01*
X58496391Y-37459319D01*
X58799532Y-37146705D01*
X59209926Y-36937700D01*
X59788400Y-36841985D01*
X60373767Y-36939784D01*
G37*
%TO.C,qr-0.4*%
G36*
X74400000Y-69550000D02*
G01*
X74000000Y-69550000D01*
X74000000Y-69950000D01*
X74400000Y-69950000D01*
X74400000Y-69550000D01*
G37*
G36*
X74400000Y-69950000D02*
G01*
X74000000Y-69950000D01*
X74000000Y-70350000D01*
X74400000Y-70350000D01*
X74400000Y-69950000D01*
G37*
G36*
X74400000Y-70350000D02*
G01*
X74000000Y-70350000D01*
X74000000Y-70750000D01*
X74400000Y-70750000D01*
X74400000Y-70350000D01*
G37*
G36*
X74400000Y-70750000D02*
G01*
X74000000Y-70750000D01*
X74000000Y-71150000D01*
X74400000Y-71150000D01*
X74400000Y-70750000D01*
G37*
G36*
X74400000Y-71150000D02*
G01*
X74000000Y-71150000D01*
X74000000Y-71550000D01*
X74400000Y-71550000D01*
X74400000Y-71150000D01*
G37*
G36*
X74400000Y-71550000D02*
G01*
X74000000Y-71550000D01*
X74000000Y-71950000D01*
X74400000Y-71950000D01*
X74400000Y-71550000D01*
G37*
G36*
X74400000Y-71950000D02*
G01*
X74000000Y-71950000D01*
X74000000Y-72350000D01*
X74400000Y-72350000D01*
X74400000Y-71950000D01*
G37*
G36*
X74400000Y-72750000D02*
G01*
X74000000Y-72750000D01*
X74000000Y-73150000D01*
X74400000Y-73150000D01*
X74400000Y-72750000D01*
G37*
G36*
X74400000Y-73150000D02*
G01*
X74000000Y-73150000D01*
X74000000Y-73550000D01*
X74400000Y-73550000D01*
X74400000Y-73150000D01*
G37*
G36*
X74400000Y-73550000D02*
G01*
X74000000Y-73550000D01*
X74000000Y-73950000D01*
X74400000Y-73950000D01*
X74400000Y-73550000D01*
G37*
G36*
X74400000Y-74750000D02*
G01*
X74000000Y-74750000D01*
X74000000Y-75150000D01*
X74400000Y-75150000D01*
X74400000Y-74750000D01*
G37*
G36*
X74400000Y-75150000D02*
G01*
X74000000Y-75150000D01*
X74000000Y-75550000D01*
X74400000Y-75550000D01*
X74400000Y-75150000D01*
G37*
G36*
X74400000Y-76350000D02*
G01*
X74000000Y-76350000D01*
X74000000Y-76750000D01*
X74400000Y-76750000D01*
X74400000Y-76350000D01*
G37*
G36*
X74400000Y-76750000D02*
G01*
X74000000Y-76750000D01*
X74000000Y-77150000D01*
X74400000Y-77150000D01*
X74400000Y-76750000D01*
G37*
G36*
X74400000Y-77150000D02*
G01*
X74000000Y-77150000D01*
X74000000Y-77550000D01*
X74400000Y-77550000D01*
X74400000Y-77150000D01*
G37*
G36*
X74400000Y-77950000D02*
G01*
X74000000Y-77950000D01*
X74000000Y-78350000D01*
X74400000Y-78350000D01*
X74400000Y-77950000D01*
G37*
G36*
X74400000Y-78350000D02*
G01*
X74000000Y-78350000D01*
X74000000Y-78750000D01*
X74400000Y-78750000D01*
X74400000Y-78350000D01*
G37*
G36*
X74400000Y-79550000D02*
G01*
X74000000Y-79550000D01*
X74000000Y-79950000D01*
X74400000Y-79950000D01*
X74400000Y-79550000D01*
G37*
G36*
X74400000Y-79950000D02*
G01*
X74000000Y-79950000D01*
X74000000Y-80350000D01*
X74400000Y-80350000D01*
X74400000Y-79950000D01*
G37*
G36*
X74400000Y-80350000D02*
G01*
X74000000Y-80350000D01*
X74000000Y-80750000D01*
X74400000Y-80750000D01*
X74400000Y-80350000D01*
G37*
G36*
X74400000Y-81150000D02*
G01*
X74000000Y-81150000D01*
X74000000Y-81550000D01*
X74400000Y-81550000D01*
X74400000Y-81150000D01*
G37*
G36*
X74400000Y-81550000D02*
G01*
X74000000Y-81550000D01*
X74000000Y-81950000D01*
X74400000Y-81950000D01*
X74400000Y-81550000D01*
G37*
G36*
X74400000Y-82350000D02*
G01*
X74000000Y-82350000D01*
X74000000Y-82750000D01*
X74400000Y-82750000D01*
X74400000Y-82350000D01*
G37*
G36*
X74800000Y-69550000D02*
G01*
X74400000Y-69550000D01*
X74400000Y-69950000D01*
X74800000Y-69950000D01*
X74800000Y-69550000D01*
G37*
G36*
X74800000Y-71950000D02*
G01*
X74400000Y-71950000D01*
X74400000Y-72350000D01*
X74800000Y-72350000D01*
X74800000Y-71950000D01*
G37*
G36*
X74800000Y-73950000D02*
G01*
X74400000Y-73950000D01*
X74400000Y-74350000D01*
X74800000Y-74350000D01*
X74800000Y-73950000D01*
G37*
G36*
X74800000Y-74350000D02*
G01*
X74400000Y-74350000D01*
X74400000Y-74750000D01*
X74800000Y-74750000D01*
X74800000Y-74350000D01*
G37*
G36*
X74800000Y-74750000D02*
G01*
X74400000Y-74750000D01*
X74400000Y-75150000D01*
X74800000Y-75150000D01*
X74800000Y-74750000D01*
G37*
G36*
X74800000Y-75950000D02*
G01*
X74400000Y-75950000D01*
X74400000Y-76350000D01*
X74800000Y-76350000D01*
X74800000Y-75950000D01*
G37*
G36*
X74800000Y-76350000D02*
G01*
X74400000Y-76350000D01*
X74400000Y-76750000D01*
X74800000Y-76750000D01*
X74800000Y-76350000D01*
G37*
G36*
X74800000Y-77150000D02*
G01*
X74400000Y-77150000D01*
X74400000Y-77550000D01*
X74800000Y-77550000D01*
X74800000Y-77150000D01*
G37*
G36*
X74800000Y-77550000D02*
G01*
X74400000Y-77550000D01*
X74400000Y-77950000D01*
X74800000Y-77950000D01*
X74800000Y-77550000D01*
G37*
G36*
X74800000Y-78750000D02*
G01*
X74400000Y-78750000D01*
X74400000Y-79150000D01*
X74800000Y-79150000D01*
X74800000Y-78750000D01*
G37*
G36*
X74800000Y-79150000D02*
G01*
X74400000Y-79150000D01*
X74400000Y-79550000D01*
X74800000Y-79550000D01*
X74800000Y-79150000D01*
G37*
G36*
X74800000Y-80350000D02*
G01*
X74400000Y-80350000D01*
X74400000Y-80750000D01*
X74800000Y-80750000D01*
X74800000Y-80350000D01*
G37*
G36*
X74800000Y-81150000D02*
G01*
X74400000Y-81150000D01*
X74400000Y-81550000D01*
X74800000Y-81550000D01*
X74800000Y-81150000D01*
G37*
G36*
X74800000Y-81550000D02*
G01*
X74400000Y-81550000D01*
X74400000Y-81950000D01*
X74800000Y-81950000D01*
X74800000Y-81550000D01*
G37*
G36*
X75200000Y-69550000D02*
G01*
X74800000Y-69550000D01*
X74800000Y-69950000D01*
X75200000Y-69950000D01*
X75200000Y-69550000D01*
G37*
G36*
X75200000Y-70350000D02*
G01*
X74800000Y-70350000D01*
X74800000Y-70750000D01*
X75200000Y-70750000D01*
X75200000Y-70350000D01*
G37*
G36*
X75200000Y-70750000D02*
G01*
X74800000Y-70750000D01*
X74800000Y-71150000D01*
X75200000Y-71150000D01*
X75200000Y-70750000D01*
G37*
G36*
X75200000Y-71150000D02*
G01*
X74800000Y-71150000D01*
X74800000Y-71550000D01*
X75200000Y-71550000D01*
X75200000Y-71150000D01*
G37*
G36*
X75200000Y-71950000D02*
G01*
X74800000Y-71950000D01*
X74800000Y-72350000D01*
X75200000Y-72350000D01*
X75200000Y-71950000D01*
G37*
G36*
X75200000Y-72750000D02*
G01*
X74800000Y-72750000D01*
X74800000Y-73150000D01*
X75200000Y-73150000D01*
X75200000Y-72750000D01*
G37*
G36*
X75200000Y-73550000D02*
G01*
X74800000Y-73550000D01*
X74800000Y-73950000D01*
X75200000Y-73950000D01*
X75200000Y-73550000D01*
G37*
G36*
X75200000Y-74750000D02*
G01*
X74800000Y-74750000D01*
X74800000Y-75150000D01*
X75200000Y-75150000D01*
X75200000Y-74750000D01*
G37*
G36*
X75200000Y-76750000D02*
G01*
X74800000Y-76750000D01*
X74800000Y-77150000D01*
X75200000Y-77150000D01*
X75200000Y-76750000D01*
G37*
G36*
X75200000Y-77950000D02*
G01*
X74800000Y-77950000D01*
X74800000Y-78350000D01*
X75200000Y-78350000D01*
X75200000Y-77950000D01*
G37*
G36*
X75200000Y-79950000D02*
G01*
X74800000Y-79950000D01*
X74800000Y-80350000D01*
X75200000Y-80350000D01*
X75200000Y-79950000D01*
G37*
G36*
X75600000Y-69550000D02*
G01*
X75200000Y-69550000D01*
X75200000Y-69950000D01*
X75600000Y-69950000D01*
X75600000Y-69550000D01*
G37*
G36*
X75600000Y-70350000D02*
G01*
X75200000Y-70350000D01*
X75200000Y-70750000D01*
X75600000Y-70750000D01*
X75600000Y-70350000D01*
G37*
G36*
X75600000Y-70750000D02*
G01*
X75200000Y-70750000D01*
X75200000Y-71150000D01*
X75600000Y-71150000D01*
X75600000Y-70750000D01*
G37*
G36*
X75600000Y-71150000D02*
G01*
X75200000Y-71150000D01*
X75200000Y-71550000D01*
X75600000Y-71550000D01*
X75600000Y-71150000D01*
G37*
G36*
X75600000Y-71950000D02*
G01*
X75200000Y-71950000D01*
X75200000Y-72350000D01*
X75600000Y-72350000D01*
X75600000Y-71950000D01*
G37*
G36*
X75600000Y-73150000D02*
G01*
X75200000Y-73150000D01*
X75200000Y-73550000D01*
X75600000Y-73550000D01*
X75600000Y-73150000D01*
G37*
G36*
X75600000Y-73550000D02*
G01*
X75200000Y-73550000D01*
X75200000Y-73950000D01*
X75600000Y-73950000D01*
X75600000Y-73550000D01*
G37*
G36*
X75600000Y-73950000D02*
G01*
X75200000Y-73950000D01*
X75200000Y-74350000D01*
X75600000Y-74350000D01*
X75600000Y-73950000D01*
G37*
G36*
X75600000Y-74750000D02*
G01*
X75200000Y-74750000D01*
X75200000Y-75150000D01*
X75600000Y-75150000D01*
X75600000Y-74750000D01*
G37*
G36*
X75600000Y-75950000D02*
G01*
X75200000Y-75950000D01*
X75200000Y-76350000D01*
X75600000Y-76350000D01*
X75600000Y-75950000D01*
G37*
G36*
X75600000Y-76350000D02*
G01*
X75200000Y-76350000D01*
X75200000Y-76750000D01*
X75600000Y-76750000D01*
X75600000Y-76350000D01*
G37*
G36*
X75600000Y-76750000D02*
G01*
X75200000Y-76750000D01*
X75200000Y-77150000D01*
X75600000Y-77150000D01*
X75600000Y-76750000D01*
G37*
G36*
X75600000Y-77150000D02*
G01*
X75200000Y-77150000D01*
X75200000Y-77550000D01*
X75600000Y-77550000D01*
X75600000Y-77150000D01*
G37*
G36*
X75600000Y-77950000D02*
G01*
X75200000Y-77950000D01*
X75200000Y-78350000D01*
X75600000Y-78350000D01*
X75600000Y-77950000D01*
G37*
G36*
X75600000Y-79950000D02*
G01*
X75200000Y-79950000D01*
X75200000Y-80350000D01*
X75600000Y-80350000D01*
X75600000Y-79950000D01*
G37*
G36*
X75600000Y-80350000D02*
G01*
X75200000Y-80350000D01*
X75200000Y-80750000D01*
X75600000Y-80750000D01*
X75600000Y-80350000D01*
G37*
G36*
X75600000Y-81550000D02*
G01*
X75200000Y-81550000D01*
X75200000Y-81950000D01*
X75600000Y-81950000D01*
X75600000Y-81550000D01*
G37*
G36*
X76000000Y-69550000D02*
G01*
X75600000Y-69550000D01*
X75600000Y-69950000D01*
X76000000Y-69950000D01*
X76000000Y-69550000D01*
G37*
G36*
X76000000Y-70350000D02*
G01*
X75600000Y-70350000D01*
X75600000Y-70750000D01*
X76000000Y-70750000D01*
X76000000Y-70350000D01*
G37*
G36*
X76000000Y-70750000D02*
G01*
X75600000Y-70750000D01*
X75600000Y-71150000D01*
X76000000Y-71150000D01*
X76000000Y-70750000D01*
G37*
G36*
X76000000Y-71150000D02*
G01*
X75600000Y-71150000D01*
X75600000Y-71550000D01*
X76000000Y-71550000D01*
X76000000Y-71150000D01*
G37*
G36*
X76000000Y-71950000D02*
G01*
X75600000Y-71950000D01*
X75600000Y-72350000D01*
X76000000Y-72350000D01*
X76000000Y-71950000D01*
G37*
G36*
X76000000Y-73950000D02*
G01*
X75600000Y-73950000D01*
X75600000Y-74350000D01*
X76000000Y-74350000D01*
X76000000Y-73950000D01*
G37*
G36*
X76000000Y-77150000D02*
G01*
X75600000Y-77150000D01*
X75600000Y-77550000D01*
X76000000Y-77550000D01*
X76000000Y-77150000D01*
G37*
G36*
X76000000Y-78350000D02*
G01*
X75600000Y-78350000D01*
X75600000Y-78750000D01*
X76000000Y-78750000D01*
X76000000Y-78350000D01*
G37*
G36*
X76000000Y-79150000D02*
G01*
X75600000Y-79150000D01*
X75600000Y-79550000D01*
X76000000Y-79550000D01*
X76000000Y-79150000D01*
G37*
G36*
X76000000Y-79550000D02*
G01*
X75600000Y-79550000D01*
X75600000Y-79950000D01*
X76000000Y-79950000D01*
X76000000Y-79550000D01*
G37*
G36*
X76000000Y-79950000D02*
G01*
X75600000Y-79950000D01*
X75600000Y-80350000D01*
X76000000Y-80350000D01*
X76000000Y-79950000D01*
G37*
G36*
X76000000Y-80350000D02*
G01*
X75600000Y-80350000D01*
X75600000Y-80750000D01*
X76000000Y-80750000D01*
X76000000Y-80350000D01*
G37*
G36*
X76000000Y-80750000D02*
G01*
X75600000Y-80750000D01*
X75600000Y-81150000D01*
X76000000Y-81150000D01*
X76000000Y-80750000D01*
G37*
G36*
X76000000Y-81150000D02*
G01*
X75600000Y-81150000D01*
X75600000Y-81550000D01*
X76000000Y-81550000D01*
X76000000Y-81150000D01*
G37*
G36*
X76000000Y-81550000D02*
G01*
X75600000Y-81550000D01*
X75600000Y-81950000D01*
X76000000Y-81950000D01*
X76000000Y-81550000D01*
G37*
G36*
X76000000Y-81950000D02*
G01*
X75600000Y-81950000D01*
X75600000Y-82350000D01*
X76000000Y-82350000D01*
X76000000Y-81950000D01*
G37*
G36*
X76000000Y-82350000D02*
G01*
X75600000Y-82350000D01*
X75600000Y-82750000D01*
X76000000Y-82750000D01*
X76000000Y-82350000D01*
G37*
G36*
X76400000Y-69550000D02*
G01*
X76000000Y-69550000D01*
X76000000Y-69950000D01*
X76400000Y-69950000D01*
X76400000Y-69550000D01*
G37*
G36*
X76400000Y-71950000D02*
G01*
X76000000Y-71950000D01*
X76000000Y-72350000D01*
X76400000Y-72350000D01*
X76400000Y-71950000D01*
G37*
G36*
X76400000Y-72750000D02*
G01*
X76000000Y-72750000D01*
X76000000Y-73150000D01*
X76400000Y-73150000D01*
X76400000Y-72750000D01*
G37*
G36*
X76400000Y-73950000D02*
G01*
X76000000Y-73950000D01*
X76000000Y-74350000D01*
X76400000Y-74350000D01*
X76400000Y-73950000D01*
G37*
G36*
X76400000Y-75150000D02*
G01*
X76000000Y-75150000D01*
X76000000Y-75550000D01*
X76400000Y-75550000D01*
X76400000Y-75150000D01*
G37*
G36*
X76400000Y-75950000D02*
G01*
X76000000Y-75950000D01*
X76000000Y-76350000D01*
X76400000Y-76350000D01*
X76400000Y-75950000D01*
G37*
G36*
X76400000Y-76750000D02*
G01*
X76000000Y-76750000D01*
X76000000Y-77150000D01*
X76400000Y-77150000D01*
X76400000Y-76750000D01*
G37*
G36*
X76400000Y-78350000D02*
G01*
X76000000Y-78350000D01*
X76000000Y-78750000D01*
X76400000Y-78750000D01*
X76400000Y-78350000D01*
G37*
G36*
X76400000Y-79150000D02*
G01*
X76000000Y-79150000D01*
X76000000Y-79550000D01*
X76400000Y-79550000D01*
X76400000Y-79150000D01*
G37*
G36*
X76400000Y-80750000D02*
G01*
X76000000Y-80750000D01*
X76000000Y-81150000D01*
X76400000Y-81150000D01*
X76400000Y-80750000D01*
G37*
G36*
X76400000Y-81150000D02*
G01*
X76000000Y-81150000D01*
X76000000Y-81550000D01*
X76400000Y-81550000D01*
X76400000Y-81150000D01*
G37*
G36*
X76400000Y-81550000D02*
G01*
X76000000Y-81550000D01*
X76000000Y-81950000D01*
X76400000Y-81950000D01*
X76400000Y-81550000D01*
G37*
G36*
X76400000Y-81950000D02*
G01*
X76000000Y-81950000D01*
X76000000Y-82350000D01*
X76400000Y-82350000D01*
X76400000Y-81950000D01*
G37*
G36*
X76400000Y-82350000D02*
G01*
X76000000Y-82350000D01*
X76000000Y-82750000D01*
X76400000Y-82750000D01*
X76400000Y-82350000D01*
G37*
G36*
X76800000Y-69550000D02*
G01*
X76400000Y-69550000D01*
X76400000Y-69950000D01*
X76800000Y-69950000D01*
X76800000Y-69550000D01*
G37*
G36*
X76800000Y-69950000D02*
G01*
X76400000Y-69950000D01*
X76400000Y-70350000D01*
X76800000Y-70350000D01*
X76800000Y-69950000D01*
G37*
G36*
X76800000Y-70350000D02*
G01*
X76400000Y-70350000D01*
X76400000Y-70750000D01*
X76800000Y-70750000D01*
X76800000Y-70350000D01*
G37*
G36*
X76800000Y-70750000D02*
G01*
X76400000Y-70750000D01*
X76400000Y-71150000D01*
X76800000Y-71150000D01*
X76800000Y-70750000D01*
G37*
G36*
X76800000Y-71150000D02*
G01*
X76400000Y-71150000D01*
X76400000Y-71550000D01*
X76800000Y-71550000D01*
X76800000Y-71150000D01*
G37*
G36*
X76800000Y-71550000D02*
G01*
X76400000Y-71550000D01*
X76400000Y-71950000D01*
X76800000Y-71950000D01*
X76800000Y-71550000D01*
G37*
G36*
X76800000Y-71950000D02*
G01*
X76400000Y-71950000D01*
X76400000Y-72350000D01*
X76800000Y-72350000D01*
X76800000Y-71950000D01*
G37*
G36*
X76800000Y-73150000D02*
G01*
X76400000Y-73150000D01*
X76400000Y-73550000D01*
X76800000Y-73550000D01*
X76800000Y-73150000D01*
G37*
G36*
X76800000Y-73550000D02*
G01*
X76400000Y-73550000D01*
X76400000Y-73950000D01*
X76800000Y-73950000D01*
X76800000Y-73550000D01*
G37*
G36*
X76800000Y-73950000D02*
G01*
X76400000Y-73950000D01*
X76400000Y-74350000D01*
X76800000Y-74350000D01*
X76800000Y-73950000D01*
G37*
G36*
X76800000Y-74350000D02*
G01*
X76400000Y-74350000D01*
X76400000Y-74750000D01*
X76800000Y-74750000D01*
X76800000Y-74350000D01*
G37*
G36*
X76800000Y-74750000D02*
G01*
X76400000Y-74750000D01*
X76400000Y-75150000D01*
X76800000Y-75150000D01*
X76800000Y-74750000D01*
G37*
G36*
X76800000Y-75550000D02*
G01*
X76400000Y-75550000D01*
X76400000Y-75950000D01*
X76800000Y-75950000D01*
X76800000Y-75550000D01*
G37*
G36*
X76800000Y-75950000D02*
G01*
X76400000Y-75950000D01*
X76400000Y-76350000D01*
X76800000Y-76350000D01*
X76800000Y-75950000D01*
G37*
G36*
X76800000Y-76350000D02*
G01*
X76400000Y-76350000D01*
X76400000Y-76750000D01*
X76800000Y-76750000D01*
X76800000Y-76350000D01*
G37*
G36*
X76800000Y-77550000D02*
G01*
X76400000Y-77550000D01*
X76400000Y-77950000D01*
X76800000Y-77950000D01*
X76800000Y-77550000D01*
G37*
G36*
X76800000Y-77950000D02*
G01*
X76400000Y-77950000D01*
X76400000Y-78350000D01*
X76800000Y-78350000D01*
X76800000Y-77950000D01*
G37*
G36*
X76800000Y-78350000D02*
G01*
X76400000Y-78350000D01*
X76400000Y-78750000D01*
X76800000Y-78750000D01*
X76800000Y-78350000D01*
G37*
G36*
X76800000Y-78750000D02*
G01*
X76400000Y-78750000D01*
X76400000Y-79150000D01*
X76800000Y-79150000D01*
X76800000Y-78750000D01*
G37*
G36*
X76800000Y-79150000D02*
G01*
X76400000Y-79150000D01*
X76400000Y-79550000D01*
X76800000Y-79550000D01*
X76800000Y-79150000D01*
G37*
G36*
X76800000Y-79950000D02*
G01*
X76400000Y-79950000D01*
X76400000Y-80350000D01*
X76800000Y-80350000D01*
X76800000Y-79950000D01*
G37*
G36*
X76800000Y-80750000D02*
G01*
X76400000Y-80750000D01*
X76400000Y-81150000D01*
X76800000Y-81150000D01*
X76800000Y-80750000D01*
G37*
G36*
X76800000Y-82350000D02*
G01*
X76400000Y-82350000D01*
X76400000Y-82750000D01*
X76800000Y-82750000D01*
X76800000Y-82350000D01*
G37*
G36*
X77200000Y-74350000D02*
G01*
X76800000Y-74350000D01*
X76800000Y-74750000D01*
X77200000Y-74750000D01*
X77200000Y-74350000D01*
G37*
G36*
X77200000Y-75550000D02*
G01*
X76800000Y-75550000D01*
X76800000Y-75950000D01*
X77200000Y-75950000D01*
X77200000Y-75550000D01*
G37*
G36*
X77200000Y-77150000D02*
G01*
X76800000Y-77150000D01*
X76800000Y-77550000D01*
X77200000Y-77550000D01*
X77200000Y-77150000D01*
G37*
G36*
X77200000Y-78750000D02*
G01*
X76800000Y-78750000D01*
X76800000Y-79150000D01*
X77200000Y-79150000D01*
X77200000Y-78750000D01*
G37*
G36*
X77200000Y-79150000D02*
G01*
X76800000Y-79150000D01*
X76800000Y-79550000D01*
X77200000Y-79550000D01*
X77200000Y-79150000D01*
G37*
G36*
X77200000Y-80750000D02*
G01*
X76800000Y-80750000D01*
X76800000Y-81150000D01*
X77200000Y-81150000D01*
X77200000Y-80750000D01*
G37*
G36*
X77200000Y-81150000D02*
G01*
X76800000Y-81150000D01*
X76800000Y-81550000D01*
X77200000Y-81550000D01*
X77200000Y-81150000D01*
G37*
G36*
X77200000Y-81550000D02*
G01*
X76800000Y-81550000D01*
X76800000Y-81950000D01*
X77200000Y-81950000D01*
X77200000Y-81550000D01*
G37*
G36*
X77600000Y-69950000D02*
G01*
X77200000Y-69950000D01*
X77200000Y-70350000D01*
X77600000Y-70350000D01*
X77600000Y-69950000D01*
G37*
G36*
X77600000Y-70750000D02*
G01*
X77200000Y-70750000D01*
X77200000Y-71150000D01*
X77600000Y-71150000D01*
X77600000Y-70750000D01*
G37*
G36*
X77600000Y-71550000D02*
G01*
X77200000Y-71550000D01*
X77200000Y-71950000D01*
X77600000Y-71950000D01*
X77600000Y-71550000D01*
G37*
G36*
X77600000Y-71950000D02*
G01*
X77200000Y-71950000D01*
X77200000Y-72350000D01*
X77600000Y-72350000D01*
X77600000Y-71950000D01*
G37*
G36*
X77600000Y-73150000D02*
G01*
X77200000Y-73150000D01*
X77200000Y-73550000D01*
X77600000Y-73550000D01*
X77600000Y-73150000D01*
G37*
G36*
X77600000Y-73550000D02*
G01*
X77200000Y-73550000D01*
X77200000Y-73950000D01*
X77600000Y-73950000D01*
X77600000Y-73550000D01*
G37*
G36*
X77600000Y-74350000D02*
G01*
X77200000Y-74350000D01*
X77200000Y-74750000D01*
X77600000Y-74750000D01*
X77600000Y-74350000D01*
G37*
G36*
X77600000Y-74750000D02*
G01*
X77200000Y-74750000D01*
X77200000Y-75150000D01*
X77600000Y-75150000D01*
X77600000Y-74750000D01*
G37*
G36*
X77600000Y-75150000D02*
G01*
X77200000Y-75150000D01*
X77200000Y-75550000D01*
X77600000Y-75550000D01*
X77600000Y-75150000D01*
G37*
G36*
X77600000Y-75550000D02*
G01*
X77200000Y-75550000D01*
X77200000Y-75950000D01*
X77600000Y-75950000D01*
X77600000Y-75550000D01*
G37*
G36*
X77600000Y-75950000D02*
G01*
X77200000Y-75950000D01*
X77200000Y-76350000D01*
X77600000Y-76350000D01*
X77600000Y-75950000D01*
G37*
G36*
X77600000Y-76350000D02*
G01*
X77200000Y-76350000D01*
X77200000Y-76750000D01*
X77600000Y-76750000D01*
X77600000Y-76350000D01*
G37*
G36*
X77600000Y-76750000D02*
G01*
X77200000Y-76750000D01*
X77200000Y-77150000D01*
X77600000Y-77150000D01*
X77600000Y-76750000D01*
G37*
G36*
X77600000Y-77150000D02*
G01*
X77200000Y-77150000D01*
X77200000Y-77550000D01*
X77600000Y-77550000D01*
X77600000Y-77150000D01*
G37*
G36*
X77600000Y-77550000D02*
G01*
X77200000Y-77550000D01*
X77200000Y-77950000D01*
X77600000Y-77950000D01*
X77600000Y-77550000D01*
G37*
G36*
X77600000Y-77950000D02*
G01*
X77200000Y-77950000D01*
X77200000Y-78350000D01*
X77600000Y-78350000D01*
X77600000Y-77950000D01*
G37*
G36*
X77600000Y-78350000D02*
G01*
X77200000Y-78350000D01*
X77200000Y-78750000D01*
X77600000Y-78750000D01*
X77600000Y-78350000D01*
G37*
G36*
X77600000Y-78750000D02*
G01*
X77200000Y-78750000D01*
X77200000Y-79150000D01*
X77600000Y-79150000D01*
X77600000Y-78750000D01*
G37*
G36*
X77600000Y-79150000D02*
G01*
X77200000Y-79150000D01*
X77200000Y-79550000D01*
X77600000Y-79550000D01*
X77600000Y-79150000D01*
G37*
G36*
X77600000Y-79550000D02*
G01*
X77200000Y-79550000D01*
X77200000Y-79950000D01*
X77600000Y-79950000D01*
X77600000Y-79550000D01*
G37*
G36*
X77600000Y-79950000D02*
G01*
X77200000Y-79950000D01*
X77200000Y-80350000D01*
X77600000Y-80350000D01*
X77600000Y-79950000D01*
G37*
G36*
X77600000Y-80350000D02*
G01*
X77200000Y-80350000D01*
X77200000Y-80750000D01*
X77600000Y-80750000D01*
X77600000Y-80350000D01*
G37*
G36*
X77600000Y-80750000D02*
G01*
X77200000Y-80750000D01*
X77200000Y-81150000D01*
X77600000Y-81150000D01*
X77600000Y-80750000D01*
G37*
G36*
X77600000Y-81950000D02*
G01*
X77200000Y-81950000D01*
X77200000Y-82350000D01*
X77600000Y-82350000D01*
X77600000Y-81950000D01*
G37*
G36*
X77600000Y-82350000D02*
G01*
X77200000Y-82350000D01*
X77200000Y-82750000D01*
X77600000Y-82750000D01*
X77600000Y-82350000D01*
G37*
G36*
X78000000Y-70350000D02*
G01*
X77600000Y-70350000D01*
X77600000Y-70750000D01*
X78000000Y-70750000D01*
X78000000Y-70350000D01*
G37*
G36*
X78000000Y-73150000D02*
G01*
X77600000Y-73150000D01*
X77600000Y-73550000D01*
X78000000Y-73550000D01*
X78000000Y-73150000D01*
G37*
G36*
X78000000Y-73550000D02*
G01*
X77600000Y-73550000D01*
X77600000Y-73950000D01*
X78000000Y-73950000D01*
X78000000Y-73550000D01*
G37*
G36*
X78000000Y-74750000D02*
G01*
X77600000Y-74750000D01*
X77600000Y-75150000D01*
X78000000Y-75150000D01*
X78000000Y-74750000D01*
G37*
G36*
X78000000Y-75150000D02*
G01*
X77600000Y-75150000D01*
X77600000Y-75550000D01*
X78000000Y-75550000D01*
X78000000Y-75150000D01*
G37*
G36*
X78000000Y-75550000D02*
G01*
X77600000Y-75550000D01*
X77600000Y-75950000D01*
X78000000Y-75950000D01*
X78000000Y-75550000D01*
G37*
G36*
X78000000Y-76350000D02*
G01*
X77600000Y-76350000D01*
X77600000Y-76750000D01*
X78000000Y-76750000D01*
X78000000Y-76350000D01*
G37*
G36*
X78000000Y-76750000D02*
G01*
X77600000Y-76750000D01*
X77600000Y-77150000D01*
X78000000Y-77150000D01*
X78000000Y-76750000D01*
G37*
G36*
X78000000Y-77550000D02*
G01*
X77600000Y-77550000D01*
X77600000Y-77950000D01*
X78000000Y-77950000D01*
X78000000Y-77550000D01*
G37*
G36*
X78000000Y-77950000D02*
G01*
X77600000Y-77950000D01*
X77600000Y-78350000D01*
X78000000Y-78350000D01*
X78000000Y-77950000D01*
G37*
G36*
X78000000Y-78350000D02*
G01*
X77600000Y-78350000D01*
X77600000Y-78750000D01*
X78000000Y-78750000D01*
X78000000Y-78350000D01*
G37*
G36*
X78000000Y-78750000D02*
G01*
X77600000Y-78750000D01*
X77600000Y-79150000D01*
X78000000Y-79150000D01*
X78000000Y-78750000D01*
G37*
G36*
X78000000Y-79550000D02*
G01*
X77600000Y-79550000D01*
X77600000Y-79950000D01*
X78000000Y-79950000D01*
X78000000Y-79550000D01*
G37*
G36*
X78000000Y-80350000D02*
G01*
X77600000Y-80350000D01*
X77600000Y-80750000D01*
X78000000Y-80750000D01*
X78000000Y-80350000D01*
G37*
G36*
X78000000Y-80750000D02*
G01*
X77600000Y-80750000D01*
X77600000Y-81150000D01*
X78000000Y-81150000D01*
X78000000Y-80750000D01*
G37*
G36*
X78000000Y-81150000D02*
G01*
X77600000Y-81150000D01*
X77600000Y-81550000D01*
X78000000Y-81550000D01*
X78000000Y-81150000D01*
G37*
G36*
X78000000Y-81550000D02*
G01*
X77600000Y-81550000D01*
X77600000Y-81950000D01*
X78000000Y-81950000D01*
X78000000Y-81550000D01*
G37*
G36*
X78400000Y-69550000D02*
G01*
X78000000Y-69550000D01*
X78000000Y-69950000D01*
X78400000Y-69950000D01*
X78400000Y-69550000D01*
G37*
G36*
X78400000Y-69950000D02*
G01*
X78000000Y-69950000D01*
X78000000Y-70350000D01*
X78400000Y-70350000D01*
X78400000Y-69950000D01*
G37*
G36*
X78400000Y-70350000D02*
G01*
X78000000Y-70350000D01*
X78000000Y-70750000D01*
X78400000Y-70750000D01*
X78400000Y-70350000D01*
G37*
G36*
X78400000Y-70750000D02*
G01*
X78000000Y-70750000D01*
X78000000Y-71150000D01*
X78400000Y-71150000D01*
X78400000Y-70750000D01*
G37*
G36*
X78400000Y-71150000D02*
G01*
X78000000Y-71150000D01*
X78000000Y-71550000D01*
X78400000Y-71550000D01*
X78400000Y-71150000D01*
G37*
G36*
X78400000Y-71950000D02*
G01*
X78000000Y-71950000D01*
X78000000Y-72350000D01*
X78400000Y-72350000D01*
X78400000Y-71950000D01*
G37*
G36*
X78400000Y-72750000D02*
G01*
X78000000Y-72750000D01*
X78000000Y-73150000D01*
X78400000Y-73150000D01*
X78400000Y-72750000D01*
G37*
G36*
X78400000Y-73950000D02*
G01*
X78000000Y-73950000D01*
X78000000Y-74350000D01*
X78400000Y-74350000D01*
X78400000Y-73950000D01*
G37*
G36*
X78400000Y-74750000D02*
G01*
X78000000Y-74750000D01*
X78000000Y-75150000D01*
X78400000Y-75150000D01*
X78400000Y-74750000D01*
G37*
G36*
X78400000Y-76750000D02*
G01*
X78000000Y-76750000D01*
X78000000Y-77150000D01*
X78400000Y-77150000D01*
X78400000Y-76750000D01*
G37*
G36*
X78400000Y-77950000D02*
G01*
X78000000Y-77950000D01*
X78000000Y-78350000D01*
X78400000Y-78350000D01*
X78400000Y-77950000D01*
G37*
G36*
X78400000Y-78350000D02*
G01*
X78000000Y-78350000D01*
X78000000Y-78750000D01*
X78400000Y-78750000D01*
X78400000Y-78350000D01*
G37*
G36*
X78400000Y-78750000D02*
G01*
X78000000Y-78750000D01*
X78000000Y-79150000D01*
X78400000Y-79150000D01*
X78400000Y-78750000D01*
G37*
G36*
X78400000Y-79950000D02*
G01*
X78000000Y-79950000D01*
X78000000Y-80350000D01*
X78400000Y-80350000D01*
X78400000Y-79950000D01*
G37*
G36*
X78400000Y-80350000D02*
G01*
X78000000Y-80350000D01*
X78000000Y-80750000D01*
X78400000Y-80750000D01*
X78400000Y-80350000D01*
G37*
G36*
X78400000Y-81950000D02*
G01*
X78000000Y-81950000D01*
X78000000Y-82350000D01*
X78400000Y-82350000D01*
X78400000Y-81950000D01*
G37*
G36*
X78800000Y-69550000D02*
G01*
X78400000Y-69550000D01*
X78400000Y-69950000D01*
X78800000Y-69950000D01*
X78800000Y-69550000D01*
G37*
G36*
X78800000Y-69950000D02*
G01*
X78400000Y-69950000D01*
X78400000Y-70350000D01*
X78800000Y-70350000D01*
X78800000Y-69950000D01*
G37*
G36*
X78800000Y-70350000D02*
G01*
X78400000Y-70350000D01*
X78400000Y-70750000D01*
X78800000Y-70750000D01*
X78800000Y-70350000D01*
G37*
G36*
X78800000Y-70750000D02*
G01*
X78400000Y-70750000D01*
X78400000Y-71150000D01*
X78800000Y-71150000D01*
X78800000Y-70750000D01*
G37*
G36*
X78800000Y-71150000D02*
G01*
X78400000Y-71150000D01*
X78400000Y-71550000D01*
X78800000Y-71550000D01*
X78800000Y-71150000D01*
G37*
G36*
X78800000Y-71550000D02*
G01*
X78400000Y-71550000D01*
X78400000Y-71950000D01*
X78800000Y-71950000D01*
X78800000Y-71550000D01*
G37*
G36*
X78800000Y-73550000D02*
G01*
X78400000Y-73550000D01*
X78400000Y-73950000D01*
X78800000Y-73950000D01*
X78800000Y-73550000D01*
G37*
G36*
X78800000Y-74750000D02*
G01*
X78400000Y-74750000D01*
X78400000Y-75150000D01*
X78800000Y-75150000D01*
X78800000Y-74750000D01*
G37*
G36*
X78800000Y-81150000D02*
G01*
X78400000Y-81150000D01*
X78400000Y-81550000D01*
X78800000Y-81550000D01*
X78800000Y-81150000D01*
G37*
G36*
X79200000Y-69950000D02*
G01*
X78800000Y-69950000D01*
X78800000Y-70350000D01*
X79200000Y-70350000D01*
X79200000Y-69950000D01*
G37*
G36*
X79200000Y-71550000D02*
G01*
X78800000Y-71550000D01*
X78800000Y-71950000D01*
X79200000Y-71950000D01*
X79200000Y-71550000D01*
G37*
G36*
X79200000Y-71950000D02*
G01*
X78800000Y-71950000D01*
X78800000Y-72350000D01*
X79200000Y-72350000D01*
X79200000Y-71950000D01*
G37*
G36*
X79200000Y-72350000D02*
G01*
X78800000Y-72350000D01*
X78800000Y-72750000D01*
X79200000Y-72750000D01*
X79200000Y-72350000D01*
G37*
G36*
X79200000Y-72750000D02*
G01*
X78800000Y-72750000D01*
X78800000Y-73150000D01*
X79200000Y-73150000D01*
X79200000Y-72750000D01*
G37*
G36*
X79200000Y-73150000D02*
G01*
X78800000Y-73150000D01*
X78800000Y-73550000D01*
X79200000Y-73550000D01*
X79200000Y-73150000D01*
G37*
G36*
X79200000Y-73950000D02*
G01*
X78800000Y-73950000D01*
X78800000Y-74350000D01*
X79200000Y-74350000D01*
X79200000Y-73950000D01*
G37*
G36*
X79200000Y-74350000D02*
G01*
X78800000Y-74350000D01*
X78800000Y-74750000D01*
X79200000Y-74750000D01*
X79200000Y-74350000D01*
G37*
G36*
X79200000Y-76350000D02*
G01*
X78800000Y-76350000D01*
X78800000Y-76750000D01*
X79200000Y-76750000D01*
X79200000Y-76350000D01*
G37*
G36*
X79200000Y-77150000D02*
G01*
X78800000Y-77150000D01*
X78800000Y-77550000D01*
X79200000Y-77550000D01*
X79200000Y-77150000D01*
G37*
G36*
X79200000Y-77950000D02*
G01*
X78800000Y-77950000D01*
X78800000Y-78350000D01*
X79200000Y-78350000D01*
X79200000Y-77950000D01*
G37*
G36*
X79200000Y-78350000D02*
G01*
X78800000Y-78350000D01*
X78800000Y-78750000D01*
X79200000Y-78750000D01*
X79200000Y-78350000D01*
G37*
G36*
X79200000Y-79150000D02*
G01*
X78800000Y-79150000D01*
X78800000Y-79550000D01*
X79200000Y-79550000D01*
X79200000Y-79150000D01*
G37*
G36*
X79200000Y-80350000D02*
G01*
X78800000Y-80350000D01*
X78800000Y-80750000D01*
X79200000Y-80750000D01*
X79200000Y-80350000D01*
G37*
G36*
X79200000Y-81150000D02*
G01*
X78800000Y-81150000D01*
X78800000Y-81550000D01*
X79200000Y-81550000D01*
X79200000Y-81150000D01*
G37*
G36*
X79200000Y-82350000D02*
G01*
X78800000Y-82350000D01*
X78800000Y-82750000D01*
X79200000Y-82750000D01*
X79200000Y-82350000D01*
G37*
G36*
X79600000Y-70750000D02*
G01*
X79200000Y-70750000D01*
X79200000Y-71150000D01*
X79600000Y-71150000D01*
X79600000Y-70750000D01*
G37*
G36*
X79600000Y-73150000D02*
G01*
X79200000Y-73150000D01*
X79200000Y-73550000D01*
X79600000Y-73550000D01*
X79600000Y-73150000D01*
G37*
G36*
X79600000Y-73550000D02*
G01*
X79200000Y-73550000D01*
X79200000Y-73950000D01*
X79600000Y-73950000D01*
X79600000Y-73550000D01*
G37*
G36*
X79600000Y-73950000D02*
G01*
X79200000Y-73950000D01*
X79200000Y-74350000D01*
X79600000Y-74350000D01*
X79600000Y-73950000D01*
G37*
G36*
X79600000Y-74350000D02*
G01*
X79200000Y-74350000D01*
X79200000Y-74750000D01*
X79600000Y-74750000D01*
X79600000Y-74350000D01*
G37*
G36*
X79600000Y-74750000D02*
G01*
X79200000Y-74750000D01*
X79200000Y-75150000D01*
X79600000Y-75150000D01*
X79600000Y-74750000D01*
G37*
G36*
X79600000Y-75150000D02*
G01*
X79200000Y-75150000D01*
X79200000Y-75550000D01*
X79600000Y-75550000D01*
X79600000Y-75150000D01*
G37*
G36*
X79600000Y-76750000D02*
G01*
X79200000Y-76750000D01*
X79200000Y-77150000D01*
X79600000Y-77150000D01*
X79600000Y-76750000D01*
G37*
G36*
X79600000Y-77150000D02*
G01*
X79200000Y-77150000D01*
X79200000Y-77550000D01*
X79600000Y-77550000D01*
X79600000Y-77150000D01*
G37*
G36*
X79600000Y-77950000D02*
G01*
X79200000Y-77950000D01*
X79200000Y-78350000D01*
X79600000Y-78350000D01*
X79600000Y-77950000D01*
G37*
G36*
X79600000Y-78350000D02*
G01*
X79200000Y-78350000D01*
X79200000Y-78750000D01*
X79600000Y-78750000D01*
X79600000Y-78350000D01*
G37*
G36*
X79600000Y-78750000D02*
G01*
X79200000Y-78750000D01*
X79200000Y-79150000D01*
X79600000Y-79150000D01*
X79600000Y-78750000D01*
G37*
G36*
X79600000Y-79150000D02*
G01*
X79200000Y-79150000D01*
X79200000Y-79550000D01*
X79600000Y-79550000D01*
X79600000Y-79150000D01*
G37*
G36*
X79600000Y-79550000D02*
G01*
X79200000Y-79550000D01*
X79200000Y-79950000D01*
X79600000Y-79950000D01*
X79600000Y-79550000D01*
G37*
G36*
X79600000Y-79950000D02*
G01*
X79200000Y-79950000D01*
X79200000Y-80350000D01*
X79600000Y-80350000D01*
X79600000Y-79950000D01*
G37*
G36*
X79600000Y-81150000D02*
G01*
X79200000Y-81150000D01*
X79200000Y-81550000D01*
X79600000Y-81550000D01*
X79600000Y-81150000D01*
G37*
G36*
X79600000Y-81550000D02*
G01*
X79200000Y-81550000D01*
X79200000Y-81950000D01*
X79600000Y-81950000D01*
X79600000Y-81550000D01*
G37*
G36*
X79600000Y-82350000D02*
G01*
X79200000Y-82350000D01*
X79200000Y-82750000D01*
X79600000Y-82750000D01*
X79600000Y-82350000D01*
G37*
G36*
X80000000Y-69550000D02*
G01*
X79600000Y-69550000D01*
X79600000Y-69950000D01*
X80000000Y-69950000D01*
X80000000Y-69550000D01*
G37*
G36*
X80000000Y-70350000D02*
G01*
X79600000Y-70350000D01*
X79600000Y-70750000D01*
X80000000Y-70750000D01*
X80000000Y-70350000D01*
G37*
G36*
X80000000Y-70750000D02*
G01*
X79600000Y-70750000D01*
X79600000Y-71150000D01*
X80000000Y-71150000D01*
X80000000Y-70750000D01*
G37*
G36*
X80000000Y-71150000D02*
G01*
X79600000Y-71150000D01*
X79600000Y-71550000D01*
X80000000Y-71550000D01*
X80000000Y-71150000D01*
G37*
G36*
X80000000Y-71550000D02*
G01*
X79600000Y-71550000D01*
X79600000Y-71950000D01*
X80000000Y-71950000D01*
X80000000Y-71550000D01*
G37*
G36*
X80000000Y-71950000D02*
G01*
X79600000Y-71950000D01*
X79600000Y-72350000D01*
X80000000Y-72350000D01*
X80000000Y-71950000D01*
G37*
G36*
X80000000Y-72350000D02*
G01*
X79600000Y-72350000D01*
X79600000Y-72750000D01*
X80000000Y-72750000D01*
X80000000Y-72350000D01*
G37*
G36*
X80000000Y-73550000D02*
G01*
X79600000Y-73550000D01*
X79600000Y-73950000D01*
X80000000Y-73950000D01*
X80000000Y-73550000D01*
G37*
G36*
X80000000Y-73950000D02*
G01*
X79600000Y-73950000D01*
X79600000Y-74350000D01*
X80000000Y-74350000D01*
X80000000Y-73950000D01*
G37*
G36*
X80000000Y-75550000D02*
G01*
X79600000Y-75550000D01*
X79600000Y-75950000D01*
X80000000Y-75950000D01*
X80000000Y-75550000D01*
G37*
G36*
X80000000Y-79550000D02*
G01*
X79600000Y-79550000D01*
X79600000Y-79950000D01*
X80000000Y-79950000D01*
X80000000Y-79550000D01*
G37*
G36*
X80000000Y-80350000D02*
G01*
X79600000Y-80350000D01*
X79600000Y-80750000D01*
X80000000Y-80750000D01*
X80000000Y-80350000D01*
G37*
G36*
X80000000Y-81950000D02*
G01*
X79600000Y-81950000D01*
X79600000Y-82350000D01*
X80000000Y-82350000D01*
X80000000Y-81950000D01*
G37*
G36*
X80400000Y-69550000D02*
G01*
X80000000Y-69550000D01*
X80000000Y-69950000D01*
X80400000Y-69950000D01*
X80400000Y-69550000D01*
G37*
G36*
X80400000Y-69950000D02*
G01*
X80000000Y-69950000D01*
X80000000Y-70350000D01*
X80400000Y-70350000D01*
X80400000Y-69950000D01*
G37*
G36*
X80400000Y-70350000D02*
G01*
X80000000Y-70350000D01*
X80000000Y-70750000D01*
X80400000Y-70750000D01*
X80400000Y-70350000D01*
G37*
G36*
X80400000Y-70750000D02*
G01*
X80000000Y-70750000D01*
X80000000Y-71150000D01*
X80400000Y-71150000D01*
X80400000Y-70750000D01*
G37*
G36*
X80400000Y-73550000D02*
G01*
X80000000Y-73550000D01*
X80000000Y-73950000D01*
X80400000Y-73950000D01*
X80400000Y-73550000D01*
G37*
G36*
X80400000Y-75150000D02*
G01*
X80000000Y-75150000D01*
X80000000Y-75550000D01*
X80400000Y-75550000D01*
X80400000Y-75150000D01*
G37*
G36*
X80400000Y-76750000D02*
G01*
X80000000Y-76750000D01*
X80000000Y-77150000D01*
X80400000Y-77150000D01*
X80400000Y-76750000D01*
G37*
G36*
X80400000Y-77950000D02*
G01*
X80000000Y-77950000D01*
X80000000Y-78350000D01*
X80400000Y-78350000D01*
X80400000Y-77950000D01*
G37*
G36*
X80400000Y-79150000D02*
G01*
X80000000Y-79150000D01*
X80000000Y-79550000D01*
X80400000Y-79550000D01*
X80400000Y-79150000D01*
G37*
G36*
X80800000Y-69950000D02*
G01*
X80400000Y-69950000D01*
X80400000Y-70350000D01*
X80800000Y-70350000D01*
X80800000Y-69950000D01*
G37*
G36*
X80800000Y-71950000D02*
G01*
X80400000Y-71950000D01*
X80400000Y-72350000D01*
X80800000Y-72350000D01*
X80800000Y-71950000D01*
G37*
G36*
X80800000Y-72350000D02*
G01*
X80400000Y-72350000D01*
X80400000Y-72750000D01*
X80800000Y-72750000D01*
X80800000Y-72350000D01*
G37*
G36*
X80800000Y-72750000D02*
G01*
X80400000Y-72750000D01*
X80400000Y-73150000D01*
X80800000Y-73150000D01*
X80800000Y-72750000D01*
G37*
G36*
X80800000Y-73150000D02*
G01*
X80400000Y-73150000D01*
X80400000Y-73550000D01*
X80800000Y-73550000D01*
X80800000Y-73150000D01*
G37*
G36*
X80800000Y-73950000D02*
G01*
X80400000Y-73950000D01*
X80400000Y-74350000D01*
X80800000Y-74350000D01*
X80800000Y-73950000D01*
G37*
G36*
X80800000Y-75950000D02*
G01*
X80400000Y-75950000D01*
X80400000Y-76350000D01*
X80800000Y-76350000D01*
X80800000Y-75950000D01*
G37*
G36*
X80800000Y-76350000D02*
G01*
X80400000Y-76350000D01*
X80400000Y-76750000D01*
X80800000Y-76750000D01*
X80800000Y-76350000D01*
G37*
G36*
X80800000Y-77150000D02*
G01*
X80400000Y-77150000D01*
X80400000Y-77550000D01*
X80800000Y-77550000D01*
X80800000Y-77150000D01*
G37*
G36*
X80800000Y-77550000D02*
G01*
X80400000Y-77550000D01*
X80400000Y-77950000D01*
X80800000Y-77950000D01*
X80800000Y-77550000D01*
G37*
G36*
X80800000Y-77950000D02*
G01*
X80400000Y-77950000D01*
X80400000Y-78350000D01*
X80800000Y-78350000D01*
X80800000Y-77950000D01*
G37*
G36*
X80800000Y-78350000D02*
G01*
X80400000Y-78350000D01*
X80400000Y-78750000D01*
X80800000Y-78750000D01*
X80800000Y-78350000D01*
G37*
G36*
X80800000Y-78750000D02*
G01*
X80400000Y-78750000D01*
X80400000Y-79150000D01*
X80800000Y-79150000D01*
X80800000Y-78750000D01*
G37*
G36*
X80800000Y-79150000D02*
G01*
X80400000Y-79150000D01*
X80400000Y-79550000D01*
X80800000Y-79550000D01*
X80800000Y-79150000D01*
G37*
G36*
X80800000Y-79550000D02*
G01*
X80400000Y-79550000D01*
X80400000Y-79950000D01*
X80800000Y-79950000D01*
X80800000Y-79550000D01*
G37*
G36*
X80800000Y-79950000D02*
G01*
X80400000Y-79950000D01*
X80400000Y-80350000D01*
X80800000Y-80350000D01*
X80800000Y-79950000D01*
G37*
G36*
X80800000Y-80750000D02*
G01*
X80400000Y-80750000D01*
X80400000Y-81150000D01*
X80800000Y-81150000D01*
X80800000Y-80750000D01*
G37*
G36*
X80800000Y-81950000D02*
G01*
X80400000Y-81950000D01*
X80400000Y-82350000D01*
X80800000Y-82350000D01*
X80800000Y-81950000D01*
G37*
G36*
X80800000Y-82350000D02*
G01*
X80400000Y-82350000D01*
X80400000Y-82750000D01*
X80800000Y-82750000D01*
X80800000Y-82350000D01*
G37*
G36*
X81200000Y-69550000D02*
G01*
X80800000Y-69550000D01*
X80800000Y-69950000D01*
X81200000Y-69950000D01*
X81200000Y-69550000D01*
G37*
G36*
X81200000Y-70750000D02*
G01*
X80800000Y-70750000D01*
X80800000Y-71150000D01*
X81200000Y-71150000D01*
X81200000Y-70750000D01*
G37*
G36*
X81200000Y-71150000D02*
G01*
X80800000Y-71150000D01*
X80800000Y-71550000D01*
X81200000Y-71550000D01*
X81200000Y-71150000D01*
G37*
G36*
X81200000Y-71550000D02*
G01*
X80800000Y-71550000D01*
X80800000Y-71950000D01*
X81200000Y-71950000D01*
X81200000Y-71550000D01*
G37*
G36*
X81200000Y-72350000D02*
G01*
X80800000Y-72350000D01*
X80800000Y-72750000D01*
X81200000Y-72750000D01*
X81200000Y-72350000D01*
G37*
G36*
X81200000Y-73150000D02*
G01*
X80800000Y-73150000D01*
X80800000Y-73550000D01*
X81200000Y-73550000D01*
X81200000Y-73150000D01*
G37*
G36*
X81200000Y-73550000D02*
G01*
X80800000Y-73550000D01*
X80800000Y-73950000D01*
X81200000Y-73950000D01*
X81200000Y-73550000D01*
G37*
G36*
X81200000Y-73950000D02*
G01*
X80800000Y-73950000D01*
X80800000Y-74350000D01*
X81200000Y-74350000D01*
X81200000Y-73950000D01*
G37*
G36*
X81200000Y-74350000D02*
G01*
X80800000Y-74350000D01*
X80800000Y-74750000D01*
X81200000Y-74750000D01*
X81200000Y-74350000D01*
G37*
G36*
X81200000Y-75150000D02*
G01*
X80800000Y-75150000D01*
X80800000Y-75550000D01*
X81200000Y-75550000D01*
X81200000Y-75150000D01*
G37*
G36*
X81200000Y-75950000D02*
G01*
X80800000Y-75950000D01*
X80800000Y-76350000D01*
X81200000Y-76350000D01*
X81200000Y-75950000D01*
G37*
G36*
X81200000Y-76750000D02*
G01*
X80800000Y-76750000D01*
X80800000Y-77150000D01*
X81200000Y-77150000D01*
X81200000Y-76750000D01*
G37*
G36*
X81200000Y-77150000D02*
G01*
X80800000Y-77150000D01*
X80800000Y-77550000D01*
X81200000Y-77550000D01*
X81200000Y-77150000D01*
G37*
G36*
X81200000Y-78750000D02*
G01*
X80800000Y-78750000D01*
X80800000Y-79150000D01*
X81200000Y-79150000D01*
X81200000Y-78750000D01*
G37*
G36*
X81200000Y-79550000D02*
G01*
X80800000Y-79550000D01*
X80800000Y-79950000D01*
X81200000Y-79950000D01*
X81200000Y-79550000D01*
G37*
G36*
X81200000Y-79950000D02*
G01*
X80800000Y-79950000D01*
X80800000Y-80350000D01*
X81200000Y-80350000D01*
X81200000Y-79950000D01*
G37*
G36*
X81200000Y-81550000D02*
G01*
X80800000Y-81550000D01*
X80800000Y-81950000D01*
X81200000Y-81950000D01*
X81200000Y-81550000D01*
G37*
G36*
X81200000Y-82350000D02*
G01*
X80800000Y-82350000D01*
X80800000Y-82750000D01*
X81200000Y-82750000D01*
X81200000Y-82350000D01*
G37*
G36*
X81600000Y-71550000D02*
G01*
X81200000Y-71550000D01*
X81200000Y-71950000D01*
X81600000Y-71950000D01*
X81600000Y-71550000D01*
G37*
G36*
X81600000Y-71950000D02*
G01*
X81200000Y-71950000D01*
X81200000Y-72350000D01*
X81600000Y-72350000D01*
X81600000Y-71950000D01*
G37*
G36*
X81600000Y-75150000D02*
G01*
X81200000Y-75150000D01*
X81200000Y-75550000D01*
X81600000Y-75550000D01*
X81600000Y-75150000D01*
G37*
G36*
X81600000Y-75950000D02*
G01*
X81200000Y-75950000D01*
X81200000Y-76350000D01*
X81600000Y-76350000D01*
X81600000Y-75950000D01*
G37*
G36*
X81600000Y-76350000D02*
G01*
X81200000Y-76350000D01*
X81200000Y-76750000D01*
X81600000Y-76750000D01*
X81600000Y-76350000D01*
G37*
G36*
X81600000Y-76750000D02*
G01*
X81200000Y-76750000D01*
X81200000Y-77150000D01*
X81600000Y-77150000D01*
X81600000Y-76750000D01*
G37*
G36*
X81600000Y-77150000D02*
G01*
X81200000Y-77150000D01*
X81200000Y-77550000D01*
X81600000Y-77550000D01*
X81600000Y-77150000D01*
G37*
G36*
X81600000Y-77550000D02*
G01*
X81200000Y-77550000D01*
X81200000Y-77950000D01*
X81600000Y-77950000D01*
X81600000Y-77550000D01*
G37*
G36*
X81600000Y-77950000D02*
G01*
X81200000Y-77950000D01*
X81200000Y-78350000D01*
X81600000Y-78350000D01*
X81600000Y-77950000D01*
G37*
G36*
X81600000Y-78350000D02*
G01*
X81200000Y-78350000D01*
X81200000Y-78750000D01*
X81600000Y-78750000D01*
X81600000Y-78350000D01*
G37*
G36*
X81600000Y-79150000D02*
G01*
X81200000Y-79150000D01*
X81200000Y-79550000D01*
X81600000Y-79550000D01*
X81600000Y-79150000D01*
G37*
G36*
X81600000Y-79950000D02*
G01*
X81200000Y-79950000D01*
X81200000Y-80350000D01*
X81600000Y-80350000D01*
X81600000Y-79950000D01*
G37*
G36*
X81600000Y-81150000D02*
G01*
X81200000Y-81150000D01*
X81200000Y-81550000D01*
X81600000Y-81550000D01*
X81600000Y-81150000D01*
G37*
G36*
X81600000Y-81950000D02*
G01*
X81200000Y-81950000D01*
X81200000Y-82350000D01*
X81600000Y-82350000D01*
X81600000Y-81950000D01*
G37*
G36*
X82000000Y-69550000D02*
G01*
X81600000Y-69550000D01*
X81600000Y-69950000D01*
X82000000Y-69950000D01*
X82000000Y-69550000D01*
G37*
G36*
X82000000Y-70350000D02*
G01*
X81600000Y-70350000D01*
X81600000Y-70750000D01*
X82000000Y-70750000D01*
X82000000Y-70350000D01*
G37*
G36*
X82000000Y-71150000D02*
G01*
X81600000Y-71150000D01*
X81600000Y-71550000D01*
X82000000Y-71550000D01*
X82000000Y-71150000D01*
G37*
G36*
X82000000Y-73150000D02*
G01*
X81600000Y-73150000D01*
X81600000Y-73550000D01*
X82000000Y-73550000D01*
X82000000Y-73150000D01*
G37*
G36*
X82000000Y-73950000D02*
G01*
X81600000Y-73950000D01*
X81600000Y-74350000D01*
X82000000Y-74350000D01*
X82000000Y-73950000D01*
G37*
G36*
X82000000Y-74350000D02*
G01*
X81600000Y-74350000D01*
X81600000Y-74750000D01*
X82000000Y-74750000D01*
X82000000Y-74350000D01*
G37*
G36*
X82000000Y-75950000D02*
G01*
X81600000Y-75950000D01*
X81600000Y-76350000D01*
X82000000Y-76350000D01*
X82000000Y-75950000D01*
G37*
G36*
X82000000Y-78350000D02*
G01*
X81600000Y-78350000D01*
X81600000Y-78750000D01*
X82000000Y-78750000D01*
X82000000Y-78350000D01*
G37*
G36*
X82000000Y-78750000D02*
G01*
X81600000Y-78750000D01*
X81600000Y-79150000D01*
X82000000Y-79150000D01*
X82000000Y-78750000D01*
G37*
G36*
X82000000Y-79550000D02*
G01*
X81600000Y-79550000D01*
X81600000Y-79950000D01*
X82000000Y-79950000D01*
X82000000Y-79550000D01*
G37*
G36*
X82000000Y-79950000D02*
G01*
X81600000Y-79950000D01*
X81600000Y-80350000D01*
X82000000Y-80350000D01*
X82000000Y-79950000D01*
G37*
G36*
X82000000Y-80350000D02*
G01*
X81600000Y-80350000D01*
X81600000Y-80750000D01*
X82000000Y-80750000D01*
X82000000Y-80350000D01*
G37*
G36*
X82000000Y-81950000D02*
G01*
X81600000Y-81950000D01*
X81600000Y-82350000D01*
X82000000Y-82350000D01*
X82000000Y-81950000D01*
G37*
G36*
X82400000Y-69550000D02*
G01*
X82000000Y-69550000D01*
X82000000Y-69950000D01*
X82400000Y-69950000D01*
X82400000Y-69550000D01*
G37*
G36*
X82400000Y-70350000D02*
G01*
X82000000Y-70350000D01*
X82000000Y-70750000D01*
X82400000Y-70750000D01*
X82400000Y-70350000D01*
G37*
G36*
X82400000Y-70750000D02*
G01*
X82000000Y-70750000D01*
X82000000Y-71150000D01*
X82400000Y-71150000D01*
X82400000Y-70750000D01*
G37*
G36*
X82400000Y-71150000D02*
G01*
X82000000Y-71150000D01*
X82000000Y-71550000D01*
X82400000Y-71550000D01*
X82400000Y-71150000D01*
G37*
G36*
X82400000Y-71550000D02*
G01*
X82000000Y-71550000D01*
X82000000Y-71950000D01*
X82400000Y-71950000D01*
X82400000Y-71550000D01*
G37*
G36*
X82400000Y-71950000D02*
G01*
X82000000Y-71950000D01*
X82000000Y-72350000D01*
X82400000Y-72350000D01*
X82400000Y-71950000D01*
G37*
G36*
X82400000Y-72750000D02*
G01*
X82000000Y-72750000D01*
X82000000Y-73150000D01*
X82400000Y-73150000D01*
X82400000Y-72750000D01*
G37*
G36*
X82400000Y-73150000D02*
G01*
X82000000Y-73150000D01*
X82000000Y-73550000D01*
X82400000Y-73550000D01*
X82400000Y-73150000D01*
G37*
G36*
X82400000Y-75550000D02*
G01*
X82000000Y-75550000D01*
X82000000Y-75950000D01*
X82400000Y-75950000D01*
X82400000Y-75550000D01*
G37*
G36*
X82400000Y-75950000D02*
G01*
X82000000Y-75950000D01*
X82000000Y-76350000D01*
X82400000Y-76350000D01*
X82400000Y-75950000D01*
G37*
G36*
X82400000Y-76350000D02*
G01*
X82000000Y-76350000D01*
X82000000Y-76750000D01*
X82400000Y-76750000D01*
X82400000Y-76350000D01*
G37*
G36*
X82400000Y-77150000D02*
G01*
X82000000Y-77150000D01*
X82000000Y-77550000D01*
X82400000Y-77550000D01*
X82400000Y-77150000D01*
G37*
G36*
X82400000Y-78350000D02*
G01*
X82000000Y-78350000D01*
X82000000Y-78750000D01*
X82400000Y-78750000D01*
X82400000Y-78350000D01*
G37*
G36*
X82400000Y-79550000D02*
G01*
X82000000Y-79550000D01*
X82000000Y-79950000D01*
X82400000Y-79950000D01*
X82400000Y-79550000D01*
G37*
G36*
X82400000Y-79950000D02*
G01*
X82000000Y-79950000D01*
X82000000Y-80350000D01*
X82400000Y-80350000D01*
X82400000Y-79950000D01*
G37*
G36*
X82400000Y-80350000D02*
G01*
X82000000Y-80350000D01*
X82000000Y-80750000D01*
X82400000Y-80750000D01*
X82400000Y-80350000D01*
G37*
G36*
X82400000Y-81150000D02*
G01*
X82000000Y-81150000D01*
X82000000Y-81550000D01*
X82400000Y-81550000D01*
X82400000Y-81150000D01*
G37*
G36*
X82400000Y-81550000D02*
G01*
X82000000Y-81550000D01*
X82000000Y-81950000D01*
X82400000Y-81950000D01*
X82400000Y-81550000D01*
G37*
G36*
X82400000Y-82350000D02*
G01*
X82000000Y-82350000D01*
X82000000Y-82750000D01*
X82400000Y-82750000D01*
X82400000Y-82350000D01*
G37*
G36*
X82800000Y-72350000D02*
G01*
X82400000Y-72350000D01*
X82400000Y-72750000D01*
X82800000Y-72750000D01*
X82800000Y-72350000D01*
G37*
G36*
X82800000Y-73550000D02*
G01*
X82400000Y-73550000D01*
X82400000Y-73950000D01*
X82800000Y-73950000D01*
X82800000Y-73550000D01*
G37*
G36*
X82800000Y-73950000D02*
G01*
X82400000Y-73950000D01*
X82400000Y-74350000D01*
X82800000Y-74350000D01*
X82800000Y-73950000D01*
G37*
G36*
X82800000Y-75150000D02*
G01*
X82400000Y-75150000D01*
X82400000Y-75550000D01*
X82800000Y-75550000D01*
X82800000Y-75150000D01*
G37*
G36*
X82800000Y-76350000D02*
G01*
X82400000Y-76350000D01*
X82400000Y-76750000D01*
X82800000Y-76750000D01*
X82800000Y-76350000D01*
G37*
G36*
X82800000Y-76750000D02*
G01*
X82400000Y-76750000D01*
X82400000Y-77150000D01*
X82800000Y-77150000D01*
X82800000Y-76750000D01*
G37*
G36*
X82800000Y-77550000D02*
G01*
X82400000Y-77550000D01*
X82400000Y-77950000D01*
X82800000Y-77950000D01*
X82800000Y-77550000D01*
G37*
G36*
X82800000Y-78750000D02*
G01*
X82400000Y-78750000D01*
X82400000Y-79150000D01*
X82800000Y-79150000D01*
X82800000Y-78750000D01*
G37*
G36*
X82800000Y-79150000D02*
G01*
X82400000Y-79150000D01*
X82400000Y-79550000D01*
X82800000Y-79550000D01*
X82800000Y-79150000D01*
G37*
G36*
X82800000Y-79550000D02*
G01*
X82400000Y-79550000D01*
X82400000Y-79950000D01*
X82800000Y-79950000D01*
X82800000Y-79550000D01*
G37*
G36*
X82800000Y-80750000D02*
G01*
X82400000Y-80750000D01*
X82400000Y-81150000D01*
X82800000Y-81150000D01*
X82800000Y-80750000D01*
G37*
G36*
X82800000Y-81550000D02*
G01*
X82400000Y-81550000D01*
X82400000Y-81950000D01*
X82800000Y-81950000D01*
X82800000Y-81550000D01*
G37*
G36*
X83200000Y-70350000D02*
G01*
X82800000Y-70350000D01*
X82800000Y-70750000D01*
X83200000Y-70750000D01*
X83200000Y-70350000D01*
G37*
G36*
X83200000Y-70750000D02*
G01*
X82800000Y-70750000D01*
X82800000Y-71150000D01*
X83200000Y-71150000D01*
X83200000Y-70750000D01*
G37*
G36*
X83200000Y-71150000D02*
G01*
X82800000Y-71150000D01*
X82800000Y-71550000D01*
X83200000Y-71550000D01*
X83200000Y-71150000D01*
G37*
G36*
X83200000Y-71550000D02*
G01*
X82800000Y-71550000D01*
X82800000Y-71950000D01*
X83200000Y-71950000D01*
X83200000Y-71550000D01*
G37*
G36*
X83200000Y-71950000D02*
G01*
X82800000Y-71950000D01*
X82800000Y-72350000D01*
X83200000Y-72350000D01*
X83200000Y-71950000D01*
G37*
G36*
X83200000Y-72350000D02*
G01*
X82800000Y-72350000D01*
X82800000Y-72750000D01*
X83200000Y-72750000D01*
X83200000Y-72350000D01*
G37*
G36*
X83200000Y-72750000D02*
G01*
X82800000Y-72750000D01*
X82800000Y-73150000D01*
X83200000Y-73150000D01*
X83200000Y-72750000D01*
G37*
G36*
X83200000Y-73150000D02*
G01*
X82800000Y-73150000D01*
X82800000Y-73550000D01*
X83200000Y-73550000D01*
X83200000Y-73150000D01*
G37*
G36*
X83200000Y-74350000D02*
G01*
X82800000Y-74350000D01*
X82800000Y-74750000D01*
X83200000Y-74750000D01*
X83200000Y-74350000D01*
G37*
G36*
X83200000Y-74750000D02*
G01*
X82800000Y-74750000D01*
X82800000Y-75150000D01*
X83200000Y-75150000D01*
X83200000Y-74750000D01*
G37*
G36*
X83200000Y-75150000D02*
G01*
X82800000Y-75150000D01*
X82800000Y-75550000D01*
X83200000Y-75550000D01*
X83200000Y-75150000D01*
G37*
G36*
X83200000Y-75550000D02*
G01*
X82800000Y-75550000D01*
X82800000Y-75950000D01*
X83200000Y-75950000D01*
X83200000Y-75550000D01*
G37*
G36*
X83200000Y-76350000D02*
G01*
X82800000Y-76350000D01*
X82800000Y-76750000D01*
X83200000Y-76750000D01*
X83200000Y-76350000D01*
G37*
G36*
X83200000Y-77150000D02*
G01*
X82800000Y-77150000D01*
X82800000Y-77550000D01*
X83200000Y-77550000D01*
X83200000Y-77150000D01*
G37*
G36*
X83200000Y-77950000D02*
G01*
X82800000Y-77950000D01*
X82800000Y-78350000D01*
X83200000Y-78350000D01*
X83200000Y-77950000D01*
G37*
G36*
X83200000Y-79550000D02*
G01*
X82800000Y-79550000D01*
X82800000Y-79950000D01*
X83200000Y-79950000D01*
X83200000Y-79550000D01*
G37*
G36*
X83200000Y-79950000D02*
G01*
X82800000Y-79950000D01*
X82800000Y-80350000D01*
X83200000Y-80350000D01*
X83200000Y-79950000D01*
G37*
G36*
X83200000Y-81150000D02*
G01*
X82800000Y-81150000D01*
X82800000Y-81550000D01*
X83200000Y-81550000D01*
X83200000Y-81150000D01*
G37*
G36*
X83200000Y-81550000D02*
G01*
X82800000Y-81550000D01*
X82800000Y-81950000D01*
X83200000Y-81950000D01*
X83200000Y-81550000D01*
G37*
G36*
X83200000Y-81950000D02*
G01*
X82800000Y-81950000D01*
X82800000Y-82350000D01*
X83200000Y-82350000D01*
X83200000Y-81950000D01*
G37*
G36*
X83200000Y-82350000D02*
G01*
X82800000Y-82350000D01*
X82800000Y-82750000D01*
X83200000Y-82750000D01*
X83200000Y-82350000D01*
G37*
G36*
X83600000Y-70750000D02*
G01*
X83200000Y-70750000D01*
X83200000Y-71150000D01*
X83600000Y-71150000D01*
X83600000Y-70750000D01*
G37*
G36*
X83600000Y-72350000D02*
G01*
X83200000Y-72350000D01*
X83200000Y-72750000D01*
X83600000Y-72750000D01*
X83600000Y-72350000D01*
G37*
G36*
X83600000Y-74350000D02*
G01*
X83200000Y-74350000D01*
X83200000Y-74750000D01*
X83600000Y-74750000D01*
X83600000Y-74350000D01*
G37*
G36*
X83600000Y-74750000D02*
G01*
X83200000Y-74750000D01*
X83200000Y-75150000D01*
X83600000Y-75150000D01*
X83600000Y-74750000D01*
G37*
G36*
X83600000Y-75150000D02*
G01*
X83200000Y-75150000D01*
X83200000Y-75550000D01*
X83600000Y-75550000D01*
X83600000Y-75150000D01*
G37*
G36*
X83600000Y-75550000D02*
G01*
X83200000Y-75550000D01*
X83200000Y-75950000D01*
X83600000Y-75950000D01*
X83600000Y-75550000D01*
G37*
G36*
X83600000Y-76750000D02*
G01*
X83200000Y-76750000D01*
X83200000Y-77150000D01*
X83600000Y-77150000D01*
X83600000Y-76750000D01*
G37*
G36*
X83600000Y-77150000D02*
G01*
X83200000Y-77150000D01*
X83200000Y-77550000D01*
X83600000Y-77550000D01*
X83600000Y-77150000D01*
G37*
G36*
X83600000Y-77950000D02*
G01*
X83200000Y-77950000D01*
X83200000Y-78350000D01*
X83600000Y-78350000D01*
X83600000Y-77950000D01*
G37*
G36*
X83600000Y-79150000D02*
G01*
X83200000Y-79150000D01*
X83200000Y-79550000D01*
X83600000Y-79550000D01*
X83600000Y-79150000D01*
G37*
G36*
X83600000Y-80350000D02*
G01*
X83200000Y-80350000D01*
X83200000Y-80750000D01*
X83600000Y-80750000D01*
X83600000Y-80350000D01*
G37*
G36*
X83600000Y-81950000D02*
G01*
X83200000Y-81950000D01*
X83200000Y-82350000D01*
X83600000Y-82350000D01*
X83600000Y-81950000D01*
G37*
G36*
X83600000Y-82350000D02*
G01*
X83200000Y-82350000D01*
X83200000Y-82750000D01*
X83600000Y-82750000D01*
X83600000Y-82350000D01*
G37*
G36*
X84000000Y-69550000D02*
G01*
X83600000Y-69550000D01*
X83600000Y-69950000D01*
X84000000Y-69950000D01*
X84000000Y-69550000D01*
G37*
G36*
X84000000Y-70350000D02*
G01*
X83600000Y-70350000D01*
X83600000Y-70750000D01*
X84000000Y-70750000D01*
X84000000Y-70350000D01*
G37*
G36*
X84000000Y-71550000D02*
G01*
X83600000Y-71550000D01*
X83600000Y-71950000D01*
X84000000Y-71950000D01*
X84000000Y-71550000D01*
G37*
G36*
X84000000Y-71950000D02*
G01*
X83600000Y-71950000D01*
X83600000Y-72350000D01*
X84000000Y-72350000D01*
X84000000Y-71950000D01*
G37*
G36*
X84000000Y-73150000D02*
G01*
X83600000Y-73150000D01*
X83600000Y-73550000D01*
X84000000Y-73550000D01*
X84000000Y-73150000D01*
G37*
G36*
X84000000Y-73550000D02*
G01*
X83600000Y-73550000D01*
X83600000Y-73950000D01*
X84000000Y-73950000D01*
X84000000Y-73550000D01*
G37*
G36*
X84000000Y-74350000D02*
G01*
X83600000Y-74350000D01*
X83600000Y-74750000D01*
X84000000Y-74750000D01*
X84000000Y-74350000D01*
G37*
G36*
X84000000Y-74750000D02*
G01*
X83600000Y-74750000D01*
X83600000Y-75150000D01*
X84000000Y-75150000D01*
X84000000Y-74750000D01*
G37*
G36*
X84000000Y-75550000D02*
G01*
X83600000Y-75550000D01*
X83600000Y-75950000D01*
X84000000Y-75950000D01*
X84000000Y-75550000D01*
G37*
G36*
X84000000Y-75950000D02*
G01*
X83600000Y-75950000D01*
X83600000Y-76350000D01*
X84000000Y-76350000D01*
X84000000Y-75950000D01*
G37*
G36*
X84000000Y-76750000D02*
G01*
X83600000Y-76750000D01*
X83600000Y-77150000D01*
X84000000Y-77150000D01*
X84000000Y-76750000D01*
G37*
G36*
X84000000Y-77550000D02*
G01*
X83600000Y-77550000D01*
X83600000Y-77950000D01*
X84000000Y-77950000D01*
X84000000Y-77550000D01*
G37*
G36*
X84000000Y-77950000D02*
G01*
X83600000Y-77950000D01*
X83600000Y-78350000D01*
X84000000Y-78350000D01*
X84000000Y-77950000D01*
G37*
G36*
X84000000Y-78350000D02*
G01*
X83600000Y-78350000D01*
X83600000Y-78750000D01*
X84000000Y-78750000D01*
X84000000Y-78350000D01*
G37*
G36*
X84000000Y-79550000D02*
G01*
X83600000Y-79550000D01*
X83600000Y-79950000D01*
X84000000Y-79950000D01*
X84000000Y-79550000D01*
G37*
G36*
X84000000Y-79950000D02*
G01*
X83600000Y-79950000D01*
X83600000Y-80350000D01*
X84000000Y-80350000D01*
X84000000Y-79950000D01*
G37*
G36*
X84000000Y-81550000D02*
G01*
X83600000Y-81550000D01*
X83600000Y-81950000D01*
X84000000Y-81950000D01*
X84000000Y-81550000D01*
G37*
G36*
X84000000Y-82350000D02*
G01*
X83600000Y-82350000D01*
X83600000Y-82750000D01*
X84000000Y-82750000D01*
X84000000Y-82350000D01*
G37*
G36*
X84400000Y-72750000D02*
G01*
X84000000Y-72750000D01*
X84000000Y-73150000D01*
X84400000Y-73150000D01*
X84400000Y-72750000D01*
G37*
G36*
X84400000Y-73150000D02*
G01*
X84000000Y-73150000D01*
X84000000Y-73550000D01*
X84400000Y-73550000D01*
X84400000Y-73150000D01*
G37*
G36*
X84400000Y-73550000D02*
G01*
X84000000Y-73550000D01*
X84000000Y-73950000D01*
X84400000Y-73950000D01*
X84400000Y-73550000D01*
G37*
G36*
X84400000Y-74350000D02*
G01*
X84000000Y-74350000D01*
X84000000Y-74750000D01*
X84400000Y-74750000D01*
X84400000Y-74350000D01*
G37*
G36*
X84400000Y-74750000D02*
G01*
X84000000Y-74750000D01*
X84000000Y-75150000D01*
X84400000Y-75150000D01*
X84400000Y-74750000D01*
G37*
G36*
X84400000Y-75150000D02*
G01*
X84000000Y-75150000D01*
X84000000Y-75550000D01*
X84400000Y-75550000D01*
X84400000Y-75150000D01*
G37*
G36*
X84400000Y-75550000D02*
G01*
X84000000Y-75550000D01*
X84000000Y-75950000D01*
X84400000Y-75950000D01*
X84400000Y-75550000D01*
G37*
G36*
X84400000Y-75950000D02*
G01*
X84000000Y-75950000D01*
X84000000Y-76350000D01*
X84400000Y-76350000D01*
X84400000Y-75950000D01*
G37*
G36*
X84400000Y-76350000D02*
G01*
X84000000Y-76350000D01*
X84000000Y-76750000D01*
X84400000Y-76750000D01*
X84400000Y-76350000D01*
G37*
G36*
X84400000Y-77150000D02*
G01*
X84000000Y-77150000D01*
X84000000Y-77550000D01*
X84400000Y-77550000D01*
X84400000Y-77150000D01*
G37*
G36*
X84400000Y-78750000D02*
G01*
X84000000Y-78750000D01*
X84000000Y-79150000D01*
X84400000Y-79150000D01*
X84400000Y-78750000D01*
G37*
G36*
X84400000Y-79150000D02*
G01*
X84000000Y-79150000D01*
X84000000Y-79550000D01*
X84400000Y-79550000D01*
X84400000Y-79150000D01*
G37*
G36*
X84800000Y-69550000D02*
G01*
X84400000Y-69550000D01*
X84400000Y-69950000D01*
X84800000Y-69950000D01*
X84800000Y-69550000D01*
G37*
G36*
X84800000Y-69950000D02*
G01*
X84400000Y-69950000D01*
X84400000Y-70350000D01*
X84800000Y-70350000D01*
X84800000Y-69950000D01*
G37*
G36*
X84800000Y-70350000D02*
G01*
X84400000Y-70350000D01*
X84400000Y-70750000D01*
X84800000Y-70750000D01*
X84800000Y-70350000D01*
G37*
G36*
X84800000Y-70750000D02*
G01*
X84400000Y-70750000D01*
X84400000Y-71150000D01*
X84800000Y-71150000D01*
X84800000Y-70750000D01*
G37*
G36*
X84800000Y-71150000D02*
G01*
X84400000Y-71150000D01*
X84400000Y-71550000D01*
X84800000Y-71550000D01*
X84800000Y-71150000D01*
G37*
G36*
X84800000Y-71550000D02*
G01*
X84400000Y-71550000D01*
X84400000Y-71950000D01*
X84800000Y-71950000D01*
X84800000Y-71550000D01*
G37*
G36*
X84800000Y-71950000D02*
G01*
X84400000Y-71950000D01*
X84400000Y-72350000D01*
X84800000Y-72350000D01*
X84800000Y-71950000D01*
G37*
G36*
X84800000Y-72750000D02*
G01*
X84400000Y-72750000D01*
X84400000Y-73150000D01*
X84800000Y-73150000D01*
X84800000Y-72750000D01*
G37*
G36*
X84800000Y-73550000D02*
G01*
X84400000Y-73550000D01*
X84400000Y-73950000D01*
X84800000Y-73950000D01*
X84800000Y-73550000D01*
G37*
G36*
X84800000Y-74350000D02*
G01*
X84400000Y-74350000D01*
X84400000Y-74750000D01*
X84800000Y-74750000D01*
X84800000Y-74350000D01*
G37*
G36*
X84800000Y-75150000D02*
G01*
X84400000Y-75150000D01*
X84400000Y-75550000D01*
X84800000Y-75550000D01*
X84800000Y-75150000D01*
G37*
G36*
X84800000Y-75950000D02*
G01*
X84400000Y-75950000D01*
X84400000Y-76350000D01*
X84800000Y-76350000D01*
X84800000Y-75950000D01*
G37*
G36*
X84800000Y-76750000D02*
G01*
X84400000Y-76750000D01*
X84400000Y-77150000D01*
X84800000Y-77150000D01*
X84800000Y-76750000D01*
G37*
G36*
X84800000Y-77550000D02*
G01*
X84400000Y-77550000D01*
X84400000Y-77950000D01*
X84800000Y-77950000D01*
X84800000Y-77550000D01*
G37*
G36*
X84800000Y-78350000D02*
G01*
X84400000Y-78350000D01*
X84400000Y-78750000D01*
X84800000Y-78750000D01*
X84800000Y-78350000D01*
G37*
G36*
X84800000Y-79150000D02*
G01*
X84400000Y-79150000D01*
X84400000Y-79550000D01*
X84800000Y-79550000D01*
X84800000Y-79150000D01*
G37*
G36*
X84800000Y-79950000D02*
G01*
X84400000Y-79950000D01*
X84400000Y-80350000D01*
X84800000Y-80350000D01*
X84800000Y-79950000D01*
G37*
G36*
X84800000Y-80350000D02*
G01*
X84400000Y-80350000D01*
X84400000Y-80750000D01*
X84800000Y-80750000D01*
X84800000Y-80350000D01*
G37*
G36*
X84800000Y-80750000D02*
G01*
X84400000Y-80750000D01*
X84400000Y-81150000D01*
X84800000Y-81150000D01*
X84800000Y-80750000D01*
G37*
G36*
X84800000Y-81150000D02*
G01*
X84400000Y-81150000D01*
X84400000Y-81550000D01*
X84800000Y-81550000D01*
X84800000Y-81150000D01*
G37*
G36*
X84800000Y-81550000D02*
G01*
X84400000Y-81550000D01*
X84400000Y-81950000D01*
X84800000Y-81950000D01*
X84800000Y-81550000D01*
G37*
G36*
X84800000Y-81950000D02*
G01*
X84400000Y-81950000D01*
X84400000Y-82350000D01*
X84800000Y-82350000D01*
X84800000Y-81950000D01*
G37*
G36*
X84800000Y-82350000D02*
G01*
X84400000Y-82350000D01*
X84400000Y-82750000D01*
X84800000Y-82750000D01*
X84800000Y-82350000D01*
G37*
G36*
X85200000Y-69550000D02*
G01*
X84800000Y-69550000D01*
X84800000Y-69950000D01*
X85200000Y-69950000D01*
X85200000Y-69550000D01*
G37*
G36*
X85200000Y-71950000D02*
G01*
X84800000Y-71950000D01*
X84800000Y-72350000D01*
X85200000Y-72350000D01*
X85200000Y-71950000D01*
G37*
G36*
X85200000Y-73150000D02*
G01*
X84800000Y-73150000D01*
X84800000Y-73550000D01*
X85200000Y-73550000D01*
X85200000Y-73150000D01*
G37*
G36*
X85200000Y-73950000D02*
G01*
X84800000Y-73950000D01*
X84800000Y-74350000D01*
X85200000Y-74350000D01*
X85200000Y-73950000D01*
G37*
G36*
X85200000Y-74350000D02*
G01*
X84800000Y-74350000D01*
X84800000Y-74750000D01*
X85200000Y-74750000D01*
X85200000Y-74350000D01*
G37*
G36*
X85200000Y-75150000D02*
G01*
X84800000Y-75150000D01*
X84800000Y-75550000D01*
X85200000Y-75550000D01*
X85200000Y-75150000D01*
G37*
G36*
X85200000Y-75950000D02*
G01*
X84800000Y-75950000D01*
X84800000Y-76350000D01*
X85200000Y-76350000D01*
X85200000Y-75950000D01*
G37*
G36*
X85200000Y-76750000D02*
G01*
X84800000Y-76750000D01*
X84800000Y-77150000D01*
X85200000Y-77150000D01*
X85200000Y-76750000D01*
G37*
G36*
X85200000Y-77150000D02*
G01*
X84800000Y-77150000D01*
X84800000Y-77550000D01*
X85200000Y-77550000D01*
X85200000Y-77150000D01*
G37*
G36*
X85200000Y-77550000D02*
G01*
X84800000Y-77550000D01*
X84800000Y-77950000D01*
X85200000Y-77950000D01*
X85200000Y-77550000D01*
G37*
G36*
X85200000Y-77950000D02*
G01*
X84800000Y-77950000D01*
X84800000Y-78350000D01*
X85200000Y-78350000D01*
X85200000Y-77950000D01*
G37*
G36*
X85200000Y-78750000D02*
G01*
X84800000Y-78750000D01*
X84800000Y-79150000D01*
X85200000Y-79150000D01*
X85200000Y-78750000D01*
G37*
G36*
X85200000Y-79150000D02*
G01*
X84800000Y-79150000D01*
X84800000Y-79550000D01*
X85200000Y-79550000D01*
X85200000Y-79150000D01*
G37*
G36*
X85200000Y-79950000D02*
G01*
X84800000Y-79950000D01*
X84800000Y-80350000D01*
X85200000Y-80350000D01*
X85200000Y-79950000D01*
G37*
G36*
X85200000Y-82350000D02*
G01*
X84800000Y-82350000D01*
X84800000Y-82750000D01*
X85200000Y-82750000D01*
X85200000Y-82350000D01*
G37*
G36*
X85600000Y-69550000D02*
G01*
X85200000Y-69550000D01*
X85200000Y-69950000D01*
X85600000Y-69950000D01*
X85600000Y-69550000D01*
G37*
G36*
X85600000Y-70350000D02*
G01*
X85200000Y-70350000D01*
X85200000Y-70750000D01*
X85600000Y-70750000D01*
X85600000Y-70350000D01*
G37*
G36*
X85600000Y-70750000D02*
G01*
X85200000Y-70750000D01*
X85200000Y-71150000D01*
X85600000Y-71150000D01*
X85600000Y-70750000D01*
G37*
G36*
X85600000Y-71150000D02*
G01*
X85200000Y-71150000D01*
X85200000Y-71550000D01*
X85600000Y-71550000D01*
X85600000Y-71150000D01*
G37*
G36*
X85600000Y-71950000D02*
G01*
X85200000Y-71950000D01*
X85200000Y-72350000D01*
X85600000Y-72350000D01*
X85600000Y-71950000D01*
G37*
G36*
X85600000Y-73150000D02*
G01*
X85200000Y-73150000D01*
X85200000Y-73550000D01*
X85600000Y-73550000D01*
X85600000Y-73150000D01*
G37*
G36*
X85600000Y-73550000D02*
G01*
X85200000Y-73550000D01*
X85200000Y-73950000D01*
X85600000Y-73950000D01*
X85600000Y-73550000D01*
G37*
G36*
X85600000Y-74750000D02*
G01*
X85200000Y-74750000D01*
X85200000Y-75150000D01*
X85600000Y-75150000D01*
X85600000Y-74750000D01*
G37*
G36*
X85600000Y-75150000D02*
G01*
X85200000Y-75150000D01*
X85200000Y-75550000D01*
X85600000Y-75550000D01*
X85600000Y-75150000D01*
G37*
G36*
X85600000Y-76350000D02*
G01*
X85200000Y-76350000D01*
X85200000Y-76750000D01*
X85600000Y-76750000D01*
X85600000Y-76350000D01*
G37*
G36*
X85600000Y-77150000D02*
G01*
X85200000Y-77150000D01*
X85200000Y-77550000D01*
X85600000Y-77550000D01*
X85600000Y-77150000D01*
G37*
G36*
X85600000Y-79150000D02*
G01*
X85200000Y-79150000D01*
X85200000Y-79550000D01*
X85600000Y-79550000D01*
X85600000Y-79150000D01*
G37*
G36*
X85600000Y-79950000D02*
G01*
X85200000Y-79950000D01*
X85200000Y-80350000D01*
X85600000Y-80350000D01*
X85600000Y-79950000D01*
G37*
G36*
X85600000Y-80750000D02*
G01*
X85200000Y-80750000D01*
X85200000Y-81150000D01*
X85600000Y-81150000D01*
X85600000Y-80750000D01*
G37*
G36*
X85600000Y-81150000D02*
G01*
X85200000Y-81150000D01*
X85200000Y-81550000D01*
X85600000Y-81550000D01*
X85600000Y-81150000D01*
G37*
G36*
X85600000Y-81550000D02*
G01*
X85200000Y-81550000D01*
X85200000Y-81950000D01*
X85600000Y-81950000D01*
X85600000Y-81550000D01*
G37*
G36*
X85600000Y-82350000D02*
G01*
X85200000Y-82350000D01*
X85200000Y-82750000D01*
X85600000Y-82750000D01*
X85600000Y-82350000D01*
G37*
G36*
X86000000Y-69550000D02*
G01*
X85600000Y-69550000D01*
X85600000Y-69950000D01*
X86000000Y-69950000D01*
X86000000Y-69550000D01*
G37*
G36*
X86000000Y-70350000D02*
G01*
X85600000Y-70350000D01*
X85600000Y-70750000D01*
X86000000Y-70750000D01*
X86000000Y-70350000D01*
G37*
G36*
X86000000Y-70750000D02*
G01*
X85600000Y-70750000D01*
X85600000Y-71150000D01*
X86000000Y-71150000D01*
X86000000Y-70750000D01*
G37*
G36*
X86000000Y-71150000D02*
G01*
X85600000Y-71150000D01*
X85600000Y-71550000D01*
X86000000Y-71550000D01*
X86000000Y-71150000D01*
G37*
G36*
X86000000Y-71950000D02*
G01*
X85600000Y-71950000D01*
X85600000Y-72350000D01*
X86000000Y-72350000D01*
X86000000Y-71950000D01*
G37*
G36*
X86000000Y-73550000D02*
G01*
X85600000Y-73550000D01*
X85600000Y-73950000D01*
X86000000Y-73950000D01*
X86000000Y-73550000D01*
G37*
G36*
X86000000Y-75950000D02*
G01*
X85600000Y-75950000D01*
X85600000Y-76350000D01*
X86000000Y-76350000D01*
X86000000Y-75950000D01*
G37*
G36*
X86000000Y-79150000D02*
G01*
X85600000Y-79150000D01*
X85600000Y-79550000D01*
X86000000Y-79550000D01*
X86000000Y-79150000D01*
G37*
G36*
X86000000Y-79950000D02*
G01*
X85600000Y-79950000D01*
X85600000Y-80350000D01*
X86000000Y-80350000D01*
X86000000Y-79950000D01*
G37*
G36*
X86000000Y-80750000D02*
G01*
X85600000Y-80750000D01*
X85600000Y-81150000D01*
X86000000Y-81150000D01*
X86000000Y-80750000D01*
G37*
G36*
X86000000Y-81150000D02*
G01*
X85600000Y-81150000D01*
X85600000Y-81550000D01*
X86000000Y-81550000D01*
X86000000Y-81150000D01*
G37*
G36*
X86000000Y-81550000D02*
G01*
X85600000Y-81550000D01*
X85600000Y-81950000D01*
X86000000Y-81950000D01*
X86000000Y-81550000D01*
G37*
G36*
X86000000Y-82350000D02*
G01*
X85600000Y-82350000D01*
X85600000Y-82750000D01*
X86000000Y-82750000D01*
X86000000Y-82350000D01*
G37*
G36*
X86400000Y-69550000D02*
G01*
X86000000Y-69550000D01*
X86000000Y-69950000D01*
X86400000Y-69950000D01*
X86400000Y-69550000D01*
G37*
G36*
X86400000Y-70350000D02*
G01*
X86000000Y-70350000D01*
X86000000Y-70750000D01*
X86400000Y-70750000D01*
X86400000Y-70350000D01*
G37*
G36*
X86400000Y-70750000D02*
G01*
X86000000Y-70750000D01*
X86000000Y-71150000D01*
X86400000Y-71150000D01*
X86400000Y-70750000D01*
G37*
G36*
X86400000Y-71150000D02*
G01*
X86000000Y-71150000D01*
X86000000Y-71550000D01*
X86400000Y-71550000D01*
X86400000Y-71150000D01*
G37*
G36*
X86400000Y-71950000D02*
G01*
X86000000Y-71950000D01*
X86000000Y-72350000D01*
X86400000Y-72350000D01*
X86400000Y-71950000D01*
G37*
G36*
X86400000Y-72750000D02*
G01*
X86000000Y-72750000D01*
X86000000Y-73150000D01*
X86400000Y-73150000D01*
X86400000Y-72750000D01*
G37*
G36*
X86400000Y-74750000D02*
G01*
X86000000Y-74750000D01*
X86000000Y-75150000D01*
X86400000Y-75150000D01*
X86400000Y-74750000D01*
G37*
G36*
X86400000Y-75150000D02*
G01*
X86000000Y-75150000D01*
X86000000Y-75550000D01*
X86400000Y-75550000D01*
X86400000Y-75150000D01*
G37*
G36*
X86400000Y-75550000D02*
G01*
X86000000Y-75550000D01*
X86000000Y-75950000D01*
X86400000Y-75950000D01*
X86400000Y-75550000D01*
G37*
G36*
X86400000Y-76750000D02*
G01*
X86000000Y-76750000D01*
X86000000Y-77150000D01*
X86400000Y-77150000D01*
X86400000Y-76750000D01*
G37*
G36*
X86400000Y-77150000D02*
G01*
X86000000Y-77150000D01*
X86000000Y-77550000D01*
X86400000Y-77550000D01*
X86400000Y-77150000D01*
G37*
G36*
X86400000Y-77550000D02*
G01*
X86000000Y-77550000D01*
X86000000Y-77950000D01*
X86400000Y-77950000D01*
X86400000Y-77550000D01*
G37*
G36*
X86400000Y-77950000D02*
G01*
X86000000Y-77950000D01*
X86000000Y-78350000D01*
X86400000Y-78350000D01*
X86400000Y-77950000D01*
G37*
G36*
X86400000Y-78750000D02*
G01*
X86000000Y-78750000D01*
X86000000Y-79150000D01*
X86400000Y-79150000D01*
X86400000Y-78750000D01*
G37*
G36*
X86400000Y-79150000D02*
G01*
X86000000Y-79150000D01*
X86000000Y-79550000D01*
X86400000Y-79550000D01*
X86400000Y-79150000D01*
G37*
G36*
X86400000Y-79950000D02*
G01*
X86000000Y-79950000D01*
X86000000Y-80350000D01*
X86400000Y-80350000D01*
X86400000Y-79950000D01*
G37*
G36*
X86400000Y-80750000D02*
G01*
X86000000Y-80750000D01*
X86000000Y-81150000D01*
X86400000Y-81150000D01*
X86400000Y-80750000D01*
G37*
G36*
X86400000Y-81150000D02*
G01*
X86000000Y-81150000D01*
X86000000Y-81550000D01*
X86400000Y-81550000D01*
X86400000Y-81150000D01*
G37*
G36*
X86400000Y-81550000D02*
G01*
X86000000Y-81550000D01*
X86000000Y-81950000D01*
X86400000Y-81950000D01*
X86400000Y-81550000D01*
G37*
G36*
X86400000Y-82350000D02*
G01*
X86000000Y-82350000D01*
X86000000Y-82750000D01*
X86400000Y-82750000D01*
X86400000Y-82350000D01*
G37*
G36*
X86800000Y-69550000D02*
G01*
X86400000Y-69550000D01*
X86400000Y-69950000D01*
X86800000Y-69950000D01*
X86800000Y-69550000D01*
G37*
G36*
X86800000Y-71950000D02*
G01*
X86400000Y-71950000D01*
X86400000Y-72350000D01*
X86800000Y-72350000D01*
X86800000Y-71950000D01*
G37*
G36*
X86800000Y-74350000D02*
G01*
X86400000Y-74350000D01*
X86400000Y-74750000D01*
X86800000Y-74750000D01*
X86800000Y-74350000D01*
G37*
G36*
X86800000Y-75150000D02*
G01*
X86400000Y-75150000D01*
X86400000Y-75550000D01*
X86800000Y-75550000D01*
X86800000Y-75150000D01*
G37*
G36*
X86800000Y-75550000D02*
G01*
X86400000Y-75550000D01*
X86400000Y-75950000D01*
X86800000Y-75950000D01*
X86800000Y-75550000D01*
G37*
G36*
X86800000Y-76350000D02*
G01*
X86400000Y-76350000D01*
X86400000Y-76750000D01*
X86800000Y-76750000D01*
X86800000Y-76350000D01*
G37*
G36*
X86800000Y-76750000D02*
G01*
X86400000Y-76750000D01*
X86400000Y-77150000D01*
X86800000Y-77150000D01*
X86800000Y-76750000D01*
G37*
G36*
X86800000Y-77150000D02*
G01*
X86400000Y-77150000D01*
X86400000Y-77550000D01*
X86800000Y-77550000D01*
X86800000Y-77150000D01*
G37*
G36*
X86800000Y-78350000D02*
G01*
X86400000Y-78350000D01*
X86400000Y-78750000D01*
X86800000Y-78750000D01*
X86800000Y-78350000D01*
G37*
G36*
X86800000Y-79150000D02*
G01*
X86400000Y-79150000D01*
X86400000Y-79550000D01*
X86800000Y-79550000D01*
X86800000Y-79150000D01*
G37*
G36*
X86800000Y-79950000D02*
G01*
X86400000Y-79950000D01*
X86400000Y-80350000D01*
X86800000Y-80350000D01*
X86800000Y-79950000D01*
G37*
G36*
X86800000Y-82350000D02*
G01*
X86400000Y-82350000D01*
X86400000Y-82750000D01*
X86800000Y-82750000D01*
X86800000Y-82350000D01*
G37*
G36*
X87200000Y-69550000D02*
G01*
X86800000Y-69550000D01*
X86800000Y-69950000D01*
X87200000Y-69950000D01*
X87200000Y-69550000D01*
G37*
G36*
X87200000Y-69950000D02*
G01*
X86800000Y-69950000D01*
X86800000Y-70350000D01*
X87200000Y-70350000D01*
X87200000Y-69950000D01*
G37*
G36*
X87200000Y-70350000D02*
G01*
X86800000Y-70350000D01*
X86800000Y-70750000D01*
X87200000Y-70750000D01*
X87200000Y-70350000D01*
G37*
G36*
X87200000Y-70750000D02*
G01*
X86800000Y-70750000D01*
X86800000Y-71150000D01*
X87200000Y-71150000D01*
X87200000Y-70750000D01*
G37*
G36*
X87200000Y-71150000D02*
G01*
X86800000Y-71150000D01*
X86800000Y-71550000D01*
X87200000Y-71550000D01*
X87200000Y-71150000D01*
G37*
G36*
X87200000Y-71550000D02*
G01*
X86800000Y-71550000D01*
X86800000Y-71950000D01*
X87200000Y-71950000D01*
X87200000Y-71550000D01*
G37*
G36*
X87200000Y-71950000D02*
G01*
X86800000Y-71950000D01*
X86800000Y-72350000D01*
X87200000Y-72350000D01*
X87200000Y-71950000D01*
G37*
G36*
X87200000Y-72750000D02*
G01*
X86800000Y-72750000D01*
X86800000Y-73150000D01*
X87200000Y-73150000D01*
X87200000Y-72750000D01*
G37*
G36*
X87200000Y-75150000D02*
G01*
X86800000Y-75150000D01*
X86800000Y-75550000D01*
X87200000Y-75550000D01*
X87200000Y-75150000D01*
G37*
G36*
X87200000Y-75950000D02*
G01*
X86800000Y-75950000D01*
X86800000Y-76350000D01*
X87200000Y-76350000D01*
X87200000Y-75950000D01*
G37*
G36*
X87200000Y-77150000D02*
G01*
X86800000Y-77150000D01*
X86800000Y-77550000D01*
X87200000Y-77550000D01*
X87200000Y-77150000D01*
G37*
G36*
X87200000Y-77550000D02*
G01*
X86800000Y-77550000D01*
X86800000Y-77950000D01*
X87200000Y-77950000D01*
X87200000Y-77550000D01*
G37*
G36*
X87200000Y-78350000D02*
G01*
X86800000Y-78350000D01*
X86800000Y-78750000D01*
X87200000Y-78750000D01*
X87200000Y-78350000D01*
G37*
G36*
X87200000Y-79150000D02*
G01*
X86800000Y-79150000D01*
X86800000Y-79550000D01*
X87200000Y-79550000D01*
X87200000Y-79150000D01*
G37*
G36*
X87200000Y-79950000D02*
G01*
X86800000Y-79950000D01*
X86800000Y-80350000D01*
X87200000Y-80350000D01*
X87200000Y-79950000D01*
G37*
G36*
X87200000Y-80350000D02*
G01*
X86800000Y-80350000D01*
X86800000Y-80750000D01*
X87200000Y-80750000D01*
X87200000Y-80350000D01*
G37*
G36*
X87200000Y-80750000D02*
G01*
X86800000Y-80750000D01*
X86800000Y-81150000D01*
X87200000Y-81150000D01*
X87200000Y-80750000D01*
G37*
G36*
X87200000Y-81150000D02*
G01*
X86800000Y-81150000D01*
X86800000Y-81550000D01*
X87200000Y-81550000D01*
X87200000Y-81150000D01*
G37*
G36*
X87200000Y-81550000D02*
G01*
X86800000Y-81550000D01*
X86800000Y-81950000D01*
X87200000Y-81950000D01*
X87200000Y-81550000D01*
G37*
G36*
X87200000Y-81950000D02*
G01*
X86800000Y-81950000D01*
X86800000Y-82350000D01*
X87200000Y-82350000D01*
X87200000Y-81950000D01*
G37*
G36*
X87200000Y-82350000D02*
G01*
X86800000Y-82350000D01*
X86800000Y-82750000D01*
X87200000Y-82750000D01*
X87200000Y-82350000D01*
G37*
%TO.C,LED1*%
X121000000Y-61000000D02*
X121500000Y-60500000D01*
X121500000Y-60500000D02*
X121500000Y-61000000D01*
X121500000Y-61000000D02*
X121000000Y-61000000D01*
%TO.C,LED2*%
X121500000Y-81000000D02*
X122000000Y-80500000D01*
X122000000Y-80500000D02*
X122000000Y-81000000D01*
X122000000Y-81000000D02*
X121500000Y-81000000D01*
%TD*%
M02*
