M48
; DRILL file {KiCad 9.0.6} date 2026-03-03T22:12:47+0900
; FORMAT={-:-/ absolute / metric / decimal}
; #@! TF.CreationDate,2026-03-03T22:12:47+09:00
; #@! TF.GenerationSoftware,Kicad,Pcbnew,9.0.6
; #@! TF.FileFunction,Plated,1,2,PTH
FMAT,2
METRIC
; #@! TA.AperFunction,Plated,PTH,ViaDrill
T1C0.300
; #@! TA.AperFunction,Plated,PTH,ComponentDrill
T2C0.800
; #@! TA.AperFunction,Plated,PTH,ComponentDrill
T3C1.000
; #@! TA.AperFunction,Plated,PTH,ComponentDrill
T4C1.100
; #@! TA.AperFunction,Plated,PTH,ComponentDrill
T5C1.600
; #@! TA.AperFunction,Plated,PTH,ComponentDrill
T6C2.000
%
G90
G05
T1
X45.6Y-31.8
X58.951Y-42.1
X59.495Y-38.945
X59.5Y-31.0
X64.0Y-39.0
X68.8Y-42.0
X73.0Y-51.46
X86.4Y-42.0
X101.0Y-42.0
X110.2Y-58.3
X111.5Y-78.5
X122.5Y-59.5
X124.0Y-58.5
T2
X32.0Y-71.5
X32.0Y-73.5
X32.0Y-75.5
X32.0Y-77.5
X69.78Y-28.4
X77.4Y-28.4
X81.19Y-28.4
X88.81Y-28.4
T3
X32.3Y-30.0
X32.3Y-45.24
X34.84Y-30.0
X34.84Y-45.24
X37.38Y-30.0
X37.38Y-45.24
X39.92Y-30.0
X39.92Y-45.24
X42.46Y-30.0
X42.46Y-45.24
X45.0Y-30.0
X45.0Y-45.24
X47.54Y-30.0
X47.54Y-45.24
X50.08Y-30.0
X50.08Y-45.24
X52.62Y-30.0
X52.62Y-32.54
X52.62Y-35.08
X52.62Y-37.62
X52.62Y-40.16
X52.62Y-42.7
X52.62Y-45.24
X70.3Y-24.0
X72.84Y-24.0
X75.38Y-24.0
X77.92Y-24.0
X80.46Y-24.0
X83.0Y-24.0
X85.54Y-24.0
X88.08Y-24.0
X111.25Y-33.0
X111.25Y-35.5
X111.25Y-38.0
X125.75Y-31.7
X125.75Y-34.3
X125.75Y-36.8
X125.75Y-39.3
T4
X37.719Y-50.681
X39.719Y-50.681
X41.719Y-50.681
X46.319Y-51.281
X47.719Y-52.681
X48.319Y-57.281
X48.319Y-59.281
X48.319Y-61.281
T5
X38.25Y-75.5
X43.75Y-75.5
T6
G00X118.5Y-29.9
M15
G01X119.0Y-29.9
M16
G05
G00X118.5Y-41.1
M15
G01X119.0Y-41.1
M16
G05
M30
