%TF.GenerationSoftware,KiCad,Pcbnew,9.0.6*%
%TF.CreationDate,2026-03-03T22:12:38+09:00*%
%TF.ProjectId,2026badge,32303236-6261-4646-9765-2e6b69636164,rev?*%
%TF.SameCoordinates,Original*%
%TF.FileFunction,Copper,L2,Bot*%
%TF.FilePolarity,Positive*%
%FSLAX46Y46*%
G04 Gerber Fmt 4.6, Leading zero omitted, Abs format (unit mm)*
G04 Created by KiCad (PCBNEW 9.0.6) date 2026-03-03 22:12:38*
%MOMM*%
%LPD*%
G01*
G04 APERTURE LIST*
%TA.AperFunction,ComponentPad*%
%ADD10C,1.600000*%
%TD*%
%TA.AperFunction,ComponentPad*%
%ADD11C,2.000000*%
%TD*%
%TA.AperFunction,ComponentPad*%
%ADD12R,2.000000X2.000000*%
%TD*%
%TA.AperFunction,ComponentPad*%
%ADD13R,3.000000X2.500000*%
%TD*%
%TA.AperFunction,ComponentPad*%
%ADD14R,1.350000X1.350000*%
%TD*%
%TA.AperFunction,ComponentPad*%
%ADD15C,1.350000*%
%TD*%
%TA.AperFunction,ComponentPad*%
%ADD16C,2.540000*%
%TD*%
%TA.AperFunction,ComponentPad*%
%ADD17O,1.700000X1.700000*%
%TD*%
%TA.AperFunction,SMDPad,CuDef*%
%ADD18R,2.550000X2.500000*%
%TD*%
%TA.AperFunction,ComponentPad*%
%ADD19R,1.700000X1.700000*%
%TD*%
%TA.AperFunction,ComponentPad*%
%ADD20C,1.700000*%
%TD*%
%TA.AperFunction,ComponentPad*%
%ADD21C,1.524000*%
%TD*%
%TA.AperFunction,SMDPad,CuDef*%
%ADD22R,1.700000X1.000000*%
%TD*%
%TA.AperFunction,ViaPad*%
%ADD23C,0.600000*%
%TD*%
%TA.AperFunction,Conductor*%
%ADD24C,0.200000*%
%TD*%
%TA.AperFunction,Conductor*%
%ADD25C,0.600000*%
%TD*%
G04 APERTURE END LIST*
D10*
%TO.P,R2,2*%
%TO.N,ENC_LED_2*%
X81190000Y-28400000D03*
%TO.P,R2,1*%
%TO.N,Net-(R2-Pad1)*%
X88810000Y-28400000D03*
%TD*%
D11*
%TO.P,SW2,1,1*%
%TO.N,GND*%
X125750000Y-39300000D03*
%TO.P,SW2,2,2*%
%TO.N,ENC_BTN*%
X125750000Y-36800000D03*
%TO.P,SW2,3,3*%
%TO.N,Net-(R1-Pad1)*%
X125750000Y-34300000D03*
%TO.P,SW2,4,4*%
%TO.N,Net-(R2-Pad1)*%
X125750000Y-31700000D03*
D12*
%TO.P,SW2,A,A*%
%TO.N,ROT_A*%
X111250000Y-33000000D03*
D11*
%TO.P,SW2,B,B*%
%TO.N,ROT_B*%
X111250000Y-38000000D03*
%TO.P,SW2,C,C*%
%TO.N,GND*%
X111250000Y-35500000D03*
D13*
%TO.P,SW2,MP*%
%TO.N,N/C*%
X118750000Y-29900000D03*
X118750000Y-41100000D03*
%TD*%
D10*
%TO.P,R1,1*%
%TO.N,Net-(R1-Pad1)*%
X77400000Y-28400000D03*
%TO.P,R1,2*%
%TO.N,ENC_LED_1*%
X69780000Y-28400000D03*
%TD*%
D14*
%TO.P,J2,1,Pin_1*%
%TO.N,GND*%
X32000000Y-71500000D03*
D15*
%TO.P,J2,2,Pin_2*%
%TO.N,VCC*%
X32000000Y-73500000D03*
%TO.P,J2,3,Pin_3*%
%TO.N,/SDA1*%
X32000000Y-75500000D03*
%TO.P,J2,4,Pin_4*%
%TO.N,/SCL1*%
X32000000Y-77500000D03*
%TD*%
D16*
%TO.P,BZ1,1,+*%
%TO.N,BUZZER*%
X38250000Y-75500000D03*
%TO.P,BZ1,2,-*%
%TO.N,GND*%
X43750000Y-75500000D03*
%TD*%
D17*
%TO.P,U2,1,0*%
%TO.N,SW_2*%
X32300000Y-30000000D03*
%TO.P,U2,2,1*%
%TO.N,SW_1*%
X34840000Y-30000000D03*
%TO.P,U2,3,2*%
%TO.N,/SDA1*%
X37380000Y-30000000D03*
%TO.P,U2,4,3*%
%TO.N,/SCL1*%
X39920000Y-30000000D03*
%TO.P,U2,5,4*%
%TO.N,SK6812MINI-E*%
X42460000Y-30000000D03*
%TO.P,U2,6,5*%
%TO.N,ENC_BTN*%
X45000000Y-30000000D03*
%TO.P,U2,7,6*%
%TO.N,ENC_LED_1*%
X47540000Y-30000000D03*
%TO.P,U2,8,7*%
%TO.N,ENC_LED_2*%
X50080000Y-30000000D03*
%TO.P,U2,9,8*%
%TO.N,BUZZER*%
X52620000Y-30000000D03*
%TO.P,U2,10,9*%
%TO.N,RES*%
X52620000Y-32540000D03*
%TO.P,U2,11,10*%
%TO.N,SCL*%
X52620000Y-35080000D03*
%TO.P,U2,12,11*%
%TO.N,SDA*%
X52620000Y-37620000D03*
%TO.P,U2,13,12*%
%TO.N,DC*%
X52620000Y-40160000D03*
%TO.P,U2,14,13*%
%TO.N,CS*%
X52620000Y-42700000D03*
%TO.P,U2,15,14*%
%TO.N,BL*%
X52620000Y-45240000D03*
%TO.P,U2,16,15*%
%TO.N,unconnected-(U2-15-Pad16)*%
X50080000Y-45240000D03*
%TO.P,U2,17,26*%
%TO.N,ROT_A*%
X47540000Y-45240000D03*
%TO.P,U2,18,27*%
%TO.N,ROT_B*%
X45000000Y-45240000D03*
%TO.P,U2,19,28*%
%TO.N,VR_Y*%
X42460000Y-45240000D03*
%TO.P,U2,20,29*%
%TO.N,VR_X*%
X39920000Y-45240000D03*
%TO.P,U2,21,3V3*%
%TO.N,3V3*%
X37380000Y-45240000D03*
%TO.P,U2,22,GND*%
%TO.N,GND*%
X34840000Y-45240000D03*
%TO.P,U2,23,5V*%
%TO.N,VCC*%
X32300000Y-45240000D03*
%TD*%
D18*
%TO.P,SW1,1,1*%
%TO.N,SW_1*%
X111415000Y-71460000D03*
%TO.P,SW1,2,2*%
%TO.N,GND*%
X124342000Y-68920000D03*
%TD*%
%TO.P,SW3,1,1*%
%TO.N,SW_2*%
X111415000Y-51460000D03*
%TO.P,SW3,2,2*%
%TO.N,GND*%
X124342000Y-48920000D03*
%TD*%
D19*
%TO.P,J1,1,Pin_1*%
%TO.N,GND*%
X70300000Y-24000000D03*
D20*
%TO.P,J1,2,Pin_2*%
%TO.N,3V3*%
X72840000Y-24000000D03*
%TO.P,J1,3,Pin_3*%
%TO.N,SCL*%
X75380000Y-24000000D03*
%TO.P,J1,4,Pin_4*%
%TO.N,SDA*%
X77920000Y-24000000D03*
%TO.P,J1,5,Pin_5*%
%TO.N,RES*%
X80460000Y-24000000D03*
%TO.P,J1,6,Pin_6*%
%TO.N,DC*%
X83000000Y-24000000D03*
%TO.P,J1,7,Pin_7*%
%TO.N,CS*%
X85540000Y-24000000D03*
%TO.P,J1,8,Pin_8*%
%TO.N,BL*%
X88080000Y-24000000D03*
%TD*%
D21*
%TO.P,U3,1,VR1-1*%
%TO.N,GND*%
X41719000Y-50681000D03*
%TO.P,U3,2,VR1-2*%
%TO.N,VR_X*%
X39719000Y-50681000D03*
%TO.P,U3,3,VR1-3*%
%TO.N,3V3*%
X37719000Y-50681000D03*
%TO.P,U3,4,VR2-1*%
X48319000Y-61281000D03*
%TO.P,U3,5,VR2-2*%
%TO.N,VR_Y*%
X48319000Y-59281000D03*
%TO.P,U3,6,VR2-3*%
%TO.N,GND*%
X48319000Y-57281000D03*
%TO.P,U3,7,SW-a*%
%TO.N,unconnected-(U3-SW-a-Pad7)*%
X46319000Y-51281000D03*
%TO.P,U3,8,SW-b*%
%TO.N,unconnected-(U3-SW-b-Pad8)*%
X47719000Y-52681000D03*
%TD*%
D22*
%TO.P,LED1,1,VDD*%
%TO.N,3V3*%
X114750000Y-58300000D03*
%TO.P,LED1,2,DOUT*%
%TO.N,Net-(LED1-DOUT)*%
X114750000Y-59700000D03*
%TO.P,LED1,3,VSS*%
%TO.N,GND*%
X120250000Y-59700000D03*
%TO.P,LED1,4,DIN*%
%TO.N,SK6812MINI-E*%
X120250000Y-58300000D03*
%TD*%
%TO.P,LED2,1,VDD*%
%TO.N,3V3*%
X115250000Y-78300000D03*
%TO.P,LED2,2,DOUT*%
%TO.N,unconnected-(LED2-DOUT-Pad2)*%
X115250000Y-79700000D03*
%TO.P,LED2,3,VSS*%
%TO.N,GND*%
X120750000Y-79700000D03*
%TO.P,LED2,4,DIN*%
%TO.N,Net-(LED1-DOUT)*%
X120750000Y-78300000D03*
%TD*%
D23*
%TO.N,/SCL1*%
X58950987Y-42100000D03*
X45600000Y-31800000D03*
%TO.N,ENC_BTN*%
X101000000Y-42000000D03*
X68800000Y-42000000D03*
X86400000Y-42000000D03*
%TO.N,GND*%
X124000000Y-58500000D03*
X122500000Y-59500000D03*
%TO.N,3V3*%
X111500000Y-78500000D03*
X110200000Y-58300000D03*
%TO.N,SW_2*%
X59500000Y-31000000D03*
X59494616Y-38944616D03*
X73000000Y-51460000D03*
X64000000Y-39000000D03*
%TD*%
D24*
%TO.N,SCL*%
X52620000Y-35080000D02*
X65120000Y-35080000D01*
X65120000Y-35080000D02*
X75380000Y-24820000D01*
X75380000Y-24820000D02*
X75380000Y-24000000D01*
%TO.N,SK6812MINI-E*%
X40908000Y-28448000D02*
X34764240Y-28448000D01*
X40802000Y-81552000D02*
X120850000Y-81552000D01*
X33689000Y-29523240D02*
X33689000Y-30476760D01*
X31149000Y-33016760D02*
X31149000Y-68750000D01*
X120850000Y-81552000D02*
X125918000Y-76484000D01*
X33689000Y-30476760D02*
X31149000Y-33016760D01*
X34400000Y-75150000D02*
X40802000Y-81552000D01*
X34764240Y-28448000D02*
X33689000Y-29523240D01*
X42460000Y-30000000D02*
X40908000Y-28448000D01*
X31149000Y-68750000D02*
X34300000Y-68750000D01*
X34300000Y-68750000D02*
X34400000Y-68650000D01*
X34400000Y-68650000D02*
X34400000Y-75150000D01*
X125918000Y-76484000D02*
X125918000Y-61792900D01*
X125918000Y-61792900D02*
X122425100Y-58300000D01*
X122425100Y-58300000D02*
X120250000Y-58300000D01*
%TO.N,GND*%
X125750000Y-39300000D02*
X119450000Y-33000000D01*
X119450000Y-33000000D02*
X114000000Y-33000000D01*
%TO.N,SW_2*%
X73000000Y-51460000D02*
X111415000Y-51460000D01*
%TO.N,RES*%
X73661900Y-25151000D02*
X74229000Y-24583900D01*
X74229000Y-24583900D02*
X74229000Y-23523240D01*
X66150000Y-32540000D02*
X66150000Y-29700000D01*
X74903240Y-22849000D02*
X79309000Y-22849000D01*
X66150000Y-29700000D02*
X70699000Y-25151000D01*
X70699000Y-25151000D02*
X73661900Y-25151000D01*
X74229000Y-23523240D02*
X74903240Y-22849000D01*
X79309000Y-22849000D02*
X80460000Y-24000000D01*
X52620000Y-32540000D02*
X66150000Y-32540000D01*
%TO.N,DC*%
X76900000Y-30100000D02*
X79400000Y-30100000D01*
X66840000Y-40160000D02*
X76900000Y-30100000D01*
X79400000Y-30100000D02*
X79400000Y-27600000D01*
X79400000Y-27600000D02*
X83000000Y-24000000D01*
%TO.N,CS*%
X78890000Y-30650000D02*
X85500000Y-30650000D01*
X66840000Y-42700000D02*
X78890000Y-30650000D01*
X85500000Y-30300000D02*
X85540000Y-30260000D01*
X85500000Y-30650000D02*
X85500000Y-30300000D01*
X85540000Y-30260000D02*
X85540000Y-24000000D01*
%TO.N,BL*%
X93150000Y-24300000D02*
X92850000Y-24000000D01*
X93150000Y-32450000D02*
X93150000Y-24300000D01*
X66840000Y-45240000D02*
X79630000Y-32450000D01*
X79630000Y-32450000D02*
X93150000Y-32450000D01*
X92850000Y-24000000D02*
X88080000Y-24000000D01*
%TO.N,GND*%
X124342000Y-48920000D02*
X124342000Y-40708000D01*
X124342000Y-40708000D02*
X125750000Y-39300000D01*
%TO.N,VR_Y*%
X42460000Y-45240000D02*
X43310000Y-46090000D01*
X43310000Y-54272000D02*
X48319000Y-59281000D01*
X43310000Y-46090000D02*
X43310000Y-54272000D01*
%TO.N,VR_X*%
X39920000Y-45240000D02*
X39920000Y-50480000D01*
X39920000Y-50480000D02*
X39719000Y-50681000D01*
%TO.N,SW_2*%
X59750000Y-39000000D02*
X64000000Y-39000000D01*
X59494616Y-38944616D02*
X59694616Y-38944616D01*
X59694616Y-38944616D02*
X59750000Y-39000000D01*
%TO.N,/SCL1*%
X45600000Y-34767760D02*
X52143240Y-41311000D01*
X54111000Y-41311000D02*
X54900000Y-42100000D01*
X52143240Y-41311000D02*
X54111000Y-41311000D01*
X54900000Y-42100000D02*
X58950987Y-42100000D01*
X45600000Y-31800000D02*
X45600000Y-34767760D01*
%TO.N,/SDA1*%
X32000000Y-75500000D02*
X30748000Y-74248000D01*
X30748000Y-74248000D02*
X30748000Y-29924240D01*
X60101000Y-30751057D02*
X60101000Y-31248943D01*
X30748000Y-29924240D02*
X33026240Y-27646000D01*
X56995943Y-27646000D02*
X60101000Y-30751057D01*
X33026240Y-27646000D02*
X56995943Y-27646000D01*
X43611000Y-29761240D02*
X43611000Y-30476760D01*
X56499057Y-28849000D02*
X44523240Y-28849000D01*
X59748943Y-31601000D02*
X59251057Y-31601000D01*
X60101000Y-31248943D02*
X59748943Y-31601000D01*
X44523240Y-28849000D02*
X43611000Y-29761240D01*
X59251057Y-31601000D02*
X56499057Y-28849000D01*
X43611000Y-30476760D02*
X42936760Y-31151000D01*
X42936760Y-31151000D02*
X39098100Y-31151000D01*
X39098100Y-31151000D02*
X37663550Y-29716450D01*
%TO.N,ENC_BTN*%
X86400000Y-42000000D02*
X101000000Y-42000000D01*
X101000000Y-42000000D02*
X101200000Y-41800000D01*
X66949000Y-43851000D02*
X68800000Y-42000000D01*
X45000000Y-30000000D02*
X45000000Y-36707760D01*
X45000000Y-36707760D02*
X52143240Y-43851000D01*
X52143240Y-43851000D02*
X66949000Y-43851000D01*
%TO.N,GND*%
X122500000Y-59500000D02*
X122300000Y-59700000D01*
X122279000Y-78723000D02*
X122279000Y-70983000D01*
D25*
X95500000Y-21000000D02*
X104000000Y-29500000D01*
D24*
X122279000Y-70983000D02*
X124342000Y-68920000D01*
X124342000Y-68920000D02*
X124342000Y-68842000D01*
D25*
X70000000Y-21000000D02*
X95500000Y-21000000D01*
D24*
X120750000Y-79700000D02*
X121302000Y-79700000D01*
%TO.N,Net-(R1-Pad1)*%
X126551000Y-34801000D02*
X125250000Y-33500000D01*
D25*
%TO.N,GND*%
X104000000Y-29500000D02*
X111500000Y-29500000D01*
D24*
X49382000Y-58344000D02*
X48319000Y-57281000D01*
D25*
X114000000Y-32000000D02*
X114000000Y-33000000D01*
D24*
X49382000Y-69868000D02*
X49382000Y-58344000D01*
D25*
X70000000Y-23700000D02*
X70000000Y-21000000D01*
D24*
X124342000Y-68842000D02*
X120250000Y-64750000D01*
D25*
X111000000Y-36000000D02*
X110750000Y-36000000D01*
D24*
X120250000Y-64750000D02*
X120250000Y-59700000D01*
X124881000Y-57619000D02*
X124000000Y-58500000D01*
X122300000Y-59700000D02*
X120250000Y-59700000D01*
D25*
X70300000Y-24000000D02*
X70000000Y-23700000D01*
X114000000Y-33000000D02*
X111000000Y-36000000D01*
D24*
X43750000Y-75500000D02*
X49382000Y-69868000D01*
X124342000Y-48920000D02*
X124881000Y-49459000D01*
D25*
X111500000Y-29500000D02*
X114000000Y-32000000D01*
D24*
X124881000Y-49459000D02*
X124881000Y-57619000D01*
X121302000Y-79700000D02*
X122279000Y-78723000D01*
D25*
%TO.N,3V3*%
X37719000Y-50681000D02*
X48319000Y-61281000D01*
X37719000Y-50681000D02*
X37719000Y-45579000D01*
X111500000Y-78500000D02*
X115050000Y-78500000D01*
X114750000Y-58300000D02*
X110200000Y-58300000D01*
X37719000Y-45579000D02*
X37380000Y-45240000D01*
X114728000Y-78300000D02*
X115250000Y-78300000D01*
X115050000Y-78500000D02*
X115250000Y-78300000D01*
D24*
%TO.N,Net-(LED1-DOUT)*%
X120901000Y-78149000D02*
X120901000Y-71398709D01*
X120901000Y-71398709D02*
X114750000Y-65247709D01*
X114750000Y-65247709D02*
X114750000Y-59700000D01*
X120750000Y-78300000D02*
X120901000Y-78149000D01*
%TO.N,SDA*%
X52620000Y-37620000D02*
X64300000Y-37620000D01*
X64300000Y-37620000D02*
X77920000Y-24000000D01*
%TO.N,GND*%
X125250000Y-38500000D02*
X125500000Y-38500000D01*
%TO.N,ROT_A*%
X110750000Y-33500000D02*
X97659000Y-46591000D01*
X97659000Y-46591000D02*
X48891000Y-46591000D01*
X48891000Y-46591000D02*
X47540000Y-45240000D01*
%TO.N,ROT_B*%
X46752000Y-46992000D02*
X45000000Y-45240000D01*
X110750000Y-38500000D02*
X102258000Y-46992000D01*
X102258000Y-46992000D02*
X46752000Y-46992000D01*
%TO.N,SW_1*%
X34840000Y-30000000D02*
X33689000Y-31151000D01*
X35316760Y-74788490D02*
X41679270Y-81151000D01*
X35316760Y-48000000D02*
X35316760Y-74788490D01*
X41679270Y-81151000D02*
X101724000Y-81151000D01*
X101724000Y-81151000D02*
X111415000Y-71460000D01*
X33689000Y-46372240D02*
X35316760Y-48000000D01*
X33689000Y-31151000D02*
X33689000Y-46372240D01*
%TO.N,SW_2*%
X34253000Y-28047000D02*
X56547000Y-28047000D01*
X32300000Y-30000000D02*
X34253000Y-28047000D01*
X56547000Y-28047000D02*
X59500000Y-31000000D01*
%TO.N,CS*%
X52620000Y-42700000D02*
X66840000Y-42700000D01*
%TO.N,DC*%
X52620000Y-40160000D02*
X66840000Y-40160000D01*
%TO.N,BL*%
X52620000Y-45240000D02*
X66840000Y-45240000D01*
%TO.N,RES*%
X66150000Y-32540000D02*
X66165760Y-32540000D01*
%TO.N,BUZZER*%
X52620000Y-30000000D02*
X52500000Y-30000000D01*
%TD*%
M02*
