%TF.GenerationSoftware,KiCad,Pcbnew,9.0.6*%
%TF.CreationDate,2026-04-08T08:26:35+09:00*%
%TF.ProjectId,wwgt2026badge,77776774-3230-4323-9662-616467652e6b,rev?*%
%TF.SameCoordinates,Original*%
%TF.FileFunction,Profile,NP*%
%FSLAX46Y46*%
G04 Gerber Fmt 4.6, Leading zero omitted, Abs format (unit mm)*
G04 Created by KiCad (PCBNEW 9.0.6) date 2026-04-08 08:26:35*
%MOMM*%
%LPD*%
G01*
G04 APERTURE LIST*
%TA.AperFunction,Profile*%
%ADD10C,0.050000*%
%TD*%
%TA.AperFunction,Profile*%
%ADD11C,0.120000*%
%TD*%
G04 APERTURE END LIST*
D10*
X130000000Y-87000000D02*
G75*
G02*
X127000000Y-90000000I-3000000J0D01*
G01*
X30000000Y-23000000D02*
G75*
G02*
X33000000Y-20000000I3000000J0D01*
G01*
X130000000Y-23000000D02*
X130000000Y-87000000D01*
X127000000Y-20000000D02*
G75*
G02*
X130000000Y-23000000I0J-3000000D01*
G01*
X127000000Y-90000000D02*
X33000000Y-90000000D01*
X33000000Y-20000000D02*
X127000000Y-20000000D01*
X33000000Y-90000000D02*
G75*
G02*
X30000000Y-87000000I0J3000000D01*
G01*
X30000000Y-87000000D02*
X30000000Y-23000000D01*
%TO.C,H5*%
X44500000Y-22500000D02*
X55500000Y-22500000D01*
X55500000Y-25500000D02*
X44500000Y-25500000D01*
X44500000Y-25500000D02*
G75*
G02*
X44500000Y-22500000I0J1500000D01*
G01*
X55500000Y-22500000D02*
G75*
G02*
X55500000Y-25500000I0J-1500000D01*
G01*
%TO.C,H6*%
X104500000Y-22500000D02*
X115500000Y-22500000D01*
X115500000Y-25500000D02*
X104500000Y-25500000D01*
X104500000Y-25500000D02*
G75*
G02*
X104500000Y-22500000I0J1500000D01*
G01*
X115500000Y-22500000D02*
G75*
G02*
X115500000Y-25500000I0J-1500000D01*
G01*
D11*
%TO.C,LED1*%
X115700000Y-57450000D02*
X119300000Y-57450000D01*
X115700000Y-60550000D02*
X115700000Y-57450000D01*
X119300000Y-57450000D02*
X119300000Y-60550000D01*
X119300000Y-60550000D02*
X115700000Y-60550000D01*
%TO.C,LED2*%
X116200000Y-77450000D02*
X119800000Y-77450000D01*
X116200000Y-80550000D02*
X116200000Y-77450000D01*
X119800000Y-77450000D02*
X119800000Y-80550000D01*
X119800000Y-80550000D02*
X116200000Y-80550000D01*
%TD*%
M02*
