%TF.GenerationSoftware,KiCad,Pcbnew,9.0.6*%
%TF.CreationDate,2026-04-21T21:37:54+09:00*%
%TF.ProjectId,wwgt2026badge,77776774-3230-4323-9662-616467652e6b,rev?*%
%TF.SameCoordinates,Original*%
%TF.FileFunction,Copper,L2,Bot*%
%TF.FilePolarity,Positive*%
%FSLAX46Y46*%
G04 Gerber Fmt 4.6, Leading zero omitted, Abs format (unit mm)*
G04 Created by KiCad (PCBNEW 9.0.6) date 2026-04-21 21:37:54*
%MOMM*%
%LPD*%
G01*
G04 APERTURE LIST*
%TA.AperFunction,ComponentPad*%
%ADD10C,1.600000*%
%TD*%
%TA.AperFunction,ComponentPad*%
%ADD11C,2.540000*%
%TD*%
%TA.AperFunction,ComponentPad*%
%ADD12O,1.700000X1.700000*%
%TD*%
%TA.AperFunction,ComponentPad*%
%ADD13C,1.524000*%
%TD*%
%TA.AperFunction,ComponentPad*%
%ADD14R,2.000000X2.000000*%
%TD*%
%TA.AperFunction,ComponentPad*%
%ADD15C,2.000000*%
%TD*%
%TA.AperFunction,ComponentPad*%
%ADD16R,3.000000X2.500000*%
%TD*%
%TA.AperFunction,SMDPad,CuDef*%
%ADD17R,2.550000X2.500000*%
%TD*%
%TA.AperFunction,ComponentPad*%
%ADD18R,1.350000X1.350000*%
%TD*%
%TA.AperFunction,ComponentPad*%
%ADD19C,1.350000*%
%TD*%
%TA.AperFunction,ComponentPad*%
%ADD20R,1.700000X1.700000*%
%TD*%
%TA.AperFunction,ComponentPad*%
%ADD21C,1.700000*%
%TD*%
%TA.AperFunction,SMDPad,CuDef*%
%ADD22R,1.700000X1.000000*%
%TD*%
%TA.AperFunction,ViaPad*%
%ADD23C,0.600000*%
%TD*%
%TA.AperFunction,Conductor*%
%ADD24C,0.200000*%
%TD*%
%TA.AperFunction,Conductor*%
%ADD25C,0.600000*%
%TD*%
G04 APERTURE END LIST*
D10*
%TO.P,R2,1*%
%TO.N,Net-(SW2-LED2)*%
X88810000Y-28400000D03*
%TO.P,R2,2*%
%TO.N,ENC_LED_2*%
X81190000Y-28400000D03*
%TD*%
D11*
%TO.P,BZ1,1,+*%
%TO.N,BUZZER*%
X38250000Y-75500000D03*
%TO.P,BZ1,2,-*%
%TO.N,GND*%
X43750000Y-75500000D03*
%TD*%
D12*
%TO.P,U2,1,0*%
%TO.N,SW_2*%
X32300000Y-30000000D03*
%TO.P,U2,2,1*%
%TO.N,SW_1*%
X34840000Y-30000000D03*
%TO.P,U2,3,2*%
%TO.N,ROT_A*%
X37380000Y-30000000D03*
%TO.P,U2,4,3*%
%TO.N,ROT_B*%
X39920000Y-30000000D03*
%TO.P,U2,5,4*%
%TO.N,SK6812MINI-E*%
X42460000Y-30000000D03*
%TO.P,U2,6,5*%
%TO.N,ENC_BTN*%
X45000000Y-30000000D03*
%TO.P,U2,7,6*%
%TO.N,ENC_LED_1*%
X47540000Y-30000000D03*
%TO.P,U2,8,7*%
%TO.N,ENC_LED_2*%
X50080000Y-30000000D03*
%TO.P,U2,9,8*%
%TO.N,BUZZER*%
X52620000Y-30000000D03*
%TO.P,U2,10,9*%
%TO.N,RES*%
X52620000Y-32540000D03*
%TO.P,U2,11,10*%
%TO.N,SCL*%
X52620000Y-35080000D03*
%TO.P,U2,12,11*%
%TO.N,SDA*%
X52620000Y-37620000D03*
%TO.P,U2,13,12*%
%TO.N,DC*%
X52620000Y-40160000D03*
%TO.P,U2,14,13*%
%TO.N,CS*%
X52620000Y-42700000D03*
%TO.P,U2,15,14*%
%TO.N,BL*%
X52620000Y-45240000D03*
%TO.P,U2,16,15*%
%TO.N,unconnected-(U2-15-Pad16)*%
X50080000Y-45240000D03*
%TO.P,U2,17,26*%
%TO.N,/SDA1*%
X47540000Y-45240000D03*
%TO.P,U2,18,27*%
%TO.N,/SCL1*%
X45000000Y-45240000D03*
%TO.P,U2,19,28*%
%TO.N,VR_Y*%
X42460000Y-45240000D03*
%TO.P,U2,20,29*%
%TO.N,VR_X*%
X39920000Y-45240000D03*
%TO.P,U2,21,3V3*%
%TO.N,3V3*%
X37380000Y-45240000D03*
%TO.P,U2,22,GND*%
%TO.N,GND*%
X34840000Y-45240000D03*
%TO.P,U2,23,5V*%
%TO.N,VCC*%
X32300000Y-45240000D03*
%TD*%
D13*
%TO.P,SW2,1,GND*%
%TO.N,GND*%
X125750000Y-38500000D03*
%TO.P,SW2,2,LED1*%
%TO.N,Net-(SW2-LED1)*%
X125750000Y-36500000D03*
%TO.P,SW2,3,LED2*%
%TO.N,Net-(SW2-LED2)*%
X125750000Y-34500000D03*
%TO.P,SW2,4,BTN*%
%TO.N,ENC_BTN*%
X125750000Y-32500000D03*
D14*
%TO.P,SW2,A,ROT_A*%
%TO.N,ROT_A*%
X111250000Y-33000000D03*
D15*
%TO.P,SW2,B,ROT_B*%
%TO.N,ROT_B*%
X111250000Y-38000000D03*
%TO.P,SW2,C,GND*%
%TO.N,GND*%
X111250000Y-35500000D03*
D16*
%TO.P,SW2,MP*%
%TO.N,N/C*%
X118750000Y-29900000D03*
X118750000Y-41100000D03*
%TD*%
D17*
%TO.P,SW1,1,1*%
%TO.N,SW_1*%
X111415000Y-71460000D03*
%TO.P,SW1,2,2*%
%TO.N,GND*%
X124342000Y-68920000D03*
%TD*%
%TO.P,SW3,1,1*%
%TO.N,SW_2*%
X111415000Y-51460000D03*
%TO.P,SW3,2,2*%
%TO.N,GND*%
X124342000Y-48920000D03*
%TD*%
D10*
%TO.P,R1,1*%
%TO.N,Net-(SW2-LED1)*%
X77400000Y-28400000D03*
%TO.P,R1,2*%
%TO.N,ENC_LED_1*%
X69780000Y-28400000D03*
%TD*%
D18*
%TO.P,J2,1,Pin_1*%
%TO.N,GND*%
X40000000Y-34550000D03*
D19*
%TO.P,J2,2,Pin_2*%
%TO.N,VCC*%
X40000000Y-36550000D03*
%TO.P,J2,3,Pin_3*%
%TO.N,/SDA1*%
X40000000Y-38550000D03*
%TO.P,J2,4,Pin_4*%
%TO.N,/SCL1*%
X40000000Y-40550000D03*
%TD*%
D20*
%TO.P,J1,1,Pin_1*%
%TO.N,GND*%
X70300000Y-24000000D03*
D21*
%TO.P,J1,2,Pin_2*%
%TO.N,3V3*%
X72840000Y-24000000D03*
%TO.P,J1,3,Pin_3*%
%TO.N,SCL*%
X75380000Y-24000000D03*
%TO.P,J1,4,Pin_4*%
%TO.N,SDA*%
X77920000Y-24000000D03*
%TO.P,J1,5,Pin_5*%
%TO.N,RES*%
X80460000Y-24000000D03*
%TO.P,J1,6,Pin_6*%
%TO.N,DC*%
X83000000Y-24000000D03*
%TO.P,J1,7,Pin_7*%
%TO.N,CS*%
X85540000Y-24000000D03*
%TO.P,J1,8,Pin_8*%
%TO.N,BL*%
X88080000Y-24000000D03*
%TD*%
D13*
%TO.P,U3,1,VR1-1*%
%TO.N,GND*%
X41719000Y-50681000D03*
%TO.P,U3,2,VR1-2*%
%TO.N,VR_X*%
X39719000Y-50681000D03*
%TO.P,U3,3,VR1-3*%
%TO.N,3V3*%
X37719000Y-50681000D03*
%TO.P,U3,4,VR2-1*%
X48319000Y-61281000D03*
%TO.P,U3,5,VR2-2*%
%TO.N,VR_Y*%
X48319000Y-59281000D03*
%TO.P,U3,6,VR2-3*%
%TO.N,GND*%
X48319000Y-57281000D03*
%TO.P,U3,7,SW-a*%
%TO.N,unconnected-(U3-SW-a-Pad7)*%
X46319000Y-51281000D03*
%TO.P,U3,8,SW-b*%
%TO.N,unconnected-(U3-SW-b-Pad8)*%
X47719000Y-52681000D03*
%TD*%
D22*
%TO.P,LED1,1,VDD*%
%TO.N,3V3*%
X114750000Y-58300000D03*
%TO.P,LED1,2,DOUT*%
%TO.N,Net-(LED1-DOUT)*%
X114750000Y-59700000D03*
%TO.P,LED1,3,VSS*%
%TO.N,GND*%
X120250000Y-59700000D03*
%TO.P,LED1,4,DIN*%
%TO.N,SK6812MINI-E*%
X120250000Y-58300000D03*
%TD*%
%TO.P,LED2,1,VDD*%
%TO.N,3V3*%
X115250000Y-78300000D03*
%TO.P,LED2,2,DOUT*%
%TO.N,unconnected-(LED2-DOUT-Pad2)*%
X115250000Y-79700000D03*
%TO.P,LED2,3,VSS*%
%TO.N,GND*%
X120750000Y-79700000D03*
%TO.P,LED2,4,DIN*%
%TO.N,Net-(LED1-DOUT)*%
X120750000Y-78300000D03*
%TD*%
D23*
%TO.N,GND*%
X124000000Y-58500000D03*
X122500000Y-59500000D03*
X36500000Y-48750000D03*
%TO.N,BUZZER*%
X55000000Y-44500000D03*
X59250000Y-44500000D03*
%TO.N,3V3*%
X111500000Y-78500000D03*
X110200000Y-58300000D03*
%TO.N,SW_2*%
X59500000Y-31000000D03*
X59494616Y-38944616D03*
X70520000Y-48980000D03*
X64000000Y-39000000D03*
%TO.N,VCC*%
X32350000Y-39250000D03*
%TO.N,ENC_BTN*%
X68800000Y-42000000D03*
X101000000Y-42000000D03*
X86400000Y-42000000D03*
%TD*%
D24*
%TO.N,GND*%
X125750000Y-39300000D02*
X119450000Y-33000000D01*
X122500000Y-59500000D02*
X122300000Y-59700000D01*
X122279000Y-78723000D02*
X122279000Y-70983000D01*
D25*
X36500000Y-46900000D02*
X36500000Y-48750000D01*
X95500000Y-21000000D02*
X104000000Y-29500000D01*
X34840000Y-45240000D02*
X36500000Y-46900000D01*
D24*
X124342000Y-48920000D02*
X124342000Y-40708000D01*
X125250000Y-38500000D02*
X125500000Y-38500000D01*
X122279000Y-70983000D02*
X124342000Y-68920000D01*
X119450000Y-33000000D02*
X114000000Y-33000000D01*
X124342000Y-40708000D02*
X125750000Y-39300000D01*
X124342000Y-68920000D02*
X124342000Y-68842000D01*
D25*
X70000000Y-21000000D02*
X95500000Y-21000000D01*
D24*
X120750000Y-79700000D02*
X121302000Y-79700000D01*
D25*
X104000000Y-29500000D02*
X111500000Y-29500000D01*
D24*
X49382000Y-58344000D02*
X48319000Y-57281000D01*
D25*
X114000000Y-32000000D02*
X114000000Y-33000000D01*
D24*
X49382000Y-69868000D02*
X49382000Y-58344000D01*
D25*
X70000000Y-23700000D02*
X70000000Y-21000000D01*
D24*
X124342000Y-68842000D02*
X120250000Y-64750000D01*
D25*
X111000000Y-36000000D02*
X110750000Y-36000000D01*
D24*
X120250000Y-64750000D02*
X120250000Y-59700000D01*
X124881000Y-57619000D02*
X124000000Y-58500000D01*
X122300000Y-59700000D02*
X120250000Y-59700000D01*
D25*
X70300000Y-24000000D02*
X70000000Y-23700000D01*
X114000000Y-33000000D02*
X111000000Y-36000000D01*
D24*
X43750000Y-75500000D02*
X49382000Y-69868000D01*
X124342000Y-48920000D02*
X124881000Y-49459000D01*
D25*
X111500000Y-29500000D02*
X114000000Y-32000000D01*
D24*
X124881000Y-49459000D02*
X124881000Y-57619000D01*
X121302000Y-79700000D02*
X122279000Y-78723000D01*
%TO.N,BUZZER*%
X55000000Y-44500000D02*
X59250000Y-44500000D01*
X52620000Y-30000000D02*
X52500000Y-30000000D01*
D25*
%TO.N,3V3*%
X37719000Y-50681000D02*
X48319000Y-61281000D01*
X37719000Y-50681000D02*
X37719000Y-45579000D01*
X111500000Y-78500000D02*
X115050000Y-78500000D01*
X114750000Y-58300000D02*
X110200000Y-58300000D01*
X37719000Y-45579000D02*
X37380000Y-45240000D01*
X114728000Y-78300000D02*
X115250000Y-78300000D01*
X115050000Y-78500000D02*
X115250000Y-78300000D01*
D24*
%TO.N,Net-(LED1-DOUT)*%
X120901000Y-78149000D02*
X120901000Y-71398709D01*
X120901000Y-71398709D02*
X114750000Y-65247709D01*
X114750000Y-65247709D02*
X114750000Y-59700000D01*
X120750000Y-78300000D02*
X120901000Y-78149000D01*
%TO.N,SK6812MINI-E*%
X40908000Y-28448000D02*
X34764240Y-28448000D01*
X125918000Y-61792900D02*
X122425100Y-58300000D01*
X122425100Y-58300000D02*
X120250000Y-58300000D01*
X37362170Y-77401000D02*
X37433170Y-77472000D01*
X112151000Y-81151000D02*
X122149000Y-81151000D01*
X31149000Y-33016760D02*
X31149000Y-72349000D01*
X42862170Y-77401000D02*
X42933170Y-77472000D01*
X33689000Y-29523240D02*
X33689000Y-30476760D01*
X39066830Y-77472000D02*
X39137830Y-77401000D01*
X35932900Y-77000000D02*
X36333900Y-77401000D01*
X44566830Y-77472000D02*
X54044830Y-86950000D01*
X54044830Y-86950000D02*
X106352000Y-86950000D01*
X106352000Y-86950000D02*
X112151000Y-81151000D01*
X35800000Y-77000000D02*
X35932900Y-77000000D01*
X33689000Y-30476760D02*
X31149000Y-33016760D01*
X36333900Y-77401000D02*
X37362170Y-77401000D01*
X31149000Y-72349000D02*
X35800000Y-77000000D01*
X37433170Y-77472000D02*
X39066830Y-77472000D01*
X39137830Y-77401000D02*
X42862170Y-77401000D01*
X125918000Y-77382000D02*
X125918000Y-61792900D01*
X42460000Y-30000000D02*
X40908000Y-28448000D01*
X34764240Y-28448000D02*
X33689000Y-29523240D01*
X42933170Y-77472000D02*
X44566830Y-77472000D01*
X122149000Y-81151000D02*
X125918000Y-77382000D01*
%TO.N,SDA*%
X52620000Y-37620000D02*
X64300000Y-37620000D01*
X64300000Y-37620000D02*
X77920000Y-24000000D01*
%TO.N,ROT_A*%
X50250000Y-43000000D02*
X51469000Y-44219000D01*
X44250000Y-33750000D02*
X44250000Y-37000000D01*
X37380000Y-30000000D02*
X39130000Y-31750000D01*
X39130000Y-31750000D02*
X40000000Y-31750000D01*
X97859000Y-46391000D02*
X52143240Y-46391000D01*
X52143240Y-46391000D02*
X51469000Y-45716760D01*
X44250000Y-37000000D02*
X50250000Y-43000000D01*
X40000000Y-31750000D02*
X42250000Y-31750000D01*
X111250000Y-33000000D02*
X97859000Y-46391000D01*
X42250000Y-31750000D02*
X44250000Y-33750000D01*
X51469000Y-45716760D02*
X51469000Y-44219000D01*
%TO.N,ROT_B*%
X37750000Y-32500000D02*
X41750000Y-32500000D01*
X43250000Y-37250000D02*
X48929000Y-42929000D01*
X38769000Y-28849000D02*
X36401000Y-28849000D01*
X48929000Y-45716760D02*
X50004240Y-46792000D01*
X48929000Y-42929000D02*
X48929000Y-45716760D01*
X36401000Y-28849000D02*
X36000000Y-29250000D01*
X102458000Y-46792000D02*
X111250000Y-38000000D01*
X41750000Y-32500000D02*
X43250000Y-34000000D01*
X36000000Y-29250000D02*
X36000000Y-30750000D01*
X43250000Y-34000000D02*
X43250000Y-37250000D01*
X50004240Y-46792000D02*
X102458000Y-46792000D01*
X39920000Y-30000000D02*
X38769000Y-28849000D01*
X36000000Y-30750000D02*
X37750000Y-32500000D01*
%TO.N,VR_X*%
X39920000Y-50480000D02*
X39719000Y-50681000D01*
X39920000Y-45240000D02*
X39920000Y-50480000D01*
%TO.N,VR_Y*%
X43310000Y-46090000D02*
X43310000Y-54272000D01*
X42460000Y-45240000D02*
X43310000Y-46090000D01*
X43310000Y-54272000D02*
X48319000Y-59281000D01*
%TO.N,SW_1*%
X35316760Y-48000000D02*
X35316760Y-75816760D01*
X54061930Y-86400000D02*
X96467100Y-86400000D01*
X35316760Y-75816760D02*
X36500000Y-77000000D01*
X33689000Y-31151000D02*
X33689000Y-46372240D01*
X107217100Y-75650000D02*
X107225000Y-75650000D01*
X43099270Y-77071000D02*
X44732930Y-77071000D01*
X33689000Y-46372240D02*
X35316760Y-48000000D01*
X44732930Y-77071000D02*
X54061930Y-86400000D01*
X96467100Y-86400000D02*
X107217100Y-75650000D01*
X107225000Y-75650000D02*
X111415000Y-71460000D01*
X37528270Y-77000000D02*
X37599270Y-77071000D01*
X43028270Y-77000000D02*
X43099270Y-77071000D01*
X38900730Y-77071000D02*
X38971730Y-77000000D01*
X37599270Y-77071000D02*
X38900730Y-77071000D01*
X34840000Y-30000000D02*
X33689000Y-31151000D01*
X36500000Y-77000000D02*
X37528270Y-77000000D01*
X38971730Y-77000000D02*
X43028270Y-77000000D01*
%TO.N,SW_2*%
X59750000Y-39000000D02*
X64000000Y-39000000D01*
X34253000Y-28047000D02*
X56547000Y-28047000D01*
X32300000Y-30000000D02*
X34253000Y-28047000D01*
X56547000Y-28047000D02*
X59500000Y-31000000D01*
X59694616Y-38944616D02*
X59750000Y-39000000D01*
X70520000Y-48980000D02*
X70540000Y-49000000D01*
X59494616Y-38944616D02*
X59694616Y-38944616D01*
X108955000Y-49000000D02*
X111415000Y-51460000D01*
X70540000Y-49000000D02*
X108955000Y-49000000D01*
%TO.N,CS*%
X85500000Y-30300000D02*
X85540000Y-30260000D01*
X85540000Y-30260000D02*
X85540000Y-24000000D01*
X52620000Y-42700000D02*
X66840000Y-42700000D01*
X85500000Y-30650000D02*
X85500000Y-30300000D01*
X78890000Y-30650000D02*
X85500000Y-30650000D01*
X66840000Y-42700000D02*
X78890000Y-30650000D01*
%TO.N,DC*%
X79400000Y-27600000D02*
X83000000Y-24000000D01*
X52620000Y-40160000D02*
X66840000Y-40160000D01*
X76900000Y-30100000D02*
X79400000Y-30100000D01*
X79400000Y-30100000D02*
X79400000Y-27600000D01*
X66840000Y-40160000D02*
X76900000Y-30100000D01*
%TO.N,BL*%
X93150000Y-32450000D02*
X93150000Y-24300000D01*
X79630000Y-32450000D02*
X93150000Y-32450000D01*
X52620000Y-45240000D02*
X66840000Y-45240000D01*
X92850000Y-24000000D02*
X88080000Y-24000000D01*
X93150000Y-24300000D02*
X92850000Y-24000000D01*
X66840000Y-45240000D02*
X79630000Y-32450000D01*
%TO.N,RES*%
X70699000Y-25151000D02*
X73661900Y-25151000D01*
X66150000Y-29700000D02*
X70699000Y-25151000D01*
X66150000Y-32540000D02*
X66150000Y-29700000D01*
X79309000Y-22849000D02*
X80460000Y-24000000D01*
X52620000Y-32540000D02*
X66150000Y-32540000D01*
X74229000Y-24583900D02*
X74229000Y-23523240D01*
X74903240Y-22849000D02*
X79309000Y-22849000D01*
X73661900Y-25151000D02*
X74229000Y-24583900D01*
X74229000Y-23523240D02*
X74903240Y-22849000D01*
D25*
%TO.N,VCC*%
X32300000Y-45240000D02*
X32300000Y-39300000D01*
X32300000Y-39300000D02*
X32350000Y-39250000D01*
D24*
%TO.N,SCL*%
X75380000Y-24820000D02*
X75380000Y-24000000D01*
X52620000Y-35080000D02*
X65120000Y-35080000D01*
X65120000Y-35080000D02*
X75380000Y-24820000D01*
%TO.N,ENC_BTN*%
X86400000Y-42000000D02*
X101000000Y-42000000D01*
X45000000Y-30000000D02*
X45000000Y-36707760D01*
X45000000Y-36707760D02*
X52143240Y-43851000D01*
X66949000Y-43851000D02*
X68800000Y-42000000D01*
X52143240Y-43851000D02*
X66949000Y-43851000D01*
%TD*%
%TA.AperFunction,Conductor*%
%TO.N,GND*%
G36*
X127003736Y-20500726D02*
G01*
X127293796Y-20518271D01*
X127308659Y-20520076D01*
X127590798Y-20571780D01*
X127605335Y-20575363D01*
X127879172Y-20660695D01*
X127893163Y-20666000D01*
X128154743Y-20783727D01*
X128167989Y-20790680D01*
X128413465Y-20939075D01*
X128425776Y-20947573D01*
X128651573Y-21124473D01*
X128662781Y-21134403D01*
X128865596Y-21337218D01*
X128875526Y-21348426D01*
X128995481Y-21501538D01*
X129052422Y-21574217D01*
X129060926Y-21586537D01*
X129087012Y-21629688D01*
X129209316Y-21832004D01*
X129216275Y-21845263D01*
X129333997Y-22106831D01*
X129339306Y-22120832D01*
X129424635Y-22394663D01*
X129428219Y-22409201D01*
X129479923Y-22691340D01*
X129481728Y-22706205D01*
X129499274Y-22996263D01*
X129499500Y-23003750D01*
X129499500Y-86996249D01*
X129499274Y-87003736D01*
X129481728Y-87293794D01*
X129479923Y-87308659D01*
X129428219Y-87590798D01*
X129424635Y-87605336D01*
X129339306Y-87879167D01*
X129333997Y-87893168D01*
X129216275Y-88154736D01*
X129209316Y-88167995D01*
X129060928Y-88413459D01*
X129052422Y-88425782D01*
X128875526Y-88651573D01*
X128865596Y-88662781D01*
X128662781Y-88865596D01*
X128651573Y-88875526D01*
X128425782Y-89052422D01*
X128413459Y-89060928D01*
X128167995Y-89209316D01*
X128154736Y-89216275D01*
X127893168Y-89333997D01*
X127879167Y-89339306D01*
X127605336Y-89424635D01*
X127590798Y-89428219D01*
X127308659Y-89479923D01*
X127293794Y-89481728D01*
X127003736Y-89499274D01*
X126996249Y-89499500D01*
X33003751Y-89499500D01*
X32996264Y-89499274D01*
X32706205Y-89481728D01*
X32691340Y-89479923D01*
X32409201Y-89428219D01*
X32394663Y-89424635D01*
X32120832Y-89339306D01*
X32106831Y-89333997D01*
X31845263Y-89216275D01*
X31832004Y-89209316D01*
X31586540Y-89060928D01*
X31574217Y-89052422D01*
X31348426Y-88875526D01*
X31337218Y-88865596D01*
X31134403Y-88662781D01*
X31124473Y-88651573D01*
X30947573Y-88425776D01*
X30939075Y-88413465D01*
X30790680Y-88167989D01*
X30783727Y-88154743D01*
X30666000Y-87893163D01*
X30660693Y-87879167D01*
X30633759Y-87792734D01*
X30575363Y-87605335D01*
X30571780Y-87590798D01*
X30556896Y-87509577D01*
X30520075Y-87308657D01*
X30518271Y-87293794D01*
X30500726Y-87003736D01*
X30500500Y-86996249D01*
X30500500Y-85865186D01*
X36599500Y-85865186D01*
X36599500Y-86134813D01*
X36629686Y-86402719D01*
X36629688Y-86402731D01*
X36689684Y-86665594D01*
X36689687Y-86665602D01*
X36778734Y-86920082D01*
X36895714Y-87162994D01*
X36940087Y-87233613D01*
X37039162Y-87391289D01*
X37207266Y-87602085D01*
X37397915Y-87792734D01*
X37608711Y-87960838D01*
X37837003Y-88104284D01*
X38079921Y-88221267D01*
X38271049Y-88288145D01*
X38334397Y-88310312D01*
X38334405Y-88310315D01*
X38334408Y-88310315D01*
X38334409Y-88310316D01*
X38597268Y-88370312D01*
X38865187Y-88400499D01*
X38865188Y-88400500D01*
X38865191Y-88400500D01*
X39134812Y-88400500D01*
X39134812Y-88400499D01*
X39402732Y-88370312D01*
X39665591Y-88310316D01*
X39920079Y-88221267D01*
X40162997Y-88104284D01*
X40391289Y-87960838D01*
X40602085Y-87792734D01*
X40792734Y-87602085D01*
X40960838Y-87391289D01*
X41104284Y-87162997D01*
X41221267Y-86920079D01*
X41310316Y-86665591D01*
X41370312Y-86402732D01*
X41400500Y-86134809D01*
X41400500Y-85865191D01*
X41370312Y-85597268D01*
X41310316Y-85334409D01*
X41221267Y-85079921D01*
X41104284Y-84837003D01*
X40960838Y-84608711D01*
X40792734Y-84397915D01*
X40602085Y-84207266D01*
X40391289Y-84039162D01*
X40162997Y-83895716D01*
X40162994Y-83895714D01*
X39920082Y-83778734D01*
X39665602Y-83689687D01*
X39665594Y-83689684D01*
X39468446Y-83644687D01*
X39402732Y-83629688D01*
X39402728Y-83629687D01*
X39402719Y-83629686D01*
X39134813Y-83599500D01*
X39134809Y-83599500D01*
X38865191Y-83599500D01*
X38865186Y-83599500D01*
X38597280Y-83629686D01*
X38597268Y-83629688D01*
X38334405Y-83689684D01*
X38334397Y-83689687D01*
X38079917Y-83778734D01*
X37837005Y-83895714D01*
X37608712Y-84039161D01*
X37397915Y-84207265D01*
X37207265Y-84397915D01*
X37039161Y-84608712D01*
X36895714Y-84837005D01*
X36778734Y-85079917D01*
X36689687Y-85334397D01*
X36689684Y-85334405D01*
X36629688Y-85597268D01*
X36629686Y-85597280D01*
X36599500Y-85865186D01*
X30500500Y-85865186D01*
X30500500Y-72849098D01*
X30506738Y-72827852D01*
X30508318Y-72805765D01*
X30516390Y-72794981D01*
X30520185Y-72782059D01*
X30536916Y-72767560D01*
X30550189Y-72749831D01*
X30562811Y-72745123D01*
X30572989Y-72736304D01*
X30594904Y-72733152D01*
X30615653Y-72725414D01*
X30628814Y-72728276D01*
X30642147Y-72726360D01*
X30662288Y-72735558D01*
X30683926Y-72740265D01*
X30701652Y-72753535D01*
X30705703Y-72755385D01*
X30712166Y-72761402D01*
X30780284Y-72829520D01*
X30780286Y-72829521D01*
X30787356Y-72836591D01*
X35315139Y-77364374D01*
X35315149Y-77364385D01*
X35319479Y-77368715D01*
X35319480Y-77368716D01*
X35431284Y-77480520D01*
X35431286Y-77480521D01*
X35431290Y-77480524D01*
X35486037Y-77512132D01*
X35486042Y-77512134D01*
X35492551Y-77515892D01*
X35568215Y-77559577D01*
X35647056Y-77580702D01*
X35655099Y-77584127D01*
X35670742Y-77596990D01*
X35694196Y-77610531D01*
X35965184Y-77881520D01*
X35965186Y-77881521D01*
X35965190Y-77881524D01*
X36084662Y-77950500D01*
X36102116Y-77960577D01*
X36254843Y-78001501D01*
X36254845Y-78001501D01*
X36420554Y-78001501D01*
X36420570Y-78001500D01*
X37116064Y-78001500D01*
X37178065Y-78018113D01*
X37201381Y-78031575D01*
X37201385Y-78031577D01*
X37354113Y-78072500D01*
X38980161Y-78072500D01*
X38980177Y-78072501D01*
X38987773Y-78072501D01*
X39145884Y-78072501D01*
X39145887Y-78072501D01*
X39298615Y-78031577D01*
X39305684Y-78027495D01*
X39321936Y-78018113D01*
X39383935Y-78001500D01*
X42616064Y-78001500D01*
X42678065Y-78018113D01*
X42701381Y-78031575D01*
X42701385Y-78031577D01*
X42854113Y-78072500D01*
X44266733Y-78072500D01*
X44333772Y-78092185D01*
X44354414Y-78108819D01*
X53559969Y-87314374D01*
X53559979Y-87314385D01*
X53564309Y-87318715D01*
X53564310Y-87318716D01*
X53676114Y-87430520D01*
X53676116Y-87430521D01*
X53676120Y-87430524D01*
X53738242Y-87466390D01*
X53738246Y-87466391D01*
X53738247Y-87466392D01*
X53775646Y-87487984D01*
X53813042Y-87509576D01*
X53813044Y-87509576D01*
X53813045Y-87509577D01*
X53965773Y-87550500D01*
X106265331Y-87550500D01*
X106265347Y-87550501D01*
X106272943Y-87550501D01*
X106431054Y-87550501D01*
X106431057Y-87550501D01*
X106583785Y-87509577D01*
X106658583Y-87466392D01*
X106658587Y-87466390D01*
X106720709Y-87430524D01*
X106720708Y-87430524D01*
X106720716Y-87430520D01*
X106832520Y-87318716D01*
X106832520Y-87318714D01*
X106842724Y-87308511D01*
X106842727Y-87308506D01*
X108286048Y-85865186D01*
X118599500Y-85865186D01*
X118599500Y-86134813D01*
X118629686Y-86402719D01*
X118629688Y-86402731D01*
X118689684Y-86665594D01*
X118689687Y-86665602D01*
X118778734Y-86920082D01*
X118895714Y-87162994D01*
X118940087Y-87233613D01*
X119039162Y-87391289D01*
X119207266Y-87602085D01*
X119397915Y-87792734D01*
X119608711Y-87960838D01*
X119837003Y-88104284D01*
X120079921Y-88221267D01*
X120271049Y-88288145D01*
X120334397Y-88310312D01*
X120334405Y-88310315D01*
X120334408Y-88310315D01*
X120334409Y-88310316D01*
X120597268Y-88370312D01*
X120865187Y-88400499D01*
X120865188Y-88400500D01*
X120865191Y-88400500D01*
X121134812Y-88400500D01*
X121134812Y-88400499D01*
X121402732Y-88370312D01*
X121665591Y-88310316D01*
X121920079Y-88221267D01*
X122162997Y-88104284D01*
X122391289Y-87960838D01*
X122602085Y-87792734D01*
X122792734Y-87602085D01*
X122960838Y-87391289D01*
X123104284Y-87162997D01*
X123221267Y-86920079D01*
X123310316Y-86665591D01*
X123370312Y-86402732D01*
X123400500Y-86134809D01*
X123400500Y-85865191D01*
X123370312Y-85597268D01*
X123310316Y-85334409D01*
X123221267Y-85079921D01*
X123104284Y-84837003D01*
X122960838Y-84608711D01*
X122792734Y-84397915D01*
X122602085Y-84207266D01*
X122391289Y-84039162D01*
X122162997Y-83895716D01*
X122162994Y-83895714D01*
X121920082Y-83778734D01*
X121665602Y-83689687D01*
X121665594Y-83689684D01*
X121468446Y-83644687D01*
X121402732Y-83629688D01*
X121402728Y-83629687D01*
X121402719Y-83629686D01*
X121134813Y-83599500D01*
X121134809Y-83599500D01*
X120865191Y-83599500D01*
X120865186Y-83599500D01*
X120597280Y-83629686D01*
X120597268Y-83629688D01*
X120334405Y-83689684D01*
X120334397Y-83689687D01*
X120079917Y-83778734D01*
X119837005Y-83895714D01*
X119608712Y-84039161D01*
X119397915Y-84207265D01*
X119207265Y-84397915D01*
X119039161Y-84608712D01*
X118895714Y-84837005D01*
X118778734Y-85079917D01*
X118689687Y-85334397D01*
X118689684Y-85334405D01*
X118629688Y-85597268D01*
X118629686Y-85597280D01*
X118599500Y-85865186D01*
X108286048Y-85865186D01*
X112363416Y-81787819D01*
X112424739Y-81754334D01*
X112451097Y-81751500D01*
X122062331Y-81751500D01*
X122062347Y-81751501D01*
X122069943Y-81751501D01*
X122228054Y-81751501D01*
X122228057Y-81751501D01*
X122380785Y-81710577D01*
X122430904Y-81681639D01*
X122517716Y-81631520D01*
X122629520Y-81519716D01*
X122629520Y-81519714D01*
X122639728Y-81509507D01*
X122639730Y-81509504D01*
X126276506Y-77872728D01*
X126276511Y-77872724D01*
X126286714Y-77862520D01*
X126286716Y-77862520D01*
X126398520Y-77750716D01*
X126466607Y-77632785D01*
X126477577Y-77613785D01*
X126518501Y-77461057D01*
X126518501Y-77302943D01*
X126518501Y-77295348D01*
X126518500Y-77295330D01*
X126518500Y-61881960D01*
X126518501Y-61881947D01*
X126518501Y-61713844D01*
X126518501Y-61713843D01*
X126477577Y-61561116D01*
X126477573Y-61561109D01*
X126398524Y-61424190D01*
X126398518Y-61424182D01*
X122912690Y-57938355D01*
X122912688Y-57938352D01*
X122793817Y-57819481D01*
X122793816Y-57819480D01*
X122707004Y-57769360D01*
X122707004Y-57769359D01*
X122707000Y-57769358D01*
X122656885Y-57740423D01*
X122504157Y-57699499D01*
X122346043Y-57699499D01*
X122338447Y-57699499D01*
X122338431Y-57699500D01*
X121682791Y-57699500D01*
X121615752Y-57679815D01*
X121569997Y-57627011D01*
X121566609Y-57618833D01*
X121543797Y-57557671D01*
X121543793Y-57557664D01*
X121457547Y-57442455D01*
X121457544Y-57442452D01*
X121342335Y-57356206D01*
X121342328Y-57356202D01*
X121207482Y-57305908D01*
X121207483Y-57305908D01*
X121147883Y-57299501D01*
X121147881Y-57299500D01*
X121147873Y-57299500D01*
X121147865Y-57299500D01*
X119862628Y-57299500D01*
X119795589Y-57279815D01*
X119755241Y-57237500D01*
X119723012Y-57181678D01*
X119700500Y-57142686D01*
X119607314Y-57049500D01*
X119544536Y-57013255D01*
X119493187Y-56983608D01*
X119388579Y-56955579D01*
X119365892Y-56949500D01*
X115765892Y-56949500D01*
X115634108Y-56949500D01*
X115506812Y-56983608D01*
X115392686Y-57049500D01*
X115392683Y-57049502D01*
X115299502Y-57142683D01*
X115299500Y-57142686D01*
X115244758Y-57237501D01*
X115194190Y-57285716D01*
X115137371Y-57299500D01*
X113852129Y-57299500D01*
X113852123Y-57299501D01*
X113792516Y-57305908D01*
X113657671Y-57356202D01*
X113657664Y-57356206D01*
X113542457Y-57442451D01*
X113542451Y-57442457D01*
X113536948Y-57449809D01*
X113481015Y-57491681D01*
X113437680Y-57499500D01*
X110121155Y-57499500D01*
X109966510Y-57530261D01*
X109966498Y-57530264D01*
X109820827Y-57590602D01*
X109820814Y-57590609D01*
X109689711Y-57678210D01*
X109689707Y-57678213D01*
X109578213Y-57789707D01*
X109578210Y-57789711D01*
X109490609Y-57920814D01*
X109490602Y-57920827D01*
X109430264Y-58066498D01*
X109430261Y-58066510D01*
X109399500Y-58221153D01*
X109399500Y-58378846D01*
X109430261Y-58533489D01*
X109430264Y-58533501D01*
X109490602Y-58679172D01*
X109490609Y-58679185D01*
X109578210Y-58810288D01*
X109578213Y-58810292D01*
X109689707Y-58921786D01*
X109689711Y-58921789D01*
X109820814Y-59009390D01*
X109820827Y-59009397D01*
X109961909Y-59067834D01*
X109966503Y-59069737D01*
X110121153Y-59100499D01*
X110121156Y-59100500D01*
X110121158Y-59100500D01*
X113275500Y-59100500D01*
X113342539Y-59120185D01*
X113388294Y-59172989D01*
X113399500Y-59224500D01*
X113399500Y-60247870D01*
X113399501Y-60247876D01*
X113405908Y-60307483D01*
X113456202Y-60442328D01*
X113456206Y-60442335D01*
X113542452Y-60557544D01*
X113542455Y-60557547D01*
X113657664Y-60643793D01*
X113657671Y-60643797D01*
X113702618Y-60660561D01*
X113792517Y-60694091D01*
X113852127Y-60700500D01*
X114025500Y-60700499D01*
X114092539Y-60720183D01*
X114138294Y-60772987D01*
X114149500Y-60824499D01*
X114149500Y-65161039D01*
X114149499Y-65161057D01*
X114149499Y-65326763D01*
X114149498Y-65326763D01*
X114190423Y-65479494D01*
X114219358Y-65529609D01*
X114219359Y-65529613D01*
X114219360Y-65529613D01*
X114269479Y-65616423D01*
X114269481Y-65616426D01*
X114388349Y-65735294D01*
X114388355Y-65735299D01*
X120264181Y-71611125D01*
X120297666Y-71672448D01*
X120300500Y-71698806D01*
X120300500Y-72247738D01*
X120280815Y-72314777D01*
X120228011Y-72360532D01*
X120158853Y-72370476D01*
X120095297Y-72341451D01*
X120088819Y-72335419D01*
X120020085Y-72266685D01*
X120020078Y-72266679D01*
X119780831Y-72083099D01*
X119519671Y-71932318D01*
X119519661Y-71932314D01*
X119241060Y-71816913D01*
X118949766Y-71738861D01*
X118650793Y-71699501D01*
X118650788Y-71699500D01*
X118650783Y-71699500D01*
X118349217Y-71699500D01*
X118349211Y-71699500D01*
X118349206Y-71699501D01*
X118050233Y-71738861D01*
X117758939Y-71816913D01*
X117480338Y-71932314D01*
X117480328Y-71932318D01*
X117219168Y-72083099D01*
X116979921Y-72266679D01*
X116979914Y-72266685D01*
X116766685Y-72479914D01*
X116766679Y-72479921D01*
X116583099Y-72719168D01*
X116432318Y-72980328D01*
X116432314Y-72980338D01*
X116316913Y-73258939D01*
X116238861Y-73550233D01*
X116199501Y-73849206D01*
X116199500Y-73849223D01*
X116199500Y-74150776D01*
X116199501Y-74150793D01*
X116238861Y-74449766D01*
X116316913Y-74741060D01*
X116432314Y-75019661D01*
X116432318Y-75019671D01*
X116583099Y-75280831D01*
X116766679Y-75520078D01*
X116766685Y-75520085D01*
X116979914Y-75733314D01*
X116979921Y-75733320D01*
X117219168Y-75916900D01*
X117480328Y-76067681D01*
X117480329Y-76067681D01*
X117480332Y-76067683D01*
X117610019Y-76121401D01*
X117758939Y-76183086D01*
X117758940Y-76183086D01*
X117758942Y-76183087D01*
X118050232Y-76261138D01*
X118349217Y-76300500D01*
X118349224Y-76300500D01*
X118650776Y-76300500D01*
X118650783Y-76300500D01*
X118949768Y-76261138D01*
X119241058Y-76183087D01*
X119519668Y-76067683D01*
X119780832Y-75916900D01*
X120020080Y-75733319D01*
X120020085Y-75733314D01*
X120088819Y-75664581D01*
X120150142Y-75631096D01*
X120219834Y-75636080D01*
X120275767Y-75677952D01*
X120300184Y-75743416D01*
X120300500Y-75752262D01*
X120300500Y-76946289D01*
X120280815Y-77013328D01*
X120228011Y-77059083D01*
X120158853Y-77069027D01*
X120115835Y-77050994D01*
X120114352Y-77053564D01*
X120107315Y-77049501D01*
X120107314Y-77049500D01*
X120052684Y-77017959D01*
X119993187Y-76983608D01*
X119929539Y-76966554D01*
X119865892Y-76949500D01*
X116265892Y-76949500D01*
X116134108Y-76949500D01*
X116006812Y-76983608D01*
X115892686Y-77049500D01*
X115892683Y-77049502D01*
X115799502Y-77142683D01*
X115799500Y-77142686D01*
X115744758Y-77237501D01*
X115694190Y-77285716D01*
X115637371Y-77299500D01*
X114352129Y-77299500D01*
X114352123Y-77299501D01*
X114292516Y-77305908D01*
X114157671Y-77356202D01*
X114157664Y-77356206D01*
X114042455Y-77442452D01*
X114042452Y-77442455D01*
X113956206Y-77557664D01*
X113956202Y-77557671D01*
X113933391Y-77618833D01*
X113891520Y-77674767D01*
X113826056Y-77699184D01*
X113817209Y-77699500D01*
X111421155Y-77699500D01*
X111266510Y-77730261D01*
X111266498Y-77730264D01*
X111120827Y-77790602D01*
X111120814Y-77790609D01*
X110989711Y-77878210D01*
X110989707Y-77878213D01*
X110878213Y-77989707D01*
X110878210Y-77989711D01*
X110790609Y-78120814D01*
X110790602Y-78120827D01*
X110730264Y-78266498D01*
X110730261Y-78266510D01*
X110699500Y-78421153D01*
X110699500Y-78578846D01*
X110730261Y-78733489D01*
X110730264Y-78733501D01*
X110790602Y-78879172D01*
X110790609Y-78879185D01*
X110878210Y-79010288D01*
X110878213Y-79010292D01*
X110989707Y-79121786D01*
X110989711Y-79121789D01*
X111120814Y-79209390D01*
X111120827Y-79209397D01*
X111203875Y-79243796D01*
X111266503Y-79269737D01*
X111388938Y-79294091D01*
X111421153Y-79300499D01*
X111421156Y-79300500D01*
X111421158Y-79300500D01*
X113775500Y-79300500D01*
X113842539Y-79320185D01*
X113888294Y-79372989D01*
X113899500Y-79424500D01*
X113899500Y-80247870D01*
X113899501Y-80247876D01*
X113905908Y-80307483D01*
X113934137Y-80383167D01*
X113939121Y-80452859D01*
X113905636Y-80514182D01*
X113844312Y-80547666D01*
X113817955Y-80550500D01*
X112230057Y-80550500D01*
X112071942Y-80550500D01*
X112045647Y-80557546D01*
X112003503Y-80568838D01*
X111919214Y-80591423D01*
X111919209Y-80591426D01*
X111782290Y-80670475D01*
X111782282Y-80670481D01*
X111670478Y-80782286D01*
X106139584Y-86313181D01*
X106078261Y-86346666D01*
X106051903Y-86349500D01*
X97666197Y-86349500D01*
X97599158Y-86329815D01*
X97553403Y-86277011D01*
X97543459Y-86207853D01*
X97572484Y-86144297D01*
X97578516Y-86137819D01*
X102206834Y-81509501D01*
X107563516Y-76152818D01*
X107565843Y-76150553D01*
X107576472Y-76140474D01*
X107593716Y-76130520D01*
X107705520Y-76018716D01*
X107705521Y-76018713D01*
X110477416Y-73246818D01*
X110538739Y-73213333D01*
X110565097Y-73210499D01*
X112272568Y-73210499D01*
X112339607Y-73230184D01*
X112385362Y-73282988D01*
X112395306Y-73352146D01*
X112383053Y-73390794D01*
X112307454Y-73539163D01*
X112249059Y-73718881D01*
X112219500Y-73905513D01*
X112219500Y-74094486D01*
X112249059Y-74281118D01*
X112307454Y-74460836D01*
X112393240Y-74629199D01*
X112504310Y-74782073D01*
X112637927Y-74915690D01*
X112790801Y-75026760D01*
X112869826Y-75067025D01*
X112959163Y-75112545D01*
X112959165Y-75112545D01*
X112959168Y-75112547D01*
X113055497Y-75143846D01*
X113138881Y-75170940D01*
X113325514Y-75200500D01*
X113325519Y-75200500D01*
X113514486Y-75200500D01*
X113701118Y-75170940D01*
X113713727Y-75166843D01*
X113880832Y-75112547D01*
X114049199Y-75026760D01*
X114202073Y-74915690D01*
X114335690Y-74782073D01*
X114446760Y-74629199D01*
X114532547Y-74460832D01*
X114590940Y-74281118D01*
X114620500Y-74094486D01*
X114620500Y-73905513D01*
X114590940Y-73718881D01*
X114532545Y-73539163D01*
X114505424Y-73485937D01*
X114456815Y-73390535D01*
X114443920Y-73321870D01*
X114470196Y-73257130D01*
X114527302Y-73216872D01*
X114571207Y-73211065D01*
X114571207Y-73210500D01*
X114804727Y-73210500D01*
X114804734Y-73210500D01*
X115032238Y-73180548D01*
X115253887Y-73121158D01*
X115465888Y-73033344D01*
X115664612Y-72918611D01*
X115846661Y-72778919D01*
X115846665Y-72778914D01*
X115846670Y-72778911D01*
X116008911Y-72616670D01*
X116008914Y-72616665D01*
X116008919Y-72616661D01*
X116148611Y-72434612D01*
X116263344Y-72235888D01*
X116351158Y-72023887D01*
X116410548Y-71802238D01*
X116440500Y-71574734D01*
X116440500Y-71345266D01*
X116410548Y-71117762D01*
X116351158Y-70896113D01*
X116287525Y-70742489D01*
X116263349Y-70684123D01*
X116263346Y-70684117D01*
X116263344Y-70684112D01*
X116148611Y-70485388D01*
X116148608Y-70485385D01*
X116148607Y-70485382D01*
X116008918Y-70303338D01*
X116008911Y-70303330D01*
X115846670Y-70141089D01*
X115846661Y-70141081D01*
X115664617Y-70001392D01*
X115606210Y-69967671D01*
X115465888Y-69886656D01*
X115465876Y-69886650D01*
X115253887Y-69798842D01*
X115032238Y-69739452D01*
X114994215Y-69734446D01*
X114804741Y-69709500D01*
X114804734Y-69709500D01*
X114575266Y-69709500D01*
X114575258Y-69709500D01*
X114358715Y-69738009D01*
X114347762Y-69739452D01*
X114254076Y-69764554D01*
X114126112Y-69798842D01*
X113914123Y-69886650D01*
X113914109Y-69886657D01*
X113715382Y-70001392D01*
X113533338Y-70141081D01*
X113402180Y-70272239D01*
X113340857Y-70305724D01*
X113271165Y-70300740D01*
X113215232Y-70258868D01*
X113190815Y-70193404D01*
X113190499Y-70184558D01*
X113190499Y-70162129D01*
X113190498Y-70162123D01*
X113190497Y-70162116D01*
X113184091Y-70102517D01*
X113180777Y-70093633D01*
X113133797Y-69967671D01*
X113133793Y-69967664D01*
X113047547Y-69852455D01*
X113047544Y-69852452D01*
X112932335Y-69766206D01*
X112932328Y-69766202D01*
X112797482Y-69715908D01*
X112797483Y-69715908D01*
X112737883Y-69709501D01*
X112737881Y-69709500D01*
X112737873Y-69709500D01*
X112737864Y-69709500D01*
X110092129Y-69709500D01*
X110092123Y-69709501D01*
X110032516Y-69715908D01*
X109897671Y-69766202D01*
X109897664Y-69766206D01*
X109782455Y-69852452D01*
X109782452Y-69852455D01*
X109696206Y-69967664D01*
X109696202Y-69967671D01*
X109645908Y-70102517D01*
X109639826Y-70159097D01*
X109639501Y-70162123D01*
X109639500Y-70162135D01*
X109639500Y-72334902D01*
X109619815Y-72401941D01*
X109603181Y-72422583D01*
X106878620Y-75147143D01*
X106852950Y-75166843D01*
X106848382Y-75169480D01*
X106848381Y-75169481D01*
X96254684Y-85763181D01*
X96193361Y-85796666D01*
X96167003Y-85799500D01*
X54362027Y-85799500D01*
X54294988Y-85779815D01*
X54274346Y-85763181D01*
X45220520Y-76709355D01*
X45213451Y-76702286D01*
X45213450Y-76702284D01*
X45202659Y-76691493D01*
X45177570Y-76645541D01*
X45169179Y-76630175D01*
X45169179Y-76630173D01*
X45169178Y-76630172D01*
X45172205Y-76587850D01*
X45174163Y-76560483D01*
X45174163Y-76560481D01*
X45174164Y-76560480D01*
X45174166Y-76560476D01*
X45191970Y-76528329D01*
X45224856Y-76485471D01*
X45224863Y-76485461D01*
X45340867Y-76284538D01*
X45340875Y-76284521D01*
X45429663Y-76070167D01*
X45489713Y-75846053D01*
X45489716Y-75846040D01*
X45519998Y-75616022D01*
X45520000Y-75616005D01*
X45520000Y-75383994D01*
X45519998Y-75383977D01*
X45489716Y-75153959D01*
X45489713Y-75153946D01*
X45429663Y-74929832D01*
X45340875Y-74715478D01*
X45340867Y-74715461D01*
X45224863Y-74514538D01*
X45224857Y-74514530D01*
X45165881Y-74437671D01*
X44465846Y-75137705D01*
X44458951Y-75121058D01*
X44371401Y-74990030D01*
X44259970Y-74878599D01*
X44128942Y-74791049D01*
X44112293Y-74784152D01*
X44812327Y-74084117D01*
X44735469Y-74025142D01*
X44735461Y-74025136D01*
X44534538Y-73909132D01*
X44534521Y-73909124D01*
X44320167Y-73820336D01*
X44096053Y-73760286D01*
X44096040Y-73760283D01*
X43866022Y-73730001D01*
X43866005Y-73730000D01*
X43633995Y-73730000D01*
X43633977Y-73730001D01*
X43403959Y-73760283D01*
X43403946Y-73760286D01*
X43179832Y-73820336D01*
X42965478Y-73909124D01*
X42965461Y-73909132D01*
X42764541Y-74025134D01*
X42764533Y-74025140D01*
X42687671Y-74084116D01*
X42687671Y-74084117D01*
X43387706Y-74784152D01*
X43371058Y-74791049D01*
X43240030Y-74878599D01*
X43128599Y-74990030D01*
X43041049Y-75121058D01*
X43034152Y-75137706D01*
X42334117Y-74437671D01*
X42334116Y-74437671D01*
X42275140Y-74514533D01*
X42275134Y-74514541D01*
X42159132Y-74715461D01*
X42159124Y-74715478D01*
X42070336Y-74929832D01*
X42010286Y-75153946D01*
X42010283Y-75153959D01*
X41980001Y-75383977D01*
X41980000Y-75383994D01*
X41980000Y-75616005D01*
X41980001Y-75616022D01*
X42010283Y-75846040D01*
X42010286Y-75846053D01*
X42070336Y-76070167D01*
X42135732Y-76228048D01*
X42143201Y-76297517D01*
X42111926Y-76359996D01*
X42051836Y-76395648D01*
X42021171Y-76399500D01*
X39979369Y-76399500D01*
X39912330Y-76379815D01*
X39866575Y-76327011D01*
X39856631Y-76257853D01*
X39864808Y-76228047D01*
X39883431Y-76183087D01*
X39930137Y-76070330D01*
X39990206Y-75846149D01*
X40020500Y-75616045D01*
X40020500Y-75383955D01*
X39990206Y-75153851D01*
X39930137Y-74929670D01*
X39841320Y-74715248D01*
X39832517Y-74700000D01*
X39725279Y-74514256D01*
X39725278Y-74514254D01*
X39583990Y-74330124D01*
X39583984Y-74330117D01*
X39419882Y-74166015D01*
X39419875Y-74166009D01*
X39235745Y-74024721D01*
X39235743Y-74024720D01*
X39034762Y-73908685D01*
X39034754Y-73908681D01*
X39034752Y-73908680D01*
X38891211Y-73849223D01*
X38820328Y-73819862D01*
X38678203Y-73781780D01*
X38596149Y-73759794D01*
X38567386Y-73756007D01*
X38366052Y-73729500D01*
X38366045Y-73729500D01*
X38133955Y-73729500D01*
X38133947Y-73729500D01*
X37903851Y-73759794D01*
X37679671Y-73819862D01*
X37465254Y-73908677D01*
X37465237Y-73908685D01*
X37264256Y-74024720D01*
X37264254Y-74024721D01*
X37080124Y-74166009D01*
X37080117Y-74166015D01*
X36916015Y-74330117D01*
X36916009Y-74330124D01*
X36774721Y-74514254D01*
X36774720Y-74514256D01*
X36658685Y-74715237D01*
X36658677Y-74715254D01*
X36569862Y-74929671D01*
X36509794Y-75153851D01*
X36479500Y-75383947D01*
X36479500Y-75616038D01*
X36479501Y-75616055D01*
X36509782Y-75846061D01*
X36499016Y-75915096D01*
X36452636Y-75967352D01*
X36385367Y-75986237D01*
X36318567Y-75965756D01*
X36299162Y-75949927D01*
X35953579Y-75604344D01*
X35920094Y-75543021D01*
X35917260Y-75516663D01*
X35917260Y-65177530D01*
X44668500Y-65177530D01*
X44668500Y-65384469D01*
X44708868Y-65587412D01*
X44708870Y-65587420D01*
X44788058Y-65778596D01*
X44903024Y-65950657D01*
X45049342Y-66096975D01*
X45049345Y-66096977D01*
X45221402Y-66211941D01*
X45412580Y-66291130D01*
X45615530Y-66331499D01*
X45615534Y-66331500D01*
X45615535Y-66331500D01*
X45822466Y-66331500D01*
X45822467Y-66331499D01*
X46025420Y-66291130D01*
X46216598Y-66211941D01*
X46388655Y-66096977D01*
X46534977Y-65950655D01*
X46649941Y-65778598D01*
X46729130Y-65587420D01*
X46769500Y-65384465D01*
X46769500Y-65177535D01*
X46729130Y-64974580D01*
X46649941Y-64783402D01*
X46534977Y-64611345D01*
X46534975Y-64611342D01*
X46388657Y-64465024D01*
X46302626Y-64407541D01*
X46216598Y-64350059D01*
X46025420Y-64270870D01*
X46025412Y-64270868D01*
X45822469Y-64230500D01*
X45822465Y-64230500D01*
X45615535Y-64230500D01*
X45615530Y-64230500D01*
X45412587Y-64270868D01*
X45412579Y-64270870D01*
X45221403Y-64350058D01*
X45049342Y-64465024D01*
X44903024Y-64611342D01*
X44788058Y-64783403D01*
X44708870Y-64974579D01*
X44708868Y-64974587D01*
X44668500Y-65177530D01*
X35917260Y-65177530D01*
X35917260Y-47920945D01*
X35917260Y-47920943D01*
X35876337Y-47768216D01*
X35876337Y-47768215D01*
X35876337Y-47768214D01*
X35847399Y-47718095D01*
X35847397Y-47718092D01*
X35797280Y-47631284D01*
X35685476Y-47519480D01*
X35685475Y-47519479D01*
X35681145Y-47515149D01*
X35681134Y-47515139D01*
X34954091Y-46788096D01*
X34920606Y-46726773D01*
X34925590Y-46657081D01*
X34967462Y-46601148D01*
X35022374Y-46577942D01*
X35156127Y-46556757D01*
X35156130Y-46556757D01*
X35358217Y-46491095D01*
X35547557Y-46394620D01*
X35719459Y-46269727D01*
X35719464Y-46269723D01*
X35869723Y-46119464D01*
X35869727Y-46119459D01*
X35994620Y-45947558D01*
X35999232Y-45938507D01*
X36047205Y-45887709D01*
X36115025Y-45870912D01*
X36181161Y-45893447D01*
X36220204Y-45938504D01*
X36224949Y-45947817D01*
X36349890Y-46119786D01*
X36500213Y-46270109D01*
X36672182Y-46395050D01*
X36672184Y-46395051D01*
X36829499Y-46475207D01*
X36850794Y-46486057D01*
X36901591Y-46534031D01*
X36918500Y-46596542D01*
X36918500Y-49644693D01*
X36898815Y-49711732D01*
X36882181Y-49732374D01*
X36756021Y-49858533D01*
X36639213Y-50019305D01*
X36548994Y-50196367D01*
X36548993Y-50196370D01*
X36487587Y-50385362D01*
X36456500Y-50581639D01*
X36456500Y-50780360D01*
X36487587Y-50976637D01*
X36548993Y-51165629D01*
X36548994Y-51165632D01*
X36614657Y-51294500D01*
X36639213Y-51342694D01*
X36756019Y-51503464D01*
X36896536Y-51643981D01*
X37057306Y-51760787D01*
X37138640Y-51802229D01*
X37234367Y-51851005D01*
X37234370Y-51851006D01*
X37328866Y-51881709D01*
X37423364Y-51912413D01*
X37619639Y-51943500D01*
X37619640Y-51943500D01*
X37798060Y-51943500D01*
X37865099Y-51963185D01*
X37885741Y-51979819D01*
X47020181Y-61114259D01*
X47053666Y-61175582D01*
X47056500Y-61201940D01*
X47056500Y-61380360D01*
X47087587Y-61576637D01*
X47148993Y-61765629D01*
X47148994Y-61765632D01*
X47208267Y-61881960D01*
X47239213Y-61942694D01*
X47356019Y-62103464D01*
X47496536Y-62243981D01*
X47657306Y-62360787D01*
X47744149Y-62405035D01*
X47834367Y-62451005D01*
X47834370Y-62451006D01*
X47928866Y-62481709D01*
X48023364Y-62512413D01*
X48219639Y-62543500D01*
X48219640Y-62543500D01*
X48418360Y-62543500D01*
X48418361Y-62543500D01*
X48614636Y-62512413D01*
X48803632Y-62451005D01*
X48980694Y-62360787D01*
X49141464Y-62243981D01*
X49281981Y-62103464D01*
X49398787Y-61942694D01*
X49489005Y-61765632D01*
X49550413Y-61576636D01*
X49581500Y-61380361D01*
X49581500Y-61181639D01*
X49550413Y-60985364D01*
X49508808Y-60857316D01*
X49489006Y-60796370D01*
X49489005Y-60796367D01*
X49436640Y-60693596D01*
X49398787Y-60619306D01*
X49281981Y-60458536D01*
X49192126Y-60368681D01*
X49158641Y-60307358D01*
X49163625Y-60237666D01*
X49192126Y-60193319D01*
X49281981Y-60103464D01*
X49398787Y-59942694D01*
X49489005Y-59765632D01*
X49550413Y-59576636D01*
X49581500Y-59380361D01*
X49581500Y-59181639D01*
X49550413Y-58985364D01*
X49489005Y-58796368D01*
X49489005Y-58796367D01*
X49398786Y-58619305D01*
X49336437Y-58533489D01*
X49281981Y-58458536D01*
X49141464Y-58318019D01*
X48980694Y-58201213D01*
X48804430Y-58111401D01*
X48773044Y-58088597D01*
X48489234Y-57804787D01*
X48531292Y-57793518D01*
X48656708Y-57721110D01*
X48759110Y-57618708D01*
X48831518Y-57493292D01*
X48842787Y-57451234D01*
X49371268Y-57979715D01*
X49398362Y-57942425D01*
X49488542Y-57765437D01*
X49549924Y-57576523D01*
X49549924Y-57576520D01*
X49581000Y-57380321D01*
X49581000Y-57181678D01*
X49549924Y-56985479D01*
X49549924Y-56985476D01*
X49488542Y-56796562D01*
X49398358Y-56619567D01*
X49371268Y-56582283D01*
X48842787Y-57110764D01*
X48831518Y-57068708D01*
X48759110Y-56943292D01*
X48656708Y-56840890D01*
X48531292Y-56768482D01*
X48489234Y-56757212D01*
X49017716Y-56228731D01*
X49017715Y-56228730D01*
X48980432Y-56201641D01*
X48803437Y-56111457D01*
X48614522Y-56050075D01*
X48418321Y-56019000D01*
X48219679Y-56019000D01*
X48023479Y-56050075D01*
X48023476Y-56050075D01*
X47834562Y-56111457D01*
X47657564Y-56201643D01*
X47620283Y-56228729D01*
X47620282Y-56228730D01*
X48148765Y-56757212D01*
X48106708Y-56768482D01*
X47981292Y-56840890D01*
X47878890Y-56943292D01*
X47806482Y-57068708D01*
X47795212Y-57110765D01*
X47266730Y-56582282D01*
X47266729Y-56582283D01*
X47239643Y-56619564D01*
X47149457Y-56796562D01*
X47097790Y-56955579D01*
X47058353Y-57013255D01*
X46993994Y-57040453D01*
X46925148Y-57028538D01*
X46892178Y-57004942D01*
X43946819Y-54059583D01*
X43913334Y-53998260D01*
X43910500Y-53971902D01*
X43910500Y-51181639D01*
X45056500Y-51181639D01*
X45056500Y-51380360D01*
X45087587Y-51576637D01*
X45148993Y-51765629D01*
X45148994Y-51765632D01*
X45196332Y-51858536D01*
X45239213Y-51942694D01*
X45356019Y-52103464D01*
X45496536Y-52243981D01*
X45657306Y-52360787D01*
X45705537Y-52385362D01*
X45834367Y-52451005D01*
X45834370Y-52451006D01*
X45923360Y-52479920D01*
X46023364Y-52512413D01*
X46219639Y-52543500D01*
X46219640Y-52543500D01*
X46332500Y-52543500D01*
X46399539Y-52563185D01*
X46445294Y-52615989D01*
X46456500Y-52667500D01*
X46456500Y-52780360D01*
X46487587Y-52976637D01*
X46548993Y-53165629D01*
X46548994Y-53165632D01*
X46639213Y-53342694D01*
X46756019Y-53503464D01*
X46896536Y-53643981D01*
X47057306Y-53760787D01*
X47092262Y-53778598D01*
X47234367Y-53851005D01*
X47234370Y-53851006D01*
X47328866Y-53881709D01*
X47423364Y-53912413D01*
X47619639Y-53943500D01*
X47619640Y-53943500D01*
X47818360Y-53943500D01*
X47818361Y-53943500D01*
X48014636Y-53912413D01*
X48203632Y-53851005D01*
X48380694Y-53760787D01*
X48541464Y-53643981D01*
X48681981Y-53503464D01*
X48798787Y-53342694D01*
X48889005Y-53165632D01*
X48950413Y-52976636D01*
X48981500Y-52780361D01*
X48981500Y-52581639D01*
X48950413Y-52385364D01*
X48904474Y-52243978D01*
X48889006Y-52196370D01*
X48889005Y-52196367D01*
X48831291Y-52083099D01*
X48798787Y-52019306D01*
X48681981Y-51858536D01*
X48541464Y-51718019D01*
X48380694Y-51601213D01*
X48203632Y-51510994D01*
X48203629Y-51510993D01*
X48014637Y-51449587D01*
X47916498Y-51434043D01*
X47818361Y-51418500D01*
X47705500Y-51418500D01*
X47638461Y-51398815D01*
X47592706Y-51346011D01*
X47581500Y-51294500D01*
X47581500Y-51181639D01*
X47555694Y-51018708D01*
X47550413Y-50985364D01*
X47519709Y-50890866D01*
X47489006Y-50796370D01*
X47489005Y-50796367D01*
X47398786Y-50619305D01*
X47281981Y-50458536D01*
X47141464Y-50318019D01*
X46980694Y-50201213D01*
X46948007Y-50184558D01*
X46803632Y-50110994D01*
X46803629Y-50110993D01*
X46614637Y-50049587D01*
X46516498Y-50034043D01*
X46418361Y-50018500D01*
X46219639Y-50018500D01*
X46154214Y-50028862D01*
X46023362Y-50049587D01*
X45834370Y-50110993D01*
X45834367Y-50110994D01*
X45657305Y-50201213D01*
X45496533Y-50318021D01*
X45356021Y-50458533D01*
X45239213Y-50619305D01*
X45148994Y-50796367D01*
X45148993Y-50796370D01*
X45087587Y-50985362D01*
X45056500Y-51181639D01*
X43910500Y-51181639D01*
X43910500Y-48901153D01*
X69719500Y-48901153D01*
X69719500Y-49058846D01*
X69750261Y-49213489D01*
X69750264Y-49213501D01*
X69810602Y-49359172D01*
X69810609Y-49359185D01*
X69898210Y-49490288D01*
X69898213Y-49490292D01*
X70009707Y-49601786D01*
X70009711Y-49601789D01*
X70140814Y-49689390D01*
X70140827Y-49689397D01*
X70261675Y-49739453D01*
X70286503Y-49749737D01*
X70441153Y-49780499D01*
X70441156Y-49780500D01*
X70441158Y-49780500D01*
X70598844Y-49780500D01*
X70598845Y-49780499D01*
X70753497Y-49749737D01*
X70899179Y-49689394D01*
X70899185Y-49689390D01*
X71000943Y-49621398D01*
X71067621Y-49600520D01*
X71069834Y-49600500D01*
X108654903Y-49600500D01*
X108721942Y-49620185D01*
X108742584Y-49636819D01*
X109603181Y-50497416D01*
X109636666Y-50558739D01*
X109639500Y-50585097D01*
X109639500Y-52757870D01*
X109639501Y-52757876D01*
X109645908Y-52817483D01*
X109696202Y-52952328D01*
X109696206Y-52952335D01*
X109782452Y-53067544D01*
X109782455Y-53067547D01*
X109897664Y-53153793D01*
X109897671Y-53153797D01*
X110032517Y-53204091D01*
X110032516Y-53204091D01*
X110039444Y-53204835D01*
X110092127Y-53210500D01*
X112272568Y-53210499D01*
X112339607Y-53230184D01*
X112385362Y-53282987D01*
X112395306Y-53352146D01*
X112383053Y-53390794D01*
X112307454Y-53539163D01*
X112249059Y-53718881D01*
X112219500Y-53905513D01*
X112219500Y-54094486D01*
X112249059Y-54281118D01*
X112307454Y-54460836D01*
X112354875Y-54553904D01*
X112393240Y-54629199D01*
X112504310Y-54782073D01*
X112637927Y-54915690D01*
X112790801Y-55026760D01*
X112870347Y-55067290D01*
X112959163Y-55112545D01*
X112959165Y-55112545D01*
X112959168Y-55112547D01*
X113055497Y-55143846D01*
X113138881Y-55170940D01*
X113325514Y-55200500D01*
X113325519Y-55200500D01*
X113514486Y-55200500D01*
X113701118Y-55170940D01*
X113880832Y-55112547D01*
X114049199Y-55026760D01*
X114202073Y-54915690D01*
X114335690Y-54782073D01*
X114446760Y-54629199D01*
X114532547Y-54460832D01*
X114590940Y-54281118D01*
X114597443Y-54240061D01*
X114620500Y-54094486D01*
X114620500Y-53905513D01*
X114614013Y-53864556D01*
X114611584Y-53849223D01*
X116199500Y-53849223D01*
X116199500Y-54150776D01*
X116199501Y-54150793D01*
X116238861Y-54449766D01*
X116316913Y-54741060D01*
X116432314Y-55019661D01*
X116432318Y-55019671D01*
X116583099Y-55280831D01*
X116766679Y-55520078D01*
X116766685Y-55520085D01*
X116979914Y-55733314D01*
X116979921Y-55733320D01*
X117219168Y-55916900D01*
X117480328Y-56067681D01*
X117480329Y-56067681D01*
X117480332Y-56067683D01*
X117586012Y-56111457D01*
X117758939Y-56183086D01*
X117758940Y-56183086D01*
X117758942Y-56183087D01*
X118050232Y-56261138D01*
X118349217Y-56300500D01*
X118349224Y-56300500D01*
X118650776Y-56300500D01*
X118650783Y-56300500D01*
X118949768Y-56261138D01*
X119241058Y-56183087D01*
X119519668Y-56067683D01*
X119780832Y-55916900D01*
X120020080Y-55733319D01*
X120233319Y-55520080D01*
X120416900Y-55280832D01*
X120567683Y-55019668D01*
X120683087Y-54741058D01*
X120761138Y-54449768D01*
X120800500Y-54150783D01*
X120800500Y-53905513D01*
X122379500Y-53905513D01*
X122379500Y-54094486D01*
X122409059Y-54281118D01*
X122467454Y-54460836D01*
X122514875Y-54553904D01*
X122553240Y-54629199D01*
X122664310Y-54782073D01*
X122797927Y-54915690D01*
X122950801Y-55026760D01*
X123030347Y-55067290D01*
X123119163Y-55112545D01*
X123119165Y-55112545D01*
X123119168Y-55112547D01*
X123215497Y-55143846D01*
X123298881Y-55170940D01*
X123485514Y-55200500D01*
X123485519Y-55200500D01*
X123674486Y-55200500D01*
X123861118Y-55170940D01*
X124040832Y-55112547D01*
X124209199Y-55026760D01*
X124362073Y-54915690D01*
X124495690Y-54782073D01*
X124606760Y-54629199D01*
X124692547Y-54460832D01*
X124750940Y-54281118D01*
X124757443Y-54240061D01*
X124780500Y-54094486D01*
X124780500Y-53905513D01*
X124750940Y-53718881D01*
X124708225Y-53587420D01*
X124692547Y-53539168D01*
X124692545Y-53539165D01*
X124692545Y-53539163D01*
X124606759Y-53370800D01*
X124593206Y-53352146D01*
X124495690Y-53217927D01*
X124362073Y-53084310D01*
X124209199Y-52973240D01*
X124040836Y-52887454D01*
X123861118Y-52829059D01*
X123674486Y-52799500D01*
X123674481Y-52799500D01*
X123485519Y-52799500D01*
X123485514Y-52799500D01*
X123298881Y-52829059D01*
X123119163Y-52887454D01*
X122950800Y-52973240D01*
X122941031Y-52980338D01*
X122797927Y-53084310D01*
X122797925Y-53084312D01*
X122797924Y-53084312D01*
X122664312Y-53217924D01*
X122664312Y-53217925D01*
X122664310Y-53217927D01*
X122655405Y-53230184D01*
X122553240Y-53370800D01*
X122467454Y-53539163D01*
X122409059Y-53718881D01*
X122379500Y-53905513D01*
X120800500Y-53905513D01*
X120800500Y-53849217D01*
X120761138Y-53550232D01*
X120683087Y-53258942D01*
X120682336Y-53257130D01*
X120643117Y-53162447D01*
X120567683Y-52980332D01*
X120563588Y-52973240D01*
X120416900Y-52719168D01*
X120233320Y-52479921D01*
X120233314Y-52479914D01*
X120020085Y-52266685D01*
X120020078Y-52266679D01*
X119780831Y-52083099D01*
X119519671Y-51932318D01*
X119519661Y-51932314D01*
X119241060Y-51816913D01*
X118949766Y-51738861D01*
X118650793Y-51699501D01*
X118650788Y-51699500D01*
X118650783Y-51699500D01*
X118349217Y-51699500D01*
X118349211Y-51699500D01*
X118349206Y-51699501D01*
X118050233Y-51738861D01*
X117758939Y-51816913D01*
X117480338Y-51932314D01*
X117480328Y-51932318D01*
X117219168Y-52083099D01*
X116979921Y-52266679D01*
X116979914Y-52266685D01*
X116766685Y-52479914D01*
X116766679Y-52479921D01*
X116583099Y-52719168D01*
X116432318Y-52980328D01*
X116432314Y-52980338D01*
X116316913Y-53258939D01*
X116238861Y-53550233D01*
X116199501Y-53849206D01*
X116199500Y-53849223D01*
X114611584Y-53849223D01*
X114590940Y-53718881D01*
X114548225Y-53587420D01*
X114532547Y-53539168D01*
X114532545Y-53539165D01*
X114532545Y-53539163D01*
X114505424Y-53485937D01*
X114456815Y-53390535D01*
X114443920Y-53321870D01*
X114470196Y-53257130D01*
X114527302Y-53216872D01*
X114571207Y-53211065D01*
X114571207Y-53210500D01*
X114804727Y-53210500D01*
X114804734Y-53210500D01*
X115032238Y-53180548D01*
X115253887Y-53121158D01*
X115465888Y-53033344D01*
X115664612Y-52918611D01*
X115846661Y-52778919D01*
X115846665Y-52778914D01*
X115846670Y-52778911D01*
X116008911Y-52616670D01*
X116008914Y-52616665D01*
X116008919Y-52616661D01*
X116148611Y-52434612D01*
X116263344Y-52235888D01*
X116351158Y-52023887D01*
X116410548Y-51802238D01*
X116440500Y-51574734D01*
X116440500Y-51345266D01*
X116410548Y-51117762D01*
X116351158Y-50896113D01*
X116263344Y-50684112D01*
X116148611Y-50485388D01*
X116148608Y-50485385D01*
X116148607Y-50485382D01*
X116008918Y-50303338D01*
X116008911Y-50303330D01*
X115846670Y-50141089D01*
X115846661Y-50141081D01*
X115664617Y-50001392D01*
X115606210Y-49967671D01*
X115465888Y-49886656D01*
X115465876Y-49886650D01*
X115253887Y-49798842D01*
X115032238Y-49739452D01*
X114994215Y-49734446D01*
X114804741Y-49709500D01*
X114804734Y-49709500D01*
X114575266Y-49709500D01*
X114575258Y-49709500D01*
X114358715Y-49738009D01*
X114347762Y-49739452D01*
X114309374Y-49749738D01*
X114126112Y-49798842D01*
X113914123Y-49886650D01*
X113914109Y-49886657D01*
X113715382Y-50001392D01*
X113533338Y-50141081D01*
X113402180Y-50272239D01*
X113340857Y-50305724D01*
X113271165Y-50300740D01*
X113215232Y-50258868D01*
X113190815Y-50193404D01*
X113190499Y-50184558D01*
X113190499Y-50162129D01*
X113190498Y-50162123D01*
X113188236Y-50141081D01*
X113184091Y-50102517D01*
X113180777Y-50093633D01*
X113133797Y-49967671D01*
X113133793Y-49967664D01*
X113047547Y-49852455D01*
X113047544Y-49852452D01*
X112932335Y-49766206D01*
X112932328Y-49766202D01*
X112797482Y-49715908D01*
X112797483Y-49715908D01*
X112737883Y-49709501D01*
X112737881Y-49709500D01*
X112737873Y-49709500D01*
X112737865Y-49709500D01*
X110565097Y-49709500D01*
X110498058Y-49689815D01*
X110477416Y-49673181D01*
X109609493Y-48805258D01*
X119289500Y-48805258D01*
X119289500Y-49034741D01*
X119314446Y-49224215D01*
X119319452Y-49262238D01*
X119319453Y-49262240D01*
X119378842Y-49483887D01*
X119466650Y-49695876D01*
X119466657Y-49695890D01*
X119478215Y-49715909D01*
X119550643Y-49841359D01*
X119581392Y-49894617D01*
X119721081Y-50076661D01*
X119721089Y-50076670D01*
X119883330Y-50238911D01*
X119883338Y-50238918D01*
X120065382Y-50378607D01*
X120065385Y-50378608D01*
X120065388Y-50378611D01*
X120264112Y-50493344D01*
X120264117Y-50493346D01*
X120264123Y-50493349D01*
X120345816Y-50527187D01*
X120476113Y-50581158D01*
X120697762Y-50640548D01*
X120914312Y-50669057D01*
X120921460Y-50669999D01*
X120925266Y-50670500D01*
X120925273Y-50670500D01*
X121154727Y-50670500D01*
X121154734Y-50670500D01*
X121382238Y-50640548D01*
X121603887Y-50581158D01*
X121815888Y-50493344D01*
X122014612Y-50378611D01*
X122196661Y-50238919D01*
X122196665Y-50238914D01*
X122196670Y-50238911D01*
X122355319Y-50080262D01*
X122416642Y-50046777D01*
X122486334Y-50051761D01*
X122542267Y-50093633D01*
X122566684Y-50159097D01*
X122567000Y-50167943D01*
X122567000Y-50217844D01*
X122573401Y-50277372D01*
X122573403Y-50277379D01*
X122623645Y-50412086D01*
X122623649Y-50412093D01*
X122709809Y-50527187D01*
X122709812Y-50527190D01*
X122824906Y-50613350D01*
X122824913Y-50613354D01*
X122959620Y-50663596D01*
X122959627Y-50663598D01*
X123019155Y-50669999D01*
X123019172Y-50670000D01*
X124092000Y-50670000D01*
X124592000Y-50670000D01*
X125664828Y-50670000D01*
X125664844Y-50669999D01*
X125724372Y-50663598D01*
X125724379Y-50663596D01*
X125859086Y-50613354D01*
X125859093Y-50613350D01*
X125974187Y-50527190D01*
X125974190Y-50527187D01*
X126060350Y-50412093D01*
X126060354Y-50412086D01*
X126110596Y-50277379D01*
X126110598Y-50277372D01*
X126116999Y-50217844D01*
X126117000Y-50217827D01*
X126117000Y-49170000D01*
X124592000Y-49170000D01*
X124592000Y-50670000D01*
X124092000Y-50670000D01*
X124092000Y-48670000D01*
X124592000Y-48670000D01*
X126117000Y-48670000D01*
X126117000Y-47622172D01*
X126116999Y-47622155D01*
X126110598Y-47562627D01*
X126110596Y-47562620D01*
X126060354Y-47427913D01*
X126060350Y-47427906D01*
X125974190Y-47312812D01*
X125974187Y-47312809D01*
X125859093Y-47226649D01*
X125859086Y-47226645D01*
X125724379Y-47176403D01*
X125724372Y-47176401D01*
X125664844Y-47170000D01*
X124592000Y-47170000D01*
X124592000Y-48670000D01*
X124092000Y-48670000D01*
X124092000Y-47170000D01*
X123019155Y-47170000D01*
X122959627Y-47176401D01*
X122959620Y-47176403D01*
X122824913Y-47226645D01*
X122824906Y-47226649D01*
X122709812Y-47312809D01*
X122709809Y-47312812D01*
X122623649Y-47427906D01*
X122623645Y-47427913D01*
X122573403Y-47562620D01*
X122573401Y-47562627D01*
X122567000Y-47622155D01*
X122567000Y-47672057D01*
X122547315Y-47739096D01*
X122494511Y-47784851D01*
X122425353Y-47794795D01*
X122361797Y-47765770D01*
X122355319Y-47759738D01*
X122196670Y-47601089D01*
X122196661Y-47601081D01*
X122014617Y-47461392D01*
X121815890Y-47346657D01*
X121815876Y-47346650D01*
X121603887Y-47258842D01*
X121382238Y-47199452D01*
X121344215Y-47194446D01*
X121154741Y-47169500D01*
X121154734Y-47169500D01*
X120925266Y-47169500D01*
X120925258Y-47169500D01*
X120708715Y-47198009D01*
X120697762Y-47199452D01*
X120604076Y-47224554D01*
X120476112Y-47258842D01*
X120264123Y-47346650D01*
X120264109Y-47346657D01*
X120065382Y-47461392D01*
X119883338Y-47601081D01*
X119721081Y-47763338D01*
X119581392Y-47945382D01*
X119466657Y-48144109D01*
X119466650Y-48144123D01*
X119378842Y-48356112D01*
X119356251Y-48440423D01*
X119335069Y-48519480D01*
X119319453Y-48577759D01*
X119319451Y-48577770D01*
X119289500Y-48805258D01*
X109609493Y-48805258D01*
X109442590Y-48638355D01*
X109442588Y-48638352D01*
X109323717Y-48519481D01*
X109323716Y-48519480D01*
X109236904Y-48469360D01*
X109236904Y-48469359D01*
X109236900Y-48469358D01*
X109186785Y-48440423D01*
X109034057Y-48399499D01*
X108875943Y-48399499D01*
X108868347Y-48399499D01*
X108868331Y-48399500D01*
X71122941Y-48399500D01*
X71055902Y-48379815D01*
X71035260Y-48363181D01*
X71030292Y-48358213D01*
X71030288Y-48358210D01*
X70899185Y-48270609D01*
X70899172Y-48270602D01*
X70753501Y-48210264D01*
X70753489Y-48210261D01*
X70598845Y-48179500D01*
X70598842Y-48179500D01*
X70441158Y-48179500D01*
X70441155Y-48179500D01*
X70286510Y-48210261D01*
X70286498Y-48210264D01*
X70140827Y-48270602D01*
X70140814Y-48270609D01*
X70009711Y-48358210D01*
X70009707Y-48358213D01*
X69898213Y-48469707D01*
X69898210Y-48469711D01*
X69810609Y-48600814D01*
X69810602Y-48600827D01*
X69750264Y-48746498D01*
X69750261Y-48746510D01*
X69719500Y-48901153D01*
X43910500Y-48901153D01*
X43910500Y-46359758D01*
X43930185Y-46292719D01*
X43982989Y-46246964D01*
X44052147Y-46237020D01*
X44115703Y-46266045D01*
X44118445Y-46268598D01*
X44120213Y-46270109D01*
X44292179Y-46395048D01*
X44292181Y-46395049D01*
X44292184Y-46395051D01*
X44481588Y-46491557D01*
X44683757Y-46557246D01*
X44893713Y-46590500D01*
X44893714Y-46590500D01*
X45106286Y-46590500D01*
X45106287Y-46590500D01*
X45316243Y-46557246D01*
X45518412Y-46491557D01*
X45707816Y-46395051D01*
X45788500Y-46336431D01*
X45879786Y-46270109D01*
X45879788Y-46270106D01*
X45879792Y-46270104D01*
X46030104Y-46119792D01*
X46030106Y-46119788D01*
X46030109Y-46119786D01*
X46155048Y-45947820D01*
X46155050Y-45947817D01*
X46155051Y-45947816D01*
X46159514Y-45939054D01*
X46207488Y-45888259D01*
X46275308Y-45871463D01*
X46341444Y-45893999D01*
X46380486Y-45939056D01*
X46384951Y-45947820D01*
X46509890Y-46119786D01*
X46660213Y-46270109D01*
X46832179Y-46395048D01*
X46832181Y-46395049D01*
X46832184Y-46395051D01*
X47021588Y-46491557D01*
X47223757Y-46557246D01*
X47433713Y-46590500D01*
X47433714Y-46590500D01*
X47646286Y-46590500D01*
X47646287Y-46590500D01*
X47856243Y-46557246D01*
X48058412Y-46491557D01*
X48247816Y-46395051D01*
X48328500Y-46336431D01*
X48419786Y-46270109D01*
X48419788Y-46270106D01*
X48419792Y-46270104D01*
X48438769Y-46251126D01*
X48500089Y-46217641D01*
X48569781Y-46222624D01*
X48614131Y-46251126D01*
X49519379Y-47156374D01*
X49519389Y-47156385D01*
X49523719Y-47160715D01*
X49523720Y-47160716D01*
X49635524Y-47272520D01*
X49705314Y-47312812D01*
X49722335Y-47322639D01*
X49722337Y-47322641D01*
X49760391Y-47344611D01*
X49772455Y-47351577D01*
X49925183Y-47392501D01*
X49925186Y-47392501D01*
X50090893Y-47392501D01*
X50090909Y-47392500D01*
X102371331Y-47392500D01*
X102371347Y-47392501D01*
X102378943Y-47392501D01*
X102537054Y-47392501D01*
X102537057Y-47392501D01*
X102689785Y-47351577D01*
X102739904Y-47322639D01*
X102826716Y-47272520D01*
X102938520Y-47160716D01*
X102938520Y-47160714D01*
X102948728Y-47150507D01*
X102948730Y-47150504D01*
X110297098Y-39802135D01*
X116749500Y-39802135D01*
X116749500Y-42397870D01*
X116749501Y-42397876D01*
X116755908Y-42457483D01*
X116806202Y-42592328D01*
X116806206Y-42592335D01*
X116892452Y-42707544D01*
X116892455Y-42707547D01*
X117007664Y-42793793D01*
X117007671Y-42793797D01*
X117142517Y-42844091D01*
X117142516Y-42844091D01*
X117146237Y-42844491D01*
X117202127Y-42850500D01*
X120297872Y-42850499D01*
X120357483Y-42844091D01*
X120492331Y-42793796D01*
X120607546Y-42707546D01*
X120693796Y-42592331D01*
X120744091Y-42457483D01*
X120750500Y-42397873D01*
X120750499Y-39802128D01*
X120744091Y-39742517D01*
X120710845Y-39653381D01*
X120693797Y-39607671D01*
X120693795Y-39607668D01*
X120672574Y-39579320D01*
X120672573Y-39579319D01*
X120669065Y-39574633D01*
X120607546Y-39492454D01*
X120607544Y-39492453D01*
X120607544Y-39492452D01*
X120492335Y-39406206D01*
X120492328Y-39406202D01*
X120357482Y-39355908D01*
X120357483Y-39355908D01*
X120297883Y-39349501D01*
X120297881Y-39349500D01*
X120297873Y-39349500D01*
X120297864Y-39349500D01*
X117202129Y-39349500D01*
X117202123Y-39349501D01*
X117142516Y-39355908D01*
X117007671Y-39406202D01*
X117007664Y-39406206D01*
X116892455Y-39492452D01*
X116892452Y-39492455D01*
X116806206Y-39607664D01*
X116806202Y-39607671D01*
X116755908Y-39742517D01*
X116753814Y-39762000D01*
X116749501Y-39802123D01*
X116749500Y-39802135D01*
X110297098Y-39802135D01*
X110646437Y-39452796D01*
X110707758Y-39419313D01*
X110772433Y-39422547D01*
X110898632Y-39463553D01*
X110986110Y-39477408D01*
X111131903Y-39500500D01*
X111131908Y-39500500D01*
X111368097Y-39500500D01*
X111601368Y-39463553D01*
X111825992Y-39390568D01*
X112036433Y-39283343D01*
X112227510Y-39144517D01*
X112394517Y-38977510D01*
X112533343Y-38786433D01*
X112640568Y-38575992D01*
X112713553Y-38351368D01*
X112717284Y-38327814D01*
X112750500Y-38118097D01*
X112750500Y-37881902D01*
X112713553Y-37648631D01*
X112648911Y-37449686D01*
X112640568Y-37424008D01*
X112640566Y-37424005D01*
X112640566Y-37424003D01*
X112533342Y-37213566D01*
X112394517Y-37022490D01*
X112227510Y-36855483D01*
X112171259Y-36814614D01*
X112128595Y-36759284D01*
X112123902Y-36727455D01*
X111379408Y-35982962D01*
X111442993Y-35965925D01*
X111557007Y-35900099D01*
X111650099Y-35807007D01*
X111715925Y-35692993D01*
X111732962Y-35629409D01*
X112472658Y-36369105D01*
X112472658Y-36369104D01*
X112532914Y-36286169D01*
X112532918Y-36286163D01*
X112640102Y-36075802D01*
X112713065Y-35851247D01*
X112750000Y-35618052D01*
X112750000Y-35381947D01*
X112713065Y-35148752D01*
X112640102Y-34924197D01*
X112532914Y-34713828D01*
X112463394Y-34618142D01*
X112439914Y-34552335D01*
X112455739Y-34484281D01*
X112489401Y-34445989D01*
X112492329Y-34443796D01*
X112492331Y-34443796D01*
X112607546Y-34357546D01*
X112693796Y-34242331D01*
X112744091Y-34107483D01*
X112750500Y-34047873D01*
X112750499Y-32400639D01*
X124487500Y-32400639D01*
X124487500Y-32599360D01*
X124518587Y-32795637D01*
X124579993Y-32984629D01*
X124579994Y-32984632D01*
X124636648Y-33095820D01*
X124670213Y-33161694D01*
X124787019Y-33322464D01*
X124787021Y-33322466D01*
X124876874Y-33412319D01*
X124910359Y-33473642D01*
X124905375Y-33543334D01*
X124876874Y-33587681D01*
X124787021Y-33677533D01*
X124670213Y-33838305D01*
X124579994Y-34015367D01*
X124579993Y-34015370D01*
X124518587Y-34204362D01*
X124487500Y-34400639D01*
X124487500Y-34599360D01*
X124518587Y-34795637D01*
X124579993Y-34984629D01*
X124579994Y-34984632D01*
X124663619Y-35148752D01*
X124670213Y-35161694D01*
X124787019Y-35322464D01*
X124787021Y-35322466D01*
X124876874Y-35412319D01*
X124910359Y-35473642D01*
X124905375Y-35543334D01*
X124876874Y-35587681D01*
X124787021Y-35677533D01*
X124670213Y-35838305D01*
X124579994Y-36015367D01*
X124579993Y-36015370D01*
X124518587Y-36204362D01*
X124487500Y-36400639D01*
X124487500Y-36599360D01*
X124518587Y-36795637D01*
X124579993Y-36984629D01*
X124579994Y-36984632D01*
X124639587Y-37101588D01*
X124670213Y-37161694D01*
X124787019Y-37322464D01*
X124927536Y-37462981D01*
X125088306Y-37579787D01*
X125264571Y-37669598D01*
X125295953Y-37692400D01*
X125620591Y-38017037D01*
X125557007Y-38034075D01*
X125442993Y-38099901D01*
X125349901Y-38192993D01*
X125284075Y-38307007D01*
X125267037Y-38370590D01*
X124697730Y-37801282D01*
X124697729Y-37801283D01*
X124670643Y-37838564D01*
X124580457Y-38015562D01*
X124519075Y-38204476D01*
X124519075Y-38204479D01*
X124488000Y-38400678D01*
X124488000Y-38599321D01*
X124519075Y-38795520D01*
X124519075Y-38795523D01*
X124580457Y-38984437D01*
X124670641Y-39161432D01*
X124697730Y-39198715D01*
X124697731Y-39198716D01*
X125267037Y-38629409D01*
X125284075Y-38692993D01*
X125349901Y-38807007D01*
X125442993Y-38900099D01*
X125557007Y-38965925D01*
X125620590Y-38982962D01*
X125051283Y-39552268D01*
X125051283Y-39552269D01*
X125088567Y-39579358D01*
X125265562Y-39669542D01*
X125454477Y-39730924D01*
X125650679Y-39762000D01*
X125849321Y-39762000D01*
X126045520Y-39730924D01*
X126045523Y-39730924D01*
X126234437Y-39669542D01*
X126411425Y-39579362D01*
X126448716Y-39552268D01*
X125879410Y-38982962D01*
X125942993Y-38965925D01*
X126057007Y-38900099D01*
X126150099Y-38807007D01*
X126215925Y-38692993D01*
X126232962Y-38629409D01*
X126802268Y-39198715D01*
X126829362Y-39161425D01*
X126919542Y-38984437D01*
X126980924Y-38795523D01*
X126980924Y-38795520D01*
X127012000Y-38599321D01*
X127012000Y-38400678D01*
X126980924Y-38204479D01*
X126980924Y-38204476D01*
X126919542Y-38015562D01*
X126829358Y-37838567D01*
X126802268Y-37801283D01*
X126232962Y-38370589D01*
X126215925Y-38307007D01*
X126150099Y-38192993D01*
X126057007Y-38099901D01*
X125942993Y-38034075D01*
X125879409Y-38017037D01*
X126204044Y-37692402D01*
X126235428Y-37669599D01*
X126411694Y-37579787D01*
X126572464Y-37462981D01*
X126712981Y-37322464D01*
X126829787Y-37161694D01*
X126920005Y-36984632D01*
X126981413Y-36795636D01*
X127012500Y-36599361D01*
X127012500Y-36400639D01*
X126981413Y-36204364D01*
X126920005Y-36015368D01*
X126920005Y-36015367D01*
X126853938Y-35885705D01*
X126829787Y-35838306D01*
X126712981Y-35677536D01*
X126623126Y-35587681D01*
X126589641Y-35526358D01*
X126594625Y-35456666D01*
X126623126Y-35412319D01*
X126660945Y-35374500D01*
X126712981Y-35322464D01*
X126829787Y-35161694D01*
X126920005Y-34984632D01*
X126981413Y-34795636D01*
X127012500Y-34599361D01*
X127012500Y-34400639D01*
X126981413Y-34204364D01*
X126930570Y-34047883D01*
X126920006Y-34015370D01*
X126920005Y-34015367D01*
X126871659Y-33920484D01*
X126829787Y-33838306D01*
X126712981Y-33677536D01*
X126623126Y-33587681D01*
X126589641Y-33526358D01*
X126594625Y-33456666D01*
X126623126Y-33412319D01*
X126660445Y-33375000D01*
X126712981Y-33322464D01*
X126829787Y-33161694D01*
X126920005Y-32984632D01*
X126981413Y-32795636D01*
X127012500Y-32599361D01*
X127012500Y-32400639D01*
X126981413Y-32204364D01*
X126920005Y-32015368D01*
X126920005Y-32015367D01*
X126857408Y-31892516D01*
X126829787Y-31838306D01*
X126712981Y-31677536D01*
X126572464Y-31537019D01*
X126411694Y-31420213D01*
X126371504Y-31399735D01*
X126234632Y-31329994D01*
X126234629Y-31329993D01*
X126045637Y-31268587D01*
X125938107Y-31251556D01*
X125849361Y-31237500D01*
X125650639Y-31237500D01*
X125585214Y-31247862D01*
X125454362Y-31268587D01*
X125265370Y-31329993D01*
X125265367Y-31329994D01*
X125088305Y-31420213D01*
X124927533Y-31537021D01*
X124787021Y-31677533D01*
X124670213Y-31838305D01*
X124579994Y-32015367D01*
X124579993Y-32015370D01*
X124518587Y-32204362D01*
X124487500Y-32400639D01*
X112750499Y-32400639D01*
X112750499Y-31952128D01*
X112744091Y-31892517D01*
X112740369Y-31882539D01*
X112693797Y-31757671D01*
X112693793Y-31757664D01*
X112607547Y-31642455D01*
X112607544Y-31642452D01*
X112492335Y-31556206D01*
X112492328Y-31556202D01*
X112357482Y-31505908D01*
X112357483Y-31505908D01*
X112297883Y-31499501D01*
X112297881Y-31499500D01*
X112297873Y-31499500D01*
X112297864Y-31499500D01*
X110202129Y-31499500D01*
X110202123Y-31499501D01*
X110142516Y-31505908D01*
X110007671Y-31556202D01*
X110007664Y-31556206D01*
X109892455Y-31642452D01*
X109892452Y-31642455D01*
X109806206Y-31757664D01*
X109806202Y-31757671D01*
X109755908Y-31892517D01*
X109749501Y-31952116D01*
X109749501Y-31952123D01*
X109749500Y-31952135D01*
X109749500Y-33599902D01*
X109729815Y-33666941D01*
X109713181Y-33687583D01*
X101844491Y-41556272D01*
X101783168Y-41589757D01*
X101713476Y-41584773D01*
X101657543Y-41542901D01*
X101653723Y-41537504D01*
X101621789Y-41489711D01*
X101621787Y-41489708D01*
X101510292Y-41378213D01*
X101510288Y-41378210D01*
X101379185Y-41290609D01*
X101379172Y-41290602D01*
X101233501Y-41230264D01*
X101233489Y-41230261D01*
X101078845Y-41199500D01*
X101078842Y-41199500D01*
X100921158Y-41199500D01*
X100921155Y-41199500D01*
X100766510Y-41230261D01*
X100766498Y-41230264D01*
X100620827Y-41290602D01*
X100620814Y-41290609D01*
X100489125Y-41378602D01*
X100422447Y-41399480D01*
X100420234Y-41399500D01*
X86979766Y-41399500D01*
X86912727Y-41379815D01*
X86910875Y-41378602D01*
X86779185Y-41290609D01*
X86779172Y-41290602D01*
X86633501Y-41230264D01*
X86633489Y-41230261D01*
X86478845Y-41199500D01*
X86478842Y-41199500D01*
X86321158Y-41199500D01*
X86321155Y-41199500D01*
X86166510Y-41230261D01*
X86166498Y-41230264D01*
X86020827Y-41290602D01*
X86020814Y-41290609D01*
X85889711Y-41378210D01*
X85889707Y-41378213D01*
X85778213Y-41489707D01*
X85778210Y-41489711D01*
X85690609Y-41620814D01*
X85690602Y-41620827D01*
X85630264Y-41766498D01*
X85630261Y-41766510D01*
X85599500Y-41921153D01*
X85599500Y-42078846D01*
X85630261Y-42233489D01*
X85630264Y-42233501D01*
X85690602Y-42379172D01*
X85690609Y-42379185D01*
X85778210Y-42510288D01*
X85778213Y-42510292D01*
X85889707Y-42621786D01*
X85889711Y-42621789D01*
X86020814Y-42709390D01*
X86020827Y-42709397D01*
X86166498Y-42769735D01*
X86166503Y-42769737D01*
X86287440Y-42793793D01*
X86321153Y-42800499D01*
X86321156Y-42800500D01*
X86321158Y-42800500D01*
X86478844Y-42800500D01*
X86478845Y-42800499D01*
X86633497Y-42769737D01*
X86779179Y-42709394D01*
X86782286Y-42707318D01*
X86910875Y-42621398D01*
X86977553Y-42600520D01*
X86979766Y-42600500D01*
X100420234Y-42600500D01*
X100438378Y-42605827D01*
X100457285Y-42606165D01*
X100485503Y-42619665D01*
X100487273Y-42620185D01*
X100489123Y-42621397D01*
X100537480Y-42653707D01*
X100582286Y-42707318D01*
X100590995Y-42776643D01*
X100560841Y-42839671D01*
X100556272Y-42844491D01*
X97646584Y-45754181D01*
X97585261Y-45787666D01*
X97558903Y-45790500D01*
X67438096Y-45790500D01*
X67371057Y-45770815D01*
X67325302Y-45718011D01*
X67315358Y-45648853D01*
X67344383Y-45585297D01*
X67350415Y-45578819D01*
X79842416Y-33086819D01*
X79903739Y-33053334D01*
X79930097Y-33050500D01*
X93229055Y-33050500D01*
X93229057Y-33050500D01*
X93381784Y-33009577D01*
X93518716Y-32930520D01*
X93630520Y-32818716D01*
X93709577Y-32681784D01*
X93750500Y-32529057D01*
X93750500Y-28602135D01*
X116749500Y-28602135D01*
X116749500Y-31197870D01*
X116749501Y-31197876D01*
X116755908Y-31257483D01*
X116806202Y-31392328D01*
X116806206Y-31392335D01*
X116892452Y-31507544D01*
X116892455Y-31507547D01*
X117007664Y-31593793D01*
X117007671Y-31593797D01*
X117142517Y-31644091D01*
X117142516Y-31644091D01*
X117149444Y-31644835D01*
X117202127Y-31650500D01*
X120297872Y-31650499D01*
X120357483Y-31644091D01*
X120492331Y-31593796D01*
X120607546Y-31507546D01*
X120693796Y-31392331D01*
X120744091Y-31257483D01*
X120750500Y-31197873D01*
X120750499Y-28602128D01*
X120744091Y-28542517D01*
X120729110Y-28502352D01*
X120693797Y-28407671D01*
X120693793Y-28407664D01*
X120607547Y-28292455D01*
X120607544Y-28292452D01*
X120492335Y-28206206D01*
X120492328Y-28206202D01*
X120357482Y-28155908D01*
X120357483Y-28155908D01*
X120297883Y-28149501D01*
X120297881Y-28149500D01*
X120297873Y-28149500D01*
X120297864Y-28149500D01*
X117202129Y-28149500D01*
X117202123Y-28149501D01*
X117142516Y-28155908D01*
X117007671Y-28206202D01*
X117007664Y-28206206D01*
X116892455Y-28292452D01*
X116892452Y-28292455D01*
X116806206Y-28407664D01*
X116806202Y-28407671D01*
X116755908Y-28542517D01*
X116749501Y-28602116D01*
X116749501Y-28602123D01*
X116749500Y-28602135D01*
X93750500Y-28602135D01*
X93750500Y-24220943D01*
X93717703Y-24098541D01*
X93717703Y-24098540D01*
X93717703Y-24098539D01*
X93709578Y-24068218D01*
X93709576Y-24068213D01*
X93703543Y-24057763D01*
X93703543Y-24057762D01*
X93670193Y-24000000D01*
X102494825Y-24000000D01*
X102513500Y-24273038D01*
X102513501Y-24273040D01*
X102569178Y-24540979D01*
X102569183Y-24540995D01*
X102660829Y-24798860D01*
X102660828Y-24798860D01*
X102786740Y-25041858D01*
X102786744Y-25041864D01*
X102944560Y-25265439D01*
X102967198Y-25289678D01*
X103098769Y-25430556D01*
X103131365Y-25465457D01*
X103242292Y-25555703D01*
X103343655Y-25638168D01*
X103343657Y-25638169D01*
X103343658Y-25638170D01*
X103577490Y-25780366D01*
X103677921Y-25823989D01*
X103828508Y-25889398D01*
X104092035Y-25963235D01*
X104330399Y-25995996D01*
X104363161Y-26000500D01*
X104363162Y-26000500D01*
X115636839Y-26000500D01*
X115666068Y-25996482D01*
X115907965Y-25963235D01*
X116171492Y-25889398D01*
X116422511Y-25780365D01*
X116656345Y-25638168D01*
X116868638Y-25465454D01*
X117055437Y-25265442D01*
X117213260Y-25041857D01*
X117339169Y-24798864D01*
X117430818Y-24540990D01*
X117430818Y-24540985D01*
X117430821Y-24540979D01*
X117479440Y-24307007D01*
X117486499Y-24273038D01*
X117505175Y-24000000D01*
X117495953Y-23865186D01*
X118599500Y-23865186D01*
X118599500Y-24134813D01*
X118629686Y-24402719D01*
X118629688Y-24402731D01*
X118689684Y-24665594D01*
X118689687Y-24665602D01*
X118778734Y-24920082D01*
X118895714Y-25162994D01*
X118923484Y-25207190D01*
X119039162Y-25391289D01*
X119207266Y-25602085D01*
X119397915Y-25792734D01*
X119608711Y-25960838D01*
X119837003Y-26104284D01*
X120079921Y-26221267D01*
X120271049Y-26288145D01*
X120334397Y-26310312D01*
X120334405Y-26310315D01*
X120334408Y-26310315D01*
X120334409Y-26310316D01*
X120597268Y-26370312D01*
X120865187Y-26400499D01*
X120865188Y-26400500D01*
X120865191Y-26400500D01*
X121134812Y-26400500D01*
X121134812Y-26400499D01*
X121402732Y-26370312D01*
X121665591Y-26310316D01*
X121920079Y-26221267D01*
X122162997Y-26104284D01*
X122391289Y-25960838D01*
X122602085Y-25792734D01*
X122792734Y-25602085D01*
X122960838Y-25391289D01*
X123104284Y-25162997D01*
X123221267Y-24920079D01*
X123310316Y-24665591D01*
X123370312Y-24402732D01*
X123400500Y-24134809D01*
X123400500Y-23865191D01*
X123370312Y-23597268D01*
X123310316Y-23334409D01*
X123309401Y-23331795D01*
X123245861Y-23150208D01*
X123221267Y-23079921D01*
X123104284Y-22837003D01*
X122960838Y-22608711D01*
X122792734Y-22397915D01*
X122602085Y-22207266D01*
X122391289Y-22039162D01*
X122162997Y-21895716D01*
X122162994Y-21895714D01*
X121920082Y-21778734D01*
X121665602Y-21689687D01*
X121665594Y-21689684D01*
X121468446Y-21644687D01*
X121402732Y-21629688D01*
X121402728Y-21629687D01*
X121402719Y-21629686D01*
X121134813Y-21599500D01*
X121134809Y-21599500D01*
X120865191Y-21599500D01*
X120865186Y-21599500D01*
X120597280Y-21629686D01*
X120597268Y-21629688D01*
X120334405Y-21689684D01*
X120334397Y-21689687D01*
X120079917Y-21778734D01*
X119837005Y-21895714D01*
X119608712Y-22039161D01*
X119397915Y-22207265D01*
X119207265Y-22397915D01*
X119039161Y-22608712D01*
X118895714Y-22837005D01*
X118778734Y-23079917D01*
X118689687Y-23334397D01*
X118689684Y-23334405D01*
X118629688Y-23597268D01*
X118629686Y-23597280D01*
X118599500Y-23865186D01*
X117495953Y-23865186D01*
X117492530Y-23815139D01*
X117486499Y-23726961D01*
X117486498Y-23726959D01*
X117486397Y-23726474D01*
X117466617Y-23631284D01*
X117430821Y-23459020D01*
X117430816Y-23459004D01*
X117339170Y-23201139D01*
X117339171Y-23201139D01*
X117213259Y-22958141D01*
X117213255Y-22958135D01*
X117055439Y-22734560D01*
X116975998Y-22649500D01*
X116868638Y-22534546D01*
X116868636Y-22534545D01*
X116868634Y-22534542D01*
X116700697Y-22397915D01*
X116656345Y-22361832D01*
X116656343Y-22361831D01*
X116656341Y-22361829D01*
X116422509Y-22219633D01*
X116171493Y-22110602D01*
X115907970Y-22036766D01*
X115907966Y-22036765D01*
X115907965Y-22036765D01*
X115772401Y-22018132D01*
X115636839Y-21999500D01*
X115636838Y-21999500D01*
X115565892Y-21999500D01*
X104565892Y-21999500D01*
X104500000Y-21999500D01*
X104363162Y-21999500D01*
X104363161Y-21999500D01*
X104092035Y-22036765D01*
X104092029Y-22036766D01*
X103828506Y-22110602D01*
X103577490Y-22219633D01*
X103343658Y-22361829D01*
X103131365Y-22534542D01*
X102944560Y-22734560D01*
X102786744Y-22958135D01*
X102786740Y-22958141D01*
X102660829Y-23201139D01*
X102569183Y-23459004D01*
X102569178Y-23459020D01*
X102513501Y-23726959D01*
X102513500Y-23726961D01*
X102494825Y-24000000D01*
X93670193Y-24000000D01*
X93660609Y-23983400D01*
X93660607Y-23983398D01*
X93630520Y-23931284D01*
X93518716Y-23819480D01*
X93518715Y-23819479D01*
X93514385Y-23815149D01*
X93514374Y-23815139D01*
X93337590Y-23638355D01*
X93337588Y-23638352D01*
X93218717Y-23519481D01*
X93218716Y-23519480D01*
X93113978Y-23459010D01*
X93113977Y-23459009D01*
X93081783Y-23440422D01*
X93025881Y-23425443D01*
X92929057Y-23399499D01*
X92770943Y-23399499D01*
X92763347Y-23399499D01*
X92763331Y-23399500D01*
X89365719Y-23399500D01*
X89298680Y-23379815D01*
X89255235Y-23331795D01*
X89235052Y-23292185D01*
X89235051Y-23292184D01*
X89110109Y-23120213D01*
X88959786Y-22969890D01*
X88787820Y-22844951D01*
X88598414Y-22748444D01*
X88598413Y-22748443D01*
X88598412Y-22748443D01*
X88396243Y-22682754D01*
X88396241Y-22682753D01*
X88396240Y-22682753D01*
X88234957Y-22657208D01*
X88186287Y-22649500D01*
X87973713Y-22649500D01*
X87925042Y-22657208D01*
X87763760Y-22682753D01*
X87561585Y-22748444D01*
X87372179Y-22844951D01*
X87200213Y-22969890D01*
X87049890Y-23120213D01*
X86924949Y-23292182D01*
X86920484Y-23300946D01*
X86872509Y-23351742D01*
X86804688Y-23368536D01*
X86738553Y-23345998D01*
X86699516Y-23300946D01*
X86695050Y-23292182D01*
X86570109Y-23120213D01*
X86419786Y-22969890D01*
X86247820Y-22844951D01*
X86058414Y-22748444D01*
X86058413Y-22748443D01*
X86058412Y-22748443D01*
X85856243Y-22682754D01*
X85856241Y-22682753D01*
X85856240Y-22682753D01*
X85694957Y-22657208D01*
X85646287Y-22649500D01*
X85433713Y-22649500D01*
X85385042Y-22657208D01*
X85223760Y-22682753D01*
X85021585Y-22748444D01*
X84832179Y-22844951D01*
X84660213Y-22969890D01*
X84509890Y-23120213D01*
X84384949Y-23292182D01*
X84380484Y-23300946D01*
X84332509Y-23351742D01*
X84264688Y-23368536D01*
X84198553Y-23345998D01*
X84159516Y-23300946D01*
X84155050Y-23292182D01*
X84030109Y-23120213D01*
X83879786Y-22969890D01*
X83707820Y-22844951D01*
X83518414Y-22748444D01*
X83518413Y-22748443D01*
X83518412Y-22748443D01*
X83316243Y-22682754D01*
X83316241Y-22682753D01*
X83316240Y-22682753D01*
X83154957Y-22657208D01*
X83106287Y-22649500D01*
X82893713Y-22649500D01*
X82845042Y-22657208D01*
X82683760Y-22682753D01*
X82481585Y-22748444D01*
X82292179Y-22844951D01*
X82120213Y-22969890D01*
X81969890Y-23120213D01*
X81844949Y-23292182D01*
X81840484Y-23300946D01*
X81792509Y-23351742D01*
X81724688Y-23368536D01*
X81658553Y-23345998D01*
X81619516Y-23300946D01*
X81615050Y-23292182D01*
X81490109Y-23120213D01*
X81339786Y-22969890D01*
X81167820Y-22844951D01*
X80978414Y-22748444D01*
X80978413Y-22748443D01*
X80978412Y-22748443D01*
X80776243Y-22682754D01*
X80776241Y-22682753D01*
X80776240Y-22682753D01*
X80614957Y-22657208D01*
X80566287Y-22649500D01*
X80353713Y-22649500D01*
X80325006Y-22654046D01*
X80143757Y-22682753D01*
X80101473Y-22696492D01*
X80031632Y-22698486D01*
X79975476Y-22666241D01*
X79796590Y-22487355D01*
X79796588Y-22487352D01*
X79677717Y-22368481D01*
X79677716Y-22368480D01*
X79590904Y-22318360D01*
X79590904Y-22318359D01*
X79590900Y-22318358D01*
X79540785Y-22289423D01*
X79388057Y-22248499D01*
X79229943Y-22248499D01*
X79222347Y-22248499D01*
X79222331Y-22248500D01*
X74824180Y-22248500D01*
X74783259Y-22259464D01*
X74783259Y-22259465D01*
X74745991Y-22269451D01*
X74671454Y-22289423D01*
X74671449Y-22289426D01*
X74534530Y-22368475D01*
X74534522Y-22368481D01*
X73914131Y-22988873D01*
X73852808Y-23022358D01*
X73783116Y-23017374D01*
X73738769Y-22988873D01*
X73719786Y-22969890D01*
X73547820Y-22844951D01*
X73358414Y-22748444D01*
X73358413Y-22748443D01*
X73358412Y-22748443D01*
X73156243Y-22682754D01*
X73156241Y-22682753D01*
X73156240Y-22682753D01*
X72994957Y-22657208D01*
X72946287Y-22649500D01*
X72733713Y-22649500D01*
X72685042Y-22657208D01*
X72523760Y-22682753D01*
X72321585Y-22748444D01*
X72132179Y-22844951D01*
X71960215Y-22969889D01*
X71846285Y-23083819D01*
X71784962Y-23117303D01*
X71715270Y-23112319D01*
X71659337Y-23070447D01*
X71642422Y-23039470D01*
X71593354Y-22907913D01*
X71593350Y-22907906D01*
X71507190Y-22792812D01*
X71507187Y-22792809D01*
X71392093Y-22706649D01*
X71392086Y-22706645D01*
X71257379Y-22656403D01*
X71257372Y-22656401D01*
X71197844Y-22650000D01*
X70550000Y-22650000D01*
X70550000Y-23566988D01*
X70492993Y-23534075D01*
X70365826Y-23500000D01*
X70234174Y-23500000D01*
X70107007Y-23534075D01*
X70050000Y-23566988D01*
X70050000Y-22650000D01*
X69402155Y-22650000D01*
X69342627Y-22656401D01*
X69342620Y-22656403D01*
X69207913Y-22706645D01*
X69207906Y-22706649D01*
X69092812Y-22792809D01*
X69092809Y-22792812D01*
X69006649Y-22907906D01*
X69006645Y-22907913D01*
X68956403Y-23042620D01*
X68956401Y-23042627D01*
X68950000Y-23102155D01*
X68950000Y-23750000D01*
X69866988Y-23750000D01*
X69834075Y-23807007D01*
X69800000Y-23934174D01*
X69800000Y-24065826D01*
X69834075Y-24192993D01*
X69866988Y-24250000D01*
X68950000Y-24250000D01*
X68950000Y-24897844D01*
X68956401Y-24957372D01*
X68956403Y-24957379D01*
X69006645Y-25092086D01*
X69006649Y-25092093D01*
X69092809Y-25207187D01*
X69092812Y-25207190D01*
X69207906Y-25293350D01*
X69207913Y-25293354D01*
X69342620Y-25343596D01*
X69342619Y-25343596D01*
X69368939Y-25346426D01*
X69433490Y-25373164D01*
X69473339Y-25430556D01*
X69475834Y-25500381D01*
X69443366Y-25557397D01*
X65781286Y-29219478D01*
X65669481Y-29331282D01*
X65669479Y-29331284D01*
X65647973Y-29368536D01*
X65630096Y-29399500D01*
X65590423Y-29468215D01*
X65549499Y-29620943D01*
X65549499Y-29620945D01*
X65549499Y-29789046D01*
X65549500Y-29789059D01*
X65549500Y-31815500D01*
X65529815Y-31882539D01*
X65477011Y-31928294D01*
X65425500Y-31939500D01*
X59943575Y-31939500D01*
X59876536Y-31919815D01*
X59830781Y-31867011D01*
X59820837Y-31797853D01*
X59849862Y-31734297D01*
X59874684Y-31712398D01*
X59967323Y-31650498D01*
X60010289Y-31621789D01*
X60121789Y-31510289D01*
X60209394Y-31379179D01*
X60269737Y-31233497D01*
X60300500Y-31078842D01*
X60300500Y-30921158D01*
X60300500Y-30921155D01*
X60300499Y-30921153D01*
X60292271Y-30879790D01*
X60269737Y-30766503D01*
X60257442Y-30736819D01*
X60209397Y-30620827D01*
X60209390Y-30620814D01*
X60121789Y-30489711D01*
X60121786Y-30489707D01*
X60010292Y-30378213D01*
X60010288Y-30378210D01*
X59879185Y-30290609D01*
X59879172Y-30290602D01*
X59733501Y-30230264D01*
X59733491Y-30230261D01*
X59578151Y-30199362D01*
X59516241Y-30166977D01*
X59514662Y-30165426D01*
X57034590Y-27685355D01*
X57034588Y-27685352D01*
X56915717Y-27566481D01*
X56915716Y-27566480D01*
X56828904Y-27516360D01*
X56828904Y-27516359D01*
X56828900Y-27516358D01*
X56778785Y-27487423D01*
X56626057Y-27446499D01*
X56467943Y-27446499D01*
X56460347Y-27446499D01*
X56460331Y-27446500D01*
X34332057Y-27446500D01*
X34173943Y-27446500D01*
X34021215Y-27487423D01*
X34021214Y-27487423D01*
X34021212Y-27487424D01*
X34021209Y-27487425D01*
X33971096Y-27516359D01*
X33971095Y-27516360D01*
X33927689Y-27541420D01*
X33884285Y-27566479D01*
X33884282Y-27566481D01*
X33772478Y-27678286D01*
X32784522Y-28666241D01*
X32723199Y-28699726D01*
X32658523Y-28696491D01*
X32616245Y-28682754D01*
X32449744Y-28656383D01*
X32406287Y-28649500D01*
X32193713Y-28649500D01*
X32150256Y-28656383D01*
X31983760Y-28682753D01*
X31781585Y-28748444D01*
X31592179Y-28844951D01*
X31420213Y-28969890D01*
X31269890Y-29120213D01*
X31144951Y-29292179D01*
X31048444Y-29481585D01*
X30982753Y-29683760D01*
X30949500Y-29893713D01*
X30949500Y-30106287D01*
X30982754Y-30316243D01*
X31039117Y-30489711D01*
X31048444Y-30518414D01*
X31144951Y-30707820D01*
X31269890Y-30879786D01*
X31420213Y-31030109D01*
X31592179Y-31155048D01*
X31592181Y-31155049D01*
X31592184Y-31155051D01*
X31746143Y-31233497D01*
X31779513Y-31250500D01*
X31781588Y-31251557D01*
X31803025Y-31258522D01*
X31860701Y-31297958D01*
X31887900Y-31362317D01*
X31875986Y-31431163D01*
X31852389Y-31464134D01*
X30780286Y-32536238D01*
X30712181Y-32604343D01*
X30650858Y-32637828D01*
X30581166Y-32632844D01*
X30525233Y-32590972D01*
X30500816Y-32525508D01*
X30500500Y-32516662D01*
X30500500Y-23865186D01*
X36599500Y-23865186D01*
X36599500Y-24134813D01*
X36629686Y-24402719D01*
X36629688Y-24402731D01*
X36689684Y-24665594D01*
X36689687Y-24665602D01*
X36778734Y-24920082D01*
X36895714Y-25162994D01*
X36923484Y-25207190D01*
X37039162Y-25391289D01*
X37207266Y-25602085D01*
X37397915Y-25792734D01*
X37608711Y-25960838D01*
X37837003Y-26104284D01*
X38079921Y-26221267D01*
X38271049Y-26288145D01*
X38334397Y-26310312D01*
X38334405Y-26310315D01*
X38334408Y-26310315D01*
X38334409Y-26310316D01*
X38597268Y-26370312D01*
X38865187Y-26400499D01*
X38865188Y-26400500D01*
X38865191Y-26400500D01*
X39134812Y-26400500D01*
X39134812Y-26400499D01*
X39402732Y-26370312D01*
X39665591Y-26310316D01*
X39920079Y-26221267D01*
X40162997Y-26104284D01*
X40391289Y-25960838D01*
X40602085Y-25792734D01*
X40792734Y-25602085D01*
X40960838Y-25391289D01*
X41104284Y-25162997D01*
X41221267Y-24920079D01*
X41310316Y-24665591D01*
X41370312Y-24402732D01*
X41400500Y-24134809D01*
X41400500Y-24000000D01*
X42494825Y-24000000D01*
X42513500Y-24273038D01*
X42513501Y-24273040D01*
X42569178Y-24540979D01*
X42569183Y-24540995D01*
X42660829Y-24798860D01*
X42660828Y-24798860D01*
X42786740Y-25041858D01*
X42786744Y-25041864D01*
X42944560Y-25265439D01*
X42967198Y-25289678D01*
X43098769Y-25430556D01*
X43131365Y-25465457D01*
X43242292Y-25555703D01*
X43343655Y-25638168D01*
X43343657Y-25638169D01*
X43343658Y-25638170D01*
X43577490Y-25780366D01*
X43677921Y-25823989D01*
X43828508Y-25889398D01*
X44092035Y-25963235D01*
X44330399Y-25995996D01*
X44363161Y-26000500D01*
X44363162Y-26000500D01*
X55636839Y-26000500D01*
X55666068Y-25996482D01*
X55907965Y-25963235D01*
X56171492Y-25889398D01*
X56422511Y-25780365D01*
X56656345Y-25638168D01*
X56868638Y-25465454D01*
X57055437Y-25265442D01*
X57213260Y-25041857D01*
X57339169Y-24798864D01*
X57430818Y-24540990D01*
X57430818Y-24540985D01*
X57430821Y-24540979D01*
X57479440Y-24307007D01*
X57486499Y-24273038D01*
X57505175Y-24000000D01*
X57486499Y-23726962D01*
X57466617Y-23631284D01*
X57430821Y-23459020D01*
X57430816Y-23459004D01*
X57339172Y-23201142D01*
X57339169Y-23201136D01*
X57213260Y-22958143D01*
X57213259Y-22958141D01*
X57213255Y-22958135D01*
X57055439Y-22734560D01*
X56975998Y-22649500D01*
X56868638Y-22534546D01*
X56868636Y-22534545D01*
X56868634Y-22534542D01*
X56700697Y-22397915D01*
X56656345Y-22361832D01*
X56656343Y-22361831D01*
X56656341Y-22361829D01*
X56422509Y-22219633D01*
X56171493Y-22110602D01*
X55907970Y-22036766D01*
X55907966Y-22036765D01*
X55907965Y-22036765D01*
X55772401Y-22018132D01*
X55636839Y-21999500D01*
X55636838Y-21999500D01*
X55565892Y-21999500D01*
X44565892Y-21999500D01*
X44500000Y-21999500D01*
X44363162Y-21999500D01*
X44363161Y-21999500D01*
X44092035Y-22036765D01*
X44092029Y-22036766D01*
X43828506Y-22110602D01*
X43577490Y-22219633D01*
X43343658Y-22361829D01*
X43131365Y-22534542D01*
X42944560Y-22734560D01*
X42786744Y-22958135D01*
X42786740Y-22958141D01*
X42660829Y-23201139D01*
X42569183Y-23459004D01*
X42569178Y-23459020D01*
X42513501Y-23726959D01*
X42513500Y-23726961D01*
X42494825Y-24000000D01*
X41400500Y-24000000D01*
X41400500Y-23865191D01*
X41370312Y-23597268D01*
X41310316Y-23334409D01*
X41309401Y-23331795D01*
X41245861Y-23150208D01*
X41221267Y-23079921D01*
X41104284Y-22837003D01*
X40960838Y-22608711D01*
X40792734Y-22397915D01*
X40602085Y-22207266D01*
X40391289Y-22039162D01*
X40162997Y-21895716D01*
X40162994Y-21895714D01*
X39920082Y-21778734D01*
X39665602Y-21689687D01*
X39665594Y-21689684D01*
X39468446Y-21644687D01*
X39402732Y-21629688D01*
X39402728Y-21629687D01*
X39402719Y-21629686D01*
X39134813Y-21599500D01*
X39134809Y-21599500D01*
X38865191Y-21599500D01*
X38865186Y-21599500D01*
X38597280Y-21629686D01*
X38597268Y-21629688D01*
X38334405Y-21689684D01*
X38334397Y-21689687D01*
X38079917Y-21778734D01*
X37837005Y-21895714D01*
X37608712Y-22039161D01*
X37397915Y-22207265D01*
X37207265Y-22397915D01*
X37039161Y-22608712D01*
X36895714Y-22837005D01*
X36778734Y-23079917D01*
X36689687Y-23334397D01*
X36689684Y-23334405D01*
X36629688Y-23597268D01*
X36629686Y-23597280D01*
X36599500Y-23865186D01*
X30500500Y-23865186D01*
X30500500Y-23003750D01*
X30500726Y-22996263D01*
X30518244Y-22706649D01*
X30518271Y-22706201D01*
X30520076Y-22691340D01*
X30521650Y-22682754D01*
X30571780Y-22409197D01*
X30575364Y-22394663D01*
X30583523Y-22368480D01*
X30660696Y-22120822D01*
X30665998Y-22106841D01*
X30783731Y-21845249D01*
X30790676Y-21832016D01*
X30939080Y-21586526D01*
X30947567Y-21574230D01*
X31124480Y-21348417D01*
X31134395Y-21337226D01*
X31337226Y-21134395D01*
X31348417Y-21124480D01*
X31574230Y-20947567D01*
X31586526Y-20939080D01*
X31832016Y-20790676D01*
X31845249Y-20783731D01*
X32106841Y-20665998D01*
X32120822Y-20660696D01*
X32394668Y-20575362D01*
X32409197Y-20571780D01*
X32691344Y-20520075D01*
X32706201Y-20518271D01*
X32996264Y-20500726D01*
X33003751Y-20500500D01*
X33065892Y-20500500D01*
X126934108Y-20500500D01*
X126996249Y-20500500D01*
X127003736Y-20500726D01*
G37*
%TD.AperFunction*%
%TA.AperFunction,Conductor*%
G36*
X122192042Y-58920185D02*
G01*
X122212684Y-58936819D01*
X125281181Y-62005316D01*
X125314666Y-62066639D01*
X125317500Y-62092997D01*
X125317500Y-67046000D01*
X125297815Y-67113039D01*
X125245011Y-67158794D01*
X125193500Y-67170000D01*
X124592000Y-67170000D01*
X124592000Y-70670000D01*
X125193500Y-70670000D01*
X125260539Y-70689685D01*
X125306294Y-70742489D01*
X125317500Y-70794000D01*
X125317500Y-77081902D01*
X125297815Y-77148941D01*
X125281181Y-77169583D01*
X122311681Y-80139083D01*
X122250358Y-80172568D01*
X122180666Y-80167584D01*
X122124733Y-80125712D01*
X122100316Y-80060248D01*
X122100000Y-80051402D01*
X122100000Y-79950000D01*
X120874000Y-79950000D01*
X120806961Y-79930315D01*
X120761206Y-79877511D01*
X120750000Y-79826000D01*
X120750000Y-79574000D01*
X120769685Y-79506961D01*
X120822489Y-79461206D01*
X120874000Y-79450000D01*
X122100000Y-79450000D01*
X122100000Y-79152172D01*
X122099999Y-79152155D01*
X122093598Y-79092627D01*
X122075479Y-79044048D01*
X122070495Y-78974356D01*
X122075476Y-78957391D01*
X122094091Y-78907483D01*
X122100500Y-78847873D01*
X122100499Y-77752128D01*
X122094091Y-77692517D01*
X122071812Y-77632785D01*
X122043797Y-77557671D01*
X122043793Y-77557664D01*
X121957547Y-77442455D01*
X121957544Y-77442452D01*
X121842335Y-77356206D01*
X121842328Y-77356202D01*
X121707482Y-77305908D01*
X121707483Y-77305908D01*
X121647883Y-77299501D01*
X121647881Y-77299500D01*
X121647873Y-77299500D01*
X121647865Y-77299500D01*
X121625500Y-77299500D01*
X121558461Y-77279815D01*
X121512706Y-77227011D01*
X121501500Y-77175500D01*
X121501500Y-73905513D01*
X122379500Y-73905513D01*
X122379500Y-74094486D01*
X122409059Y-74281118D01*
X122467454Y-74460836D01*
X122553240Y-74629199D01*
X122664310Y-74782073D01*
X122797927Y-74915690D01*
X122950801Y-75026760D01*
X123029826Y-75067025D01*
X123119163Y-75112545D01*
X123119165Y-75112545D01*
X123119168Y-75112547D01*
X123215497Y-75143846D01*
X123298881Y-75170940D01*
X123485514Y-75200500D01*
X123485519Y-75200500D01*
X123674486Y-75200500D01*
X123861118Y-75170940D01*
X123873727Y-75166843D01*
X124040832Y-75112547D01*
X124209199Y-75026760D01*
X124362073Y-74915690D01*
X124495690Y-74782073D01*
X124606760Y-74629199D01*
X124692547Y-74460832D01*
X124750940Y-74281118D01*
X124780500Y-74094486D01*
X124780500Y-73905513D01*
X124750940Y-73718881D01*
X124692545Y-73539163D01*
X124606759Y-73370800D01*
X124571209Y-73321870D01*
X124495690Y-73217927D01*
X124362073Y-73084310D01*
X124209199Y-72973240D01*
X124040836Y-72887454D01*
X123861118Y-72829059D01*
X123674486Y-72799500D01*
X123674481Y-72799500D01*
X123485519Y-72799500D01*
X123485514Y-72799500D01*
X123298881Y-72829059D01*
X123119163Y-72887454D01*
X122950800Y-72973240D01*
X122941031Y-72980338D01*
X122797927Y-73084310D01*
X122797925Y-73084312D01*
X122797924Y-73084312D01*
X122664312Y-73217924D01*
X122664312Y-73217925D01*
X122664310Y-73217927D01*
X122635827Y-73257130D01*
X122553240Y-73370800D01*
X122467454Y-73539163D01*
X122409059Y-73718881D01*
X122379500Y-73905513D01*
X121501500Y-73905513D01*
X121501500Y-71487769D01*
X121501501Y-71487756D01*
X121501501Y-71319653D01*
X121460576Y-71166923D01*
X121460573Y-71166918D01*
X121381524Y-71029999D01*
X121381518Y-71029991D01*
X121215265Y-70863738D01*
X121181780Y-70802415D01*
X121186764Y-70732723D01*
X121228636Y-70676790D01*
X121286759Y-70653118D01*
X121382238Y-70640548D01*
X121603887Y-70581158D01*
X121815888Y-70493344D01*
X122014612Y-70378611D01*
X122196661Y-70238919D01*
X122196665Y-70238914D01*
X122196670Y-70238911D01*
X122355319Y-70080262D01*
X122416642Y-70046777D01*
X122486334Y-70051761D01*
X122542267Y-70093633D01*
X122566684Y-70159097D01*
X122567000Y-70167943D01*
X122567000Y-70217844D01*
X122573401Y-70277372D01*
X122573403Y-70277379D01*
X122623645Y-70412086D01*
X122623649Y-70412093D01*
X122709809Y-70527187D01*
X122709812Y-70527190D01*
X122824906Y-70613350D01*
X122824913Y-70613354D01*
X122959620Y-70663596D01*
X122959627Y-70663598D01*
X123019155Y-70669999D01*
X123019172Y-70670000D01*
X124092000Y-70670000D01*
X124092000Y-67170000D01*
X123019155Y-67170000D01*
X122959627Y-67176401D01*
X122959620Y-67176403D01*
X122824913Y-67226645D01*
X122824906Y-67226649D01*
X122709812Y-67312809D01*
X122709809Y-67312812D01*
X122623649Y-67427906D01*
X122623645Y-67427913D01*
X122573403Y-67562620D01*
X122573401Y-67562627D01*
X122567000Y-67622155D01*
X122567000Y-67672057D01*
X122547315Y-67739096D01*
X122494511Y-67784851D01*
X122425353Y-67794795D01*
X122361797Y-67765770D01*
X122355319Y-67759738D01*
X122196670Y-67601089D01*
X122196661Y-67601081D01*
X122014617Y-67461392D01*
X121815890Y-67346657D01*
X121815876Y-67346650D01*
X121603887Y-67258842D01*
X121382238Y-67199452D01*
X121344215Y-67194446D01*
X121154741Y-67169500D01*
X121154734Y-67169500D01*
X120925266Y-67169500D01*
X120925258Y-67169500D01*
X120708715Y-67198009D01*
X120697762Y-67199452D01*
X120604076Y-67224554D01*
X120476112Y-67258842D01*
X120264123Y-67346650D01*
X120264109Y-67346657D01*
X120065382Y-67461392D01*
X119883338Y-67601081D01*
X119721081Y-67763338D01*
X119581392Y-67945382D01*
X119466657Y-68144109D01*
X119466650Y-68144123D01*
X119378842Y-68356112D01*
X119319453Y-68577759D01*
X119319451Y-68577769D01*
X119306881Y-68673240D01*
X119278613Y-68737136D01*
X119220288Y-68775607D01*
X119150424Y-68776437D01*
X119096261Y-68744734D01*
X115386819Y-65035292D01*
X115353334Y-64973969D01*
X115350500Y-64947611D01*
X115350500Y-61136107D01*
X115370185Y-61069068D01*
X115422989Y-61023313D01*
X115492147Y-61013369D01*
X115506594Y-61016332D01*
X115506810Y-61016390D01*
X115506814Y-61016392D01*
X115634108Y-61050500D01*
X115634111Y-61050500D01*
X119365890Y-61050500D01*
X119365892Y-61050500D01*
X119493186Y-61016392D01*
X119607314Y-60950500D01*
X119700500Y-60857314D01*
X119755530Y-60762000D01*
X119806097Y-60713784D01*
X119862917Y-60700000D01*
X120000000Y-60700000D01*
X120500000Y-60700000D01*
X121147828Y-60700000D01*
X121147844Y-60699999D01*
X121207372Y-60693598D01*
X121207379Y-60693596D01*
X121342086Y-60643354D01*
X121342093Y-60643350D01*
X121457187Y-60557190D01*
X121457190Y-60557187D01*
X121543350Y-60442093D01*
X121543354Y-60442086D01*
X121593596Y-60307379D01*
X121593598Y-60307372D01*
X121599999Y-60247844D01*
X121600000Y-60247827D01*
X121600000Y-59950000D01*
X120500000Y-59950000D01*
X120500000Y-60700000D01*
X120000000Y-60700000D01*
X120000000Y-59824000D01*
X120019685Y-59756961D01*
X120072489Y-59711206D01*
X120124000Y-59700000D01*
X120250000Y-59700000D01*
X120250000Y-59574000D01*
X120269685Y-59506961D01*
X120322489Y-59461206D01*
X120374000Y-59450000D01*
X121600000Y-59450000D01*
X121600000Y-59152172D01*
X121599999Y-59152155D01*
X121593598Y-59092627D01*
X121584351Y-59067834D01*
X121579367Y-58998142D01*
X121612852Y-58936819D01*
X121674175Y-58903334D01*
X121700533Y-58900500D01*
X122125003Y-58900500D01*
X122192042Y-58920185D01*
G37*
%TD.AperFunction*%
%TA.AperFunction,Conductor*%
G36*
X41206482Y-50893292D02*
G01*
X41278890Y-51018708D01*
X41381292Y-51121110D01*
X41506708Y-51193518D01*
X41548764Y-51204787D01*
X41020283Y-51733268D01*
X41020283Y-51733269D01*
X41057567Y-51760358D01*
X41234562Y-51850542D01*
X41423477Y-51911924D01*
X41619679Y-51943000D01*
X41818321Y-51943000D01*
X42014520Y-51911924D01*
X42014523Y-51911924D01*
X42203437Y-51850542D01*
X42380432Y-51760358D01*
X42512614Y-51664322D01*
X42578420Y-51640842D01*
X42646474Y-51656667D01*
X42695169Y-51706773D01*
X42709500Y-51764640D01*
X42709500Y-54192939D01*
X42709499Y-54192943D01*
X42709499Y-54240061D01*
X42698831Y-54276390D01*
X42690334Y-54305328D01*
X42689813Y-54307100D01*
X42659033Y-54333770D01*
X42637010Y-54352853D01*
X42637008Y-54352853D01*
X42637008Y-54352854D01*
X42587738Y-54359937D01*
X42567852Y-54362797D01*
X42567851Y-54362796D01*
X42567850Y-54362797D01*
X42544220Y-54352005D01*
X42504296Y-54333772D01*
X42497818Y-54327740D01*
X40203383Y-52033305D01*
X40169898Y-51971982D01*
X40174882Y-51902290D01*
X40216754Y-51846357D01*
X40234761Y-51835143D01*
X40380694Y-51760787D01*
X40541464Y-51643981D01*
X40681981Y-51503464D01*
X40798787Y-51342694D01*
X40888599Y-51166428D01*
X40911402Y-51135044D01*
X41195212Y-50851233D01*
X41206482Y-50893292D01*
G37*
%TD.AperFunction*%
%TA.AperFunction,Conductor*%
G36*
X41261444Y-45893999D02*
G01*
X41300486Y-45939056D01*
X41304951Y-45947820D01*
X41429890Y-46119786D01*
X41580213Y-46270109D01*
X41752179Y-46395048D01*
X41752181Y-46395049D01*
X41752184Y-46395051D01*
X41941588Y-46491557D01*
X42143757Y-46557246D01*
X42353713Y-46590500D01*
X42353714Y-46590500D01*
X42566287Y-46590500D01*
X42571138Y-46590118D01*
X42571222Y-46591191D01*
X42635392Y-46599482D01*
X42688845Y-46644476D01*
X42709487Y-46711227D01*
X42709500Y-46713002D01*
X42709500Y-49597359D01*
X42689815Y-49664398D01*
X42637011Y-49710153D01*
X42567853Y-49720097D01*
X42512615Y-49697677D01*
X42380435Y-49601643D01*
X42203437Y-49511457D01*
X42014522Y-49450075D01*
X41818321Y-49419000D01*
X41619679Y-49419000D01*
X41423479Y-49450075D01*
X41423476Y-49450075D01*
X41234562Y-49511457D01*
X41057564Y-49601643D01*
X41020283Y-49628729D01*
X41020282Y-49628730D01*
X41548765Y-50157212D01*
X41506708Y-50168482D01*
X41381292Y-50240890D01*
X41278890Y-50343292D01*
X41206482Y-50468708D01*
X41195212Y-50510765D01*
X40911400Y-50226953D01*
X40888598Y-50195571D01*
X40798787Y-50019306D01*
X40681981Y-49858536D01*
X40556818Y-49733373D01*
X40523334Y-49672050D01*
X40520500Y-49645692D01*
X40520500Y-46525718D01*
X40540185Y-46458679D01*
X40588207Y-46415233D01*
X40627815Y-46395052D01*
X40627815Y-46395051D01*
X40627816Y-46395051D01*
X40768665Y-46292719D01*
X40799786Y-46270109D01*
X40799788Y-46270106D01*
X40799792Y-46270104D01*
X40950104Y-46119792D01*
X40950106Y-46119788D01*
X40950109Y-46119786D01*
X41075048Y-45947820D01*
X41075050Y-45947817D01*
X41075051Y-45947816D01*
X41079514Y-45939054D01*
X41127488Y-45888259D01*
X41195308Y-45871463D01*
X41261444Y-45893999D01*
G37*
%TD.AperFunction*%
%TA.AperFunction,Conductor*%
G36*
X109672176Y-35529570D02*
G01*
X109728109Y-35571442D01*
X109751315Y-35626354D01*
X109786934Y-35851247D01*
X109859897Y-36075802D01*
X109967087Y-36286174D01*
X110027338Y-36369104D01*
X110027340Y-36369105D01*
X110767037Y-35629408D01*
X110784075Y-35692993D01*
X110849901Y-35807007D01*
X110942993Y-35900099D01*
X111057007Y-35965925D01*
X111120590Y-35982962D01*
X110374280Y-36729271D01*
X110365105Y-36772947D01*
X110328739Y-36814615D01*
X110272490Y-36855482D01*
X110105485Y-37022487D01*
X110105485Y-37022488D01*
X110105483Y-37022490D01*
X110048017Y-37101585D01*
X109966657Y-37213566D01*
X109859433Y-37424003D01*
X109786446Y-37648631D01*
X109749500Y-37881902D01*
X109749500Y-38118097D01*
X109786447Y-38351369D01*
X109786447Y-38351372D01*
X109827450Y-38477564D01*
X109829445Y-38547405D01*
X109797200Y-38603563D01*
X102245584Y-46155181D01*
X102184261Y-46188666D01*
X102157903Y-46191500D01*
X99207097Y-46191500D01*
X99140058Y-46171815D01*
X99094303Y-46119011D01*
X99084359Y-46049853D01*
X99113384Y-45986297D01*
X99119416Y-45979819D01*
X100739027Y-44360208D01*
X109541165Y-35558068D01*
X109602484Y-35524586D01*
X109672176Y-35529570D01*
G37*
%TD.AperFunction*%
%TA.AperFunction,Conductor*%
G36*
X35606252Y-31206631D02*
G01*
X35616819Y-31216055D01*
X35638349Y-31237585D01*
X35638354Y-31237589D01*
X37381284Y-32980520D01*
X37381286Y-32980521D01*
X37381290Y-32980524D01*
X37502087Y-33050265D01*
X37518216Y-33059577D01*
X37670943Y-33100501D01*
X37670945Y-33100501D01*
X37836654Y-33100501D01*
X37836670Y-33100500D01*
X41449903Y-33100500D01*
X41516942Y-33120185D01*
X41537584Y-33136819D01*
X42613181Y-34212416D01*
X42646666Y-34273739D01*
X42649500Y-34300097D01*
X42649500Y-37163330D01*
X42649499Y-37163348D01*
X42649499Y-37329054D01*
X42649498Y-37329054D01*
X42690423Y-37481785D01*
X42719358Y-37531900D01*
X42719359Y-37531904D01*
X42719360Y-37531904D01*
X42769479Y-37618714D01*
X42769481Y-37618717D01*
X42888349Y-37737585D01*
X42888355Y-37737590D01*
X48292181Y-43141416D01*
X48325666Y-43202739D01*
X48328500Y-43229097D01*
X48328500Y-43923709D01*
X48308815Y-43990748D01*
X48256011Y-44036503D01*
X48186853Y-44046447D01*
X48148206Y-44034194D01*
X48058417Y-43988445D01*
X48058414Y-43988444D01*
X48058412Y-43988443D01*
X47856243Y-43922754D01*
X47856241Y-43922753D01*
X47856240Y-43922753D01*
X47694957Y-43897208D01*
X47646287Y-43889500D01*
X47433713Y-43889500D01*
X47385042Y-43897208D01*
X47223760Y-43922753D01*
X47021585Y-43988444D01*
X46832179Y-44084951D01*
X46660213Y-44209890D01*
X46509890Y-44360213D01*
X46384949Y-44532182D01*
X46380484Y-44540946D01*
X46332509Y-44591742D01*
X46264688Y-44608536D01*
X46198553Y-44585998D01*
X46159516Y-44540946D01*
X46155050Y-44532182D01*
X46030109Y-44360213D01*
X45879786Y-44209890D01*
X45707820Y-44084951D01*
X45518414Y-43988444D01*
X45518413Y-43988443D01*
X45518412Y-43988443D01*
X45316243Y-43922754D01*
X45316241Y-43922753D01*
X45316240Y-43922753D01*
X45154957Y-43897208D01*
X45106287Y-43889500D01*
X44893713Y-43889500D01*
X44845042Y-43897208D01*
X44683760Y-43922753D01*
X44481585Y-43988444D01*
X44292179Y-44084951D01*
X44120213Y-44209890D01*
X43969890Y-44360213D01*
X43844949Y-44532182D01*
X43840484Y-44540946D01*
X43792509Y-44591742D01*
X43724688Y-44608536D01*
X43658553Y-44585998D01*
X43619516Y-44540946D01*
X43615050Y-44532182D01*
X43490109Y-44360213D01*
X43339786Y-44209890D01*
X43167820Y-44084951D01*
X42978414Y-43988444D01*
X42978413Y-43988443D01*
X42978412Y-43988443D01*
X42776243Y-43922754D01*
X42776241Y-43922753D01*
X42776240Y-43922753D01*
X42614957Y-43897208D01*
X42566287Y-43889500D01*
X42353713Y-43889500D01*
X42305042Y-43897208D01*
X42143760Y-43922753D01*
X41941585Y-43988444D01*
X41752179Y-44084951D01*
X41580213Y-44209890D01*
X41429890Y-44360213D01*
X41304949Y-44532182D01*
X41300484Y-44540946D01*
X41252509Y-44591742D01*
X41184688Y-44608536D01*
X41118553Y-44585998D01*
X41079516Y-44540946D01*
X41075050Y-44532182D01*
X40950109Y-44360213D01*
X40799786Y-44209890D01*
X40627820Y-44084951D01*
X40438414Y-43988444D01*
X40438413Y-43988443D01*
X40438412Y-43988443D01*
X40236243Y-43922754D01*
X40236241Y-43922753D01*
X40236240Y-43922753D01*
X40074957Y-43897208D01*
X40026287Y-43889500D01*
X39813713Y-43889500D01*
X39765042Y-43897208D01*
X39603760Y-43922753D01*
X39401585Y-43988444D01*
X39212179Y-44084951D01*
X39040213Y-44209890D01*
X38889890Y-44360213D01*
X38764949Y-44532182D01*
X38760484Y-44540946D01*
X38712509Y-44591742D01*
X38644688Y-44608536D01*
X38578553Y-44585998D01*
X38539516Y-44540946D01*
X38535050Y-44532182D01*
X38410109Y-44360213D01*
X38259786Y-44209890D01*
X38087820Y-44084951D01*
X37898414Y-43988444D01*
X37898413Y-43988443D01*
X37898412Y-43988443D01*
X37696243Y-43922754D01*
X37696241Y-43922753D01*
X37696240Y-43922753D01*
X37534957Y-43897208D01*
X37486287Y-43889500D01*
X37273713Y-43889500D01*
X37225042Y-43897208D01*
X37063760Y-43922753D01*
X36861585Y-43988444D01*
X36672179Y-44084951D01*
X36500213Y-44209890D01*
X36349890Y-44360213D01*
X36224949Y-44532182D01*
X36220202Y-44541499D01*
X36172227Y-44592293D01*
X36104405Y-44609087D01*
X36038271Y-44586548D01*
X35999234Y-44541495D01*
X35994622Y-44532444D01*
X35869727Y-44360540D01*
X35869723Y-44360535D01*
X35719464Y-44210276D01*
X35719459Y-44210272D01*
X35547557Y-44085379D01*
X35358215Y-43988903D01*
X35156124Y-43923241D01*
X35090000Y-43912768D01*
X35090000Y-44806988D01*
X35032993Y-44774075D01*
X34905826Y-44740000D01*
X34774174Y-44740000D01*
X34647007Y-44774075D01*
X34590000Y-44806988D01*
X34590000Y-43912768D01*
X34589999Y-43912768D01*
X34523874Y-43923241D01*
X34451817Y-43946654D01*
X34381976Y-43948649D01*
X34322143Y-43912568D01*
X34291316Y-43849867D01*
X34289500Y-43828723D01*
X34289500Y-36457486D01*
X38824500Y-36457486D01*
X38824500Y-36642513D01*
X38853445Y-36825265D01*
X38910619Y-37001232D01*
X38910620Y-37001235D01*
X38961752Y-37101585D01*
X38994622Y-37166096D01*
X39103379Y-37315787D01*
X39234213Y-37446621D01*
X39238421Y-37449678D01*
X39238432Y-37449686D01*
X39281094Y-37505019D01*
X39287069Y-37574633D01*
X39254459Y-37636426D01*
X39238432Y-37650314D01*
X39234210Y-37653381D01*
X39103381Y-37784210D01*
X39103381Y-37784211D01*
X39103379Y-37784213D01*
X39056672Y-37848499D01*
X38994622Y-37933903D01*
X38910620Y-38098764D01*
X38910619Y-38098767D01*
X38853445Y-38274734D01*
X38824500Y-38457486D01*
X38824500Y-38642513D01*
X38853445Y-38825265D01*
X38910619Y-39001232D01*
X38910620Y-39001235D01*
X38976174Y-39129890D01*
X38994622Y-39166096D01*
X39103379Y-39315787D01*
X39234213Y-39446621D01*
X39238421Y-39449678D01*
X39238432Y-39449686D01*
X39281094Y-39505019D01*
X39287069Y-39574633D01*
X39254459Y-39636426D01*
X39238432Y-39650314D01*
X39234210Y-39653381D01*
X39103381Y-39784210D01*
X39103381Y-39784211D01*
X39103379Y-39784213D01*
X39090358Y-39802135D01*
X38994622Y-39933903D01*
X38910620Y-40098764D01*
X38910619Y-40098767D01*
X38853445Y-40274734D01*
X38824500Y-40457486D01*
X38824500Y-40642513D01*
X38853445Y-40825265D01*
X38910619Y-41001232D01*
X38910620Y-41001235D01*
X38987185Y-41151501D01*
X38994622Y-41166096D01*
X39103379Y-41315787D01*
X39234213Y-41446621D01*
X39383904Y-41555378D01*
X39464763Y-41596577D01*
X39548764Y-41639379D01*
X39548767Y-41639380D01*
X39636750Y-41667967D01*
X39724736Y-41696555D01*
X39907486Y-41725500D01*
X39907487Y-41725500D01*
X40092513Y-41725500D01*
X40092514Y-41725500D01*
X40275264Y-41696555D01*
X40451235Y-41639379D01*
X40616096Y-41555378D01*
X40765787Y-41446621D01*
X40896621Y-41315787D01*
X41005378Y-41166096D01*
X41089379Y-41001235D01*
X41146555Y-40825264D01*
X41175500Y-40642514D01*
X41175500Y-40457486D01*
X41146555Y-40274736D01*
X41089379Y-40098765D01*
X41089379Y-40098764D01*
X41005377Y-39933903D01*
X40896621Y-39784213D01*
X40765787Y-39653379D01*
X40761576Y-39650319D01*
X40718909Y-39594994D01*
X40712926Y-39525381D01*
X40745529Y-39463585D01*
X40761570Y-39449684D01*
X40765787Y-39446621D01*
X40896621Y-39315787D01*
X41005378Y-39166096D01*
X41089379Y-39001235D01*
X41146555Y-38825264D01*
X41175500Y-38642514D01*
X41175500Y-38457486D01*
X41146555Y-38274736D01*
X41115562Y-38179350D01*
X41089380Y-38098767D01*
X41089379Y-38098764D01*
X41033306Y-37988716D01*
X41005378Y-37933904D01*
X40896621Y-37784213D01*
X40765787Y-37653379D01*
X40761576Y-37650319D01*
X40718909Y-37594994D01*
X40712926Y-37525381D01*
X40745529Y-37463585D01*
X40761570Y-37449684D01*
X40765787Y-37446621D01*
X40896621Y-37315787D01*
X41005378Y-37166096D01*
X41089379Y-37001235D01*
X41146555Y-36825264D01*
X41175500Y-36642514D01*
X41175500Y-36457486D01*
X41146555Y-36274736D01*
X41093065Y-36110109D01*
X41089380Y-36098767D01*
X41089379Y-36098764D01*
X41039056Y-36000000D01*
X41005378Y-35933904D01*
X40921159Y-35817987D01*
X40897680Y-35752183D01*
X40913505Y-35684129D01*
X40947167Y-35645836D01*
X41032190Y-35582186D01*
X41118350Y-35467093D01*
X41118354Y-35467086D01*
X41168596Y-35332379D01*
X41168598Y-35332372D01*
X41174999Y-35272844D01*
X41175000Y-35272827D01*
X41175000Y-34800000D01*
X40315686Y-34800000D01*
X40320080Y-34795606D01*
X40372741Y-34704394D01*
X40400000Y-34602661D01*
X40400000Y-34497339D01*
X40372741Y-34395606D01*
X40320080Y-34304394D01*
X40315686Y-34300000D01*
X41175000Y-34300000D01*
X41175000Y-33827172D01*
X41174999Y-33827155D01*
X41168598Y-33767627D01*
X41168596Y-33767620D01*
X41118354Y-33632913D01*
X41118350Y-33632906D01*
X41032190Y-33517812D01*
X41032187Y-33517809D01*
X40917093Y-33431649D01*
X40917086Y-33431645D01*
X40782379Y-33381403D01*
X40782372Y-33381401D01*
X40722844Y-33375000D01*
X40250000Y-33375000D01*
X40250000Y-34234314D01*
X40245606Y-34229920D01*
X40154394Y-34177259D01*
X40052661Y-34150000D01*
X39947339Y-34150000D01*
X39845606Y-34177259D01*
X39754394Y-34229920D01*
X39750000Y-34234314D01*
X39750000Y-33375000D01*
X39277155Y-33375000D01*
X39217627Y-33381401D01*
X39217620Y-33381403D01*
X39082913Y-33431645D01*
X39082906Y-33431649D01*
X38967812Y-33517809D01*
X38967809Y-33517812D01*
X38881649Y-33632906D01*
X38881645Y-33632913D01*
X38831403Y-33767620D01*
X38831401Y-33767627D01*
X38825000Y-33827155D01*
X38825000Y-34300000D01*
X39684314Y-34300000D01*
X39679920Y-34304394D01*
X39627259Y-34395606D01*
X39600000Y-34497339D01*
X39600000Y-34602661D01*
X39627259Y-34704394D01*
X39679920Y-34795606D01*
X39684314Y-34800000D01*
X38825000Y-34800000D01*
X38825000Y-35272844D01*
X38831401Y-35332372D01*
X38831403Y-35332379D01*
X38881645Y-35467086D01*
X38881649Y-35467093D01*
X38967809Y-35582186D01*
X39052832Y-35645835D01*
X39094703Y-35701769D01*
X39099687Y-35771461D01*
X39078839Y-35817987D01*
X38994624Y-35933900D01*
X38910620Y-36098764D01*
X38910619Y-36098767D01*
X38853445Y-36274734D01*
X38824500Y-36457486D01*
X34289500Y-36457486D01*
X34289500Y-31451097D01*
X34298144Y-31421657D01*
X34304667Y-31391672D01*
X34308422Y-31386654D01*
X34309185Y-31384058D01*
X34325814Y-31363420D01*
X34355478Y-31333756D01*
X34416798Y-31300272D01*
X34481476Y-31303507D01*
X34523757Y-31317246D01*
X34733713Y-31350500D01*
X34733714Y-31350500D01*
X34946286Y-31350500D01*
X34946287Y-31350500D01*
X35156243Y-31317246D01*
X35358412Y-31251557D01*
X35472844Y-31193250D01*
X35541512Y-31180355D01*
X35606252Y-31206631D01*
G37*
%TD.AperFunction*%
%TD*%
M02*
